M48
;Layer_Color=9474304
;FILE_FORMAT=2:4
INCH,TZ
;TYPE=PLATED
T7F00S00C0.0394
;TYPE=NON_PLATED
%
G90
G05
T07
G00X30344Y19124
M15
G01X47470
M16
G00X30344Y21762
M15
G01X47470
M16
G00X30344Y24400
M15
G01X47470
M16
G00X30344Y27037
M15
G01X47470
M16
G00X30344Y29675
M15
G01X47470
M16
G00X6604Y29675
M15
G01X23730
M16
G00X6604Y27037
M15
G01X23730
M16
G00X6604Y24400
M15
G01X23730
M16
G00X6604Y21762
M15
G01X23730
M16
G00X6604Y19124
M15
G01X23730
M16
G00X6604Y32313
M15
G01X23730
M16
G00X6604Y34951
M15
G01X23730
M16
G00X30344Y34951
M15
G01X47470
M16
G00X30344Y32313
M15
G01X47470
M16
M17
M30
