G04*
G04 #@! TF.GenerationSoftware,Altium Limited,Altium Designer,20.1.14 (287)*
G04*
G04 Layer_Color=32768*
%FSLAX25Y25*%
%MOIN*%
G70*
G04*
G04 #@! TF.SameCoordinates,FB09635C-FFB3-414F-8314-2C795C5734A7*
G04*
G04*
G04 #@! TF.FilePolarity,Positive*
G04*
G01*
G75*
%ADD44C,0.00394*%
%ADD57C,0.00197*%
D44*
X426673Y75837D02*
X430610D01*
X428642Y73868D02*
Y77805D01*
X387106Y19783D02*
X391043D01*
X389075Y17815D02*
Y21752D01*
X360728Y19783D02*
X364665D01*
X362697Y17815D02*
Y21752D01*
X334350Y19783D02*
X338287D01*
X336319Y17815D02*
Y21752D01*
X307972Y19783D02*
X311910D01*
X309941Y17815D02*
Y21752D01*
X281594Y19783D02*
X285531D01*
X283563Y17815D02*
Y21752D01*
X255217Y19783D02*
X259154D01*
X257185Y17815D02*
Y21752D01*
X228839Y19783D02*
X232776D01*
X230807Y17815D02*
Y21752D01*
X202461Y19783D02*
X206398D01*
X204429Y17815D02*
Y21752D01*
X176083Y19783D02*
X180020D01*
X178051Y17815D02*
Y21752D01*
X149705Y19783D02*
X153642D01*
X151673Y17815D02*
Y21752D01*
X387106Y46161D02*
X391043D01*
X389075Y44193D02*
Y48130D01*
X360728Y46161D02*
X364665D01*
X362697Y44193D02*
Y48130D01*
X334350Y46161D02*
X338287D01*
X336319Y44193D02*
Y48130D01*
X307972Y46161D02*
X311910D01*
X309941Y44193D02*
Y48130D01*
X281594Y46161D02*
X285531D01*
X283563Y44193D02*
Y48130D01*
X255217Y46161D02*
X259154D01*
X257185Y44193D02*
Y48130D01*
X228839Y46161D02*
X232776D01*
X230807Y44193D02*
Y48130D01*
X202461Y46161D02*
X206398D01*
X204429Y44193D02*
Y48130D01*
X176083Y46161D02*
X180020D01*
X178051Y44193D02*
Y48130D01*
X149705Y46161D02*
X153642D01*
X151673Y44193D02*
Y48130D01*
X387106Y72539D02*
X391043D01*
X389075Y70571D02*
Y74508D01*
X360728Y72539D02*
X364665D01*
X362697Y70571D02*
Y74508D01*
X334350Y72539D02*
X338287D01*
X336319Y70571D02*
Y74508D01*
X307972Y72539D02*
X311910D01*
X309941Y70571D02*
Y74508D01*
X281594Y72539D02*
X285531D01*
X283563Y70571D02*
Y74508D01*
X255217Y72539D02*
X259154D01*
X257185Y70571D02*
Y74508D01*
X228839Y72539D02*
X232776D01*
X230807Y70571D02*
Y74508D01*
X202461Y72539D02*
X206398D01*
X204429Y70571D02*
Y74508D01*
X176083Y72539D02*
X180020D01*
X178051Y70571D02*
Y74508D01*
X149705Y72539D02*
X153642D01*
X151673Y70571D02*
Y74508D01*
X387106Y98917D02*
X391043D01*
X389075Y96949D02*
Y100886D01*
X360728Y98917D02*
X364665D01*
X362697Y96949D02*
Y100886D01*
X334350Y98917D02*
X338287D01*
X336319Y96949D02*
Y100886D01*
X307972Y98917D02*
X311910D01*
X309941Y96949D02*
Y100886D01*
X281594Y98917D02*
X285531D01*
X283563Y96949D02*
Y100886D01*
X255217Y98917D02*
X259154D01*
X257185Y96949D02*
Y100886D01*
X228839Y98917D02*
X232776D01*
X230807Y96949D02*
Y100886D01*
X202461Y98917D02*
X206398D01*
X204429Y96949D02*
Y100886D01*
X176083Y98917D02*
X180020D01*
X178051Y96949D02*
Y100886D01*
X149705Y98917D02*
X153642D01*
X151673Y96949D02*
Y100886D01*
X387106Y125295D02*
X391043D01*
X389075Y123327D02*
Y127264D01*
X360728Y125295D02*
X364665D01*
X362697Y123327D02*
Y127264D01*
X334350Y125295D02*
X338287D01*
X336319Y123327D02*
Y127264D01*
X307972Y125295D02*
X311910D01*
X309941Y123327D02*
Y127264D01*
X281594Y125295D02*
X285531D01*
X283563Y123327D02*
Y127264D01*
X255217Y125295D02*
X259154D01*
X257185Y123327D02*
Y127264D01*
X228839Y125295D02*
X232776D01*
X230807Y123327D02*
Y127264D01*
X202461Y125295D02*
X206398D01*
X204429Y123327D02*
Y127264D01*
X176083Y125295D02*
X180020D01*
X178051Y123327D02*
Y127264D01*
X149705Y125295D02*
X153642D01*
X151673Y123327D02*
Y127264D01*
X387106Y151673D02*
X391043D01*
X389075Y149705D02*
Y153642D01*
X360728Y151673D02*
X364665D01*
X362697Y149705D02*
Y153642D01*
X334350Y151673D02*
X338287D01*
X336319Y149705D02*
Y153642D01*
X307972Y151673D02*
X311910D01*
X309941Y149705D02*
Y153642D01*
X281594Y151673D02*
X285531D01*
X283563Y149705D02*
Y153642D01*
X255217Y151673D02*
X259154D01*
X257185Y149705D02*
Y153642D01*
X228839Y151673D02*
X232776D01*
X230807Y149705D02*
Y153642D01*
X202461Y151673D02*
X206398D01*
X204429Y149705D02*
Y153642D01*
X176083Y151673D02*
X180020D01*
X178051Y149705D02*
Y153642D01*
X149705Y151673D02*
X153642D01*
X151673Y149705D02*
Y153642D01*
X518996Y178051D02*
X522933D01*
X520965Y176083D02*
Y180020D01*
X492618Y178051D02*
X496555D01*
X494587Y176083D02*
Y180020D01*
X466240Y178051D02*
X470177D01*
X468209Y176083D02*
Y180020D01*
X439862Y178051D02*
X443799D01*
X441831Y176083D02*
Y180020D01*
X413484Y178051D02*
X417421D01*
X415453Y176083D02*
Y180020D01*
X387106Y178051D02*
X391043D01*
X389075Y176083D02*
Y180020D01*
X360728Y178051D02*
X364665D01*
X362697Y176083D02*
Y180020D01*
X334350Y178051D02*
X338287D01*
X336319Y176083D02*
Y180020D01*
X307972Y178051D02*
X311910D01*
X309941Y176083D02*
Y180020D01*
X281594Y178051D02*
X285531D01*
X283563Y176083D02*
Y180020D01*
X255217Y178051D02*
X259154D01*
X257185Y176083D02*
Y180020D01*
X228839Y178051D02*
X232776D01*
X230807Y176083D02*
Y180020D01*
X202461Y178051D02*
X206398D01*
X204429Y176083D02*
Y180020D01*
X176083Y178051D02*
X180020D01*
X178051Y176083D02*
Y180020D01*
X149705Y178051D02*
X153642D01*
X151673Y176083D02*
Y180020D01*
X123327Y178051D02*
X127264D01*
X125295Y176083D02*
Y180020D01*
X96949Y178051D02*
X100886D01*
X98917Y176083D02*
Y180020D01*
X70571Y178051D02*
X74508D01*
X72539Y176083D02*
Y180020D01*
X44193Y178051D02*
X48130D01*
X46161Y176083D02*
Y180020D01*
X17815Y178051D02*
X21752D01*
X19783Y176083D02*
Y180020D01*
X518996Y204429D02*
X522933D01*
X520965Y202461D02*
Y206398D01*
X492618Y204429D02*
X496555D01*
X494587Y202461D02*
Y206398D01*
X466240Y204429D02*
X470177D01*
X468209Y202461D02*
Y206398D01*
X439862Y204429D02*
X443799D01*
X441831Y202461D02*
Y206398D01*
X413484Y204429D02*
X417421D01*
X415453Y202461D02*
Y206398D01*
X387106Y204429D02*
X391043D01*
X389075Y202461D02*
Y206398D01*
X360728Y204429D02*
X364665D01*
X362697Y202461D02*
Y206398D01*
X334350Y204429D02*
X338287D01*
X336319Y202461D02*
Y206398D01*
X307972Y204429D02*
X311910D01*
X309941Y202461D02*
Y206398D01*
X281594Y204429D02*
X285531D01*
X283563Y202461D02*
Y206398D01*
X255217Y204429D02*
X259154D01*
X257185Y202461D02*
Y206398D01*
X228839Y204429D02*
X232776D01*
X230807Y202461D02*
Y206398D01*
X202461Y204429D02*
X206398D01*
X204429Y202461D02*
Y206398D01*
X176083Y204429D02*
X180020D01*
X178051Y202461D02*
Y206398D01*
X149705Y204429D02*
X153642D01*
X151673Y202461D02*
Y206398D01*
X123327Y204429D02*
X127264D01*
X125295Y202461D02*
Y206398D01*
X96949Y204429D02*
X100886D01*
X98917Y202461D02*
Y206398D01*
X70571Y204429D02*
X74508D01*
X72539Y202461D02*
Y206398D01*
X44193Y204429D02*
X48130D01*
X46161Y202461D02*
Y206398D01*
X17815Y204429D02*
X21752D01*
X19783Y202461D02*
Y206398D01*
X518996Y230807D02*
X522933D01*
X520965Y228839D02*
Y232776D01*
X492618Y230807D02*
X496555D01*
X494587Y228839D02*
Y232776D01*
X466240Y230807D02*
X470177D01*
X468209Y228839D02*
Y232776D01*
X439862Y230807D02*
X443799D01*
X441831Y228839D02*
Y232776D01*
X413484Y230807D02*
X417421D01*
X415453Y228839D02*
Y232776D01*
X387106Y230807D02*
X391043D01*
X389075Y228839D02*
Y232776D01*
X360728Y230807D02*
X364665D01*
X362697Y228839D02*
Y232776D01*
X334350Y230807D02*
X338287D01*
X336319Y228839D02*
Y232776D01*
X307972Y230807D02*
X311910D01*
X309941Y228839D02*
Y232776D01*
X281594Y230807D02*
X285531D01*
X283563Y228839D02*
Y232776D01*
X255217Y230807D02*
X259154D01*
X257185Y228839D02*
Y232776D01*
X228839Y230807D02*
X232776D01*
X230807Y228839D02*
Y232776D01*
X202461Y230807D02*
X206398D01*
X204429Y228839D02*
Y232776D01*
X176083Y230807D02*
X180020D01*
X178051Y228839D02*
Y232776D01*
X149705Y230807D02*
X153642D01*
X151673Y228839D02*
Y232776D01*
X123327Y230807D02*
X127264D01*
X125295Y228839D02*
Y232776D01*
X96949Y230807D02*
X100886D01*
X98917Y228839D02*
Y232776D01*
X70571Y230807D02*
X74508D01*
X72539Y228839D02*
Y232776D01*
X44193Y230807D02*
X48130D01*
X46161Y228839D02*
Y232776D01*
X17815Y230807D02*
X21752D01*
X19783Y228839D02*
Y232776D01*
X518996Y257185D02*
X522933D01*
X520965Y255217D02*
Y259154D01*
X492618Y257185D02*
X496555D01*
X494587Y255217D02*
Y259154D01*
X466240Y257185D02*
X470177D01*
X468209Y255217D02*
Y259154D01*
X439862Y257185D02*
X443799D01*
X441831Y255217D02*
Y259154D01*
X413484Y257185D02*
X417421D01*
X415453Y255217D02*
Y259154D01*
X387106Y257185D02*
X391043D01*
X389075Y255217D02*
Y259154D01*
X360728Y257185D02*
X364665D01*
X362697Y255217D02*
Y259154D01*
X334350Y257185D02*
X338287D01*
X336319Y255217D02*
Y259154D01*
X307972Y257185D02*
X311910D01*
X309941Y255217D02*
Y259154D01*
X281594Y257185D02*
X285531D01*
X283563Y255217D02*
Y259154D01*
X255217Y257185D02*
X259154D01*
X257185Y255217D02*
Y259154D01*
X228839Y257185D02*
X232776D01*
X230807Y255217D02*
Y259154D01*
X202461Y257185D02*
X206398D01*
X204429Y255217D02*
Y259154D01*
X176083Y257185D02*
X180020D01*
X178051Y255217D02*
Y259154D01*
X149705Y257185D02*
X153642D01*
X151673Y255217D02*
Y259154D01*
X123327Y257185D02*
X127264D01*
X125295Y255217D02*
Y259154D01*
X96949Y257185D02*
X100886D01*
X98917Y255217D02*
Y259154D01*
X70571Y257185D02*
X74508D01*
X72539Y255217D02*
Y259154D01*
X44193Y257185D02*
X48130D01*
X46161Y255217D02*
Y259154D01*
X17815Y257185D02*
X21752D01*
X19783Y255217D02*
Y259154D01*
X518996Y283563D02*
X522933D01*
X520965Y281594D02*
Y285531D01*
X492618Y283563D02*
X496555D01*
X494587Y281594D02*
Y285531D01*
X466240Y283563D02*
X470177D01*
X468209Y281594D02*
Y285531D01*
X439862Y283563D02*
X443799D01*
X441831Y281594D02*
Y285531D01*
X413484Y283563D02*
X417421D01*
X415453Y281594D02*
Y285531D01*
X387106Y283563D02*
X391043D01*
X389075Y281594D02*
Y285531D01*
X360728Y283563D02*
X364665D01*
X362697Y281594D02*
Y285531D01*
X334350Y283563D02*
X338287D01*
X336319Y281594D02*
Y285531D01*
X307972Y283563D02*
X311910D01*
X309941Y281594D02*
Y285531D01*
X281594Y283563D02*
X285531D01*
X283563Y281594D02*
Y285531D01*
X255217Y283563D02*
X259154D01*
X257185Y281594D02*
Y285531D01*
X228839Y283563D02*
X232776D01*
X230807Y281594D02*
Y285531D01*
X202461Y283563D02*
X206398D01*
X204429Y281594D02*
Y285531D01*
X176083Y283563D02*
X180020D01*
X178051Y281594D02*
Y285531D01*
X149705Y283563D02*
X153642D01*
X151673Y281594D02*
Y285531D01*
X123327Y283563D02*
X127264D01*
X125295Y281594D02*
Y285531D01*
X96949Y283563D02*
X100886D01*
X98917Y281594D02*
Y285531D01*
X70571Y283563D02*
X74508D01*
X72539Y281594D02*
Y285531D01*
X44193Y283563D02*
X48130D01*
X46161Y281594D02*
Y285531D01*
X17815Y283563D02*
X21752D01*
X19783Y281594D02*
Y285531D01*
X518996Y309941D02*
X522933D01*
X520965Y307972D02*
Y311909D01*
X492618Y309941D02*
X496555D01*
X494587Y307972D02*
Y311909D01*
X466240Y309941D02*
X470177D01*
X468209Y307972D02*
Y311909D01*
X439862Y309941D02*
X443799D01*
X441831Y307972D02*
Y311909D01*
X413484Y309941D02*
X417421D01*
X415453Y307972D02*
Y311909D01*
X387106Y309941D02*
X391043D01*
X389075Y307972D02*
Y311909D01*
X360728Y309941D02*
X364665D01*
X362697Y307972D02*
Y311909D01*
X334350Y309941D02*
X338287D01*
X336319Y307972D02*
Y311909D01*
X307972Y309941D02*
X311910D01*
X309941Y307972D02*
Y311909D01*
X281594Y309941D02*
X285531D01*
X283563Y307972D02*
Y311909D01*
X255217Y309941D02*
X259154D01*
X257185Y307972D02*
Y311909D01*
X228839Y309941D02*
X232776D01*
X230807Y307972D02*
Y311909D01*
X202461Y309941D02*
X206398D01*
X204429Y307972D02*
Y311909D01*
X176083Y309941D02*
X180020D01*
X178051Y307972D02*
Y311909D01*
X149705Y309941D02*
X153642D01*
X151673Y307972D02*
Y311909D01*
X123327Y309941D02*
X127264D01*
X125295Y307972D02*
Y311909D01*
X96949Y309941D02*
X100886D01*
X98917Y307972D02*
Y311909D01*
X70571Y309941D02*
X74508D01*
X72539Y307972D02*
Y311909D01*
X44193Y309941D02*
X48130D01*
X46161Y307972D02*
Y311909D01*
X17815Y309941D02*
X21752D01*
X19783Y307972D02*
Y311909D01*
X518996Y336319D02*
X522933D01*
X520965Y334350D02*
Y338287D01*
X492618Y336319D02*
X496555D01*
X494587Y334350D02*
Y338287D01*
X466240Y336319D02*
X470177D01*
X468209Y334350D02*
Y338287D01*
X439862Y336319D02*
X443799D01*
X441831Y334350D02*
Y338287D01*
X413484Y336319D02*
X417421D01*
X415453Y334350D02*
Y338287D01*
X387106Y336319D02*
X391043D01*
X389075Y334350D02*
Y338287D01*
X360728Y336319D02*
X364665D01*
X362697Y334350D02*
Y338287D01*
X334350Y336319D02*
X338287D01*
X336319Y334350D02*
Y338287D01*
X307972Y336319D02*
X311910D01*
X309941Y334350D02*
Y338287D01*
X281594Y336319D02*
X285531D01*
X283563Y334350D02*
Y338287D01*
X255217Y336319D02*
X259154D01*
X257185Y334350D02*
Y338287D01*
X228839Y336319D02*
X232776D01*
X230807Y334350D02*
Y338287D01*
X202461Y336319D02*
X206398D01*
X204429Y334350D02*
Y338287D01*
X176083Y336319D02*
X180020D01*
X178051Y334350D02*
Y338287D01*
X149705Y336319D02*
X153642D01*
X151673Y334350D02*
Y338287D01*
X123327Y336319D02*
X127264D01*
X125295Y334350D02*
Y338287D01*
X96949Y336319D02*
X100886D01*
X98917Y334350D02*
Y338287D01*
X70571Y336319D02*
X74508D01*
X72539Y334350D02*
Y338287D01*
X44193Y336319D02*
X48130D01*
X46161Y334350D02*
Y338287D01*
X17815Y336319D02*
X21752D01*
X19783Y334350D02*
Y338287D01*
X518996Y362697D02*
X522933D01*
X520965Y360728D02*
Y364665D01*
X492618Y362697D02*
X496555D01*
X494587Y360728D02*
Y364665D01*
X466240Y362697D02*
X470177D01*
X468209Y360728D02*
Y364665D01*
X439862Y362697D02*
X443799D01*
X441831Y360728D02*
Y364665D01*
X413484Y362697D02*
X417421D01*
X415453Y360728D02*
Y364665D01*
X387106Y362697D02*
X391043D01*
X389075Y360728D02*
Y364665D01*
X360728Y362697D02*
X364665D01*
X362697Y360728D02*
Y364665D01*
X334350Y362697D02*
X338287D01*
X336319Y360728D02*
Y364665D01*
X307972Y362697D02*
X311910D01*
X309941Y360728D02*
Y364665D01*
X281594Y362697D02*
X285531D01*
X283563Y360728D02*
Y364665D01*
X255217Y362697D02*
X259154D01*
X257185Y360728D02*
Y364665D01*
X228839Y362697D02*
X232776D01*
X230807Y360728D02*
Y364665D01*
X202461Y362697D02*
X206398D01*
X204429Y360728D02*
Y364665D01*
X176083Y362697D02*
X180020D01*
X178051Y360728D02*
Y364665D01*
X149705Y362697D02*
X153642D01*
X151673Y360728D02*
Y364665D01*
X123327Y362697D02*
X127264D01*
X125295Y360728D02*
Y364665D01*
X96949Y362697D02*
X100886D01*
X98917Y360728D02*
Y364665D01*
X70571Y362697D02*
X74508D01*
X72539Y360728D02*
Y364665D01*
X44193Y362697D02*
X48130D01*
X46161Y360728D02*
Y364665D01*
X17815Y362697D02*
X21752D01*
X19783Y360728D02*
Y364665D01*
X38295Y128593D02*
X41839D01*
X40067Y126821D02*
Y130364D01*
Y146604D02*
Y150148D01*
X38295Y148376D02*
X41839D01*
X40067Y136713D02*
Y140256D01*
X38295Y138484D02*
X41839D01*
X40067Y107037D02*
Y110581D01*
X38295Y108809D02*
X41839D01*
X40067Y116929D02*
Y120472D01*
X38295Y118701D02*
X41839D01*
X87057D02*
X90994D01*
X89026Y116732D02*
Y120669D01*
X103543Y154971D02*
X107480D01*
X105512Y153002D02*
Y156939D01*
X113779Y82431D02*
X117323D01*
X115551Y80660D02*
Y84203D01*
X123327Y145079D02*
X127264D01*
X125295Y143110D02*
Y147047D01*
X120276Y65945D02*
X123819D01*
X122047Y64173D02*
Y67716D01*
X103740Y65945D02*
X107283D01*
X105512Y64173D02*
Y67716D01*
X87254Y65945D02*
X90797D01*
X89026Y64173D02*
Y67716D01*
X426673Y102215D02*
X430610D01*
X428642Y100246D02*
Y104183D01*
X426673Y92323D02*
X430610D01*
X428642Y90354D02*
Y94291D01*
X80659Y82431D02*
X84203D01*
X82431Y80660D02*
Y84203D01*
X466240Y115403D02*
X470177D01*
X468209Y113435D02*
Y117372D01*
X451722Y116732D02*
Y120669D01*
X449754Y118701D02*
X453691D01*
X463041Y132776D02*
Y136713D01*
X461073Y134744D02*
X465010D01*
D57*
X421752Y69340D02*
Y82333D01*
X435532Y69340D02*
Y82333D01*
X421752D02*
X435532D01*
X421752Y69340D02*
X435532D01*
X376083Y9547D02*
X402067D01*
X376083Y30020D02*
X402067D01*
Y9547D02*
Y30020D01*
X376083Y9547D02*
Y30020D01*
X349705Y9547D02*
X375689D01*
X349705Y30020D02*
X375689D01*
Y9547D02*
Y30020D01*
X349705Y9547D02*
Y30020D01*
X323327Y9547D02*
X349311D01*
X323327Y30020D02*
X349311D01*
Y9547D02*
Y30020D01*
X323327Y9547D02*
Y30020D01*
X296949Y9547D02*
X322933D01*
X296949Y30020D02*
X322933D01*
Y9547D02*
Y30020D01*
X296949Y9547D02*
Y30020D01*
X270571Y9547D02*
X296555D01*
X270571Y30020D02*
X296555D01*
Y9547D02*
Y30020D01*
X270571Y9547D02*
Y30020D01*
X244193Y9547D02*
X270177D01*
X244193Y30020D02*
X270177D01*
Y9547D02*
Y30020D01*
X244193Y9547D02*
Y30020D01*
X217815Y9547D02*
X243799D01*
X217815Y30020D02*
X243799D01*
Y9547D02*
Y30020D01*
X217815Y9547D02*
Y30020D01*
X191437Y9547D02*
X217421D01*
X191437Y30020D02*
X217421D01*
Y9547D02*
Y30020D01*
X191437Y9547D02*
Y30020D01*
X165059Y9547D02*
X191043D01*
X165059Y30020D02*
X191043D01*
Y9547D02*
Y30020D01*
X165059Y9547D02*
Y30020D01*
X138681Y9547D02*
X164665D01*
X138681Y30020D02*
X164665D01*
Y9547D02*
Y30020D01*
X138681Y9547D02*
Y30020D01*
X376083Y35925D02*
X402067D01*
X376083Y56398D02*
X402067D01*
Y35925D02*
Y56398D01*
X376083Y35925D02*
Y56398D01*
X349705Y35925D02*
X375689D01*
X349705Y56398D02*
X375689D01*
Y35925D02*
Y56398D01*
X349705Y35925D02*
Y56398D01*
X323327Y35925D02*
X349311D01*
X323327Y56398D02*
X349311D01*
Y35925D02*
Y56398D01*
X323327Y35925D02*
Y56398D01*
X296949Y35925D02*
X322933D01*
X296949Y56398D02*
X322933D01*
Y35925D02*
Y56398D01*
X296949Y35925D02*
Y56398D01*
X270571Y35925D02*
X296555D01*
X270571Y56398D02*
X296555D01*
Y35925D02*
Y56398D01*
X270571Y35925D02*
Y56398D01*
X244193Y35925D02*
X270177D01*
X244193Y56398D02*
X270177D01*
Y35925D02*
Y56398D01*
X244193Y35925D02*
Y56398D01*
X217815Y35925D02*
X243799D01*
X217815Y56398D02*
X243799D01*
Y35925D02*
Y56398D01*
X217815Y35925D02*
Y56398D01*
X191437Y35925D02*
X217421D01*
X191437Y56398D02*
X217421D01*
Y35925D02*
Y56398D01*
X191437Y35925D02*
Y56398D01*
X165059Y35925D02*
X191043D01*
X165059Y56398D02*
X191043D01*
Y35925D02*
Y56398D01*
X165059Y35925D02*
Y56398D01*
X138681Y35925D02*
X164665D01*
X138681Y56398D02*
X164665D01*
Y35925D02*
Y56398D01*
X138681Y35925D02*
Y56398D01*
X376083Y62303D02*
X402067D01*
X376083Y82776D02*
X402067D01*
Y62303D02*
Y82776D01*
X376083Y62303D02*
Y82776D01*
X349705Y62303D02*
X375689D01*
X349705Y82776D02*
X375689D01*
Y62303D02*
Y82776D01*
X349705Y62303D02*
Y82776D01*
X323327Y62303D02*
X349311D01*
X323327Y82776D02*
X349311D01*
Y62303D02*
Y82776D01*
X323327Y62303D02*
Y82776D01*
X296949Y62303D02*
X322933D01*
X296949Y82776D02*
X322933D01*
Y62303D02*
Y82776D01*
X296949Y62303D02*
Y82776D01*
X270571Y62303D02*
X296555D01*
X270571Y82776D02*
X296555D01*
Y62303D02*
Y82776D01*
X270571Y62303D02*
Y82776D01*
X244193Y62303D02*
X270177D01*
X244193Y82776D02*
X270177D01*
Y62303D02*
Y82776D01*
X244193Y62303D02*
Y82776D01*
X217815Y62303D02*
X243799D01*
X217815Y82776D02*
X243799D01*
Y62303D02*
Y82776D01*
X217815Y62303D02*
Y82776D01*
X191437Y62303D02*
X217421D01*
X191437Y82776D02*
X217421D01*
Y62303D02*
Y82776D01*
X191437Y62303D02*
Y82776D01*
X165059Y62303D02*
X191043D01*
X165059Y82776D02*
X191043D01*
Y62303D02*
Y82776D01*
X165059Y62303D02*
Y82776D01*
X138681Y62303D02*
X164665D01*
X138681Y82776D02*
X164665D01*
Y62303D02*
Y82776D01*
X138681Y62303D02*
Y82776D01*
X376083Y88681D02*
X402067D01*
X376083Y109153D02*
X402067D01*
Y88681D02*
Y109153D01*
X376083Y88681D02*
Y109153D01*
X349705Y88681D02*
X375689D01*
X349705Y109153D02*
X375689D01*
Y88681D02*
Y109153D01*
X349705Y88681D02*
Y109153D01*
X323327Y88681D02*
X349311D01*
X323327Y109153D02*
X349311D01*
Y88681D02*
Y109153D01*
X323327Y88681D02*
Y109153D01*
X296949Y88681D02*
X322933D01*
X296949Y109153D02*
X322933D01*
Y88681D02*
Y109153D01*
X296949Y88681D02*
Y109153D01*
X270571Y88681D02*
X296555D01*
X270571Y109153D02*
X296555D01*
Y88681D02*
Y109153D01*
X270571Y88681D02*
Y109153D01*
X244193Y88681D02*
X270177D01*
X244193Y109153D02*
X270177D01*
Y88681D02*
Y109153D01*
X244193Y88681D02*
Y109153D01*
X217815Y88681D02*
X243799D01*
X217815Y109153D02*
X243799D01*
Y88681D02*
Y109153D01*
X217815Y88681D02*
Y109153D01*
X191437Y88681D02*
X217421D01*
X191437Y109153D02*
X217421D01*
Y88681D02*
Y109153D01*
X191437Y88681D02*
Y109153D01*
X165059Y88681D02*
X191043D01*
X165059Y109153D02*
X191043D01*
Y88681D02*
Y109153D01*
X165059Y88681D02*
Y109153D01*
X138681Y88681D02*
X164665D01*
X138681Y109153D02*
X164665D01*
Y88681D02*
Y109153D01*
X138681Y88681D02*
Y109153D01*
X376083Y115059D02*
X402067D01*
X376083Y135531D02*
X402067D01*
Y115059D02*
Y135531D01*
X376083Y115059D02*
Y135531D01*
X349705Y115059D02*
X375689D01*
X349705Y135531D02*
X375689D01*
Y115059D02*
Y135531D01*
X349705Y115059D02*
Y135531D01*
X323327Y115059D02*
X349311D01*
X323327Y135531D02*
X349311D01*
Y115059D02*
Y135531D01*
X323327Y115059D02*
Y135531D01*
X296949Y115059D02*
X322933D01*
X296949Y135531D02*
X322933D01*
Y115059D02*
Y135531D01*
X296949Y115059D02*
Y135531D01*
X270571Y115059D02*
X296555D01*
X270571Y135531D02*
X296555D01*
Y115059D02*
Y135531D01*
X270571Y115059D02*
Y135531D01*
X244193Y115059D02*
X270177D01*
X244193Y135531D02*
X270177D01*
Y115059D02*
Y135531D01*
X244193Y115059D02*
Y135531D01*
X217815Y115059D02*
X243799D01*
X217815Y135531D02*
X243799D01*
Y115059D02*
Y135531D01*
X217815Y115059D02*
Y135531D01*
X191437Y115059D02*
X217421D01*
X191437Y135531D02*
X217421D01*
Y115059D02*
Y135531D01*
X191437Y115059D02*
Y135531D01*
X165059Y115059D02*
X191043D01*
X165059Y135531D02*
X191043D01*
Y115059D02*
Y135531D01*
X165059Y115059D02*
Y135531D01*
X138681Y115059D02*
X164665D01*
X138681Y135531D02*
X164665D01*
Y115059D02*
Y135531D01*
X138681Y115059D02*
Y135531D01*
X376083Y141437D02*
X402067D01*
X376083Y161909D02*
X402067D01*
Y141437D02*
Y161909D01*
X376083Y141437D02*
Y161909D01*
X349705Y141437D02*
X375689D01*
X349705Y161909D02*
X375689D01*
Y141437D02*
Y161909D01*
X349705Y141437D02*
Y161909D01*
X323327Y141437D02*
X349311D01*
X323327Y161909D02*
X349311D01*
Y141437D02*
Y161909D01*
X323327Y141437D02*
Y161909D01*
X296949Y141437D02*
X322933D01*
X296949Y161909D02*
X322933D01*
Y141437D02*
Y161909D01*
X296949Y141437D02*
Y161909D01*
X270571Y141437D02*
X296555D01*
X270571Y161909D02*
X296555D01*
Y141437D02*
Y161909D01*
X270571Y141437D02*
Y161909D01*
X244193Y141437D02*
X270177D01*
X244193Y161909D02*
X270177D01*
Y141437D02*
Y161909D01*
X244193Y141437D02*
Y161909D01*
X217815Y141437D02*
X243799D01*
X217815Y161909D02*
X243799D01*
Y141437D02*
Y161909D01*
X217815Y141437D02*
Y161909D01*
X191437Y141437D02*
X217421D01*
X191437Y161909D02*
X217421D01*
Y141437D02*
Y161909D01*
X191437Y141437D02*
Y161909D01*
X165059Y141437D02*
X191043D01*
X165059Y161909D02*
X191043D01*
Y141437D02*
Y161909D01*
X165059Y141437D02*
Y161909D01*
X138681Y141437D02*
X164665D01*
X138681Y161909D02*
X164665D01*
Y141437D02*
Y161909D01*
X138681Y141437D02*
Y161909D01*
X507972Y167815D02*
X533957D01*
X507972Y188287D02*
X533957D01*
Y167815D02*
Y188287D01*
X507972Y167815D02*
Y188287D01*
X481595Y167815D02*
X507579D01*
X481595Y188287D02*
X507579D01*
Y167815D02*
Y188287D01*
X481595Y167815D02*
Y188287D01*
X455217Y167815D02*
X481201D01*
X455217Y188287D02*
X481201D01*
Y167815D02*
Y188287D01*
X455217Y167815D02*
Y188287D01*
X428839Y167815D02*
X454823D01*
X428839Y188287D02*
X454823D01*
Y167815D02*
Y188287D01*
X428839Y167815D02*
Y188287D01*
X402461Y167815D02*
X428445D01*
X402461Y188287D02*
X428445D01*
Y167815D02*
Y188287D01*
X402461Y167815D02*
Y188287D01*
X376083Y167815D02*
X402067D01*
X376083Y188287D02*
X402067D01*
Y167815D02*
Y188287D01*
X376083Y167815D02*
Y188287D01*
X349705Y167815D02*
X375689D01*
X349705Y188287D02*
X375689D01*
Y167815D02*
Y188287D01*
X349705Y167815D02*
Y188287D01*
X323327Y167815D02*
X349311D01*
X323327Y188287D02*
X349311D01*
Y167815D02*
Y188287D01*
X323327Y167815D02*
Y188287D01*
X296949Y167815D02*
X322933D01*
X296949Y188287D02*
X322933D01*
Y167815D02*
Y188287D01*
X296949Y167815D02*
Y188287D01*
X270571Y167815D02*
X296555D01*
X270571Y188287D02*
X296555D01*
Y167815D02*
Y188287D01*
X270571Y167815D02*
Y188287D01*
X244193Y167815D02*
X270177D01*
X244193Y188287D02*
X270177D01*
Y167815D02*
Y188287D01*
X244193Y167815D02*
Y188287D01*
X217815Y167815D02*
X243799D01*
X217815Y188287D02*
X243799D01*
Y167815D02*
Y188287D01*
X217815Y167815D02*
Y188287D01*
X191437Y167815D02*
X217421D01*
X191437Y188287D02*
X217421D01*
Y167815D02*
Y188287D01*
X191437Y167815D02*
Y188287D01*
X165059Y167815D02*
X191043D01*
X165059Y188287D02*
X191043D01*
Y167815D02*
Y188287D01*
X165059Y167815D02*
Y188287D01*
X138681Y167815D02*
X164665D01*
X138681Y188287D02*
X164665D01*
Y167815D02*
Y188287D01*
X138681Y167815D02*
Y188287D01*
X112303Y167815D02*
X138287D01*
X112303Y188287D02*
X138287D01*
Y167815D02*
Y188287D01*
X112303Y167815D02*
Y188287D01*
X85925Y167815D02*
X111909D01*
X85925Y188287D02*
X111909D01*
Y167815D02*
Y188287D01*
X85925Y167815D02*
Y188287D01*
X59547Y167815D02*
X85532D01*
X59547Y188287D02*
X85532D01*
Y167815D02*
Y188287D01*
X59547Y167815D02*
Y188287D01*
X33169Y167815D02*
X59153D01*
X33169Y188287D02*
X59153D01*
Y167815D02*
Y188287D01*
X33169Y167815D02*
Y188287D01*
X6791Y167815D02*
X32776D01*
X6791Y188287D02*
X32776D01*
Y167815D02*
Y188287D01*
X6791Y167815D02*
Y188287D01*
X507972Y194193D02*
X533957D01*
X507972Y214665D02*
X533957D01*
Y194193D02*
Y214665D01*
X507972Y194193D02*
Y214665D01*
X481595Y194193D02*
X507579D01*
X481595Y214665D02*
X507579D01*
Y194193D02*
Y214665D01*
X481595Y194193D02*
Y214665D01*
X455217Y194193D02*
X481201D01*
X455217Y214665D02*
X481201D01*
Y194193D02*
Y214665D01*
X455217Y194193D02*
Y214665D01*
X428839Y194193D02*
X454823D01*
X428839Y214665D02*
X454823D01*
Y194193D02*
Y214665D01*
X428839Y194193D02*
Y214665D01*
X402461Y194193D02*
X428445D01*
X402461Y214665D02*
X428445D01*
Y194193D02*
Y214665D01*
X402461Y194193D02*
Y214665D01*
X376083Y194193D02*
X402067D01*
X376083Y214665D02*
X402067D01*
Y194193D02*
Y214665D01*
X376083Y194193D02*
Y214665D01*
X349705Y194193D02*
X375689D01*
X349705Y214665D02*
X375689D01*
Y194193D02*
Y214665D01*
X349705Y194193D02*
Y214665D01*
X323327Y194193D02*
X349311D01*
X323327Y214665D02*
X349311D01*
Y194193D02*
Y214665D01*
X323327Y194193D02*
Y214665D01*
X296949Y194193D02*
X322933D01*
X296949Y214665D02*
X322933D01*
Y194193D02*
Y214665D01*
X296949Y194193D02*
Y214665D01*
X270571Y194193D02*
X296555D01*
X270571Y214665D02*
X296555D01*
Y194193D02*
Y214665D01*
X270571Y194193D02*
Y214665D01*
X244193Y194193D02*
X270177D01*
X244193Y214665D02*
X270177D01*
Y194193D02*
Y214665D01*
X244193Y194193D02*
Y214665D01*
X217815Y194193D02*
X243799D01*
X217815Y214665D02*
X243799D01*
Y194193D02*
Y214665D01*
X217815Y194193D02*
Y214665D01*
X191437Y194193D02*
X217421D01*
X191437Y214665D02*
X217421D01*
Y194193D02*
Y214665D01*
X191437Y194193D02*
Y214665D01*
X165059Y194193D02*
X191043D01*
X165059Y214665D02*
X191043D01*
Y194193D02*
Y214665D01*
X165059Y194193D02*
Y214665D01*
X138681Y194193D02*
X164665D01*
X138681Y214665D02*
X164665D01*
Y194193D02*
Y214665D01*
X138681Y194193D02*
Y214665D01*
X112303Y194193D02*
X138287D01*
X112303Y214665D02*
X138287D01*
Y194193D02*
Y214665D01*
X112303Y194193D02*
Y214665D01*
X85925Y194193D02*
X111909D01*
X85925Y214665D02*
X111909D01*
Y194193D02*
Y214665D01*
X85925Y194193D02*
Y214665D01*
X59547Y194193D02*
X85532D01*
X59547Y214665D02*
X85532D01*
Y194193D02*
Y214665D01*
X59547Y194193D02*
Y214665D01*
X33169Y194193D02*
X59153D01*
X33169Y214665D02*
X59153D01*
Y194193D02*
Y214665D01*
X33169Y194193D02*
Y214665D01*
X6791Y194193D02*
X32776D01*
X6791Y214665D02*
X32776D01*
Y194193D02*
Y214665D01*
X6791Y194193D02*
Y214665D01*
X507972Y220571D02*
X533957D01*
X507972Y241043D02*
X533957D01*
Y220571D02*
Y241043D01*
X507972Y220571D02*
Y241043D01*
X481595Y220571D02*
X507579D01*
X481595Y241043D02*
X507579D01*
Y220571D02*
Y241043D01*
X481595Y220571D02*
Y241043D01*
X455217Y220571D02*
X481201D01*
X455217Y241043D02*
X481201D01*
Y220571D02*
Y241043D01*
X455217Y220571D02*
Y241043D01*
X428839Y220571D02*
X454823D01*
X428839Y241043D02*
X454823D01*
Y220571D02*
Y241043D01*
X428839Y220571D02*
Y241043D01*
X402461Y220571D02*
X428445D01*
X402461Y241043D02*
X428445D01*
Y220571D02*
Y241043D01*
X402461Y220571D02*
Y241043D01*
X376083Y220571D02*
X402067D01*
X376083Y241043D02*
X402067D01*
Y220571D02*
Y241043D01*
X376083Y220571D02*
Y241043D01*
X349705Y220571D02*
X375689D01*
X349705Y241043D02*
X375689D01*
Y220571D02*
Y241043D01*
X349705Y220571D02*
Y241043D01*
X323327Y220571D02*
X349311D01*
X323327Y241043D02*
X349311D01*
Y220571D02*
Y241043D01*
X323327Y220571D02*
Y241043D01*
X296949Y220571D02*
X322933D01*
X296949Y241043D02*
X322933D01*
Y220571D02*
Y241043D01*
X296949Y220571D02*
Y241043D01*
X270571Y220571D02*
X296555D01*
X270571Y241043D02*
X296555D01*
Y220571D02*
Y241043D01*
X270571Y220571D02*
Y241043D01*
X244193Y220571D02*
X270177D01*
X244193Y241043D02*
X270177D01*
Y220571D02*
Y241043D01*
X244193Y220571D02*
Y241043D01*
X217815Y220571D02*
X243799D01*
X217815Y241043D02*
X243799D01*
Y220571D02*
Y241043D01*
X217815Y220571D02*
Y241043D01*
X191437Y220571D02*
X217421D01*
X191437Y241043D02*
X217421D01*
Y220571D02*
Y241043D01*
X191437Y220571D02*
Y241043D01*
X165059Y220571D02*
X191043D01*
X165059Y241043D02*
X191043D01*
Y220571D02*
Y241043D01*
X165059Y220571D02*
Y241043D01*
X138681Y220571D02*
X164665D01*
X138681Y241043D02*
X164665D01*
Y220571D02*
Y241043D01*
X138681Y220571D02*
Y241043D01*
X112303Y220571D02*
X138287D01*
X112303Y241043D02*
X138287D01*
Y220571D02*
Y241043D01*
X112303Y220571D02*
Y241043D01*
X85925Y220571D02*
X111909D01*
X85925Y241043D02*
X111909D01*
Y220571D02*
Y241043D01*
X85925Y220571D02*
Y241043D01*
X59547Y220571D02*
X85532D01*
X59547Y241043D02*
X85532D01*
Y220571D02*
Y241043D01*
X59547Y220571D02*
Y241043D01*
X33169Y220571D02*
X59153D01*
X33169Y241043D02*
X59153D01*
Y220571D02*
Y241043D01*
X33169Y220571D02*
Y241043D01*
X6791Y220571D02*
X32776D01*
X6791Y241043D02*
X32776D01*
Y220571D02*
Y241043D01*
X6791Y220571D02*
Y241043D01*
X507972Y246949D02*
X533957D01*
X507972Y267421D02*
X533957D01*
Y246949D02*
Y267421D01*
X507972Y246949D02*
Y267421D01*
X481595Y246949D02*
X507579D01*
X481595Y267421D02*
X507579D01*
Y246949D02*
Y267421D01*
X481595Y246949D02*
Y267421D01*
X455217Y246949D02*
X481201D01*
X455217Y267421D02*
X481201D01*
Y246949D02*
Y267421D01*
X455217Y246949D02*
Y267421D01*
X428839Y246949D02*
X454823D01*
X428839Y267421D02*
X454823D01*
Y246949D02*
Y267421D01*
X428839Y246949D02*
Y267421D01*
X402461Y246949D02*
X428445D01*
X402461Y267421D02*
X428445D01*
Y246949D02*
Y267421D01*
X402461Y246949D02*
Y267421D01*
X376083Y246949D02*
X402067D01*
X376083Y267421D02*
X402067D01*
Y246949D02*
Y267421D01*
X376083Y246949D02*
Y267421D01*
X349705Y246949D02*
X375689D01*
X349705Y267421D02*
X375689D01*
Y246949D02*
Y267421D01*
X349705Y246949D02*
Y267421D01*
X323327Y246949D02*
X349311D01*
X323327Y267421D02*
X349311D01*
Y246949D02*
Y267421D01*
X323327Y246949D02*
Y267421D01*
X296949Y246949D02*
X322933D01*
X296949Y267421D02*
X322933D01*
Y246949D02*
Y267421D01*
X296949Y246949D02*
Y267421D01*
X270571Y246949D02*
X296555D01*
X270571Y267421D02*
X296555D01*
Y246949D02*
Y267421D01*
X270571Y246949D02*
Y267421D01*
X244193Y246949D02*
X270177D01*
X244193Y267421D02*
X270177D01*
Y246949D02*
Y267421D01*
X244193Y246949D02*
Y267421D01*
X217815Y246949D02*
X243799D01*
X217815Y267421D02*
X243799D01*
Y246949D02*
Y267421D01*
X217815Y246949D02*
Y267421D01*
X191437Y246949D02*
X217421D01*
X191437Y267421D02*
X217421D01*
Y246949D02*
Y267421D01*
X191437Y246949D02*
Y267421D01*
X165059Y246949D02*
X191043D01*
X165059Y267421D02*
X191043D01*
Y246949D02*
Y267421D01*
X165059Y246949D02*
Y267421D01*
X138681Y246949D02*
X164665D01*
X138681Y267421D02*
X164665D01*
Y246949D02*
Y267421D01*
X138681Y246949D02*
Y267421D01*
X112303Y246949D02*
X138287D01*
X112303Y267421D02*
X138287D01*
Y246949D02*
Y267421D01*
X112303Y246949D02*
Y267421D01*
X85925Y246949D02*
X111909D01*
X85925Y267421D02*
X111909D01*
Y246949D02*
Y267421D01*
X85925Y246949D02*
Y267421D01*
X59547Y246949D02*
X85532D01*
X59547Y267421D02*
X85532D01*
Y246949D02*
Y267421D01*
X59547Y246949D02*
Y267421D01*
X33169Y246949D02*
X59153D01*
X33169Y267421D02*
X59153D01*
Y246949D02*
Y267421D01*
X33169Y246949D02*
Y267421D01*
X6791Y246949D02*
X32776D01*
X6791Y267421D02*
X32776D01*
Y246949D02*
Y267421D01*
X6791Y246949D02*
Y267421D01*
X507972Y273327D02*
X533957D01*
X507972Y293799D02*
X533957D01*
Y273327D02*
Y293799D01*
X507972Y273327D02*
Y293799D01*
X481595Y273327D02*
X507579D01*
X481595Y293799D02*
X507579D01*
Y273327D02*
Y293799D01*
X481595Y273327D02*
Y293799D01*
X455217Y273327D02*
X481201D01*
X455217Y293799D02*
X481201D01*
Y273327D02*
Y293799D01*
X455217Y273327D02*
Y293799D01*
X428839Y273327D02*
X454823D01*
X428839Y293799D02*
X454823D01*
Y273327D02*
Y293799D01*
X428839Y273327D02*
Y293799D01*
X402461Y273327D02*
X428445D01*
X402461Y293799D02*
X428445D01*
Y273327D02*
Y293799D01*
X402461Y273327D02*
Y293799D01*
X376083Y273327D02*
X402067D01*
X376083Y293799D02*
X402067D01*
Y273327D02*
Y293799D01*
X376083Y273327D02*
Y293799D01*
X349705Y273327D02*
X375689D01*
X349705Y293799D02*
X375689D01*
Y273327D02*
Y293799D01*
X349705Y273327D02*
Y293799D01*
X323327Y273327D02*
X349311D01*
X323327Y293799D02*
X349311D01*
Y273327D02*
Y293799D01*
X323327Y273327D02*
Y293799D01*
X296949Y273327D02*
X322933D01*
X296949Y293799D02*
X322933D01*
Y273327D02*
Y293799D01*
X296949Y273327D02*
Y293799D01*
X270571Y273327D02*
X296555D01*
X270571Y293799D02*
X296555D01*
Y273327D02*
Y293799D01*
X270571Y273327D02*
Y293799D01*
X244193Y273327D02*
X270177D01*
X244193Y293799D02*
X270177D01*
Y273327D02*
Y293799D01*
X244193Y273327D02*
Y293799D01*
X217815Y273327D02*
X243799D01*
X217815Y293799D02*
X243799D01*
Y273327D02*
Y293799D01*
X217815Y273327D02*
Y293799D01*
X191437Y273327D02*
X217421D01*
X191437Y293799D02*
X217421D01*
Y273327D02*
Y293799D01*
X191437Y273327D02*
Y293799D01*
X165059Y273327D02*
X191043D01*
X165059Y293799D02*
X191043D01*
Y273327D02*
Y293799D01*
X165059Y273327D02*
Y293799D01*
X138681Y273327D02*
X164665D01*
X138681Y293799D02*
X164665D01*
Y273327D02*
Y293799D01*
X138681Y273327D02*
Y293799D01*
X112303Y273327D02*
X138287D01*
X112303Y293799D02*
X138287D01*
Y273327D02*
Y293799D01*
X112303Y273327D02*
Y293799D01*
X85925Y273327D02*
X111909D01*
X85925Y293799D02*
X111909D01*
Y273327D02*
Y293799D01*
X85925Y273327D02*
Y293799D01*
X59547Y273327D02*
X85532D01*
X59547Y293799D02*
X85532D01*
Y273327D02*
Y293799D01*
X59547Y273327D02*
Y293799D01*
X33169Y273327D02*
X59153D01*
X33169Y293799D02*
X59153D01*
Y273327D02*
Y293799D01*
X33169Y273327D02*
Y293799D01*
X6791Y273327D02*
X32776D01*
X6791Y293799D02*
X32776D01*
Y273327D02*
Y293799D01*
X6791Y273327D02*
Y293799D01*
X507972Y299705D02*
X533957D01*
X507972Y320177D02*
X533957D01*
Y299705D02*
Y320177D01*
X507972Y299705D02*
Y320177D01*
X481595Y299705D02*
X507579D01*
X481595Y320177D02*
X507579D01*
Y299705D02*
Y320177D01*
X481595Y299705D02*
Y320177D01*
X455217Y299705D02*
X481201D01*
X455217Y320177D02*
X481201D01*
Y299705D02*
Y320177D01*
X455217Y299705D02*
Y320177D01*
X428839Y299705D02*
X454823D01*
X428839Y320177D02*
X454823D01*
Y299705D02*
Y320177D01*
X428839Y299705D02*
Y320177D01*
X402461Y299705D02*
X428445D01*
X402461Y320177D02*
X428445D01*
Y299705D02*
Y320177D01*
X402461Y299705D02*
Y320177D01*
X376083Y299705D02*
X402067D01*
X376083Y320177D02*
X402067D01*
Y299705D02*
Y320177D01*
X376083Y299705D02*
Y320177D01*
X349705Y299705D02*
X375689D01*
X349705Y320177D02*
X375689D01*
Y299705D02*
Y320177D01*
X349705Y299705D02*
Y320177D01*
X323327Y299705D02*
X349311D01*
X323327Y320177D02*
X349311D01*
Y299705D02*
Y320177D01*
X323327Y299705D02*
Y320177D01*
X296949Y299705D02*
X322933D01*
X296949Y320177D02*
X322933D01*
Y299705D02*
Y320177D01*
X296949Y299705D02*
Y320177D01*
X270571Y299705D02*
X296555D01*
X270571Y320177D02*
X296555D01*
Y299705D02*
Y320177D01*
X270571Y299705D02*
Y320177D01*
X244193Y299705D02*
X270177D01*
X244193Y320177D02*
X270177D01*
Y299705D02*
Y320177D01*
X244193Y299705D02*
Y320177D01*
X217815Y299705D02*
X243799D01*
X217815Y320177D02*
X243799D01*
Y299705D02*
Y320177D01*
X217815Y299705D02*
Y320177D01*
X191437Y299705D02*
X217421D01*
X191437Y320177D02*
X217421D01*
Y299705D02*
Y320177D01*
X191437Y299705D02*
Y320177D01*
X165059Y299705D02*
X191043D01*
X165059Y320177D02*
X191043D01*
Y299705D02*
Y320177D01*
X165059Y299705D02*
Y320177D01*
X138681Y299705D02*
X164665D01*
X138681Y320177D02*
X164665D01*
Y299705D02*
Y320177D01*
X138681Y299705D02*
Y320177D01*
X112303Y299705D02*
X138287D01*
X112303Y320177D02*
X138287D01*
Y299705D02*
Y320177D01*
X112303Y299705D02*
Y320177D01*
X85925Y299705D02*
X111909D01*
X85925Y320177D02*
X111909D01*
Y299705D02*
Y320177D01*
X85925Y299705D02*
Y320177D01*
X59547Y299705D02*
X85532D01*
X59547Y320177D02*
X85532D01*
Y299705D02*
Y320177D01*
X59547Y299705D02*
Y320177D01*
X33169Y299705D02*
X59153D01*
X33169Y320177D02*
X59153D01*
Y299705D02*
Y320177D01*
X33169Y299705D02*
Y320177D01*
X6791Y299705D02*
X32776D01*
X6791Y320177D02*
X32776D01*
Y299705D02*
Y320177D01*
X6791Y299705D02*
Y320177D01*
X507972Y326083D02*
X533957D01*
X507972Y346555D02*
X533957D01*
Y326083D02*
Y346555D01*
X507972Y326083D02*
Y346555D01*
X481595Y326083D02*
X507579D01*
X481595Y346555D02*
X507579D01*
Y326083D02*
Y346555D01*
X481595Y326083D02*
Y346555D01*
X455217Y326083D02*
X481201D01*
X455217Y346555D02*
X481201D01*
Y326083D02*
Y346555D01*
X455217Y326083D02*
Y346555D01*
X428839Y326083D02*
X454823D01*
X428839Y346555D02*
X454823D01*
Y326083D02*
Y346555D01*
X428839Y326083D02*
Y346555D01*
X402461Y326083D02*
X428445D01*
X402461Y346555D02*
X428445D01*
Y326083D02*
Y346555D01*
X402461Y326083D02*
Y346555D01*
X376083Y326083D02*
X402067D01*
X376083Y346555D02*
X402067D01*
Y326083D02*
Y346555D01*
X376083Y326083D02*
Y346555D01*
X349705Y326083D02*
X375689D01*
X349705Y346555D02*
X375689D01*
Y326083D02*
Y346555D01*
X349705Y326083D02*
Y346555D01*
X323327Y326083D02*
X349311D01*
X323327Y346555D02*
X349311D01*
Y326083D02*
Y346555D01*
X323327Y326083D02*
Y346555D01*
X296949Y326083D02*
X322933D01*
X296949Y346555D02*
X322933D01*
Y326083D02*
Y346555D01*
X296949Y326083D02*
Y346555D01*
X270571Y326083D02*
X296555D01*
X270571Y346555D02*
X296555D01*
Y326083D02*
Y346555D01*
X270571Y326083D02*
Y346555D01*
X244193Y326083D02*
X270177D01*
X244193Y346555D02*
X270177D01*
Y326083D02*
Y346555D01*
X244193Y326083D02*
Y346555D01*
X217815Y326083D02*
X243799D01*
X217815Y346555D02*
X243799D01*
Y326083D02*
Y346555D01*
X217815Y326083D02*
Y346555D01*
X191437Y326083D02*
X217421D01*
X191437Y346555D02*
X217421D01*
Y326083D02*
Y346555D01*
X191437Y326083D02*
Y346555D01*
X165059Y326083D02*
X191043D01*
X165059Y346555D02*
X191043D01*
Y326083D02*
Y346555D01*
X165059Y326083D02*
Y346555D01*
X138681Y326083D02*
X164665D01*
X138681Y346555D02*
X164665D01*
Y326083D02*
Y346555D01*
X138681Y326083D02*
Y346555D01*
X112303Y326083D02*
X138287D01*
X112303Y346555D02*
X138287D01*
Y326083D02*
Y346555D01*
X112303Y326083D02*
Y346555D01*
X85925Y326083D02*
X111909D01*
X85925Y346555D02*
X111909D01*
Y326083D02*
Y346555D01*
X85925Y326083D02*
Y346555D01*
X59547Y326083D02*
X85532D01*
X59547Y346555D02*
X85532D01*
Y326083D02*
Y346555D01*
X59547Y326083D02*
Y346555D01*
X33169Y326083D02*
X59153D01*
X33169Y346555D02*
X59153D01*
Y326083D02*
Y346555D01*
X33169Y326083D02*
Y346555D01*
X6791Y326083D02*
X32776D01*
X6791Y346555D02*
X32776D01*
Y326083D02*
Y346555D01*
X6791Y326083D02*
Y346555D01*
X507972Y352461D02*
X533957D01*
X507972Y372933D02*
X533957D01*
Y352461D02*
Y372933D01*
X507972Y352461D02*
Y372933D01*
X481595Y352461D02*
X507579D01*
X481595Y372933D02*
X507579D01*
Y352461D02*
Y372933D01*
X481595Y352461D02*
Y372933D01*
X455217Y352461D02*
X481201D01*
X455217Y372933D02*
X481201D01*
Y352461D02*
Y372933D01*
X455217Y352461D02*
Y372933D01*
X428839Y352461D02*
X454823D01*
X428839Y372933D02*
X454823D01*
Y352461D02*
Y372933D01*
X428839Y352461D02*
Y372933D01*
X402461Y352461D02*
X428445D01*
X402461Y372933D02*
X428445D01*
Y352461D02*
Y372933D01*
X402461Y352461D02*
Y372933D01*
X376083Y352461D02*
X402067D01*
X376083Y372933D02*
X402067D01*
Y352461D02*
Y372933D01*
X376083Y352461D02*
Y372933D01*
X349705Y352461D02*
X375689D01*
X349705Y372933D02*
X375689D01*
Y352461D02*
Y372933D01*
X349705Y352461D02*
Y372933D01*
X323327Y352461D02*
X349311D01*
X323327Y372933D02*
X349311D01*
Y352461D02*
Y372933D01*
X323327Y352461D02*
Y372933D01*
X296949Y352461D02*
X322933D01*
X296949Y372933D02*
X322933D01*
Y352461D02*
Y372933D01*
X296949Y352461D02*
Y372933D01*
X270571Y352461D02*
X296555D01*
X270571Y372933D02*
X296555D01*
Y352461D02*
Y372933D01*
X270571Y352461D02*
Y372933D01*
X244193Y352461D02*
X270177D01*
X244193Y372933D02*
X270177D01*
Y352461D02*
Y372933D01*
X244193Y352461D02*
Y372933D01*
X217815Y352461D02*
X243799D01*
X217815Y372933D02*
X243799D01*
Y352461D02*
Y372933D01*
X217815Y352461D02*
Y372933D01*
X191437Y352461D02*
X217421D01*
X191437Y372933D02*
X217421D01*
Y352461D02*
Y372933D01*
X191437Y352461D02*
Y372933D01*
X165059Y352461D02*
X191043D01*
X165059Y372933D02*
X191043D01*
Y352461D02*
Y372933D01*
X165059Y352461D02*
Y372933D01*
X138681Y352461D02*
X164665D01*
X138681Y372933D02*
X164665D01*
Y352461D02*
Y372933D01*
X138681Y352461D02*
Y372933D01*
X112303Y352461D02*
X138287D01*
X112303Y372933D02*
X138287D01*
Y352461D02*
Y372933D01*
X112303Y352461D02*
Y372933D01*
X85925Y352461D02*
X111909D01*
X85925Y372933D02*
X111909D01*
Y352461D02*
Y372933D01*
X85925Y352461D02*
Y372933D01*
X59547Y352461D02*
X85532D01*
X59547Y372933D02*
X85532D01*
Y352461D02*
Y372933D01*
X59547Y352461D02*
Y372933D01*
X33169Y352461D02*
X59153D01*
X33169Y372933D02*
X59153D01*
Y352461D02*
Y372933D01*
X33169Y352461D02*
Y372933D01*
X6791Y352461D02*
X32776D01*
X6791Y372933D02*
X32776D01*
Y352461D02*
Y372933D01*
X6791Y352461D02*
Y372933D01*
X47547Y124655D02*
Y132529D01*
X32587Y124655D02*
Y132529D01*
Y124655D02*
X47547D01*
X32587Y132529D02*
X47547D01*
X32587Y144439D02*
X47547D01*
X32587Y152313D02*
X47547D01*
Y144439D02*
Y152313D01*
X32587Y144439D02*
Y152313D01*
Y134547D02*
X47547D01*
X32587Y142421D02*
X47547D01*
Y134547D02*
Y142421D01*
X32587Y134547D02*
Y142421D01*
Y104872D02*
X47547D01*
X32587Y112746D02*
X47547D01*
Y104872D02*
Y112746D01*
X32587Y104872D02*
Y112746D01*
Y114764D02*
X47547D01*
X32587Y122638D02*
X47547D01*
Y114764D02*
Y122638D01*
X32587Y114764D02*
Y122638D01*
X61073Y90748D02*
Y146653D01*
X116978Y90748D02*
Y146653D01*
X61073D02*
X116978D01*
X61073Y90748D02*
X116978D01*
X97047Y149852D02*
Y160089D01*
X113976Y149852D02*
Y160089D01*
X97047D02*
X113976D01*
X97047Y149852D02*
X113976D01*
X123228Y78297D02*
Y86565D01*
X107874Y78297D02*
Y86565D01*
Y78297D02*
X123228D01*
X107874Y86565D02*
X123228D01*
X116831Y139961D02*
Y150197D01*
X133760Y139961D02*
Y150197D01*
X116831D02*
X133760D01*
X116831Y139961D02*
X133760D01*
X114567Y62008D02*
Y69882D01*
X129528Y62008D02*
Y69882D01*
X114567D02*
X129528D01*
X114567Y62008D02*
X129528D01*
X98032D02*
Y69882D01*
X112992Y62008D02*
Y69882D01*
X98032D02*
X112992D01*
X98032Y62008D02*
X112992D01*
X81545D02*
Y69882D01*
X96506Y62008D02*
Y69882D01*
X81545D02*
X96506D01*
X81545Y62008D02*
X96506D01*
X437106Y97097D02*
Y107333D01*
X420177Y97097D02*
Y107333D01*
Y97097D02*
X437106D01*
X420177Y107333D02*
X437106D01*
X420177Y87205D02*
Y97441D01*
X437106Y87205D02*
Y97441D01*
X420177D02*
X437106D01*
X420177Y87205D02*
X437106D01*
X74754Y78297D02*
Y86565D01*
X90108Y78297D02*
Y86565D01*
X74754D02*
X90108D01*
X74754Y78297D02*
X90108D01*
X461713Y108711D02*
Y122097D01*
X474705Y108711D02*
Y122097D01*
X461713Y108711D02*
X474705D01*
X461713Y122097D02*
X474705D01*
X445029Y125197D02*
X458415D01*
X445029Y112205D02*
X458415D01*
X445029D02*
Y125197D01*
X458415Y112205D02*
Y125197D01*
X456348Y128248D02*
X469734D01*
X456348Y141240D02*
X469734D01*
Y128248D02*
Y141240D01*
X456348Y128248D02*
Y141240D01*
M02*
