G04*
G04 #@! TF.GenerationSoftware,Altium Limited,Altium Designer,20.1.14 (287)*
G04*
G04 Layer_Physical_Order=2*
G04 Layer_Color=36540*
%FSLAX25Y25*%
%MOIN*%
G70*
G04*
G04 #@! TF.SameCoordinates,FB09635C-FFB3-414F-8314-2C795C5734A7*
G04*
G04*
G04 #@! TF.FilePolarity,Positive*
G04*
G01*
G75*
%ADD46C,0.04134*%
%ADD47R,0.05906X0.05906*%
%ADD51R,0.05906X0.05906*%
%ADD53C,0.03937*%
G36*
X534630Y138128D02*
X397305Y803D01*
X138128D01*
X803Y138128D01*
Y377150D01*
X534630D01*
Y138128D01*
D02*
G37*
%LPC*%
G36*
X283563Y372071D02*
X282844Y371976D01*
X282173Y371699D01*
X281597Y371257D01*
X281156Y370681D01*
X280878Y370011D01*
X280783Y369291D01*
X280878Y368572D01*
X281156Y367901D01*
X281597Y367326D01*
X282173Y366884D01*
X282844Y366606D01*
X283563Y366512D01*
X284282Y366606D01*
X284953Y366884D01*
X285528Y367326D01*
X285970Y367901D01*
X286248Y368572D01*
X286343Y369291D01*
X286248Y370011D01*
X285970Y370681D01*
X285528Y371257D01*
X284953Y371699D01*
X284282Y371976D01*
X283563Y372071D01*
D02*
G37*
G36*
X19783D02*
X19064Y371976D01*
X18394Y371699D01*
X17818Y371257D01*
X17376Y370681D01*
X17098Y370011D01*
X17004Y369291D01*
X17098Y368572D01*
X17376Y367901D01*
X17818Y367326D01*
X18394Y366884D01*
X19064Y366606D01*
X19783Y366512D01*
X20503Y366606D01*
X21173Y366884D01*
X21749Y367326D01*
X22191Y367901D01*
X22468Y368572D01*
X22563Y369291D01*
X22468Y370011D01*
X22191Y370681D01*
X21749Y371257D01*
X21173Y371699D01*
X20503Y371976D01*
X19783Y372071D01*
D02*
G37*
G36*
Y365476D02*
X19064Y365382D01*
X18394Y365104D01*
X17818Y364662D01*
X17376Y364087D01*
X17098Y363416D01*
X17004Y362697D01*
X17098Y361977D01*
X17376Y361307D01*
X17818Y360731D01*
X18394Y360290D01*
X19064Y360012D01*
X19783Y359917D01*
X20503Y360012D01*
X21173Y360290D01*
X21749Y360731D01*
X22191Y361307D01*
X22468Y361977D01*
X22563Y362697D01*
X22468Y363416D01*
X22191Y364087D01*
X21749Y364662D01*
X21173Y365104D01*
X20503Y365382D01*
X19783Y365476D01*
D02*
G37*
G36*
X520965Y366013D02*
X520106Y365900D01*
X519307Y365568D01*
X518620Y365041D01*
X518093Y364355D01*
X517762Y363555D01*
X517649Y362697D01*
X517762Y361839D01*
X518093Y361039D01*
X518620Y360352D01*
X519307Y359825D01*
X520106Y359494D01*
X520965Y359381D01*
X521823Y359494D01*
X522622Y359825D01*
X523309Y360352D01*
X523836Y361039D01*
X524167Y361839D01*
X524280Y362697D01*
X524167Y363555D01*
X523836Y364355D01*
X523309Y365041D01*
X522622Y365568D01*
X521823Y365900D01*
X520965Y366013D01*
D02*
G37*
G36*
Y352288D02*
X520245Y352193D01*
X519575Y351915D01*
X518999Y351473D01*
X518557Y350898D01*
X518280Y350227D01*
X518185Y349508D01*
X518280Y348788D01*
X518557Y348118D01*
X518999Y347542D01*
X519575Y347101D01*
X520245Y346823D01*
X520965Y346728D01*
X521684Y346823D01*
X522354Y347101D01*
X522930Y347542D01*
X523372Y348118D01*
X523650Y348788D01*
X523744Y349508D01*
X523650Y350227D01*
X523372Y350898D01*
X522930Y351473D01*
X522354Y351915D01*
X521684Y352193D01*
X520965Y352288D01*
D02*
G37*
G36*
X494587D02*
X493867Y352193D01*
X493197Y351915D01*
X492621Y351473D01*
X492179Y350898D01*
X491902Y350227D01*
X491807Y349508D01*
X491902Y348788D01*
X492179Y348118D01*
X492621Y347542D01*
X493197Y347101D01*
X493867Y346823D01*
X494587Y346728D01*
X495306Y346823D01*
X495976Y347101D01*
X496552Y347542D01*
X496994Y348118D01*
X497272Y348788D01*
X497366Y349508D01*
X497272Y350227D01*
X496994Y350898D01*
X496552Y351473D01*
X495976Y351915D01*
X495306Y352193D01*
X494587Y352288D01*
D02*
G37*
G36*
X283563D02*
X282844Y352193D01*
X282173Y351915D01*
X281597Y351473D01*
X281156Y350898D01*
X280878Y350227D01*
X280783Y349508D01*
X280878Y348788D01*
X281156Y348118D01*
X281597Y347542D01*
X282173Y347101D01*
X282844Y346823D01*
X283563Y346728D01*
X284282Y346823D01*
X284953Y347101D01*
X285528Y347542D01*
X285970Y348118D01*
X286248Y348788D01*
X286343Y349508D01*
X286248Y350227D01*
X285970Y350898D01*
X285528Y351473D01*
X284953Y351915D01*
X284282Y352193D01*
X283563Y352288D01*
D02*
G37*
G36*
X257185D02*
X256466Y352193D01*
X255795Y351915D01*
X255220Y351473D01*
X254778Y350898D01*
X254500Y350227D01*
X254405Y349508D01*
X254500Y348788D01*
X254778Y348118D01*
X255220Y347542D01*
X255795Y347101D01*
X256466Y346823D01*
X257185Y346728D01*
X257905Y346823D01*
X258575Y347101D01*
X259151Y347542D01*
X259592Y348118D01*
X259870Y348788D01*
X259965Y349508D01*
X259870Y350227D01*
X259592Y350898D01*
X259151Y351473D01*
X258575Y351915D01*
X257905Y352193D01*
X257185Y352288D01*
D02*
G37*
G36*
X46161D02*
X45442Y352193D01*
X44772Y351915D01*
X44196Y351473D01*
X43754Y350898D01*
X43477Y350227D01*
X43382Y349508D01*
X43477Y348788D01*
X43754Y348118D01*
X44196Y347542D01*
X44772Y347101D01*
X45442Y346823D01*
X46161Y346728D01*
X46881Y346823D01*
X47551Y347101D01*
X48127Y347542D01*
X48569Y348118D01*
X48846Y348788D01*
X48941Y349508D01*
X48846Y350227D01*
X48569Y350898D01*
X48127Y351473D01*
X47551Y351915D01*
X46881Y352193D01*
X46161Y352288D01*
D02*
G37*
G36*
X19783D02*
X19064Y352193D01*
X18394Y351915D01*
X17818Y351473D01*
X17376Y350898D01*
X17098Y350227D01*
X17004Y349508D01*
X17098Y348788D01*
X17376Y348118D01*
X17818Y347542D01*
X18394Y347101D01*
X19064Y346823D01*
X19783Y346728D01*
X20503Y346823D01*
X21173Y347101D01*
X21749Y347542D01*
X22191Y348118D01*
X22468Y348788D01*
X22563Y349508D01*
X22468Y350227D01*
X22191Y350898D01*
X21749Y351473D01*
X21173Y351915D01*
X20503Y352193D01*
X19783Y352288D01*
D02*
G37*
G36*
X475197Y352784D02*
X302953D01*
X302105Y352672D01*
X301315Y352345D01*
X300636Y351824D01*
X300116Y351146D01*
X299788Y350356D01*
X299677Y349508D01*
X299788Y348660D01*
X300116Y347870D01*
X300636Y347191D01*
X301315Y346671D01*
X302105Y346343D01*
X302953Y346232D01*
X475197D01*
X476045Y346343D01*
X476835Y346671D01*
X477513Y347191D01*
X478034Y347870D01*
X478361Y348660D01*
X478473Y349508D01*
X478361Y350356D01*
X478034Y351146D01*
X477513Y351824D01*
X476835Y352345D01*
X476045Y352672D01*
X475197Y352784D01*
D02*
G37*
G36*
X237795D02*
X65551D01*
X64703Y352672D01*
X63913Y352345D01*
X63235Y351824D01*
X62714Y351146D01*
X62387Y350356D01*
X62275Y349508D01*
X62387Y348660D01*
X62714Y347870D01*
X63235Y347191D01*
X63913Y346671D01*
X64703Y346343D01*
X65551Y346232D01*
X237795D01*
X238643Y346343D01*
X239433Y346671D01*
X240112Y347191D01*
X240632Y347870D01*
X240960Y348660D01*
X241071Y349508D01*
X240960Y350356D01*
X240632Y351146D01*
X240112Y351824D01*
X239433Y352345D01*
X238643Y352672D01*
X237795Y352784D01*
D02*
G37*
G36*
X19783Y339099D02*
X19064Y339004D01*
X18394Y338726D01*
X17818Y338284D01*
X17376Y337709D01*
X17098Y337038D01*
X17004Y336319D01*
X17098Y335599D01*
X17376Y334929D01*
X17818Y334353D01*
X18394Y333912D01*
X19064Y333634D01*
X19783Y333539D01*
X20503Y333634D01*
X21173Y333912D01*
X21749Y334353D01*
X22191Y334929D01*
X22468Y335599D01*
X22563Y336319D01*
X22468Y337038D01*
X22191Y337709D01*
X21749Y338284D01*
X21173Y338726D01*
X20503Y339004D01*
X19783Y339099D01*
D02*
G37*
G36*
X520965Y325910D02*
X520245Y325815D01*
X519575Y325537D01*
X518999Y325095D01*
X518557Y324520D01*
X518280Y323849D01*
X518185Y323130D01*
X518280Y322410D01*
X518557Y321740D01*
X518999Y321164D01*
X519575Y320723D01*
X520245Y320445D01*
X520965Y320350D01*
X521684Y320445D01*
X522354Y320723D01*
X522930Y321164D01*
X523372Y321740D01*
X523650Y322410D01*
X523744Y323130D01*
X523650Y323849D01*
X523372Y324520D01*
X522930Y325095D01*
X522354Y325537D01*
X521684Y325815D01*
X520965Y325910D01*
D02*
G37*
G36*
X494587D02*
X493867Y325815D01*
X493197Y325537D01*
X492621Y325095D01*
X492179Y324520D01*
X491902Y323849D01*
X491807Y323130D01*
X491902Y322410D01*
X492179Y321740D01*
X492621Y321164D01*
X493197Y320723D01*
X493867Y320445D01*
X494587Y320350D01*
X495306Y320445D01*
X495976Y320723D01*
X496552Y321164D01*
X496994Y321740D01*
X497272Y322410D01*
X497366Y323130D01*
X497272Y323849D01*
X496994Y324520D01*
X496552Y325095D01*
X495976Y325537D01*
X495306Y325815D01*
X494587Y325910D01*
D02*
G37*
G36*
X283563D02*
X282844Y325815D01*
X282173Y325537D01*
X281597Y325095D01*
X281156Y324520D01*
X280878Y323849D01*
X280783Y323130D01*
X280878Y322410D01*
X281156Y321740D01*
X281597Y321164D01*
X282173Y320723D01*
X282844Y320445D01*
X283563Y320350D01*
X284282Y320445D01*
X284953Y320723D01*
X285528Y321164D01*
X285970Y321740D01*
X286248Y322410D01*
X286343Y323130D01*
X286248Y323849D01*
X285970Y324520D01*
X285528Y325095D01*
X284953Y325537D01*
X284282Y325815D01*
X283563Y325910D01*
D02*
G37*
G36*
X257185D02*
X256466Y325815D01*
X255795Y325537D01*
X255220Y325095D01*
X254778Y324520D01*
X254500Y323849D01*
X254405Y323130D01*
X254500Y322410D01*
X254778Y321740D01*
X255220Y321164D01*
X255795Y320723D01*
X256466Y320445D01*
X257185Y320350D01*
X257905Y320445D01*
X258575Y320723D01*
X259151Y321164D01*
X259592Y321740D01*
X259870Y322410D01*
X259965Y323130D01*
X259870Y323849D01*
X259592Y324520D01*
X259151Y325095D01*
X258575Y325537D01*
X257905Y325815D01*
X257185Y325910D01*
D02*
G37*
G36*
X46161D02*
X45442Y325815D01*
X44772Y325537D01*
X44196Y325095D01*
X43754Y324520D01*
X43477Y323849D01*
X43382Y323130D01*
X43477Y322410D01*
X43754Y321740D01*
X44196Y321164D01*
X44772Y320723D01*
X45442Y320445D01*
X46161Y320350D01*
X46881Y320445D01*
X47551Y320723D01*
X48127Y321164D01*
X48569Y321740D01*
X48846Y322410D01*
X48941Y323130D01*
X48846Y323849D01*
X48569Y324520D01*
X48127Y325095D01*
X47551Y325537D01*
X46881Y325815D01*
X46161Y325910D01*
D02*
G37*
G36*
X19783D02*
X19064Y325815D01*
X18394Y325537D01*
X17818Y325095D01*
X17376Y324520D01*
X17098Y323849D01*
X17004Y323130D01*
X17098Y322410D01*
X17376Y321740D01*
X17818Y321164D01*
X18394Y320723D01*
X19064Y320445D01*
X19783Y320350D01*
X20503Y320445D01*
X21173Y320723D01*
X21749Y321164D01*
X22191Y321740D01*
X22468Y322410D01*
X22563Y323130D01*
X22468Y323849D01*
X22191Y324520D01*
X21749Y325095D01*
X21173Y325537D01*
X20503Y325815D01*
X19783Y325910D01*
D02*
G37*
G36*
X475197Y326406D02*
X302953D01*
X302105Y326294D01*
X301315Y325967D01*
X300636Y325446D01*
X300116Y324768D01*
X299788Y323978D01*
X299677Y323130D01*
X299788Y322282D01*
X300116Y321492D01*
X300636Y320813D01*
X301315Y320293D01*
X302105Y319966D01*
X302953Y319854D01*
X475197D01*
X476045Y319966D01*
X476835Y320293D01*
X477513Y320813D01*
X478034Y321492D01*
X478361Y322282D01*
X478473Y323130D01*
X478361Y323978D01*
X478034Y324768D01*
X477513Y325446D01*
X476835Y325967D01*
X476045Y326294D01*
X475197Y326406D01*
D02*
G37*
G36*
X237795D02*
X65551D01*
X64703Y326294D01*
X63913Y325967D01*
X63235Y325446D01*
X62714Y324768D01*
X62387Y323978D01*
X62275Y323130D01*
X62387Y322282D01*
X62714Y321492D01*
X63235Y320813D01*
X63913Y320293D01*
X64703Y319966D01*
X65551Y319854D01*
X237795D01*
X238643Y319966D01*
X239433Y320293D01*
X240112Y320813D01*
X240632Y321492D01*
X240960Y322282D01*
X241071Y323130D01*
X240960Y323978D01*
X240632Y324768D01*
X240112Y325446D01*
X239433Y325967D01*
X238643Y326294D01*
X237795Y326406D01*
D02*
G37*
G36*
X19783Y312721D02*
X19064Y312626D01*
X18394Y312348D01*
X17818Y311907D01*
X17376Y311331D01*
X17098Y310660D01*
X17004Y309941D01*
X17098Y309222D01*
X17376Y308551D01*
X17818Y307975D01*
X18394Y307534D01*
X19064Y307256D01*
X19783Y307161D01*
X20503Y307256D01*
X21173Y307534D01*
X21749Y307975D01*
X22191Y308551D01*
X22468Y309222D01*
X22563Y309941D01*
X22468Y310660D01*
X22191Y311331D01*
X21749Y311907D01*
X21173Y312348D01*
X20503Y312626D01*
X19783Y312721D01*
D02*
G37*
G36*
X520965Y313257D02*
X520106Y313144D01*
X519307Y312812D01*
X518620Y312285D01*
X518093Y311599D01*
X517762Y310799D01*
X517649Y309941D01*
X517762Y309083D01*
X518093Y308283D01*
X518620Y307596D01*
X519307Y307069D01*
X520106Y306738D01*
X520965Y306625D01*
X521823Y306738D01*
X522622Y307069D01*
X523309Y307596D01*
X523836Y308283D01*
X524167Y309083D01*
X524280Y309941D01*
X524167Y310799D01*
X523836Y311599D01*
X523309Y312285D01*
X522622Y312812D01*
X521823Y313144D01*
X520965Y313257D01*
D02*
G37*
G36*
Y299532D02*
X520245Y299437D01*
X519575Y299159D01*
X518999Y298717D01*
X518557Y298142D01*
X518280Y297471D01*
X518185Y296752D01*
X518280Y296033D01*
X518557Y295362D01*
X518999Y294786D01*
X519575Y294345D01*
X520245Y294067D01*
X520965Y293972D01*
X521684Y294067D01*
X522354Y294345D01*
X522930Y294786D01*
X523372Y295362D01*
X523650Y296033D01*
X523744Y296752D01*
X523650Y297471D01*
X523372Y298142D01*
X522930Y298717D01*
X522354Y299159D01*
X521684Y299437D01*
X520965Y299532D01*
D02*
G37*
G36*
X494587D02*
X493867Y299437D01*
X493197Y299159D01*
X492621Y298717D01*
X492179Y298142D01*
X491902Y297471D01*
X491807Y296752D01*
X491902Y296033D01*
X492179Y295362D01*
X492621Y294786D01*
X493197Y294345D01*
X493867Y294067D01*
X494587Y293972D01*
X495306Y294067D01*
X495976Y294345D01*
X496552Y294786D01*
X496994Y295362D01*
X497272Y296033D01*
X497366Y296752D01*
X497272Y297471D01*
X496994Y298142D01*
X496552Y298717D01*
X495976Y299159D01*
X495306Y299437D01*
X494587Y299532D01*
D02*
G37*
G36*
X283563D02*
X282844Y299437D01*
X282173Y299159D01*
X281597Y298717D01*
X281156Y298142D01*
X280878Y297471D01*
X280783Y296752D01*
X280878Y296033D01*
X281156Y295362D01*
X281597Y294786D01*
X282173Y294345D01*
X282844Y294067D01*
X283563Y293972D01*
X284282Y294067D01*
X284953Y294345D01*
X285528Y294786D01*
X285970Y295362D01*
X286248Y296033D01*
X286343Y296752D01*
X286248Y297471D01*
X285970Y298142D01*
X285528Y298717D01*
X284953Y299159D01*
X284282Y299437D01*
X283563Y299532D01*
D02*
G37*
G36*
X257185D02*
X256466Y299437D01*
X255795Y299159D01*
X255220Y298717D01*
X254778Y298142D01*
X254500Y297471D01*
X254405Y296752D01*
X254500Y296033D01*
X254778Y295362D01*
X255220Y294786D01*
X255795Y294345D01*
X256466Y294067D01*
X257185Y293972D01*
X257905Y294067D01*
X258575Y294345D01*
X259151Y294786D01*
X259592Y295362D01*
X259870Y296033D01*
X259965Y296752D01*
X259870Y297471D01*
X259592Y298142D01*
X259151Y298717D01*
X258575Y299159D01*
X257905Y299437D01*
X257185Y299532D01*
D02*
G37*
G36*
X46161D02*
X45442Y299437D01*
X44772Y299159D01*
X44196Y298717D01*
X43754Y298142D01*
X43477Y297471D01*
X43382Y296752D01*
X43477Y296033D01*
X43754Y295362D01*
X44196Y294786D01*
X44772Y294345D01*
X45442Y294067D01*
X46161Y293972D01*
X46881Y294067D01*
X47551Y294345D01*
X48127Y294786D01*
X48569Y295362D01*
X48846Y296033D01*
X48941Y296752D01*
X48846Y297471D01*
X48569Y298142D01*
X48127Y298717D01*
X47551Y299159D01*
X46881Y299437D01*
X46161Y299532D01*
D02*
G37*
G36*
X19783D02*
X19064Y299437D01*
X18394Y299159D01*
X17818Y298717D01*
X17376Y298142D01*
X17098Y297471D01*
X17004Y296752D01*
X17098Y296033D01*
X17376Y295362D01*
X17818Y294786D01*
X18394Y294345D01*
X19064Y294067D01*
X19783Y293972D01*
X20503Y294067D01*
X21173Y294345D01*
X21749Y294786D01*
X22191Y295362D01*
X22468Y296033D01*
X22563Y296752D01*
X22468Y297471D01*
X22191Y298142D01*
X21749Y298717D01*
X21173Y299159D01*
X20503Y299437D01*
X19783Y299532D01*
D02*
G37*
G36*
X475197Y300028D02*
X302953D01*
X302105Y299916D01*
X301315Y299589D01*
X300636Y299068D01*
X300116Y298390D01*
X299788Y297600D01*
X299677Y296752D01*
X299788Y295904D01*
X300116Y295114D01*
X300636Y294435D01*
X301315Y293915D01*
X302105Y293587D01*
X302953Y293476D01*
X475197D01*
X476045Y293587D01*
X476835Y293915D01*
X477513Y294435D01*
X478034Y295114D01*
X478361Y295904D01*
X478473Y296752D01*
X478361Y297600D01*
X478034Y298390D01*
X477513Y299068D01*
X476835Y299589D01*
X476045Y299916D01*
X475197Y300028D01*
D02*
G37*
G36*
X237795D02*
X65551D01*
X64703Y299916D01*
X63913Y299589D01*
X63235Y299068D01*
X62714Y298390D01*
X62387Y297600D01*
X62275Y296752D01*
X62387Y295904D01*
X62714Y295114D01*
X63235Y294435D01*
X63913Y293915D01*
X64703Y293587D01*
X65551Y293476D01*
X237795D01*
X238643Y293587D01*
X239433Y293915D01*
X240112Y294435D01*
X240632Y295114D01*
X240960Y295904D01*
X241071Y296752D01*
X240960Y297600D01*
X240632Y298390D01*
X240112Y299068D01*
X239433Y299589D01*
X238643Y299916D01*
X237795Y300028D01*
D02*
G37*
G36*
X19783Y286343D02*
X19064Y286248D01*
X18394Y285970D01*
X17818Y285528D01*
X17376Y284953D01*
X17098Y284282D01*
X17004Y283563D01*
X17098Y282844D01*
X17376Y282173D01*
X17818Y281597D01*
X18394Y281156D01*
X19064Y280878D01*
X19783Y280783D01*
X20503Y280878D01*
X21173Y281156D01*
X21749Y281597D01*
X22191Y282173D01*
X22468Y282844D01*
X22563Y283563D01*
X22468Y284282D01*
X22191Y284953D01*
X21749Y285528D01*
X21173Y285970D01*
X20503Y286248D01*
X19783Y286343D01*
D02*
G37*
G36*
X520965Y273154D02*
X520245Y273059D01*
X519575Y272781D01*
X518999Y272340D01*
X518557Y271764D01*
X518280Y271093D01*
X518185Y270374D01*
X518280Y269655D01*
X518557Y268984D01*
X518999Y268408D01*
X519575Y267967D01*
X520245Y267689D01*
X520965Y267594D01*
X521684Y267689D01*
X522354Y267967D01*
X522930Y268408D01*
X523372Y268984D01*
X523650Y269655D01*
X523744Y270374D01*
X523650Y271093D01*
X523372Y271764D01*
X522930Y272340D01*
X522354Y272781D01*
X521684Y273059D01*
X520965Y273154D01*
D02*
G37*
G36*
X494587D02*
X493867Y273059D01*
X493197Y272781D01*
X492621Y272340D01*
X492179Y271764D01*
X491902Y271093D01*
X491807Y270374D01*
X491902Y269655D01*
X492179Y268984D01*
X492621Y268408D01*
X493197Y267967D01*
X493867Y267689D01*
X494587Y267594D01*
X495306Y267689D01*
X495976Y267967D01*
X496552Y268408D01*
X496994Y268984D01*
X497272Y269655D01*
X497366Y270374D01*
X497272Y271093D01*
X496994Y271764D01*
X496552Y272340D01*
X495976Y272781D01*
X495306Y273059D01*
X494587Y273154D01*
D02*
G37*
G36*
X283563D02*
X282844Y273059D01*
X282173Y272781D01*
X281597Y272340D01*
X281156Y271764D01*
X280878Y271093D01*
X280783Y270374D01*
X280878Y269655D01*
X281156Y268984D01*
X281597Y268408D01*
X282173Y267967D01*
X282844Y267689D01*
X283563Y267594D01*
X284282Y267689D01*
X284953Y267967D01*
X285528Y268408D01*
X285970Y268984D01*
X286248Y269655D01*
X286343Y270374D01*
X286248Y271093D01*
X285970Y271764D01*
X285528Y272340D01*
X284953Y272781D01*
X284282Y273059D01*
X283563Y273154D01*
D02*
G37*
G36*
X257185D02*
X256466Y273059D01*
X255795Y272781D01*
X255220Y272340D01*
X254778Y271764D01*
X254500Y271093D01*
X254405Y270374D01*
X254500Y269655D01*
X254778Y268984D01*
X255220Y268408D01*
X255795Y267967D01*
X256466Y267689D01*
X257185Y267594D01*
X257905Y267689D01*
X258575Y267967D01*
X259151Y268408D01*
X259592Y268984D01*
X259870Y269655D01*
X259965Y270374D01*
X259870Y271093D01*
X259592Y271764D01*
X259151Y272340D01*
X258575Y272781D01*
X257905Y273059D01*
X257185Y273154D01*
D02*
G37*
G36*
X46161Y273154D02*
X45442Y273059D01*
X44772Y272781D01*
X44196Y272340D01*
X43754Y271764D01*
X43477Y271093D01*
X43382Y270374D01*
X43477Y269655D01*
X43754Y268984D01*
X44196Y268408D01*
X44772Y267967D01*
X45442Y267689D01*
X46161Y267594D01*
X46881Y267689D01*
X47551Y267967D01*
X48127Y268408D01*
X48569Y268984D01*
X48846Y269655D01*
X48941Y270374D01*
X48846Y271093D01*
X48569Y271764D01*
X48127Y272340D01*
X47551Y272781D01*
X46881Y273059D01*
X46161Y273154D01*
D02*
G37*
G36*
X19783D02*
X19064Y273059D01*
X18394Y272781D01*
X17818Y272340D01*
X17376Y271764D01*
X17098Y271093D01*
X17004Y270374D01*
X17098Y269655D01*
X17376Y268984D01*
X17818Y268408D01*
X18394Y267967D01*
X19064Y267689D01*
X19783Y267594D01*
X20503Y267689D01*
X21173Y267967D01*
X21749Y268408D01*
X22191Y268984D01*
X22468Y269655D01*
X22563Y270374D01*
X22468Y271093D01*
X22191Y271764D01*
X21749Y272340D01*
X21173Y272781D01*
X20503Y273059D01*
X19783Y273154D01*
D02*
G37*
G36*
X475197Y273650D02*
X302953D01*
X302105Y273538D01*
X301315Y273211D01*
X300636Y272691D01*
X300116Y272012D01*
X299788Y271222D01*
X299677Y270374D01*
X299788Y269526D01*
X300116Y268736D01*
X300636Y268057D01*
X301315Y267537D01*
X302105Y267210D01*
X302953Y267098D01*
X475197D01*
X476045Y267210D01*
X476835Y267537D01*
X477513Y268057D01*
X478034Y268736D01*
X478361Y269526D01*
X478473Y270374D01*
X478361Y271222D01*
X478034Y272012D01*
X477513Y272691D01*
X476835Y273211D01*
X476045Y273538D01*
X475197Y273650D01*
D02*
G37*
G36*
X237795D02*
X65551D01*
X64703Y273538D01*
X63913Y273211D01*
X63235Y272691D01*
X62714Y272012D01*
X62387Y271222D01*
X62275Y270374D01*
X62387Y269526D01*
X62714Y268736D01*
X63235Y268057D01*
X63913Y267537D01*
X64703Y267210D01*
X65551Y267098D01*
X237795D01*
X238643Y267210D01*
X239433Y267537D01*
X240112Y268057D01*
X240632Y268736D01*
X240960Y269526D01*
X241071Y270374D01*
X240960Y271222D01*
X240632Y272012D01*
X240112Y272691D01*
X239433Y273211D01*
X238643Y273538D01*
X237795Y273650D01*
D02*
G37*
G36*
X19783Y259965D02*
X19064Y259870D01*
X18394Y259592D01*
X17818Y259151D01*
X17376Y258575D01*
X17098Y257905D01*
X17004Y257185D01*
X17098Y256466D01*
X17376Y255795D01*
X17818Y255220D01*
X18394Y254778D01*
X19064Y254500D01*
X19783Y254405D01*
X20503Y254500D01*
X21173Y254778D01*
X21749Y255220D01*
X22191Y255795D01*
X22468Y256466D01*
X22563Y257185D01*
X22468Y257905D01*
X22191Y258575D01*
X21749Y259151D01*
X21173Y259592D01*
X20503Y259870D01*
X19783Y259965D01*
D02*
G37*
G36*
X520965Y260501D02*
X520106Y260388D01*
X519307Y260057D01*
X518620Y259530D01*
X518093Y258843D01*
X517762Y258043D01*
X517649Y257185D01*
X517762Y256327D01*
X518093Y255527D01*
X518620Y254840D01*
X519307Y254313D01*
X520106Y253982D01*
X520965Y253869D01*
X521823Y253982D01*
X522622Y254313D01*
X523309Y254840D01*
X523836Y255527D01*
X524167Y256327D01*
X524280Y257185D01*
X524167Y258043D01*
X523836Y258843D01*
X523309Y259530D01*
X522622Y260057D01*
X521823Y260388D01*
X520965Y260501D01*
D02*
G37*
G36*
Y246776D02*
X520245Y246681D01*
X519575Y246403D01*
X518999Y245962D01*
X518557Y245386D01*
X518280Y244715D01*
X518185Y243996D01*
X518280Y243277D01*
X518557Y242606D01*
X518999Y242031D01*
X519575Y241589D01*
X520245Y241311D01*
X520965Y241216D01*
X521684Y241311D01*
X522354Y241589D01*
X522930Y242031D01*
X523372Y242606D01*
X523650Y243277D01*
X523744Y243996D01*
X523650Y244715D01*
X523372Y245386D01*
X522930Y245962D01*
X522354Y246403D01*
X521684Y246681D01*
X520965Y246776D01*
D02*
G37*
G36*
X494587D02*
X493867Y246681D01*
X493197Y246403D01*
X492621Y245962D01*
X492179Y245386D01*
X491902Y244715D01*
X491807Y243996D01*
X491902Y243277D01*
X492179Y242606D01*
X492621Y242031D01*
X493197Y241589D01*
X493867Y241311D01*
X494587Y241216D01*
X495306Y241311D01*
X495976Y241589D01*
X496552Y242031D01*
X496994Y242606D01*
X497272Y243277D01*
X497366Y243996D01*
X497272Y244715D01*
X496994Y245386D01*
X496552Y245962D01*
X495976Y246403D01*
X495306Y246681D01*
X494587Y246776D01*
D02*
G37*
G36*
X283563D02*
X282844Y246681D01*
X282173Y246403D01*
X281597Y245962D01*
X281156Y245386D01*
X280878Y244715D01*
X280783Y243996D01*
X280878Y243277D01*
X281156Y242606D01*
X281597Y242031D01*
X282173Y241589D01*
X282844Y241311D01*
X283563Y241216D01*
X284282Y241311D01*
X284953Y241589D01*
X285528Y242031D01*
X285970Y242606D01*
X286248Y243277D01*
X286343Y243996D01*
X286248Y244715D01*
X285970Y245386D01*
X285528Y245962D01*
X284953Y246403D01*
X284282Y246681D01*
X283563Y246776D01*
D02*
G37*
G36*
X257185D02*
X256466Y246681D01*
X255795Y246403D01*
X255220Y245962D01*
X254778Y245386D01*
X254500Y244715D01*
X254405Y243996D01*
X254500Y243277D01*
X254778Y242606D01*
X255220Y242031D01*
X255795Y241589D01*
X256466Y241311D01*
X257185Y241216D01*
X257905Y241311D01*
X258575Y241589D01*
X259151Y242031D01*
X259592Y242606D01*
X259870Y243277D01*
X259965Y243996D01*
X259870Y244715D01*
X259592Y245386D01*
X259151Y245962D01*
X258575Y246403D01*
X257905Y246681D01*
X257185Y246776D01*
D02*
G37*
G36*
X46161D02*
X45442Y246681D01*
X44772Y246403D01*
X44196Y245962D01*
X43754Y245386D01*
X43477Y244715D01*
X43382Y243996D01*
X43477Y243277D01*
X43754Y242606D01*
X44196Y242031D01*
X44772Y241589D01*
X45442Y241311D01*
X46161Y241216D01*
X46881Y241311D01*
X47551Y241589D01*
X48127Y242031D01*
X48569Y242606D01*
X48846Y243277D01*
X48941Y243996D01*
X48846Y244715D01*
X48569Y245386D01*
X48127Y245962D01*
X47551Y246403D01*
X46881Y246681D01*
X46161Y246776D01*
D02*
G37*
G36*
X19783D02*
X19064Y246681D01*
X18394Y246403D01*
X17818Y245962D01*
X17376Y245386D01*
X17098Y244715D01*
X17004Y243996D01*
X17098Y243277D01*
X17376Y242606D01*
X17818Y242031D01*
X18394Y241589D01*
X19064Y241311D01*
X19783Y241216D01*
X20503Y241311D01*
X21173Y241589D01*
X21749Y242031D01*
X22191Y242606D01*
X22468Y243277D01*
X22563Y243996D01*
X22468Y244715D01*
X22191Y245386D01*
X21749Y245962D01*
X21173Y246403D01*
X20503Y246681D01*
X19783Y246776D01*
D02*
G37*
G36*
X475197Y247272D02*
X302953D01*
X302105Y247161D01*
X301315Y246833D01*
X300636Y246313D01*
X300116Y245634D01*
X299788Y244844D01*
X299677Y243996D01*
X299788Y243148D01*
X300116Y242358D01*
X300636Y241680D01*
X301315Y241159D01*
X302105Y240832D01*
X302953Y240720D01*
X475197D01*
X476045Y240832D01*
X476835Y241159D01*
X477513Y241680D01*
X478034Y242358D01*
X478361Y243148D01*
X478473Y243996D01*
X478361Y244844D01*
X478034Y245634D01*
X477513Y246313D01*
X476835Y246833D01*
X476045Y247161D01*
X475197Y247272D01*
D02*
G37*
G36*
X237795D02*
X65551D01*
X64703Y247161D01*
X63913Y246833D01*
X63235Y246313D01*
X62714Y245634D01*
X62387Y244844D01*
X62275Y243996D01*
X62387Y243148D01*
X62714Y242358D01*
X63235Y241680D01*
X63913Y241159D01*
X64703Y240832D01*
X65551Y240720D01*
X237795D01*
X238643Y240832D01*
X239433Y241159D01*
X240112Y241680D01*
X240632Y242358D01*
X240960Y243148D01*
X241071Y243996D01*
X240960Y244844D01*
X240632Y245634D01*
X240112Y246313D01*
X239433Y246833D01*
X238643Y247161D01*
X237795Y247272D01*
D02*
G37*
G36*
X19783Y233587D02*
X19064Y233492D01*
X18394Y233214D01*
X17818Y232773D01*
X17376Y232197D01*
X17098Y231526D01*
X17004Y230807D01*
X17098Y230088D01*
X17376Y229417D01*
X17818Y228842D01*
X18394Y228400D01*
X19064Y228122D01*
X19783Y228027D01*
X20503Y228122D01*
X21173Y228400D01*
X21749Y228842D01*
X22191Y229417D01*
X22468Y230088D01*
X22563Y230807D01*
X22468Y231526D01*
X22191Y232197D01*
X21749Y232773D01*
X21173Y233214D01*
X20503Y233492D01*
X19783Y233587D01*
D02*
G37*
G36*
X520965Y220398D02*
X520245Y220303D01*
X519575Y220025D01*
X518999Y219584D01*
X518557Y219008D01*
X518280Y218337D01*
X518185Y217618D01*
X518280Y216899D01*
X518557Y216228D01*
X518999Y215653D01*
X519575Y215211D01*
X520245Y214933D01*
X520965Y214838D01*
X521684Y214933D01*
X522354Y215211D01*
X522930Y215653D01*
X523372Y216228D01*
X523650Y216899D01*
X523744Y217618D01*
X523650Y218337D01*
X523372Y219008D01*
X522930Y219584D01*
X522354Y220025D01*
X521684Y220303D01*
X520965Y220398D01*
D02*
G37*
G36*
X494587D02*
X493867Y220303D01*
X493197Y220025D01*
X492621Y219584D01*
X492179Y219008D01*
X491902Y218337D01*
X491807Y217618D01*
X491902Y216899D01*
X492179Y216228D01*
X492621Y215653D01*
X493197Y215211D01*
X493867Y214933D01*
X494587Y214838D01*
X495306Y214933D01*
X495976Y215211D01*
X496552Y215653D01*
X496994Y216228D01*
X497272Y216899D01*
X497366Y217618D01*
X497272Y218337D01*
X496994Y219008D01*
X496552Y219584D01*
X495976Y220025D01*
X495306Y220303D01*
X494587Y220398D01*
D02*
G37*
G36*
X283563D02*
X282844Y220303D01*
X282173Y220025D01*
X281597Y219584D01*
X281156Y219008D01*
X280878Y218337D01*
X280783Y217618D01*
X280878Y216899D01*
X281156Y216228D01*
X281597Y215653D01*
X282173Y215211D01*
X282844Y214933D01*
X283563Y214838D01*
X284282Y214933D01*
X284953Y215211D01*
X285528Y215653D01*
X285970Y216228D01*
X286248Y216899D01*
X286343Y217618D01*
X286248Y218337D01*
X285970Y219008D01*
X285528Y219584D01*
X284953Y220025D01*
X284282Y220303D01*
X283563Y220398D01*
D02*
G37*
G36*
X257185D02*
X256466Y220303D01*
X255795Y220025D01*
X255220Y219584D01*
X254778Y219008D01*
X254500Y218337D01*
X254405Y217618D01*
X254500Y216899D01*
X254778Y216228D01*
X255220Y215653D01*
X255795Y215211D01*
X256466Y214933D01*
X257185Y214838D01*
X257905Y214933D01*
X258575Y215211D01*
X259151Y215653D01*
X259592Y216228D01*
X259870Y216899D01*
X259965Y217618D01*
X259870Y218337D01*
X259592Y219008D01*
X259151Y219584D01*
X258575Y220025D01*
X257905Y220303D01*
X257185Y220398D01*
D02*
G37*
G36*
X46161D02*
X45442Y220303D01*
X44772Y220025D01*
X44196Y219584D01*
X43754Y219008D01*
X43477Y218337D01*
X43382Y217618D01*
X43477Y216899D01*
X43754Y216228D01*
X44196Y215653D01*
X44772Y215211D01*
X45442Y214933D01*
X46161Y214838D01*
X46881Y214933D01*
X47551Y215211D01*
X48127Y215653D01*
X48569Y216228D01*
X48846Y216899D01*
X48941Y217618D01*
X48846Y218337D01*
X48569Y219008D01*
X48127Y219584D01*
X47551Y220025D01*
X46881Y220303D01*
X46161Y220398D01*
D02*
G37*
G36*
X19783D02*
X19064Y220303D01*
X18394Y220025D01*
X17818Y219584D01*
X17376Y219008D01*
X17098Y218337D01*
X17004Y217618D01*
X17098Y216899D01*
X17376Y216228D01*
X17818Y215653D01*
X18394Y215211D01*
X19064Y214933D01*
X19783Y214838D01*
X20503Y214933D01*
X21173Y215211D01*
X21749Y215653D01*
X22191Y216228D01*
X22468Y216899D01*
X22563Y217618D01*
X22468Y218337D01*
X22191Y219008D01*
X21749Y219584D01*
X21173Y220025D01*
X20503Y220303D01*
X19783Y220398D01*
D02*
G37*
G36*
X475197Y220894D02*
X302953D01*
X302105Y220782D01*
X301315Y220455D01*
X300636Y219935D01*
X300116Y219256D01*
X299788Y218466D01*
X299677Y217618D01*
X299788Y216770D01*
X300116Y215980D01*
X300636Y215302D01*
X301315Y214781D01*
X302105Y214454D01*
X302953Y214342D01*
X475197D01*
X476045Y214454D01*
X476835Y214781D01*
X477513Y215302D01*
X478034Y215980D01*
X478361Y216770D01*
X478473Y217618D01*
X478361Y218466D01*
X478034Y219256D01*
X477513Y219935D01*
X476835Y220455D01*
X476045Y220782D01*
X475197Y220894D01*
D02*
G37*
G36*
X237795D02*
X65551D01*
X64703Y220782D01*
X63913Y220455D01*
X63235Y219935D01*
X62714Y219256D01*
X62387Y218466D01*
X62275Y217618D01*
X62387Y216770D01*
X62714Y215980D01*
X63235Y215302D01*
X63913Y214781D01*
X64703Y214454D01*
X65551Y214342D01*
X237795D01*
X238643Y214454D01*
X239433Y214781D01*
X240112Y215302D01*
X240632Y215980D01*
X240960Y216770D01*
X241071Y217618D01*
X240960Y218466D01*
X240632Y219256D01*
X240112Y219935D01*
X239433Y220455D01*
X238643Y220782D01*
X237795Y220894D01*
D02*
G37*
G36*
X16486Y207209D02*
X15767Y207114D01*
X15096Y206836D01*
X14521Y206395D01*
X14079Y205819D01*
X13801Y205149D01*
X13706Y204429D01*
X13801Y203710D01*
X14079Y203039D01*
X14521Y202464D01*
X15096Y202022D01*
X15767Y201744D01*
X16486Y201649D01*
X17206Y201744D01*
X17876Y202022D01*
X18452Y202464D01*
X18893Y203039D01*
X19171Y203710D01*
X19266Y204429D01*
X19171Y205149D01*
X18893Y205819D01*
X18452Y206395D01*
X17876Y206836D01*
X17206Y207114D01*
X16486Y207209D01*
D02*
G37*
G36*
X520965Y207745D02*
X520106Y207632D01*
X519307Y207301D01*
X518620Y206774D01*
X518093Y206087D01*
X517762Y205287D01*
X517649Y204429D01*
X517762Y203571D01*
X518093Y202771D01*
X518620Y202084D01*
X519307Y201558D01*
X520106Y201226D01*
X520965Y201113D01*
X521823Y201226D01*
X522622Y201558D01*
X523309Y202084D01*
X523836Y202771D01*
X524167Y203571D01*
X524280Y204429D01*
X524167Y205287D01*
X523836Y206087D01*
X523309Y206774D01*
X522622Y207301D01*
X521823Y207632D01*
X520965Y207745D01*
D02*
G37*
G36*
Y194020D02*
X520245Y193925D01*
X519575Y193647D01*
X518999Y193206D01*
X518557Y192630D01*
X518280Y191960D01*
X518185Y191240D01*
X518280Y190521D01*
X518557Y189850D01*
X518999Y189275D01*
X519575Y188833D01*
X520245Y188555D01*
X520965Y188461D01*
X521684Y188555D01*
X522354Y188833D01*
X522930Y189275D01*
X523372Y189850D01*
X523650Y190521D01*
X523744Y191240D01*
X523650Y191960D01*
X523372Y192630D01*
X522930Y193206D01*
X522354Y193647D01*
X521684Y193925D01*
X520965Y194020D01*
D02*
G37*
G36*
X494587D02*
X493867Y193925D01*
X493197Y193647D01*
X492621Y193206D01*
X492179Y192630D01*
X491902Y191960D01*
X491807Y191240D01*
X491902Y190521D01*
X492179Y189850D01*
X492621Y189275D01*
X493197Y188833D01*
X493867Y188555D01*
X494587Y188461D01*
X495306Y188555D01*
X495976Y188833D01*
X496552Y189275D01*
X496994Y189850D01*
X497272Y190521D01*
X497366Y191240D01*
X497272Y191960D01*
X496994Y192630D01*
X496552Y193206D01*
X495976Y193647D01*
X495306Y193925D01*
X494587Y194020D01*
D02*
G37*
G36*
X283563D02*
X282844Y193925D01*
X282173Y193647D01*
X281597Y193206D01*
X281156Y192630D01*
X280878Y191960D01*
X280783Y191240D01*
X280878Y190521D01*
X281156Y189850D01*
X281597Y189275D01*
X282173Y188833D01*
X282844Y188555D01*
X283563Y188461D01*
X284282Y188555D01*
X284953Y188833D01*
X285528Y189275D01*
X285970Y189850D01*
X286248Y190521D01*
X286343Y191240D01*
X286248Y191960D01*
X285970Y192630D01*
X285528Y193206D01*
X284953Y193647D01*
X284282Y193925D01*
X283563Y194020D01*
D02*
G37*
G36*
X257185D02*
X256466Y193925D01*
X255795Y193647D01*
X255220Y193206D01*
X254778Y192630D01*
X254500Y191960D01*
X254405Y191240D01*
X254500Y190521D01*
X254778Y189850D01*
X255220Y189275D01*
X255795Y188833D01*
X256466Y188555D01*
X257185Y188461D01*
X257905Y188555D01*
X258575Y188833D01*
X259151Y189275D01*
X259592Y189850D01*
X259870Y190521D01*
X259965Y191240D01*
X259870Y191960D01*
X259592Y192630D01*
X259151Y193206D01*
X258575Y193647D01*
X257905Y193925D01*
X257185Y194020D01*
D02*
G37*
G36*
X46161D02*
X45442Y193925D01*
X44772Y193647D01*
X44196Y193206D01*
X43754Y192630D01*
X43477Y191960D01*
X43382Y191240D01*
X43477Y190521D01*
X43754Y189850D01*
X44196Y189275D01*
X44772Y188833D01*
X45442Y188555D01*
X46161Y188461D01*
X46881Y188555D01*
X47551Y188833D01*
X48127Y189275D01*
X48569Y189850D01*
X48846Y190521D01*
X48941Y191240D01*
X48846Y191960D01*
X48569Y192630D01*
X48127Y193206D01*
X47551Y193647D01*
X46881Y193925D01*
X46161Y194020D01*
D02*
G37*
G36*
X19783D02*
X19064Y193925D01*
X18394Y193647D01*
X17818Y193206D01*
X17376Y192630D01*
X17098Y191960D01*
X17004Y191240D01*
X17098Y190521D01*
X17376Y189850D01*
X17818Y189275D01*
X18394Y188833D01*
X19064Y188555D01*
X19783Y188461D01*
X20503Y188555D01*
X21173Y188833D01*
X21749Y189275D01*
X22191Y189850D01*
X22468Y190521D01*
X22563Y191240D01*
X22468Y191960D01*
X22191Y192630D01*
X21749Y193206D01*
X21173Y193647D01*
X20503Y193925D01*
X19783Y194020D01*
D02*
G37*
G36*
X475197Y194516D02*
X302953D01*
X302105Y194405D01*
X301315Y194077D01*
X300636Y193557D01*
X300116Y192878D01*
X299788Y192088D01*
X299677Y191240D01*
X299788Y190392D01*
X300116Y189602D01*
X300636Y188924D01*
X301315Y188403D01*
X302105Y188076D01*
X302953Y187964D01*
X475197D01*
X476045Y188076D01*
X476835Y188403D01*
X477513Y188924D01*
X478034Y189602D01*
X478361Y190392D01*
X478473Y191240D01*
X478361Y192088D01*
X478034Y192878D01*
X477513Y193557D01*
X476835Y194077D01*
X476045Y194405D01*
X475197Y194516D01*
D02*
G37*
G36*
X237795D02*
X65551D01*
X64703Y194405D01*
X63913Y194077D01*
X63235Y193557D01*
X62714Y192878D01*
X62387Y192088D01*
X62275Y191240D01*
X62387Y190392D01*
X62714Y189602D01*
X63235Y188924D01*
X63913Y188403D01*
X64703Y188076D01*
X65551Y187964D01*
X237795D01*
X238643Y188076D01*
X239433Y188403D01*
X240112Y188924D01*
X240632Y189602D01*
X240960Y190392D01*
X241071Y191240D01*
X240960Y192088D01*
X240632Y192878D01*
X240112Y193557D01*
X239433Y194077D01*
X238643Y194405D01*
X237795Y194516D01*
D02*
G37*
G36*
X19783Y180831D02*
X19064Y180736D01*
X18394Y180458D01*
X17818Y180017D01*
X17376Y179441D01*
X17098Y178771D01*
X17004Y178051D01*
X17098Y177332D01*
X17376Y176661D01*
X17818Y176086D01*
X18394Y175644D01*
X19064Y175366D01*
X19783Y175271D01*
X20503Y175366D01*
X21173Y175644D01*
X21749Y176086D01*
X22191Y176661D01*
X22468Y177332D01*
X22563Y178051D01*
X22468Y178771D01*
X22191Y179441D01*
X21749Y180017D01*
X21173Y180458D01*
X20503Y180736D01*
X19783Y180831D01*
D02*
G37*
G36*
X389075Y167642D02*
X388355Y167547D01*
X387685Y167270D01*
X387109Y166828D01*
X386667Y166252D01*
X386390Y165582D01*
X386295Y164862D01*
X386390Y164143D01*
X386667Y163472D01*
X387109Y162897D01*
X387685Y162455D01*
X388355Y162177D01*
X389075Y162083D01*
X389794Y162177D01*
X390465Y162455D01*
X391040Y162897D01*
X391482Y163472D01*
X391760Y164143D01*
X391855Y164862D01*
X391760Y165582D01*
X391482Y166252D01*
X391040Y166828D01*
X390465Y167270D01*
X389794Y167547D01*
X389075Y167642D01*
D02*
G37*
G36*
X362697D02*
X361977Y167547D01*
X361307Y167270D01*
X360731Y166828D01*
X360290Y166252D01*
X360012Y165582D01*
X359917Y164862D01*
X360012Y164143D01*
X360290Y163472D01*
X360731Y162897D01*
X361307Y162455D01*
X361977Y162177D01*
X362697Y162083D01*
X363416Y162177D01*
X364087Y162455D01*
X364662Y162897D01*
X365104Y163472D01*
X365382Y164143D01*
X365476Y164862D01*
X365382Y165582D01*
X365104Y166252D01*
X364662Y166828D01*
X364087Y167270D01*
X363416Y167547D01*
X362697Y167642D01*
D02*
G37*
G36*
X336319D02*
X335599Y167547D01*
X334929Y167270D01*
X334353Y166828D01*
X333912Y166252D01*
X333634Y165582D01*
X333539Y164862D01*
X333634Y164143D01*
X333912Y163472D01*
X334353Y162897D01*
X334929Y162455D01*
X335599Y162177D01*
X336319Y162083D01*
X337038Y162177D01*
X337709Y162455D01*
X338284Y162897D01*
X338726Y163472D01*
X339004Y164143D01*
X339099Y164862D01*
X339004Y165582D01*
X338726Y166252D01*
X338284Y166828D01*
X337709Y167270D01*
X337038Y167547D01*
X336319Y167642D01*
D02*
G37*
G36*
X309941D02*
X309222Y167547D01*
X308551Y167270D01*
X307975Y166828D01*
X307534Y166252D01*
X307256Y165582D01*
X307161Y164862D01*
X307256Y164143D01*
X307534Y163472D01*
X307975Y162897D01*
X308551Y162455D01*
X309222Y162177D01*
X309941Y162083D01*
X310660Y162177D01*
X311331Y162455D01*
X311907Y162897D01*
X312348Y163472D01*
X312626Y164143D01*
X312721Y164862D01*
X312626Y165582D01*
X312348Y166252D01*
X311907Y166828D01*
X311331Y167270D01*
X310660Y167547D01*
X309941Y167642D01*
D02*
G37*
G36*
X283563D02*
X282844Y167547D01*
X282173Y167270D01*
X281597Y166828D01*
X281156Y166252D01*
X280878Y165582D01*
X280783Y164862D01*
X280878Y164143D01*
X281156Y163472D01*
X281597Y162897D01*
X282173Y162455D01*
X282844Y162177D01*
X283563Y162083D01*
X284282Y162177D01*
X284953Y162455D01*
X285528Y162897D01*
X285970Y163472D01*
X286248Y164143D01*
X286343Y164862D01*
X286248Y165582D01*
X285970Y166252D01*
X285528Y166828D01*
X284953Y167270D01*
X284282Y167547D01*
X283563Y167642D01*
D02*
G37*
G36*
X257185D02*
X256466Y167547D01*
X255795Y167270D01*
X255220Y166828D01*
X254778Y166252D01*
X254500Y165582D01*
X254405Y164862D01*
X254500Y164143D01*
X254778Y163472D01*
X255220Y162897D01*
X255795Y162455D01*
X256466Y162177D01*
X257185Y162083D01*
X257905Y162177D01*
X258575Y162455D01*
X259151Y162897D01*
X259592Y163472D01*
X259870Y164143D01*
X259965Y164862D01*
X259870Y165582D01*
X259592Y166252D01*
X259151Y166828D01*
X258575Y167270D01*
X257905Y167547D01*
X257185Y167642D01*
D02*
G37*
G36*
X230807D02*
X230088Y167547D01*
X229417Y167270D01*
X228842Y166828D01*
X228400Y166252D01*
X228122Y165582D01*
X228027Y164862D01*
X228122Y164143D01*
X228400Y163472D01*
X228842Y162897D01*
X229417Y162455D01*
X230088Y162177D01*
X230807Y162083D01*
X231526Y162177D01*
X232197Y162455D01*
X232773Y162897D01*
X233214Y163472D01*
X233492Y164143D01*
X233587Y164862D01*
X233492Y165582D01*
X233214Y166252D01*
X232773Y166828D01*
X232197Y167270D01*
X231526Y167547D01*
X230807Y167642D01*
D02*
G37*
G36*
X204429D02*
X203710Y167547D01*
X203039Y167270D01*
X202464Y166828D01*
X202022Y166252D01*
X201744Y165582D01*
X201649Y164862D01*
X201744Y164143D01*
X202022Y163472D01*
X202464Y162897D01*
X203039Y162455D01*
X203710Y162177D01*
X204429Y162083D01*
X205149Y162177D01*
X205819Y162455D01*
X206395Y162897D01*
X206836Y163472D01*
X207114Y164143D01*
X207209Y164862D01*
X207114Y165582D01*
X206836Y166252D01*
X206395Y166828D01*
X205819Y167270D01*
X205149Y167547D01*
X204429Y167642D01*
D02*
G37*
G36*
X178051D02*
X177332Y167547D01*
X176661Y167270D01*
X176086Y166828D01*
X175644Y166252D01*
X175366Y165582D01*
X175271Y164862D01*
X175366Y164143D01*
X175644Y163472D01*
X176086Y162897D01*
X176661Y162455D01*
X177332Y162177D01*
X178051Y162083D01*
X178771Y162177D01*
X179441Y162455D01*
X180017Y162897D01*
X180458Y163472D01*
X180736Y164143D01*
X180831Y164862D01*
X180736Y165582D01*
X180458Y166252D01*
X180017Y166828D01*
X179441Y167270D01*
X178771Y167547D01*
X178051Y167642D01*
D02*
G37*
G36*
X151673D02*
X150954Y167547D01*
X150283Y167270D01*
X149708Y166828D01*
X149266Y166252D01*
X148988Y165582D01*
X148894Y164862D01*
X148988Y164143D01*
X149266Y163472D01*
X149708Y162897D01*
X150283Y162455D01*
X150954Y162177D01*
X151673Y162083D01*
X152393Y162177D01*
X153063Y162455D01*
X153639Y162897D01*
X154080Y163472D01*
X154358Y164143D01*
X154453Y164862D01*
X154358Y165582D01*
X154080Y166252D01*
X153639Y166828D01*
X153063Y167270D01*
X152393Y167547D01*
X151673Y167642D01*
D02*
G37*
G36*
X69242Y159974D02*
X68589Y159844D01*
X68036Y159474D01*
X67666Y158921D01*
X67536Y158268D01*
X67666Y157615D01*
X68036Y157061D01*
X68589Y156692D01*
X69242Y156562D01*
X69895Y156692D01*
X70448Y157061D01*
X70818Y157615D01*
X70948Y158268D01*
X70818Y158921D01*
X70448Y159474D01*
X69895Y159844D01*
X69242Y159974D01*
D02*
G37*
G36*
X425345Y159068D02*
X424368Y158939D01*
X423458Y158562D01*
X422677Y157963D01*
X422078Y157182D01*
X421701Y156272D01*
X421572Y155295D01*
X421701Y154319D01*
X422078Y153409D01*
X422677Y152628D01*
X423458Y152028D01*
X424368Y151651D01*
X425345Y151523D01*
X426321Y151651D01*
X427231Y152028D01*
X428012Y152628D01*
X428612Y153409D01*
X428988Y154319D01*
X429117Y155295D01*
X428988Y156272D01*
X428612Y157182D01*
X428012Y157963D01*
X427231Y158562D01*
X426321Y158939D01*
X425345Y159068D01*
D02*
G37*
G36*
X415344D02*
X414368Y158939D01*
X413458Y158562D01*
X412677Y157963D01*
X412078Y157182D01*
X411701Y156272D01*
X411572Y155295D01*
X411701Y154319D01*
X412078Y153409D01*
X412677Y152628D01*
X413458Y152028D01*
X414368Y151651D01*
X415344Y151523D01*
X416321Y151651D01*
X417231Y152028D01*
X418012Y152628D01*
X418611Y153409D01*
X418988Y154319D01*
X419117Y155295D01*
X418988Y156272D01*
X418611Y157182D01*
X418012Y157963D01*
X417231Y158562D01*
X416321Y158939D01*
X415344Y159068D01*
D02*
G37*
G36*
X389075Y154989D02*
X388217Y154876D01*
X387417Y154545D01*
X386730Y154018D01*
X386203Y153331D01*
X385872Y152531D01*
X385759Y151673D01*
X385872Y150815D01*
X386203Y150015D01*
X386730Y149329D01*
X387417Y148802D01*
X388217Y148470D01*
X389075Y148357D01*
X389933Y148470D01*
X390733Y148802D01*
X391419Y149329D01*
X391946Y150015D01*
X392278Y150815D01*
X392391Y151673D01*
X392278Y152531D01*
X391946Y153331D01*
X391419Y154018D01*
X390733Y154545D01*
X389933Y154876D01*
X389075Y154989D01*
D02*
G37*
G36*
X23081Y151156D02*
X22361Y151061D01*
X21691Y150783D01*
X21115Y150341D01*
X20673Y149766D01*
X20396Y149095D01*
X20301Y148376D01*
X20396Y147657D01*
X20673Y146986D01*
X21115Y146410D01*
X21691Y145969D01*
X22361Y145691D01*
X23081Y145596D01*
X23800Y145691D01*
X24471Y145969D01*
X25046Y146410D01*
X25488Y146986D01*
X25766Y147657D01*
X25860Y148376D01*
X25766Y149095D01*
X25488Y149766D01*
X25046Y150341D01*
X24471Y150783D01*
X23800Y151061D01*
X23081Y151156D01*
D02*
G37*
G36*
X520965Y151457D02*
X520167Y151352D01*
X519424Y151045D01*
X518786Y150555D01*
X518296Y149917D01*
X517988Y149173D01*
X517883Y148376D01*
X517988Y147578D01*
X518296Y146835D01*
X518786Y146197D01*
X519424Y145707D01*
X520167Y145399D01*
X520965Y145294D01*
X521762Y145399D01*
X522505Y145707D01*
X523143Y146197D01*
X523633Y146835D01*
X523941Y147578D01*
X524046Y148376D01*
X523941Y149173D01*
X523633Y149917D01*
X523143Y150555D01*
X522505Y151045D01*
X521762Y151352D01*
X520965Y151457D01*
D02*
G37*
G36*
X9892Y147858D02*
X9172Y147764D01*
X8502Y147486D01*
X7926Y147044D01*
X7485Y146469D01*
X7207Y145798D01*
X7112Y145079D01*
X7207Y144359D01*
X7485Y143689D01*
X7926Y143113D01*
X8502Y142672D01*
X9172Y142394D01*
X9892Y142299D01*
X10611Y142394D01*
X11282Y142672D01*
X11857Y143113D01*
X12299Y143689D01*
X12577Y144359D01*
X12671Y145079D01*
X12577Y145798D01*
X12299Y146469D01*
X11857Y147044D01*
X11282Y147486D01*
X10611Y147764D01*
X9892Y147858D01*
D02*
G37*
G36*
X113427Y145464D02*
X112774Y145334D01*
X112220Y144965D01*
X111851Y144411D01*
X111721Y143758D01*
X111851Y143105D01*
X112220Y142552D01*
X112774Y142182D01*
X113427Y142052D01*
X114080Y142182D01*
X114633Y142552D01*
X115003Y143105D01*
X115133Y143758D01*
X115003Y144411D01*
X114633Y144965D01*
X114080Y145334D01*
X113427Y145464D01*
D02*
G37*
G36*
X425345Y149068D02*
X424368Y148939D01*
X423458Y148562D01*
X422677Y147963D01*
X422078Y147181D01*
X421701Y146272D01*
X421572Y145295D01*
X421701Y144319D01*
X422078Y143409D01*
X422677Y142628D01*
X423458Y142028D01*
X424368Y141651D01*
X425345Y141523D01*
X426321Y141651D01*
X427231Y142028D01*
X428012Y142628D01*
X428612Y143409D01*
X428988Y144319D01*
X429117Y145295D01*
X428988Y146272D01*
X428612Y147181D01*
X428012Y147963D01*
X427231Y148562D01*
X426321Y148939D01*
X425345Y149068D01*
D02*
G37*
G36*
X415344D02*
X414368Y148939D01*
X413458Y148562D01*
X412677Y147963D01*
X412078Y147181D01*
X411701Y146272D01*
X411572Y145295D01*
X411701Y144319D01*
X412078Y143409D01*
X412677Y142628D01*
X413458Y142028D01*
X414368Y141651D01*
X415344Y141523D01*
X416321Y141651D01*
X417231Y142028D01*
X418012Y142628D01*
X418611Y143409D01*
X418988Y144319D01*
X419117Y145295D01*
X418988Y146272D01*
X418611Y147181D01*
X418012Y147963D01*
X417231Y148562D01*
X416321Y148939D01*
X415344Y149068D01*
D02*
G37*
G36*
X16486Y144561D02*
X15767Y144466D01*
X15096Y144189D01*
X14521Y143747D01*
X14079Y143171D01*
X13801Y142501D01*
X13706Y141781D01*
X13801Y141062D01*
X14079Y140392D01*
X14521Y139816D01*
X15096Y139374D01*
X15767Y139096D01*
X16486Y139002D01*
X17206Y139096D01*
X17876Y139374D01*
X18452Y139816D01*
X18893Y140392D01*
X19171Y141062D01*
X19266Y141781D01*
X19171Y142501D01*
X18893Y143171D01*
X18452Y143747D01*
X17876Y144189D01*
X17206Y144466D01*
X16486Y144561D01*
D02*
G37*
G36*
X389075Y141264D02*
X388355Y141169D01*
X387685Y140892D01*
X387109Y140450D01*
X386667Y139874D01*
X386390Y139204D01*
X386295Y138484D01*
X386390Y137765D01*
X386667Y137094D01*
X387109Y136519D01*
X387685Y136077D01*
X388355Y135799D01*
X389075Y135705D01*
X389794Y135799D01*
X390465Y136077D01*
X391040Y136519D01*
X391482Y137094D01*
X391760Y137765D01*
X391855Y138484D01*
X391760Y139204D01*
X391482Y139874D01*
X391040Y140450D01*
X390465Y140892D01*
X389794Y141169D01*
X389075Y141264D01*
D02*
G37*
G36*
X362697D02*
X361977Y141169D01*
X361307Y140892D01*
X360731Y140450D01*
X360290Y139874D01*
X360012Y139204D01*
X359917Y138484D01*
X360012Y137765D01*
X360290Y137094D01*
X360731Y136519D01*
X361307Y136077D01*
X361977Y135799D01*
X362697Y135705D01*
X363416Y135799D01*
X364087Y136077D01*
X364662Y136519D01*
X365104Y137094D01*
X365382Y137765D01*
X365476Y138484D01*
X365382Y139204D01*
X365104Y139874D01*
X364662Y140450D01*
X364087Y140892D01*
X363416Y141169D01*
X362697Y141264D01*
D02*
G37*
G36*
X336319D02*
X335599Y141169D01*
X334929Y140892D01*
X334353Y140450D01*
X333912Y139874D01*
X333634Y139204D01*
X333539Y138484D01*
X333634Y137765D01*
X333912Y137094D01*
X334353Y136519D01*
X334929Y136077D01*
X335599Y135799D01*
X336319Y135705D01*
X337038Y135799D01*
X337709Y136077D01*
X338284Y136519D01*
X338726Y137094D01*
X339004Y137765D01*
X339099Y138484D01*
X339004Y139204D01*
X338726Y139874D01*
X338284Y140450D01*
X337709Y140892D01*
X337038Y141169D01*
X336319Y141264D01*
D02*
G37*
G36*
X309941D02*
X309222Y141169D01*
X308551Y140892D01*
X307975Y140450D01*
X307534Y139874D01*
X307256Y139204D01*
X307161Y138484D01*
X307256Y137765D01*
X307534Y137094D01*
X307975Y136519D01*
X308551Y136077D01*
X309222Y135799D01*
X309941Y135705D01*
X310660Y135799D01*
X311331Y136077D01*
X311907Y136519D01*
X312348Y137094D01*
X312626Y137765D01*
X312721Y138484D01*
X312626Y139204D01*
X312348Y139874D01*
X311907Y140450D01*
X311331Y140892D01*
X310660Y141169D01*
X309941Y141264D01*
D02*
G37*
G36*
X283563D02*
X282844Y141169D01*
X282173Y140892D01*
X281597Y140450D01*
X281156Y139874D01*
X280878Y139204D01*
X280783Y138484D01*
X280878Y137765D01*
X281156Y137094D01*
X281597Y136519D01*
X282173Y136077D01*
X282844Y135799D01*
X283563Y135705D01*
X284282Y135799D01*
X284953Y136077D01*
X285528Y136519D01*
X285970Y137094D01*
X286248Y137765D01*
X286343Y138484D01*
X286248Y139204D01*
X285970Y139874D01*
X285528Y140450D01*
X284953Y140892D01*
X284282Y141169D01*
X283563Y141264D01*
D02*
G37*
G36*
X257185D02*
X256466Y141169D01*
X255795Y140892D01*
X255220Y140450D01*
X254778Y139874D01*
X254500Y139204D01*
X254405Y138484D01*
X254500Y137765D01*
X254778Y137094D01*
X255220Y136519D01*
X255795Y136077D01*
X256466Y135799D01*
X257185Y135705D01*
X257905Y135799D01*
X258575Y136077D01*
X259151Y136519D01*
X259592Y137094D01*
X259870Y137765D01*
X259965Y138484D01*
X259870Y139204D01*
X259592Y139874D01*
X259151Y140450D01*
X258575Y140892D01*
X257905Y141169D01*
X257185Y141264D01*
D02*
G37*
G36*
X230807D02*
X230088Y141169D01*
X229417Y140892D01*
X228842Y140450D01*
X228400Y139874D01*
X228122Y139204D01*
X228027Y138484D01*
X228122Y137765D01*
X228400Y137094D01*
X228842Y136519D01*
X229417Y136077D01*
X230088Y135799D01*
X230807Y135705D01*
X231526Y135799D01*
X232197Y136077D01*
X232773Y136519D01*
X233214Y137094D01*
X233492Y137765D01*
X233587Y138484D01*
X233492Y139204D01*
X233214Y139874D01*
X232773Y140450D01*
X232197Y140892D01*
X231526Y141169D01*
X230807Y141264D01*
D02*
G37*
G36*
X204429D02*
X203710Y141169D01*
X203039Y140892D01*
X202464Y140450D01*
X202022Y139874D01*
X201744Y139204D01*
X201649Y138484D01*
X201744Y137765D01*
X202022Y137094D01*
X202464Y136519D01*
X203039Y136077D01*
X203710Y135799D01*
X204429Y135705D01*
X205149Y135799D01*
X205819Y136077D01*
X206395Y136519D01*
X206836Y137094D01*
X207114Y137765D01*
X207209Y138484D01*
X207114Y139204D01*
X206836Y139874D01*
X206395Y140450D01*
X205819Y140892D01*
X205149Y141169D01*
X204429Y141264D01*
D02*
G37*
G36*
X178051D02*
X177332Y141169D01*
X176661Y140892D01*
X176086Y140450D01*
X175644Y139874D01*
X175366Y139204D01*
X175271Y138484D01*
X175366Y137765D01*
X175644Y137094D01*
X176086Y136519D01*
X176661Y136077D01*
X177332Y135799D01*
X178051Y135705D01*
X178771Y135799D01*
X179441Y136077D01*
X180017Y136519D01*
X180458Y137094D01*
X180736Y137765D01*
X180831Y138484D01*
X180736Y139204D01*
X180458Y139874D01*
X180017Y140450D01*
X179441Y140892D01*
X178771Y141169D01*
X178051Y141264D01*
D02*
G37*
G36*
X151673D02*
X150954Y141169D01*
X150283Y140892D01*
X149708Y140450D01*
X149266Y139874D01*
X148988Y139204D01*
X148894Y138484D01*
X148988Y137765D01*
X149266Y137094D01*
X149708Y136519D01*
X150283Y136077D01*
X150954Y135799D01*
X151673Y135705D01*
X152393Y135799D01*
X153063Y136077D01*
X153639Y136519D01*
X154080Y137094D01*
X154358Y137765D01*
X154453Y138484D01*
X154358Y139204D01*
X154080Y139874D01*
X153639Y140450D01*
X153063Y140892D01*
X152393Y141169D01*
X151673Y141264D01*
D02*
G37*
G36*
X23081D02*
X22361Y141169D01*
X21691Y140892D01*
X21115Y140450D01*
X20673Y139874D01*
X20396Y139204D01*
X20301Y138484D01*
X20396Y137765D01*
X20673Y137094D01*
X21115Y136519D01*
X21691Y136077D01*
X22361Y135799D01*
X23081Y135705D01*
X23800Y135799D01*
X24471Y136077D01*
X25046Y136519D01*
X25488Y137094D01*
X25766Y137765D01*
X25860Y138484D01*
X25766Y139204D01*
X25488Y139874D01*
X25046Y140450D01*
X24471Y140892D01*
X23800Y141169D01*
X23081Y141264D01*
D02*
G37*
G36*
X451722Y137967D02*
X451003Y137872D01*
X450333Y137594D01*
X449757Y137153D01*
X449315Y136577D01*
X449038Y135906D01*
X448943Y135187D01*
X449038Y134468D01*
X449315Y133797D01*
X449757Y133221D01*
X450333Y132780D01*
X451003Y132502D01*
X451722Y132407D01*
X452442Y132502D01*
X453112Y132780D01*
X453688Y133221D01*
X454130Y133797D01*
X454407Y134468D01*
X454502Y135187D01*
X454407Y135906D01*
X454130Y136577D01*
X453688Y137153D01*
X453112Y137594D01*
X452442Y137872D01*
X451722Y137967D01*
D02*
G37*
G36*
X425345Y139068D02*
X424368Y138939D01*
X423458Y138562D01*
X422677Y137963D01*
X422078Y137181D01*
X421701Y136272D01*
X421572Y135295D01*
X421701Y134319D01*
X422078Y133409D01*
X422677Y132628D01*
X423458Y132028D01*
X424368Y131651D01*
X425345Y131523D01*
X426321Y131651D01*
X427231Y132028D01*
X428012Y132628D01*
X428612Y133409D01*
X428988Y134319D01*
X429117Y135295D01*
X428988Y136272D01*
X428612Y137181D01*
X428012Y137963D01*
X427231Y138562D01*
X426321Y138939D01*
X425345Y139068D01*
D02*
G37*
G36*
X415344D02*
X414368Y138939D01*
X413458Y138562D01*
X412677Y137963D01*
X412078Y137181D01*
X411701Y136272D01*
X411572Y135295D01*
X411701Y134319D01*
X412078Y133409D01*
X412677Y132628D01*
X413458Y132028D01*
X414368Y131651D01*
X415344Y131523D01*
X416321Y131651D01*
X417231Y132028D01*
X418012Y132628D01*
X418611Y133409D01*
X418988Y134319D01*
X419117Y135295D01*
X418988Y136272D01*
X418611Y137181D01*
X418012Y137963D01*
X417231Y138562D01*
X416321Y138939D01*
X415344Y139068D01*
D02*
G37*
G36*
X26378Y134669D02*
X25659Y134575D01*
X24988Y134297D01*
X24412Y133855D01*
X23971Y133280D01*
X23693Y132609D01*
X23598Y131890D01*
X23693Y131170D01*
X23971Y130500D01*
X24412Y129924D01*
X24988Y129482D01*
X25659Y129205D01*
X26378Y129110D01*
X27097Y129205D01*
X27768Y129482D01*
X28343Y129924D01*
X28785Y130500D01*
X29063Y131170D01*
X29158Y131890D01*
X29063Y132609D01*
X28785Y133280D01*
X28343Y133855D01*
X27768Y134297D01*
X27097Y134575D01*
X26378Y134669D01*
D02*
G37*
G36*
X419297Y129248D02*
X416344D01*
Y126295D01*
X419297D01*
Y129248D01*
D02*
G37*
G36*
X414345D02*
X411392D01*
Y126295D01*
X414345D01*
Y129248D01*
D02*
G37*
G36*
X448425Y131372D02*
X447706Y131278D01*
X447035Y131000D01*
X446460Y130558D01*
X446018Y129982D01*
X445740Y129312D01*
X445646Y128593D01*
X445740Y127873D01*
X446018Y127203D01*
X446460Y126627D01*
X447035Y126185D01*
X447706Y125908D01*
X448425Y125813D01*
X449145Y125908D01*
X449815Y126185D01*
X450391Y126627D01*
X450833Y127203D01*
X451110Y127873D01*
X451205Y128593D01*
X451110Y129312D01*
X450833Y129982D01*
X450391Y130558D01*
X449815Y131000D01*
X449145Y131278D01*
X448425Y131372D01*
D02*
G37*
G36*
X95620D02*
X94901Y131278D01*
X94230Y131000D01*
X93655Y130558D01*
X93213Y129982D01*
X92935Y129312D01*
X92840Y128593D01*
X92935Y127873D01*
X93213Y127203D01*
X93655Y126627D01*
X94230Y126185D01*
X94901Y125908D01*
X95620Y125813D01*
X96339Y125908D01*
X97010Y126185D01*
X97586Y126627D01*
X98027Y127203D01*
X98305Y127873D01*
X98400Y128593D01*
X98305Y129312D01*
X98027Y129982D01*
X97586Y130558D01*
X97010Y131000D01*
X96339Y131278D01*
X95620Y131372D01*
D02*
G37*
G36*
X89026Y130298D02*
X88373Y130169D01*
X87819Y129799D01*
X87450Y129245D01*
X87320Y128593D01*
X87450Y127940D01*
X87819Y127386D01*
X88031Y127245D01*
Y126643D01*
X87819Y126502D01*
X87450Y125948D01*
X87320Y125295D01*
X87450Y124642D01*
X87819Y124089D01*
X88373Y123719D01*
X89026Y123589D01*
X89678Y123719D01*
X90232Y124089D01*
X90602Y124642D01*
X90732Y125295D01*
X90602Y125948D01*
X90232Y126502D01*
X90020Y126643D01*
Y127245D01*
X90232Y127386D01*
X90602Y127940D01*
X90732Y128593D01*
X90602Y129245D01*
X90232Y129799D01*
X89678Y130169D01*
X89026Y130298D01*
D02*
G37*
G36*
X464911Y128075D02*
X464192Y127980D01*
X463522Y127702D01*
X462946Y127261D01*
X462504Y126685D01*
X462226Y126015D01*
X462132Y125295D01*
X462226Y124576D01*
X462504Y123905D01*
X462946Y123330D01*
X463522Y122888D01*
X464192Y122610D01*
X464911Y122516D01*
X465631Y122610D01*
X466301Y122888D01*
X466877Y123330D01*
X467319Y123905D01*
X467596Y124576D01*
X467691Y125295D01*
X467596Y126015D01*
X467319Y126685D01*
X466877Y127261D01*
X466301Y127702D01*
X465631Y127980D01*
X464911Y128075D01*
D02*
G37*
G36*
X151673D02*
X150954Y127980D01*
X150283Y127702D01*
X149708Y127261D01*
X149266Y126685D01*
X148988Y126015D01*
X148894Y125295D01*
X148988Y124576D01*
X149266Y123905D01*
X149708Y123330D01*
X150283Y122888D01*
X150954Y122610D01*
X151673Y122516D01*
X152393Y122610D01*
X153063Y122888D01*
X153639Y123330D01*
X154080Y123905D01*
X154358Y124576D01*
X154453Y125295D01*
X154358Y126015D01*
X154080Y126685D01*
X153639Y127261D01*
X153063Y127702D01*
X152393Y127980D01*
X151673Y128075D01*
D02*
G37*
G36*
X389075Y128611D02*
X388217Y128498D01*
X387417Y128167D01*
X386730Y127640D01*
X386203Y126953D01*
X385872Y126154D01*
X385759Y125295D01*
X385872Y124437D01*
X386203Y123637D01*
X386730Y122951D01*
X387417Y122424D01*
X388217Y122092D01*
X389075Y121979D01*
X389933Y122092D01*
X390733Y122424D01*
X391419Y122951D01*
X391946Y123637D01*
X392278Y124437D01*
X392391Y125295D01*
X392278Y126154D01*
X391946Y126953D01*
X391419Y127640D01*
X390733Y128167D01*
X389933Y128498D01*
X389075Y128611D01*
D02*
G37*
G36*
X425345Y129068D02*
X424368Y128939D01*
X423458Y128562D01*
X422677Y127963D01*
X422078Y127181D01*
X421701Y126272D01*
X421572Y125295D01*
X421701Y124319D01*
X422078Y123409D01*
X422677Y122628D01*
X423458Y122028D01*
X424368Y121651D01*
X425345Y121523D01*
X426321Y121651D01*
X427231Y122028D01*
X428012Y122628D01*
X428612Y123409D01*
X428988Y124319D01*
X429117Y125295D01*
X428988Y126272D01*
X428612Y127181D01*
X428012Y127963D01*
X427231Y128562D01*
X426321Y128939D01*
X425345Y129068D01*
D02*
G37*
G36*
X131600Y124879D02*
X130947Y124749D01*
X130394Y124379D01*
X130024Y123826D01*
X129894Y123173D01*
X130024Y122520D01*
X130394Y121966D01*
X130947Y121597D01*
X131600Y121467D01*
X132253Y121597D01*
X132806Y121966D01*
X133176Y122520D01*
X133306Y123173D01*
X133176Y123826D01*
X132806Y124379D01*
X132253Y124749D01*
X131600Y124879D01*
D02*
G37*
G36*
X419297Y124295D02*
X416344D01*
Y121343D01*
X419297D01*
Y124295D01*
D02*
G37*
G36*
X414345D02*
X411392D01*
Y121343D01*
X414345D01*
Y124295D01*
D02*
G37*
G36*
X102215Y124778D02*
X101495Y124683D01*
X100825Y124405D01*
X100249Y123964D01*
X99807Y123388D01*
X99530Y122717D01*
X99435Y121998D01*
X99530Y121279D01*
X99807Y120608D01*
X100249Y120033D01*
X100825Y119591D01*
X101495Y119313D01*
X102215Y119218D01*
X102934Y119313D01*
X103604Y119591D01*
X104180Y120033D01*
X104622Y120608D01*
X104900Y121279D01*
X104994Y121998D01*
X104900Y122717D01*
X104622Y123388D01*
X104180Y123964D01*
X103604Y124405D01*
X102934Y124683D01*
X102215Y124778D01*
D02*
G37*
G36*
X75837D02*
X75117Y124683D01*
X74447Y124405D01*
X73871Y123964D01*
X73429Y123388D01*
X73152Y122717D01*
X73057Y121998D01*
X73152Y121279D01*
X73429Y120608D01*
X73871Y120033D01*
X74447Y119591D01*
X75117Y119313D01*
X75837Y119218D01*
X76556Y119313D01*
X77226Y119591D01*
X77802Y120033D01*
X78244Y120608D01*
X78522Y121279D01*
X78616Y121998D01*
X78522Y122717D01*
X78244Y123388D01*
X77802Y123964D01*
X77226Y124405D01*
X76556Y124683D01*
X75837Y124778D01*
D02*
G37*
G36*
X125573Y121174D02*
X124920Y121044D01*
X124366Y120674D01*
X123997Y120121D01*
X123867Y119468D01*
X123997Y118815D01*
X124366Y118261D01*
X124920Y117892D01*
X125573Y117762D01*
X126226Y117892D01*
X126779Y118261D01*
X127149Y118815D01*
X127279Y119468D01*
X127149Y120121D01*
X126779Y120674D01*
X126226Y121044D01*
X125573Y121174D01*
D02*
G37*
G36*
X131890Y120407D02*
X131237Y120277D01*
X130683Y119907D01*
X130314Y119354D01*
X130184Y118701D01*
X130314Y118048D01*
X130683Y117494D01*
X131237Y117125D01*
X131890Y116995D01*
X132543Y117125D01*
X133096Y117494D01*
X133466Y118048D01*
X133596Y118701D01*
X133466Y119354D01*
X133096Y119907D01*
X132543Y120277D01*
X131890Y120407D01*
D02*
G37*
G36*
X123033Y117503D02*
X122380Y117373D01*
X121827Y117003D01*
X121457Y116450D01*
X121327Y115797D01*
X121457Y115144D01*
X121827Y114591D01*
X122380Y114221D01*
X123033Y114091D01*
X123686Y114221D01*
X124240Y114591D01*
X124609Y115144D01*
X124739Y115797D01*
X124609Y116450D01*
X124240Y117003D01*
X123686Y117373D01*
X123033Y117503D01*
D02*
G37*
G36*
X128593Y116802D02*
X127940Y116672D01*
X127386Y116302D01*
X127016Y115749D01*
X126886Y115096D01*
X127016Y114443D01*
X127386Y113890D01*
X127940Y113520D01*
X128593Y113390D01*
X129245Y113520D01*
X129799Y113890D01*
X130169Y114443D01*
X130298Y115096D01*
X130169Y115749D01*
X129799Y116302D01*
X129245Y116672D01*
X128593Y116802D01*
D02*
G37*
G36*
X131890Y113812D02*
X131237Y113682D01*
X130683Y113313D01*
X130314Y112759D01*
X130184Y112106D01*
X130314Y111453D01*
X130683Y110900D01*
X131237Y110530D01*
X131890Y110400D01*
X132543Y110530D01*
X133096Y110900D01*
X133466Y111453D01*
X133596Y112106D01*
X133466Y112759D01*
X133096Y113313D01*
X132543Y113682D01*
X131890Y113812D01*
D02*
G37*
G36*
X389075Y114886D02*
X388355Y114791D01*
X387685Y114514D01*
X387109Y114072D01*
X386667Y113496D01*
X386390Y112826D01*
X386295Y112106D01*
X386390Y111387D01*
X386667Y110716D01*
X387109Y110141D01*
X387685Y109699D01*
X388355Y109421D01*
X389075Y109327D01*
X389794Y109421D01*
X390465Y109699D01*
X391040Y110141D01*
X391482Y110716D01*
X391760Y111387D01*
X391855Y112106D01*
X391760Y112826D01*
X391482Y113496D01*
X391040Y114072D01*
X390465Y114514D01*
X389794Y114791D01*
X389075Y114886D01*
D02*
G37*
G36*
X362697D02*
X361977Y114791D01*
X361307Y114514D01*
X360731Y114072D01*
X360290Y113496D01*
X360012Y112826D01*
X359917Y112106D01*
X360012Y111387D01*
X360290Y110716D01*
X360731Y110141D01*
X361307Y109699D01*
X361977Y109421D01*
X362697Y109327D01*
X363416Y109421D01*
X364087Y109699D01*
X364662Y110141D01*
X365104Y110716D01*
X365382Y111387D01*
X365476Y112106D01*
X365382Y112826D01*
X365104Y113496D01*
X364662Y114072D01*
X364087Y114514D01*
X363416Y114791D01*
X362697Y114886D01*
D02*
G37*
G36*
X336319D02*
X335599Y114791D01*
X334929Y114514D01*
X334353Y114072D01*
X333912Y113496D01*
X333634Y112826D01*
X333539Y112106D01*
X333634Y111387D01*
X333912Y110716D01*
X334353Y110141D01*
X334929Y109699D01*
X335599Y109421D01*
X336319Y109327D01*
X337038Y109421D01*
X337709Y109699D01*
X338284Y110141D01*
X338726Y110716D01*
X339004Y111387D01*
X339099Y112106D01*
X339004Y112826D01*
X338726Y113496D01*
X338284Y114072D01*
X337709Y114514D01*
X337038Y114791D01*
X336319Y114886D01*
D02*
G37*
G36*
X309941D02*
X309222Y114791D01*
X308551Y114514D01*
X307975Y114072D01*
X307534Y113496D01*
X307256Y112826D01*
X307161Y112106D01*
X307256Y111387D01*
X307534Y110716D01*
X307975Y110141D01*
X308551Y109699D01*
X309222Y109421D01*
X309941Y109327D01*
X310660Y109421D01*
X311331Y109699D01*
X311907Y110141D01*
X312348Y110716D01*
X312626Y111387D01*
X312721Y112106D01*
X312626Y112826D01*
X312348Y113496D01*
X311907Y114072D01*
X311331Y114514D01*
X310660Y114791D01*
X309941Y114886D01*
D02*
G37*
G36*
X283563D02*
X282844Y114791D01*
X282173Y114514D01*
X281597Y114072D01*
X281156Y113496D01*
X280878Y112826D01*
X280783Y112106D01*
X280878Y111387D01*
X281156Y110716D01*
X281597Y110141D01*
X282173Y109699D01*
X282844Y109421D01*
X283563Y109327D01*
X284282Y109421D01*
X284953Y109699D01*
X285528Y110141D01*
X285970Y110716D01*
X286248Y111387D01*
X286343Y112106D01*
X286248Y112826D01*
X285970Y113496D01*
X285528Y114072D01*
X284953Y114514D01*
X284282Y114791D01*
X283563Y114886D01*
D02*
G37*
G36*
X257185D02*
X256466Y114791D01*
X255795Y114514D01*
X255220Y114072D01*
X254778Y113496D01*
X254500Y112826D01*
X254405Y112106D01*
X254500Y111387D01*
X254778Y110716D01*
X255220Y110141D01*
X255795Y109699D01*
X256466Y109421D01*
X257185Y109327D01*
X257905Y109421D01*
X258575Y109699D01*
X259151Y110141D01*
X259592Y110716D01*
X259870Y111387D01*
X259965Y112106D01*
X259870Y112826D01*
X259592Y113496D01*
X259151Y114072D01*
X258575Y114514D01*
X257905Y114791D01*
X257185Y114886D01*
D02*
G37*
G36*
X230807D02*
X230088Y114791D01*
X229417Y114514D01*
X228842Y114072D01*
X228400Y113496D01*
X228122Y112826D01*
X228027Y112106D01*
X228122Y111387D01*
X228400Y110716D01*
X228842Y110141D01*
X229417Y109699D01*
X230088Y109421D01*
X230807Y109327D01*
X231526Y109421D01*
X232197Y109699D01*
X232773Y110141D01*
X233214Y110716D01*
X233492Y111387D01*
X233587Y112106D01*
X233492Y112826D01*
X233214Y113496D01*
X232773Y114072D01*
X232197Y114514D01*
X231526Y114791D01*
X230807Y114886D01*
D02*
G37*
G36*
X204429D02*
X203710Y114791D01*
X203039Y114514D01*
X202464Y114072D01*
X202022Y113496D01*
X201744Y112826D01*
X201649Y112106D01*
X201744Y111387D01*
X202022Y110716D01*
X202464Y110141D01*
X203039Y109699D01*
X203710Y109421D01*
X204429Y109327D01*
X205149Y109421D01*
X205819Y109699D01*
X206395Y110141D01*
X206836Y110716D01*
X207114Y111387D01*
X207209Y112106D01*
X207114Y112826D01*
X206836Y113496D01*
X206395Y114072D01*
X205819Y114514D01*
X205149Y114791D01*
X204429Y114886D01*
D02*
G37*
G36*
X178051D02*
X177332Y114791D01*
X176661Y114514D01*
X176086Y114072D01*
X175644Y113496D01*
X175366Y112826D01*
X175271Y112106D01*
X175366Y111387D01*
X175644Y110716D01*
X176086Y110141D01*
X176661Y109699D01*
X177332Y109421D01*
X178051Y109327D01*
X178771Y109421D01*
X179441Y109699D01*
X180017Y110141D01*
X180458Y110716D01*
X180736Y111387D01*
X180831Y112106D01*
X180736Y112826D01*
X180458Y113496D01*
X180017Y114072D01*
X179441Y114514D01*
X178771Y114791D01*
X178051Y114886D01*
D02*
G37*
G36*
X151673D02*
X150954Y114791D01*
X150283Y114514D01*
X149708Y114072D01*
X149266Y113496D01*
X148988Y112826D01*
X148894Y112106D01*
X148988Y111387D01*
X149266Y110716D01*
X149708Y110141D01*
X150283Y109699D01*
X150954Y109421D01*
X151673Y109327D01*
X152393Y109421D01*
X153063Y109699D01*
X153639Y110141D01*
X154080Y110716D01*
X154358Y111387D01*
X154453Y112106D01*
X154358Y112826D01*
X154080Y113496D01*
X153639Y114072D01*
X153063Y114514D01*
X152393Y114791D01*
X151673Y114886D01*
D02*
G37*
G36*
X102215Y111589D02*
X101495Y111494D01*
X100825Y111216D01*
X100249Y110775D01*
X99807Y110199D01*
X99530Y109529D01*
X99435Y108809D01*
X99530Y108090D01*
X99807Y107419D01*
X100249Y106843D01*
X100825Y106402D01*
X101495Y106124D01*
X102215Y106029D01*
X102934Y106124D01*
X103604Y106402D01*
X104180Y106843D01*
X104622Y107419D01*
X104900Y108090D01*
X104994Y108809D01*
X104900Y109529D01*
X104622Y110199D01*
X104180Y110775D01*
X103604Y111216D01*
X102934Y111494D01*
X102215Y111589D01*
D02*
G37*
G36*
X82431Y108291D02*
X81712Y108197D01*
X81041Y107919D01*
X80466Y107477D01*
X80024Y106902D01*
X79746Y106231D01*
X79651Y105512D01*
X79746Y104792D01*
X80024Y104122D01*
X80466Y103546D01*
X81041Y103104D01*
X81712Y102827D01*
X82431Y102732D01*
X83151Y102827D01*
X83821Y103104D01*
X84397Y103546D01*
X84838Y104122D01*
X85116Y104792D01*
X85211Y105512D01*
X85116Y106231D01*
X84838Y106902D01*
X84397Y107477D01*
X83821Y107919D01*
X83151Y108197D01*
X82431Y108291D01*
D02*
G37*
G36*
X389075Y101697D02*
X388355Y101602D01*
X387685Y101325D01*
X387109Y100883D01*
X386667Y100307D01*
X386390Y99637D01*
X386295Y98917D01*
X386390Y98198D01*
X386667Y97527D01*
X387109Y96952D01*
X387685Y96510D01*
X388355Y96232D01*
X389075Y96138D01*
X389794Y96232D01*
X390465Y96510D01*
X391040Y96952D01*
X391482Y97527D01*
X391760Y98198D01*
X391855Y98917D01*
X391760Y99637D01*
X391482Y100307D01*
X391040Y100883D01*
X390465Y101325D01*
X389794Y101602D01*
X389075Y101697D01*
D02*
G37*
G36*
X151673D02*
X150954Y101602D01*
X150283Y101325D01*
X149708Y100883D01*
X149266Y100307D01*
X148988Y99637D01*
X148894Y98917D01*
X148988Y98198D01*
X149266Y97527D01*
X149708Y96952D01*
X150283Y96510D01*
X150954Y96232D01*
X151673Y96138D01*
X152393Y96232D01*
X153063Y96510D01*
X153639Y96952D01*
X154080Y97527D01*
X154358Y98198D01*
X154453Y98917D01*
X154358Y99637D01*
X154080Y100307D01*
X153639Y100883D01*
X153063Y101325D01*
X152393Y101602D01*
X151673Y101697D01*
D02*
G37*
G36*
X467209Y96276D02*
X464256D01*
Y93936D01*
X463756Y93837D01*
X463602Y94209D01*
X463002Y94990D01*
X462221Y95590D01*
X461311Y95967D01*
X460335Y96095D01*
X459358Y95967D01*
X458448Y95590D01*
X457667Y94990D01*
X457068Y94209D01*
X456691Y93299D01*
X456562Y92323D01*
X456691Y91347D01*
X457068Y90437D01*
X457667Y89655D01*
X458448Y89056D01*
X459358Y88679D01*
X460335Y88550D01*
X461311Y88679D01*
X462221Y89056D01*
X463002Y89655D01*
X463602Y90437D01*
X463756Y90809D01*
X464256Y90710D01*
Y88370D01*
X467209D01*
Y92323D01*
Y96276D01*
D02*
G37*
G36*
X472161D02*
X469209D01*
Y93323D01*
X472161D01*
Y96276D01*
D02*
G37*
G36*
Y91323D02*
X469209D01*
Y88370D01*
X472161D01*
Y91323D01*
D02*
G37*
G36*
X389075Y88508D02*
X388355Y88413D01*
X387685Y88136D01*
X387109Y87694D01*
X386667Y87118D01*
X386390Y86448D01*
X386295Y85728D01*
X386390Y85009D01*
X386667Y84338D01*
X387109Y83763D01*
X387685Y83321D01*
X388355Y83043D01*
X389075Y82949D01*
X389794Y83043D01*
X390465Y83321D01*
X391040Y83763D01*
X391482Y84338D01*
X391760Y85009D01*
X391855Y85728D01*
X391760Y86448D01*
X391482Y87118D01*
X391040Y87694D01*
X390465Y88136D01*
X389794Y88413D01*
X389075Y88508D01*
D02*
G37*
G36*
X362697D02*
X361977Y88413D01*
X361307Y88136D01*
X360731Y87694D01*
X360290Y87118D01*
X360012Y86448D01*
X359917Y85728D01*
X360012Y85009D01*
X360290Y84338D01*
X360731Y83763D01*
X361307Y83321D01*
X361977Y83043D01*
X362697Y82949D01*
X363416Y83043D01*
X364087Y83321D01*
X364662Y83763D01*
X365104Y84338D01*
X365382Y85009D01*
X365476Y85728D01*
X365382Y86448D01*
X365104Y87118D01*
X364662Y87694D01*
X364087Y88136D01*
X363416Y88413D01*
X362697Y88508D01*
D02*
G37*
G36*
X336319D02*
X335599Y88413D01*
X334929Y88136D01*
X334353Y87694D01*
X333912Y87118D01*
X333634Y86448D01*
X333539Y85728D01*
X333634Y85009D01*
X333912Y84338D01*
X334353Y83763D01*
X334929Y83321D01*
X335599Y83043D01*
X336319Y82949D01*
X337038Y83043D01*
X337709Y83321D01*
X338284Y83763D01*
X338726Y84338D01*
X339004Y85009D01*
X339099Y85728D01*
X339004Y86448D01*
X338726Y87118D01*
X338284Y87694D01*
X337709Y88136D01*
X337038Y88413D01*
X336319Y88508D01*
D02*
G37*
G36*
X309941D02*
X309222Y88413D01*
X308551Y88136D01*
X307975Y87694D01*
X307534Y87118D01*
X307256Y86448D01*
X307161Y85728D01*
X307256Y85009D01*
X307534Y84338D01*
X307975Y83763D01*
X308551Y83321D01*
X309222Y83043D01*
X309941Y82949D01*
X310660Y83043D01*
X311331Y83321D01*
X311907Y83763D01*
X312348Y84338D01*
X312626Y85009D01*
X312721Y85728D01*
X312626Y86448D01*
X312348Y87118D01*
X311907Y87694D01*
X311331Y88136D01*
X310660Y88413D01*
X309941Y88508D01*
D02*
G37*
G36*
X283563D02*
X282844Y88413D01*
X282173Y88136D01*
X281597Y87694D01*
X281156Y87118D01*
X280878Y86448D01*
X280783Y85728D01*
X280878Y85009D01*
X281156Y84338D01*
X281597Y83763D01*
X282173Y83321D01*
X282844Y83043D01*
X283563Y82949D01*
X284282Y83043D01*
X284953Y83321D01*
X285528Y83763D01*
X285970Y84338D01*
X286248Y85009D01*
X286343Y85728D01*
X286248Y86448D01*
X285970Y87118D01*
X285528Y87694D01*
X284953Y88136D01*
X284282Y88413D01*
X283563Y88508D01*
D02*
G37*
G36*
X257185D02*
X256466Y88413D01*
X255795Y88136D01*
X255220Y87694D01*
X254778Y87118D01*
X254500Y86448D01*
X254405Y85728D01*
X254500Y85009D01*
X254778Y84338D01*
X255220Y83763D01*
X255795Y83321D01*
X256466Y83043D01*
X257185Y82949D01*
X257905Y83043D01*
X258575Y83321D01*
X259151Y83763D01*
X259592Y84338D01*
X259870Y85009D01*
X259965Y85728D01*
X259870Y86448D01*
X259592Y87118D01*
X259151Y87694D01*
X258575Y88136D01*
X257905Y88413D01*
X257185Y88508D01*
D02*
G37*
G36*
X230807D02*
X230088Y88413D01*
X229417Y88136D01*
X228842Y87694D01*
X228400Y87118D01*
X228122Y86448D01*
X228027Y85728D01*
X228122Y85009D01*
X228400Y84338D01*
X228842Y83763D01*
X229417Y83321D01*
X230088Y83043D01*
X230807Y82949D01*
X231526Y83043D01*
X232197Y83321D01*
X232773Y83763D01*
X233214Y84338D01*
X233492Y85009D01*
X233587Y85728D01*
X233492Y86448D01*
X233214Y87118D01*
X232773Y87694D01*
X232197Y88136D01*
X231526Y88413D01*
X230807Y88508D01*
D02*
G37*
G36*
X204429D02*
X203710Y88413D01*
X203039Y88136D01*
X202464Y87694D01*
X202022Y87118D01*
X201744Y86448D01*
X201649Y85728D01*
X201744Y85009D01*
X202022Y84338D01*
X202464Y83763D01*
X203039Y83321D01*
X203710Y83043D01*
X204429Y82949D01*
X205149Y83043D01*
X205819Y83321D01*
X206395Y83763D01*
X206836Y84338D01*
X207114Y85009D01*
X207209Y85728D01*
X207114Y86448D01*
X206836Y87118D01*
X206395Y87694D01*
X205819Y88136D01*
X205149Y88413D01*
X204429Y88508D01*
D02*
G37*
G36*
X178051D02*
X177332Y88413D01*
X176661Y88136D01*
X176086Y87694D01*
X175644Y87118D01*
X175366Y86448D01*
X175271Y85728D01*
X175366Y85009D01*
X175644Y84338D01*
X176086Y83763D01*
X176661Y83321D01*
X177332Y83043D01*
X178051Y82949D01*
X178771Y83043D01*
X179441Y83321D01*
X180017Y83763D01*
X180458Y84338D01*
X180736Y85009D01*
X180831Y85728D01*
X180736Y86448D01*
X180458Y87118D01*
X180017Y87694D01*
X179441Y88136D01*
X178771Y88413D01*
X178051Y88508D01*
D02*
G37*
G36*
X151673D02*
X150954Y88413D01*
X150283Y88136D01*
X149708Y87694D01*
X149266Y87118D01*
X148988Y86448D01*
X148894Y85728D01*
X148988Y85009D01*
X149266Y84338D01*
X149708Y83763D01*
X150283Y83321D01*
X150954Y83043D01*
X151673Y82949D01*
X152393Y83043D01*
X153063Y83321D01*
X153639Y83763D01*
X154080Y84338D01*
X154358Y85009D01*
X154453Y85728D01*
X154358Y86448D01*
X154080Y87118D01*
X153639Y87694D01*
X153063Y88136D01*
X152393Y88413D01*
X151673Y88508D01*
D02*
G37*
G36*
X412155Y85211D02*
X411436Y85116D01*
X410766Y84838D01*
X410190Y84397D01*
X409748Y83821D01*
X409471Y83151D01*
X409376Y82431D01*
X409471Y81712D01*
X409748Y81041D01*
X410190Y80466D01*
X410766Y80024D01*
X411436Y79746D01*
X412155Y79651D01*
X412875Y79746D01*
X413545Y80024D01*
X414121Y80466D01*
X414563Y81041D01*
X414841Y81712D01*
X414935Y82431D01*
X414841Y83151D01*
X414563Y83821D01*
X414121Y84397D01*
X413545Y84838D01*
X412875Y85116D01*
X412155Y85211D01*
D02*
G37*
G36*
X151673Y75319D02*
X150954Y75224D01*
X150283Y74947D01*
X149708Y74505D01*
X149266Y73929D01*
X148988Y73259D01*
X148894Y72539D01*
X148988Y71820D01*
X149266Y71149D01*
X149708Y70574D01*
X150283Y70132D01*
X150954Y69854D01*
X151673Y69760D01*
X152393Y69854D01*
X153063Y70132D01*
X153639Y70574D01*
X154080Y71149D01*
X154358Y71820D01*
X154453Y72539D01*
X154358Y73259D01*
X154080Y73929D01*
X153639Y74505D01*
X153063Y74947D01*
X152393Y75224D01*
X151673Y75319D01*
D02*
G37*
G36*
X389075Y75855D02*
X388217Y75742D01*
X387417Y75411D01*
X386730Y74884D01*
X386203Y74197D01*
X385872Y73398D01*
X385759Y72539D01*
X385872Y71681D01*
X386203Y70881D01*
X386730Y70195D01*
X387417Y69668D01*
X388217Y69337D01*
X389075Y69224D01*
X389933Y69337D01*
X390733Y69668D01*
X391419Y70195D01*
X391946Y70881D01*
X392278Y71681D01*
X392391Y72539D01*
X392278Y73398D01*
X391946Y74197D01*
X391419Y74884D01*
X390733Y75411D01*
X389933Y75742D01*
X389075Y75855D01*
D02*
G37*
G36*
X422047Y68725D02*
X421328Y68630D01*
X420657Y68352D01*
X420082Y67910D01*
X419640Y67335D01*
X419362Y66664D01*
X419268Y65945D01*
X419362Y65225D01*
X419640Y64555D01*
X420082Y63979D01*
X420657Y63538D01*
X421328Y63260D01*
X422047Y63165D01*
X422767Y63260D01*
X423437Y63538D01*
X424013Y63979D01*
X424454Y64555D01*
X424732Y65225D01*
X424827Y65945D01*
X424732Y66664D01*
X424454Y67335D01*
X424013Y67910D01*
X423437Y68352D01*
X422767Y68630D01*
X422047Y68725D01*
D02*
G37*
G36*
X85728Y62130D02*
X85009Y62035D01*
X84338Y61758D01*
X83763Y61316D01*
X83321Y60740D01*
X83043Y60070D01*
X82949Y59350D01*
X83043Y58631D01*
X83321Y57961D01*
X83763Y57385D01*
X84338Y56943D01*
X85009Y56665D01*
X85728Y56571D01*
X86448Y56665D01*
X87118Y56943D01*
X87694Y57385D01*
X88136Y57961D01*
X88413Y58631D01*
X88508Y59350D01*
X88413Y60070D01*
X88136Y60740D01*
X87694Y61316D01*
X87118Y61758D01*
X86448Y62035D01*
X85728Y62130D01*
D02*
G37*
G36*
X389075Y62130D02*
X388355Y62035D01*
X387685Y61758D01*
X387109Y61316D01*
X386667Y60740D01*
X386390Y60070D01*
X386295Y59350D01*
X386390Y58631D01*
X386667Y57961D01*
X387109Y57385D01*
X387685Y56943D01*
X388355Y56665D01*
X389075Y56571D01*
X389794Y56665D01*
X390465Y56943D01*
X391040Y57385D01*
X391482Y57961D01*
X391760Y58631D01*
X391855Y59350D01*
X391760Y60070D01*
X391482Y60740D01*
X391040Y61316D01*
X390465Y61758D01*
X389794Y62035D01*
X389075Y62130D01*
D02*
G37*
G36*
X362697D02*
X361977Y62035D01*
X361307Y61758D01*
X360731Y61316D01*
X360290Y60740D01*
X360012Y60070D01*
X359917Y59350D01*
X360012Y58631D01*
X360290Y57961D01*
X360731Y57385D01*
X361307Y56943D01*
X361977Y56665D01*
X362697Y56571D01*
X363416Y56665D01*
X364087Y56943D01*
X364662Y57385D01*
X365104Y57961D01*
X365382Y58631D01*
X365476Y59350D01*
X365382Y60070D01*
X365104Y60740D01*
X364662Y61316D01*
X364087Y61758D01*
X363416Y62035D01*
X362697Y62130D01*
D02*
G37*
G36*
X336319D02*
X335599Y62035D01*
X334929Y61758D01*
X334353Y61316D01*
X333912Y60740D01*
X333634Y60070D01*
X333539Y59350D01*
X333634Y58631D01*
X333912Y57961D01*
X334353Y57385D01*
X334929Y56943D01*
X335599Y56665D01*
X336319Y56571D01*
X337038Y56665D01*
X337709Y56943D01*
X338284Y57385D01*
X338726Y57961D01*
X339004Y58631D01*
X339099Y59350D01*
X339004Y60070D01*
X338726Y60740D01*
X338284Y61316D01*
X337709Y61758D01*
X337038Y62035D01*
X336319Y62130D01*
D02*
G37*
G36*
X309941D02*
X309222Y62035D01*
X308551Y61758D01*
X307975Y61316D01*
X307534Y60740D01*
X307256Y60070D01*
X307161Y59350D01*
X307256Y58631D01*
X307534Y57961D01*
X307975Y57385D01*
X308551Y56943D01*
X309222Y56665D01*
X309941Y56571D01*
X310660Y56665D01*
X311331Y56943D01*
X311907Y57385D01*
X312348Y57961D01*
X312626Y58631D01*
X312721Y59350D01*
X312626Y60070D01*
X312348Y60740D01*
X311907Y61316D01*
X311331Y61758D01*
X310660Y62035D01*
X309941Y62130D01*
D02*
G37*
G36*
X283563D02*
X282844Y62035D01*
X282173Y61758D01*
X281597Y61316D01*
X281156Y60740D01*
X280878Y60070D01*
X280783Y59350D01*
X280878Y58631D01*
X281156Y57961D01*
X281597Y57385D01*
X282173Y56943D01*
X282844Y56665D01*
X283563Y56571D01*
X284282Y56665D01*
X284953Y56943D01*
X285528Y57385D01*
X285970Y57961D01*
X286248Y58631D01*
X286343Y59350D01*
X286248Y60070D01*
X285970Y60740D01*
X285528Y61316D01*
X284953Y61758D01*
X284282Y62035D01*
X283563Y62130D01*
D02*
G37*
G36*
X257185D02*
X256466Y62035D01*
X255795Y61758D01*
X255220Y61316D01*
X254778Y60740D01*
X254500Y60070D01*
X254405Y59350D01*
X254500Y58631D01*
X254778Y57961D01*
X255220Y57385D01*
X255795Y56943D01*
X256466Y56665D01*
X257185Y56571D01*
X257905Y56665D01*
X258575Y56943D01*
X259151Y57385D01*
X259592Y57961D01*
X259870Y58631D01*
X259965Y59350D01*
X259870Y60070D01*
X259592Y60740D01*
X259151Y61316D01*
X258575Y61758D01*
X257905Y62035D01*
X257185Y62130D01*
D02*
G37*
G36*
X230807D02*
X230088Y62035D01*
X229417Y61758D01*
X228842Y61316D01*
X228400Y60740D01*
X228122Y60070D01*
X228027Y59350D01*
X228122Y58631D01*
X228400Y57961D01*
X228842Y57385D01*
X229417Y56943D01*
X230088Y56665D01*
X230807Y56571D01*
X231526Y56665D01*
X232197Y56943D01*
X232773Y57385D01*
X233214Y57961D01*
X233492Y58631D01*
X233587Y59350D01*
X233492Y60070D01*
X233214Y60740D01*
X232773Y61316D01*
X232197Y61758D01*
X231526Y62035D01*
X230807Y62130D01*
D02*
G37*
G36*
X204429D02*
X203710Y62035D01*
X203039Y61758D01*
X202464Y61316D01*
X202022Y60740D01*
X201744Y60070D01*
X201649Y59350D01*
X201744Y58631D01*
X202022Y57961D01*
X202464Y57385D01*
X203039Y56943D01*
X203710Y56665D01*
X204429Y56571D01*
X205149Y56665D01*
X205819Y56943D01*
X206395Y57385D01*
X206836Y57961D01*
X207114Y58631D01*
X207209Y59350D01*
X207114Y60070D01*
X206836Y60740D01*
X206395Y61316D01*
X205819Y61758D01*
X205149Y62035D01*
X204429Y62130D01*
D02*
G37*
G36*
X178051D02*
X177332Y62035D01*
X176661Y61758D01*
X176086Y61316D01*
X175644Y60740D01*
X175366Y60070D01*
X175271Y59350D01*
X175366Y58631D01*
X175644Y57961D01*
X176086Y57385D01*
X176661Y56943D01*
X177332Y56665D01*
X178051Y56571D01*
X178771Y56665D01*
X179441Y56943D01*
X180017Y57385D01*
X180458Y57961D01*
X180736Y58631D01*
X180831Y59350D01*
X180736Y60070D01*
X180458Y60740D01*
X180017Y61316D01*
X179441Y61758D01*
X178771Y62035D01*
X178051Y62130D01*
D02*
G37*
G36*
X151673D02*
X150954Y62035D01*
X150283Y61758D01*
X149708Y61316D01*
X149266Y60740D01*
X148988Y60070D01*
X148894Y59350D01*
X148988Y58631D01*
X149266Y57961D01*
X149708Y57385D01*
X150283Y56943D01*
X150954Y56665D01*
X151673Y56571D01*
X152393Y56665D01*
X153063Y56943D01*
X153639Y57385D01*
X154080Y57961D01*
X154358Y58631D01*
X154453Y59350D01*
X154358Y60070D01*
X154080Y60740D01*
X153639Y61316D01*
X153063Y61758D01*
X152393Y62035D01*
X151673Y62130D01*
D02*
G37*
G36*
X125403Y57338D02*
X124658Y57240D01*
X123964Y56952D01*
X123368Y56494D01*
X123219Y56300D01*
X122588D01*
X122439Y56494D01*
X121843Y56952D01*
X121149Y57240D01*
X120404Y57338D01*
X119658Y57240D01*
X118964Y56952D01*
X118368Y56494D01*
X118219Y56300D01*
X117588D01*
X117439Y56494D01*
X116843Y56952D01*
X116149Y57240D01*
X115403Y57338D01*
X114658Y57240D01*
X113964Y56952D01*
X113368Y56494D01*
X113219Y56300D01*
X112588D01*
X112439Y56494D01*
X111843Y56952D01*
X111149Y57240D01*
X110404Y57338D01*
X109658Y57240D01*
X108964Y56952D01*
X108368Y56494D01*
X108219Y56300D01*
X107588D01*
X107439Y56494D01*
X106843Y56952D01*
X106149Y57240D01*
X105403Y57338D01*
X104658Y57240D01*
X103964Y56952D01*
X103368Y56494D01*
X102910Y55898D01*
X102623Y55204D01*
X102525Y54459D01*
X102623Y53714D01*
X102910Y53019D01*
X103368Y52423D01*
X103562Y52274D01*
Y51644D01*
X103368Y51494D01*
X102910Y50898D01*
X102623Y50204D01*
X102525Y49459D01*
X102623Y48713D01*
X102910Y48019D01*
X103368Y47423D01*
X103964Y46965D01*
X104658Y46678D01*
X105403Y46580D01*
X106149Y46678D01*
X106843Y46965D01*
X107439Y47423D01*
X107588Y47617D01*
X108219D01*
X108368Y47423D01*
X108964Y46965D01*
X109658Y46678D01*
X110404Y46580D01*
X111149Y46678D01*
X111843Y46965D01*
X112439Y47423D01*
X112520Y47528D01*
X113020D01*
X113216Y47271D01*
X113857Y46780D01*
X114403Y46553D01*
Y49459D01*
X116403D01*
Y46553D01*
X116950Y46780D01*
X117591Y47271D01*
X117654Y47353D01*
X118154D01*
X118216Y47271D01*
X118857Y46780D01*
X119404Y46553D01*
Y49459D01*
X121404D01*
Y46553D01*
X121950Y46780D01*
X122591Y47271D01*
X122787Y47528D01*
X123287D01*
X123368Y47423D01*
X123964Y46965D01*
X124658Y46678D01*
X125403Y46580D01*
X126149Y46678D01*
X126843Y46965D01*
X127439Y47423D01*
X127897Y48019D01*
X128184Y48713D01*
X128282Y49459D01*
X128184Y50204D01*
X127897Y50898D01*
X127439Y51494D01*
X127245Y51644D01*
Y52274D01*
X127439Y52423D01*
X127897Y53019D01*
X128184Y53714D01*
X128282Y54459D01*
X128184Y55204D01*
X127897Y55898D01*
X127439Y56494D01*
X126843Y56952D01*
X126149Y57240D01*
X125403Y57338D01*
D02*
G37*
G36*
X151673Y48941D02*
X150954Y48846D01*
X150283Y48569D01*
X149708Y48127D01*
X149266Y47551D01*
X148988Y46881D01*
X148894Y46161D01*
X148988Y45442D01*
X149266Y44772D01*
X149708Y44196D01*
X150283Y43754D01*
X150954Y43477D01*
X151673Y43382D01*
X152393Y43477D01*
X153063Y43754D01*
X153639Y44196D01*
X154080Y44772D01*
X154358Y45442D01*
X154453Y46161D01*
X154358Y46881D01*
X154080Y47551D01*
X153639Y48127D01*
X153063Y48569D01*
X152393Y48846D01*
X151673Y48941D01*
D02*
G37*
G36*
X389075Y49477D02*
X388217Y49364D01*
X387417Y49033D01*
X386730Y48506D01*
X386203Y47819D01*
X385872Y47020D01*
X385759Y46161D01*
X385872Y45303D01*
X386203Y44504D01*
X386730Y43817D01*
X387417Y43290D01*
X388217Y42959D01*
X389075Y42846D01*
X389933Y42959D01*
X390733Y43290D01*
X391419Y43817D01*
X391946Y44504D01*
X392278Y45303D01*
X392391Y46161D01*
X392278Y47020D01*
X391946Y47819D01*
X391419Y48506D01*
X390733Y49033D01*
X389933Y49364D01*
X389075Y49477D01*
D02*
G37*
G36*
X418750Y42648D02*
X417952Y42543D01*
X417209Y42236D01*
X416571Y41746D01*
X416081Y41108D01*
X415773Y40365D01*
X415668Y39567D01*
X415773Y38769D01*
X416081Y38026D01*
X416571Y37388D01*
X417209Y36898D01*
X417952Y36590D01*
X418750Y36485D01*
X419548Y36590D01*
X420291Y36898D01*
X420929Y37388D01*
X421419Y38026D01*
X421727Y38769D01*
X421832Y39567D01*
X421727Y40365D01*
X421419Y41108D01*
X420929Y41746D01*
X420291Y42236D01*
X419548Y42543D01*
X418750Y42648D01*
D02*
G37*
G36*
X389075Y35752D02*
X388355Y35657D01*
X387685Y35380D01*
X387109Y34938D01*
X386667Y34362D01*
X386390Y33692D01*
X386295Y32972D01*
X386390Y32253D01*
X386667Y31583D01*
X387109Y31007D01*
X387685Y30565D01*
X388355Y30288D01*
X389075Y30193D01*
X389794Y30288D01*
X390465Y30565D01*
X391040Y31007D01*
X391482Y31583D01*
X391760Y32253D01*
X391855Y32972D01*
X391760Y33692D01*
X391482Y34362D01*
X391040Y34938D01*
X390465Y35380D01*
X389794Y35657D01*
X389075Y35752D01*
D02*
G37*
G36*
X362697D02*
X361977Y35657D01*
X361307Y35380D01*
X360731Y34938D01*
X360290Y34362D01*
X360012Y33692D01*
X359917Y32972D01*
X360012Y32253D01*
X360290Y31583D01*
X360731Y31007D01*
X361307Y30565D01*
X361977Y30288D01*
X362697Y30193D01*
X363416Y30288D01*
X364087Y30565D01*
X364662Y31007D01*
X365104Y31583D01*
X365382Y32253D01*
X365476Y32972D01*
X365382Y33692D01*
X365104Y34362D01*
X364662Y34938D01*
X364087Y35380D01*
X363416Y35657D01*
X362697Y35752D01*
D02*
G37*
G36*
X336319D02*
X335599Y35657D01*
X334929Y35380D01*
X334353Y34938D01*
X333912Y34362D01*
X333634Y33692D01*
X333539Y32972D01*
X333634Y32253D01*
X333912Y31583D01*
X334353Y31007D01*
X334929Y30565D01*
X335599Y30288D01*
X336319Y30193D01*
X337038Y30288D01*
X337709Y30565D01*
X338284Y31007D01*
X338726Y31583D01*
X339004Y32253D01*
X339099Y32972D01*
X339004Y33692D01*
X338726Y34362D01*
X338284Y34938D01*
X337709Y35380D01*
X337038Y35657D01*
X336319Y35752D01*
D02*
G37*
G36*
X309941D02*
X309222Y35657D01*
X308551Y35380D01*
X307975Y34938D01*
X307534Y34362D01*
X307256Y33692D01*
X307161Y32972D01*
X307256Y32253D01*
X307534Y31583D01*
X307975Y31007D01*
X308551Y30565D01*
X309222Y30288D01*
X309941Y30193D01*
X310660Y30288D01*
X311331Y30565D01*
X311907Y31007D01*
X312348Y31583D01*
X312626Y32253D01*
X312721Y32972D01*
X312626Y33692D01*
X312348Y34362D01*
X311907Y34938D01*
X311331Y35380D01*
X310660Y35657D01*
X309941Y35752D01*
D02*
G37*
G36*
X283563D02*
X282844Y35657D01*
X282173Y35380D01*
X281597Y34938D01*
X281156Y34362D01*
X280878Y33692D01*
X280783Y32972D01*
X280878Y32253D01*
X281156Y31583D01*
X281597Y31007D01*
X282173Y30565D01*
X282844Y30288D01*
X283563Y30193D01*
X284282Y30288D01*
X284953Y30565D01*
X285528Y31007D01*
X285970Y31583D01*
X286248Y32253D01*
X286343Y32972D01*
X286248Y33692D01*
X285970Y34362D01*
X285528Y34938D01*
X284953Y35380D01*
X284282Y35657D01*
X283563Y35752D01*
D02*
G37*
G36*
X257185D02*
X256466Y35657D01*
X255795Y35380D01*
X255220Y34938D01*
X254778Y34362D01*
X254500Y33692D01*
X254405Y32972D01*
X254500Y32253D01*
X254778Y31583D01*
X255220Y31007D01*
X255795Y30565D01*
X256466Y30288D01*
X257185Y30193D01*
X257905Y30288D01*
X258575Y30565D01*
X259151Y31007D01*
X259592Y31583D01*
X259870Y32253D01*
X259965Y32972D01*
X259870Y33692D01*
X259592Y34362D01*
X259151Y34938D01*
X258575Y35380D01*
X257905Y35657D01*
X257185Y35752D01*
D02*
G37*
G36*
X230807D02*
X230088Y35657D01*
X229417Y35380D01*
X228842Y34938D01*
X228400Y34362D01*
X228122Y33692D01*
X228027Y32972D01*
X228122Y32253D01*
X228400Y31583D01*
X228842Y31007D01*
X229417Y30565D01*
X230088Y30288D01*
X230807Y30193D01*
X231526Y30288D01*
X232197Y30565D01*
X232773Y31007D01*
X233214Y31583D01*
X233492Y32253D01*
X233587Y32972D01*
X233492Y33692D01*
X233214Y34362D01*
X232773Y34938D01*
X232197Y35380D01*
X231526Y35657D01*
X230807Y35752D01*
D02*
G37*
G36*
X204429D02*
X203710Y35657D01*
X203039Y35380D01*
X202464Y34938D01*
X202022Y34362D01*
X201744Y33692D01*
X201649Y32972D01*
X201744Y32253D01*
X202022Y31583D01*
X202464Y31007D01*
X203039Y30565D01*
X203710Y30288D01*
X204429Y30193D01*
X205149Y30288D01*
X205819Y30565D01*
X206395Y31007D01*
X206836Y31583D01*
X207114Y32253D01*
X207209Y32972D01*
X207114Y33692D01*
X206836Y34362D01*
X206395Y34938D01*
X205819Y35380D01*
X205149Y35657D01*
X204429Y35752D01*
D02*
G37*
G36*
X178051D02*
X177332Y35657D01*
X176661Y35380D01*
X176086Y34938D01*
X175644Y34362D01*
X175366Y33692D01*
X175271Y32972D01*
X175366Y32253D01*
X175644Y31583D01*
X176086Y31007D01*
X176661Y30565D01*
X177332Y30288D01*
X178051Y30193D01*
X178771Y30288D01*
X179441Y30565D01*
X180017Y31007D01*
X180458Y31583D01*
X180736Y32253D01*
X180831Y32972D01*
X180736Y33692D01*
X180458Y34362D01*
X180017Y34938D01*
X179441Y35380D01*
X178771Y35657D01*
X178051Y35752D01*
D02*
G37*
G36*
X151673D02*
X150954Y35657D01*
X150283Y35380D01*
X149708Y34938D01*
X149266Y34362D01*
X148988Y33692D01*
X148894Y32972D01*
X148988Y32253D01*
X149266Y31583D01*
X149708Y31007D01*
X150283Y30565D01*
X150954Y30288D01*
X151673Y30193D01*
X152393Y30288D01*
X153063Y30565D01*
X153639Y31007D01*
X154080Y31583D01*
X154358Y32253D01*
X154453Y32972D01*
X154358Y33692D01*
X154080Y34362D01*
X153639Y34938D01*
X153063Y35380D01*
X152393Y35657D01*
X151673Y35752D01*
D02*
G37*
G36*
X125295Y29459D02*
X124498Y29354D01*
X123755Y29047D01*
X123116Y28557D01*
X122627Y27919D01*
X122319Y27176D01*
X122214Y26378D01*
X122319Y25580D01*
X122627Y24837D01*
X123116Y24199D01*
X123755Y23709D01*
X124498Y23402D01*
X125295Y23297D01*
X126093Y23402D01*
X126836Y23709D01*
X127474Y24199D01*
X127964Y24837D01*
X128272Y25580D01*
X128377Y26378D01*
X128272Y27176D01*
X127964Y27919D01*
X127474Y28557D01*
X126836Y29047D01*
X126093Y29354D01*
X125295Y29459D01*
D02*
G37*
G36*
X151673Y22563D02*
X150954Y22468D01*
X150283Y22191D01*
X149708Y21749D01*
X149266Y21173D01*
X148988Y20503D01*
X148894Y19783D01*
X148988Y19064D01*
X149266Y18394D01*
X149708Y17818D01*
X150283Y17376D01*
X150954Y17098D01*
X151673Y17004D01*
X152393Y17098D01*
X153063Y17376D01*
X153639Y17818D01*
X154080Y18394D01*
X154358Y19064D01*
X154453Y19783D01*
X154358Y20503D01*
X154080Y21173D01*
X153639Y21749D01*
X153063Y22191D01*
X152393Y22468D01*
X151673Y22563D01*
D02*
G37*
%LPD*%
D46*
X120404Y49459D02*
D03*
X115403D02*
D03*
D47*
X468209Y92323D02*
D03*
D51*
X415344Y125295D02*
D03*
D53*
X459323Y110352D02*
D03*
X468209Y164862D02*
D03*
X46161D02*
D03*
X349508Y32972D02*
D03*
Y85728D02*
D03*
Y138484D02*
D03*
X296752D02*
D03*
Y85728D02*
D03*
Y32972D02*
D03*
X243996D02*
D03*
Y85728D02*
D03*
Y138484D02*
D03*
X191240D02*
D03*
Y85728D02*
D03*
Y32972D02*
D03*
X118701Y154971D02*
D03*
X112106Y92323D02*
D03*
X79134Y131890D02*
D03*
X507776Y191240D02*
D03*
Y243996D02*
D03*
Y296752D02*
D03*
Y349508D02*
D03*
X441831Y184646D02*
D03*
X468209D02*
D03*
X309941Y211024D02*
D03*
X336319D02*
D03*
X362697D02*
D03*
X389075D02*
D03*
X415453D02*
D03*
X441831D02*
D03*
X468209D02*
D03*
X309941Y237402D02*
D03*
X336319D02*
D03*
X362697D02*
D03*
X389075D02*
D03*
X415453D02*
D03*
X441831D02*
D03*
X468209D02*
D03*
X309941Y263779D02*
D03*
X336319D02*
D03*
X362697D02*
D03*
X389075D02*
D03*
X415453D02*
D03*
X441831D02*
D03*
X468209D02*
D03*
X309941Y290158D02*
D03*
X336319D02*
D03*
X362697D02*
D03*
X389075D02*
D03*
X415453D02*
D03*
X441831D02*
D03*
X468209D02*
D03*
X309941Y316535D02*
D03*
X336319D02*
D03*
X362697D02*
D03*
X389075D02*
D03*
X415453D02*
D03*
X441831D02*
D03*
X468209D02*
D03*
X309941Y342913D02*
D03*
X336319D02*
D03*
X362697D02*
D03*
X389075D02*
D03*
X415453D02*
D03*
X441831D02*
D03*
X468209D02*
D03*
X72539Y184646D02*
D03*
X98917D02*
D03*
X125295D02*
D03*
X72539Y211024D02*
D03*
X98917D02*
D03*
X125295D02*
D03*
X151673D02*
D03*
X178051D02*
D03*
X204429D02*
D03*
X230807D02*
D03*
X72539Y237402D02*
D03*
X98917D02*
D03*
X125295D02*
D03*
X151673D02*
D03*
X178051D02*
D03*
X204429D02*
D03*
X230807D02*
D03*
X72539Y263779D02*
D03*
X98917D02*
D03*
X125295D02*
D03*
X151673D02*
D03*
X178051D02*
D03*
X204429D02*
D03*
X230807D02*
D03*
X72539Y290158D02*
D03*
X98917D02*
D03*
X125295D02*
D03*
X151673D02*
D03*
X178051D02*
D03*
X204429D02*
D03*
X230807D02*
D03*
X72539Y316535D02*
D03*
X98917D02*
D03*
X125295D02*
D03*
X151673D02*
D03*
X178051D02*
D03*
X204429D02*
D03*
X230807D02*
D03*
X412155Y72539D02*
D03*
X32972Y217618D02*
D03*
Y270374D02*
D03*
Y323130D02*
D03*
X257185Y369291D02*
D03*
X270374Y191240D02*
D03*
Y217618D02*
D03*
Y243996D02*
D03*
Y270374D02*
D03*
Y296752D02*
D03*
Y323130D02*
D03*
Y349508D02*
D03*
X230807Y342913D02*
D03*
X204429D02*
D03*
X178051D02*
D03*
X151673D02*
D03*
X125295D02*
D03*
X98917D02*
D03*
X72539D02*
D03*
X451722Y145079D02*
D03*
X474803Y125295D02*
D03*
M02*
