G04*
G04 #@! TF.GenerationSoftware,Altium Limited,Altium Designer,20.1.14 (287)*
G04*
G04 Layer_Color=65535*
%FSLAX25Y25*%
%MOIN*%
G70*
G04*
G04 #@! TF.SameCoordinates,FB09635C-FFB3-414F-8314-2C795C5734A7*
G04*
G04*
G04 #@! TF.FilePolarity,Positive*
G04*
G01*
G75*
%ADD10C,0.00984*%
%ADD11C,0.02362*%
%ADD12C,0.00787*%
%ADD13C,0.01000*%
D10*
X424409Y83022D02*
X423671Y83448D01*
Y82595D01*
X424409Y83022D01*
X374803Y26280D02*
X374065Y26706D01*
Y25853D01*
X374803Y26280D01*
X348425D02*
X347687Y26706D01*
Y25853D01*
X348425Y26280D01*
X322047D02*
X321309Y26706D01*
Y25853D01*
X322047Y26280D01*
X295669D02*
X294931Y26706D01*
Y25853D01*
X295669Y26280D01*
X269291D02*
X268553Y26706D01*
Y25853D01*
X269291Y26280D01*
X242913D02*
X242175Y26706D01*
Y25853D01*
X242913Y26280D01*
X216535D02*
X215797Y26706D01*
Y25853D01*
X216535Y26280D01*
X190157D02*
X189419Y26706D01*
Y25853D01*
X190157Y26280D01*
X163779D02*
X163041Y26706D01*
Y25853D01*
X163779Y26280D01*
X137402D02*
X136663Y26706D01*
Y25853D01*
X137402Y26280D01*
X374803Y52658D02*
X374065Y53084D01*
Y52231D01*
X374803Y52658D01*
X348425D02*
X347687Y53084D01*
Y52231D01*
X348425Y52658D01*
X322047D02*
X321309Y53084D01*
Y52231D01*
X322047Y52658D01*
X295669D02*
X294931Y53084D01*
Y52231D01*
X295669Y52658D01*
X269291D02*
X268553Y53084D01*
Y52231D01*
X269291Y52658D01*
X242913D02*
X242175Y53084D01*
Y52231D01*
X242913Y52658D01*
X216535D02*
X215797Y53084D01*
Y52231D01*
X216535Y52658D01*
X190157D02*
X189419Y53084D01*
Y52231D01*
X190157Y52658D01*
X163779D02*
X163041Y53084D01*
Y52231D01*
X163779Y52658D01*
X137402D02*
X136663Y53084D01*
Y52231D01*
X137402Y52658D01*
X374803Y79035D02*
X374065Y79462D01*
Y78609D01*
X374803Y79035D01*
X348425D02*
X347687Y79462D01*
Y78609D01*
X348425Y79035D01*
X322047D02*
X321309Y79462D01*
Y78609D01*
X322047Y79035D01*
X295669D02*
X294931Y79462D01*
Y78609D01*
X295669Y79035D01*
X269291D02*
X268553Y79462D01*
Y78609D01*
X269291Y79035D01*
X242913D02*
X242175Y79462D01*
Y78609D01*
X242913Y79035D01*
X216535D02*
X215797Y79462D01*
Y78609D01*
X216535Y79035D01*
X190157D02*
X189419Y79462D01*
Y78609D01*
X190157Y79035D01*
X163779D02*
X163041Y79462D01*
Y78609D01*
X163779Y79035D01*
X137402D02*
X136663Y79462D01*
Y78609D01*
X137402Y79035D01*
X374803Y105413D02*
X374065Y105840D01*
Y104987D01*
X374803Y105413D01*
X348425D02*
X347687Y105840D01*
Y104987D01*
X348425Y105413D01*
X322047D02*
X321309Y105840D01*
Y104987D01*
X322047Y105413D01*
X295669D02*
X294931Y105840D01*
Y104987D01*
X295669Y105413D01*
X269291D02*
X268553Y105840D01*
Y104987D01*
X269291Y105413D01*
X242913D02*
X242175Y105840D01*
Y104987D01*
X242913Y105413D01*
X216535D02*
X215797Y105840D01*
Y104987D01*
X216535Y105413D01*
X190157D02*
X189419Y105840D01*
Y104987D01*
X190157Y105413D01*
X163779D02*
X163041Y105840D01*
Y104987D01*
X163779Y105413D01*
X137402D02*
X136663Y105840D01*
Y104987D01*
X137402Y105413D01*
X374803Y131791D02*
X374065Y132218D01*
Y131365D01*
X374803Y131791D01*
X348425D02*
X347687Y132218D01*
Y131365D01*
X348425Y131791D01*
X322047D02*
X321309Y132218D01*
Y131365D01*
X322047Y131791D01*
X295669D02*
X294931Y132218D01*
Y131365D01*
X295669Y131791D01*
X269291D02*
X268553Y132218D01*
Y131365D01*
X269291Y131791D01*
X242913D02*
X242175Y132218D01*
Y131365D01*
X242913Y131791D01*
X216535D02*
X215797Y132218D01*
Y131365D01*
X216535Y131791D01*
X190157D02*
X189419Y132218D01*
Y131365D01*
X190157Y131791D01*
X163779D02*
X163041Y132218D01*
Y131365D01*
X163779Y131791D01*
X137402D02*
X136663Y132218D01*
Y131365D01*
X137402Y131791D01*
X374803Y158169D02*
X374065Y158596D01*
Y157743D01*
X374803Y158169D01*
X348425D02*
X347687Y158596D01*
Y157743D01*
X348425Y158169D01*
X322047D02*
X321309Y158596D01*
Y157743D01*
X322047Y158169D01*
X295669D02*
X294931Y158596D01*
Y157743D01*
X295669Y158169D01*
X269291D02*
X268553Y158596D01*
Y157743D01*
X269291Y158169D01*
X242913D02*
X242175Y158596D01*
Y157743D01*
X242913Y158169D01*
X216535D02*
X215797Y158596D01*
Y157743D01*
X216535Y158169D01*
X190157D02*
X189419Y158596D01*
Y157743D01*
X190157Y158169D01*
X163779D02*
X163041Y158596D01*
Y157743D01*
X163779Y158169D01*
X137402D02*
X136663Y158596D01*
Y157743D01*
X137402Y158169D01*
X506693Y184547D02*
X505955Y184973D01*
Y184121D01*
X506693Y184547D01*
X480315D02*
X479577Y184973D01*
Y184121D01*
X480315Y184547D01*
X453937D02*
X453199Y184973D01*
Y184121D01*
X453937Y184547D01*
X427559D02*
X426821Y184973D01*
Y184121D01*
X427559Y184547D01*
X401181D02*
X400443Y184973D01*
Y184121D01*
X401181Y184547D01*
X374803D02*
X374065Y184973D01*
Y184121D01*
X374803Y184547D01*
X348425D02*
X347687Y184973D01*
Y184121D01*
X348425Y184547D01*
X322047D02*
X321309Y184973D01*
Y184121D01*
X322047Y184547D01*
X295669D02*
X294931Y184973D01*
Y184121D01*
X295669Y184547D01*
X269291D02*
X268553Y184973D01*
Y184121D01*
X269291Y184547D01*
X242913D02*
X242175Y184973D01*
Y184121D01*
X242913Y184547D01*
X216535D02*
X215797Y184973D01*
Y184121D01*
X216535Y184547D01*
X190157D02*
X189419Y184973D01*
Y184121D01*
X190157Y184547D01*
X163779D02*
X163041Y184973D01*
Y184121D01*
X163779Y184547D01*
X137402D02*
X136663Y184973D01*
Y184121D01*
X137402Y184547D01*
X111024D02*
X110285Y184973D01*
Y184121D01*
X111024Y184547D01*
X84646D02*
X83908Y184973D01*
Y184121D01*
X84646Y184547D01*
X58268D02*
X57529Y184973D01*
Y184121D01*
X58268Y184547D01*
X31890D02*
X31152Y184973D01*
Y184121D01*
X31890Y184547D01*
X5512D02*
X4774Y184973D01*
Y184121D01*
X5512Y184547D01*
X506693Y210925D02*
X505955Y211351D01*
Y210499D01*
X506693Y210925D01*
X480315D02*
X479577Y211351D01*
Y210499D01*
X480315Y210925D01*
X453937D02*
X453199Y211351D01*
Y210499D01*
X453937Y210925D01*
X427559D02*
X426821Y211351D01*
Y210499D01*
X427559Y210925D01*
X401181D02*
X400443Y211351D01*
Y210499D01*
X401181Y210925D01*
X374803D02*
X374065Y211351D01*
Y210499D01*
X374803Y210925D01*
X348425D02*
X347687Y211351D01*
Y210499D01*
X348425Y210925D01*
X322047D02*
X321309Y211351D01*
Y210499D01*
X322047Y210925D01*
X295669D02*
X294931Y211351D01*
Y210499D01*
X295669Y210925D01*
X269291D02*
X268553Y211351D01*
Y210499D01*
X269291Y210925D01*
X242913D02*
X242175Y211351D01*
Y210499D01*
X242913Y210925D01*
X216535D02*
X215797Y211351D01*
Y210499D01*
X216535Y210925D01*
X190157D02*
X189419Y211351D01*
Y210499D01*
X190157Y210925D01*
X163779D02*
X163041Y211351D01*
Y210499D01*
X163779Y210925D01*
X137402D02*
X136663Y211351D01*
Y210499D01*
X137402Y210925D01*
X111024D02*
X110285Y211351D01*
Y210499D01*
X111024Y210925D01*
X84646D02*
X83908Y211351D01*
Y210499D01*
X84646Y210925D01*
X58268D02*
X57529Y211351D01*
Y210499D01*
X58268Y210925D01*
X31890D02*
X31152Y211351D01*
Y210499D01*
X31890Y210925D01*
X5512D02*
X4774Y211351D01*
Y210499D01*
X5512Y210925D01*
X506693Y237303D02*
X505955Y237729D01*
Y236877D01*
X506693Y237303D01*
X480315D02*
X479577Y237729D01*
Y236877D01*
X480315Y237303D01*
X453937D02*
X453199Y237729D01*
Y236877D01*
X453937Y237303D01*
X427559D02*
X426821Y237729D01*
Y236877D01*
X427559Y237303D01*
X401181D02*
X400443Y237729D01*
Y236877D01*
X401181Y237303D01*
X374803D02*
X374065Y237729D01*
Y236877D01*
X374803Y237303D01*
X348425D02*
X347687Y237729D01*
Y236877D01*
X348425Y237303D01*
X322047D02*
X321309Y237729D01*
Y236877D01*
X322047Y237303D01*
X295669D02*
X294931Y237729D01*
Y236877D01*
X295669Y237303D01*
X269291D02*
X268553Y237729D01*
Y236877D01*
X269291Y237303D01*
X242913D02*
X242175Y237729D01*
Y236877D01*
X242913Y237303D01*
X216535D02*
X215797Y237729D01*
Y236877D01*
X216535Y237303D01*
X190157D02*
X189419Y237729D01*
Y236877D01*
X190157Y237303D01*
X163779D02*
X163041Y237729D01*
Y236877D01*
X163779Y237303D01*
X137402D02*
X136663Y237729D01*
Y236877D01*
X137402Y237303D01*
X111024D02*
X110285Y237729D01*
Y236877D01*
X111024Y237303D01*
X84646D02*
X83908Y237729D01*
Y236877D01*
X84646Y237303D01*
X58268D02*
X57529Y237729D01*
Y236877D01*
X58268Y237303D01*
X31890D02*
X31152Y237729D01*
Y236877D01*
X31890Y237303D01*
X5512D02*
X4774Y237729D01*
Y236877D01*
X5512Y237303D01*
X506693Y263681D02*
X505955Y264107D01*
Y263255D01*
X506693Y263681D01*
X480315D02*
X479577Y264107D01*
Y263255D01*
X480315Y263681D01*
X453937D02*
X453199Y264107D01*
Y263255D01*
X453937Y263681D01*
X427559D02*
X426821Y264107D01*
Y263255D01*
X427559Y263681D01*
X401181D02*
X400443Y264107D01*
Y263255D01*
X401181Y263681D01*
X374803D02*
X374065Y264107D01*
Y263255D01*
X374803Y263681D01*
X348425D02*
X347687Y264107D01*
Y263255D01*
X348425Y263681D01*
X322047D02*
X321309Y264107D01*
Y263255D01*
X322047Y263681D01*
X295669D02*
X294931Y264107D01*
Y263255D01*
X295669Y263681D01*
X269291D02*
X268553Y264107D01*
Y263255D01*
X269291Y263681D01*
X242913D02*
X242175Y264107D01*
Y263255D01*
X242913Y263681D01*
X216535D02*
X215797Y264107D01*
Y263255D01*
X216535Y263681D01*
X190157D02*
X189419Y264107D01*
Y263255D01*
X190157Y263681D01*
X163779D02*
X163041Y264107D01*
Y263255D01*
X163779Y263681D01*
X137402D02*
X136663Y264107D01*
Y263255D01*
X137402Y263681D01*
X111024D02*
X110285Y264107D01*
Y263255D01*
X111024Y263681D01*
X84646D02*
X83908Y264107D01*
Y263255D01*
X84646Y263681D01*
X58268D02*
X57529Y264107D01*
Y263255D01*
X58268Y263681D01*
X31890D02*
X31152Y264107D01*
Y263255D01*
X31890Y263681D01*
X5512D02*
X4774Y264107D01*
Y263255D01*
X5512Y263681D01*
X506693Y290059D02*
X505955Y290485D01*
Y289633D01*
X506693Y290059D01*
X480315D02*
X479577Y290485D01*
Y289633D01*
X480315Y290059D01*
X453937D02*
X453199Y290485D01*
Y289633D01*
X453937Y290059D01*
X427559D02*
X426821Y290485D01*
Y289633D01*
X427559Y290059D01*
X401181D02*
X400443Y290485D01*
Y289633D01*
X401181Y290059D01*
X374803D02*
X374065Y290485D01*
Y289633D01*
X374803Y290059D01*
X348425D02*
X347687Y290485D01*
Y289633D01*
X348425Y290059D01*
X322047D02*
X321309Y290485D01*
Y289633D01*
X322047Y290059D01*
X295669D02*
X294931Y290485D01*
Y289633D01*
X295669Y290059D01*
X269291D02*
X268553Y290485D01*
Y289633D01*
X269291Y290059D01*
X242913D02*
X242175Y290485D01*
Y289633D01*
X242913Y290059D01*
X216535D02*
X215797Y290485D01*
Y289633D01*
X216535Y290059D01*
X190157D02*
X189419Y290485D01*
Y289633D01*
X190157Y290059D01*
X163779D02*
X163041Y290485D01*
Y289633D01*
X163779Y290059D01*
X137402D02*
X136663Y290485D01*
Y289633D01*
X137402Y290059D01*
X111024D02*
X110285Y290485D01*
Y289633D01*
X111024Y290059D01*
X84646D02*
X83908Y290485D01*
Y289633D01*
X84646Y290059D01*
X58268D02*
X57529Y290485D01*
Y289633D01*
X58268Y290059D01*
X31890D02*
X31152Y290485D01*
Y289633D01*
X31890Y290059D01*
X5512D02*
X4774Y290485D01*
Y289633D01*
X5512Y290059D01*
X506693Y316437D02*
X505955Y316863D01*
Y316011D01*
X506693Y316437D01*
X480315D02*
X479577Y316863D01*
Y316011D01*
X480315Y316437D01*
X453937D02*
X453199Y316863D01*
Y316011D01*
X453937Y316437D01*
X427559D02*
X426821Y316863D01*
Y316011D01*
X427559Y316437D01*
X401181D02*
X400443Y316863D01*
Y316011D01*
X401181Y316437D01*
X374803D02*
X374065Y316863D01*
Y316011D01*
X374803Y316437D01*
X348425D02*
X347687Y316863D01*
Y316011D01*
X348425Y316437D01*
X322047D02*
X321309Y316863D01*
Y316011D01*
X322047Y316437D01*
X295669D02*
X294931Y316863D01*
Y316011D01*
X295669Y316437D01*
X269291D02*
X268553Y316863D01*
Y316011D01*
X269291Y316437D01*
X242913D02*
X242175Y316863D01*
Y316011D01*
X242913Y316437D01*
X216535D02*
X215797Y316863D01*
Y316011D01*
X216535Y316437D01*
X190157D02*
X189419Y316863D01*
Y316011D01*
X190157Y316437D01*
X163779D02*
X163041Y316863D01*
Y316011D01*
X163779Y316437D01*
X137402D02*
X136663Y316863D01*
Y316011D01*
X137402Y316437D01*
X111024D02*
X110285Y316863D01*
Y316011D01*
X111024Y316437D01*
X84646D02*
X83908Y316863D01*
Y316011D01*
X84646Y316437D01*
X58268D02*
X57529Y316863D01*
Y316011D01*
X58268Y316437D01*
X31890D02*
X31152Y316863D01*
Y316011D01*
X31890Y316437D01*
X5512D02*
X4774Y316863D01*
Y316011D01*
X5512Y316437D01*
X506693Y342815D02*
X505955Y343241D01*
Y342389D01*
X506693Y342815D01*
X480315D02*
X479577Y343241D01*
Y342389D01*
X480315Y342815D01*
X453937D02*
X453199Y343241D01*
Y342389D01*
X453937Y342815D01*
X427559D02*
X426821Y343241D01*
Y342389D01*
X427559Y342815D01*
X401181D02*
X400443Y343241D01*
Y342389D01*
X401181Y342815D01*
X374803D02*
X374065Y343241D01*
Y342389D01*
X374803Y342815D01*
X348425D02*
X347687Y343241D01*
Y342389D01*
X348425Y342815D01*
X322047D02*
X321309Y343241D01*
Y342389D01*
X322047Y342815D01*
X295669D02*
X294931Y343241D01*
Y342389D01*
X295669Y342815D01*
X269291D02*
X268553Y343241D01*
Y342389D01*
X269291Y342815D01*
X242913D02*
X242175Y343241D01*
Y342389D01*
X242913Y342815D01*
X216535D02*
X215797Y343241D01*
Y342389D01*
X216535Y342815D01*
X190157D02*
X189419Y343241D01*
Y342389D01*
X190157Y342815D01*
X163779D02*
X163041Y343241D01*
Y342389D01*
X163779Y342815D01*
X137402D02*
X136663Y343241D01*
Y342389D01*
X137402Y342815D01*
X111024D02*
X110285Y343241D01*
Y342389D01*
X111024Y342815D01*
X84646D02*
X83908Y343241D01*
Y342389D01*
X84646Y342815D01*
X58268D02*
X57529Y343241D01*
Y342389D01*
X58268Y342815D01*
X31890D02*
X31152Y343241D01*
Y342389D01*
X31890Y342815D01*
X5512D02*
X4774Y343241D01*
Y342389D01*
X5512Y342815D01*
X506693Y369193D02*
X505955Y369619D01*
Y368767D01*
X506693Y369193D01*
X480315D02*
X479577Y369619D01*
Y368767D01*
X480315Y369193D01*
X453937D02*
X453199Y369619D01*
Y368767D01*
X453937Y369193D01*
X427559D02*
X426821Y369619D01*
Y368767D01*
X427559Y369193D01*
X401181D02*
X400443Y369619D01*
Y368767D01*
X401181Y369193D01*
X374803D02*
X374065Y369619D01*
Y368767D01*
X374803Y369193D01*
X348425D02*
X347687Y369619D01*
Y368767D01*
X348425Y369193D01*
X322047D02*
X321309Y369619D01*
Y368767D01*
X322047Y369193D01*
X295669D02*
X294931Y369619D01*
Y368767D01*
X295669Y369193D01*
X269291D02*
X268553Y369619D01*
Y368767D01*
X269291Y369193D01*
X242913D02*
X242175Y369619D01*
Y368767D01*
X242913Y369193D01*
X216535D02*
X215797Y369619D01*
Y368767D01*
X216535Y369193D01*
X190157D02*
X189419Y369619D01*
Y368767D01*
X190157Y369193D01*
X163779D02*
X163041Y369619D01*
Y368767D01*
X163779Y369193D01*
X137402D02*
X136663Y369619D01*
Y368767D01*
X137402Y369193D01*
X111024D02*
X110285Y369619D01*
Y368767D01*
X111024Y369193D01*
X84646D02*
X83908Y369619D01*
Y368767D01*
X84646Y369193D01*
X58268D02*
X57529Y369619D01*
Y368767D01*
X58268Y369193D01*
X31890D02*
X31152Y369619D01*
Y368767D01*
X31890Y369193D01*
X5512D02*
X4774Y369619D01*
Y368767D01*
X5512Y369193D01*
X66683Y136319D02*
X65945Y136745D01*
Y135893D01*
X66683Y136319D01*
X476181Y120128D02*
X475443Y120554D01*
Y119702D01*
X476181Y120128D01*
X456939Y111221D02*
X456201Y111647D01*
Y110794D01*
X456939Y111221D01*
X458809Y142224D02*
X458071Y142651D01*
Y141798D01*
X458809Y142224D01*
D11*
X76034Y132874D02*
X75589Y133797D01*
X74590Y134026D01*
X73788Y133387D01*
Y132362D01*
X74590Y131722D01*
X75589Y131951D01*
X76034Y132874D01*
D12*
X427264Y81939D02*
X430020D01*
X427264Y69734D02*
X430020D01*
X427264D02*
Y81939D01*
X430020Y69734D02*
Y81939D01*
X379232Y29626D02*
X398917D01*
X379232Y9941D02*
X398917D01*
X379232D02*
Y10138D01*
X398917Y9941D02*
Y10138D01*
Y29429D02*
Y29626D01*
X379232Y29429D02*
Y29626D01*
Y16634D02*
Y22933D01*
X398917Y16634D02*
Y22933D01*
X352854Y29626D02*
X372539D01*
X352854Y9941D02*
X372539D01*
X352854D02*
Y10138D01*
X372539Y9941D02*
Y10138D01*
Y29429D02*
Y29626D01*
X352854Y29429D02*
Y29626D01*
Y16634D02*
Y22933D01*
X372539Y16634D02*
Y22933D01*
X326476Y29626D02*
X346161D01*
X326476Y9941D02*
X346161D01*
X326476D02*
Y10138D01*
X346161Y9941D02*
Y10138D01*
Y29429D02*
Y29626D01*
X326476Y29429D02*
Y29626D01*
Y16634D02*
Y22933D01*
X346161Y16634D02*
Y22933D01*
X300098Y29626D02*
X319783D01*
X300098Y9941D02*
X319783D01*
X300098D02*
Y10138D01*
X319783Y9941D02*
Y10138D01*
Y29429D02*
Y29626D01*
X300098Y29429D02*
Y29626D01*
Y16634D02*
Y22933D01*
X319783Y16634D02*
Y22933D01*
X273721Y29626D02*
X293406D01*
X273721Y9941D02*
X293406D01*
X273721D02*
Y10138D01*
X293406Y9941D02*
Y10138D01*
Y29429D02*
Y29626D01*
X273721Y29429D02*
Y29626D01*
Y16634D02*
Y22933D01*
X293406Y16634D02*
Y22933D01*
X247342Y29626D02*
X267028D01*
X247342Y9941D02*
X267028D01*
X247342D02*
Y10138D01*
X267028Y9941D02*
Y10138D01*
Y29429D02*
Y29626D01*
X247342Y29429D02*
Y29626D01*
Y16634D02*
Y22933D01*
X267028Y16634D02*
Y22933D01*
X220965Y29626D02*
X240650D01*
X220965Y9941D02*
X240650D01*
X220965D02*
Y10138D01*
X240650Y9941D02*
Y10138D01*
Y29429D02*
Y29626D01*
X220965Y29429D02*
Y29626D01*
Y16634D02*
Y22933D01*
X240650Y16634D02*
Y22933D01*
X194587Y29626D02*
X214272D01*
X194587Y9941D02*
X214272D01*
X194587D02*
Y10138D01*
X214272Y9941D02*
Y10138D01*
Y29429D02*
Y29626D01*
X194587Y29429D02*
Y29626D01*
Y16634D02*
Y22933D01*
X214272Y16634D02*
Y22933D01*
X168209Y29626D02*
X187894D01*
X168209Y9941D02*
X187894D01*
X168209D02*
Y10138D01*
X187894Y9941D02*
Y10138D01*
Y29429D02*
Y29626D01*
X168209Y29429D02*
Y29626D01*
Y16634D02*
Y22933D01*
X187894Y16634D02*
Y22933D01*
X141831Y29626D02*
X161516D01*
X141831Y9941D02*
X161516D01*
X141831D02*
Y10138D01*
X161516Y9941D02*
Y10138D01*
Y29429D02*
Y29626D01*
X141831Y29429D02*
Y29626D01*
Y16634D02*
Y22933D01*
X161516Y16634D02*
Y22933D01*
X379232Y56004D02*
X398917D01*
X379232Y36319D02*
X398917D01*
X379232D02*
Y36516D01*
X398917Y36319D02*
Y36516D01*
Y55807D02*
Y56004D01*
X379232Y55807D02*
Y56004D01*
Y43012D02*
Y49311D01*
X398917Y43012D02*
Y49311D01*
X352854Y56004D02*
X372539D01*
X352854Y36319D02*
X372539D01*
X352854D02*
Y36516D01*
X372539Y36319D02*
Y36516D01*
Y55807D02*
Y56004D01*
X352854Y55807D02*
Y56004D01*
Y43012D02*
Y49311D01*
X372539Y43012D02*
Y49311D01*
X326476Y56004D02*
X346161D01*
X326476Y36319D02*
X346161D01*
X326476D02*
Y36516D01*
X346161Y36319D02*
Y36516D01*
Y55807D02*
Y56004D01*
X326476Y55807D02*
Y56004D01*
Y43012D02*
Y49311D01*
X346161Y43012D02*
Y49311D01*
X300098Y56004D02*
X319783D01*
X300098Y36319D02*
X319783D01*
X300098D02*
Y36516D01*
X319783Y36319D02*
Y36516D01*
Y55807D02*
Y56004D01*
X300098Y55807D02*
Y56004D01*
Y43012D02*
Y49311D01*
X319783Y43012D02*
Y49311D01*
X273721Y56004D02*
X293406D01*
X273721Y36319D02*
X293406D01*
X273721D02*
Y36516D01*
X293406Y36319D02*
Y36516D01*
Y55807D02*
Y56004D01*
X273721Y55807D02*
Y56004D01*
Y43012D02*
Y49311D01*
X293406Y43012D02*
Y49311D01*
X247342Y56004D02*
X267028D01*
X247342Y36319D02*
X267028D01*
X247342D02*
Y36516D01*
X267028Y36319D02*
Y36516D01*
Y55807D02*
Y56004D01*
X247342Y55807D02*
Y56004D01*
Y43012D02*
Y49311D01*
X267028Y43012D02*
Y49311D01*
X220965Y56004D02*
X240650D01*
X220965Y36319D02*
X240650D01*
X220965D02*
Y36516D01*
X240650Y36319D02*
Y36516D01*
Y55807D02*
Y56004D01*
X220965Y55807D02*
Y56004D01*
Y43012D02*
Y49311D01*
X240650Y43012D02*
Y49311D01*
X194587Y56004D02*
X214272D01*
X194587Y36319D02*
X214272D01*
X194587D02*
Y36516D01*
X214272Y36319D02*
Y36516D01*
Y55807D02*
Y56004D01*
X194587Y55807D02*
Y56004D01*
Y43012D02*
Y49311D01*
X214272Y43012D02*
Y49311D01*
X168209Y56004D02*
X187894D01*
X168209Y36319D02*
X187894D01*
X168209D02*
Y36516D01*
X187894Y36319D02*
Y36516D01*
Y55807D02*
Y56004D01*
X168209Y55807D02*
Y56004D01*
Y43012D02*
Y49311D01*
X187894Y43012D02*
Y49311D01*
X141831Y56004D02*
X161516D01*
X141831Y36319D02*
X161516D01*
X141831D02*
Y36516D01*
X161516Y36319D02*
Y36516D01*
Y55807D02*
Y56004D01*
X141831Y55807D02*
Y56004D01*
Y43012D02*
Y49311D01*
X161516Y43012D02*
Y49311D01*
X379232Y82382D02*
X398917D01*
X379232Y62697D02*
X398917D01*
X379232D02*
Y62894D01*
X398917Y62697D02*
Y62894D01*
Y82185D02*
Y82382D01*
X379232Y82185D02*
Y82382D01*
Y69390D02*
Y75689D01*
X398917Y69390D02*
Y75689D01*
X352854Y82382D02*
X372539D01*
X352854Y62697D02*
X372539D01*
X352854D02*
Y62894D01*
X372539Y62697D02*
Y62894D01*
Y82185D02*
Y82382D01*
X352854Y82185D02*
Y82382D01*
Y69390D02*
Y75689D01*
X372539Y69390D02*
Y75689D01*
X326476Y82382D02*
X346161D01*
X326476Y62697D02*
X346161D01*
X326476D02*
Y62894D01*
X346161Y62697D02*
Y62894D01*
Y82185D02*
Y82382D01*
X326476Y82185D02*
Y82382D01*
Y69390D02*
Y75689D01*
X346161Y69390D02*
Y75689D01*
X300098Y82382D02*
X319783D01*
X300098Y62697D02*
X319783D01*
X300098D02*
Y62894D01*
X319783Y62697D02*
Y62894D01*
Y82185D02*
Y82382D01*
X300098Y82185D02*
Y82382D01*
Y69390D02*
Y75689D01*
X319783Y69390D02*
Y75689D01*
X273721Y82382D02*
X293406D01*
X273721Y62697D02*
X293406D01*
X273721D02*
Y62894D01*
X293406Y62697D02*
Y62894D01*
Y82185D02*
Y82382D01*
X273721Y82185D02*
Y82382D01*
Y69390D02*
Y75689D01*
X293406Y69390D02*
Y75689D01*
X247342Y82382D02*
X267028D01*
X247342Y62697D02*
X267028D01*
X247342D02*
Y62894D01*
X267028Y62697D02*
Y62894D01*
Y82185D02*
Y82382D01*
X247342Y82185D02*
Y82382D01*
Y69390D02*
Y75689D01*
X267028Y69390D02*
Y75689D01*
X220965Y82382D02*
X240650D01*
X220965Y62697D02*
X240650D01*
X220965D02*
Y62894D01*
X240650Y62697D02*
Y62894D01*
Y82185D02*
Y82382D01*
X220965Y82185D02*
Y82382D01*
Y69390D02*
Y75689D01*
X240650Y69390D02*
Y75689D01*
X194587Y82382D02*
X214272D01*
X194587Y62697D02*
X214272D01*
X194587D02*
Y62894D01*
X214272Y62697D02*
Y62894D01*
Y82185D02*
Y82382D01*
X194587Y82185D02*
Y82382D01*
Y69390D02*
Y75689D01*
X214272Y69390D02*
Y75689D01*
X168209Y82382D02*
X187894D01*
X168209Y62697D02*
X187894D01*
X168209D02*
Y62894D01*
X187894Y62697D02*
Y62894D01*
Y82185D02*
Y82382D01*
X168209Y82185D02*
Y82382D01*
Y69390D02*
Y75689D01*
X187894Y69390D02*
Y75689D01*
X141831Y82382D02*
X161516D01*
X141831Y62697D02*
X161516D01*
X141831D02*
Y62894D01*
X161516Y62697D02*
Y62894D01*
Y82185D02*
Y82382D01*
X141831Y82185D02*
Y82382D01*
Y69390D02*
Y75689D01*
X161516Y69390D02*
Y75689D01*
X379232Y108760D02*
X398917D01*
X379232Y89075D02*
X398917D01*
X379232D02*
Y89272D01*
X398917Y89075D02*
Y89272D01*
Y108563D02*
Y108760D01*
X379232Y108563D02*
Y108760D01*
Y95768D02*
Y102067D01*
X398917Y95768D02*
Y102067D01*
X352854Y108760D02*
X372539D01*
X352854Y89075D02*
X372539D01*
X352854D02*
Y89272D01*
X372539Y89075D02*
Y89272D01*
Y108563D02*
Y108760D01*
X352854Y108563D02*
Y108760D01*
Y95768D02*
Y102067D01*
X372539Y95768D02*
Y102067D01*
X326476Y108760D02*
X346161D01*
X326476Y89075D02*
X346161D01*
X326476D02*
Y89272D01*
X346161Y89075D02*
Y89272D01*
Y108563D02*
Y108760D01*
X326476Y108563D02*
Y108760D01*
Y95768D02*
Y102067D01*
X346161Y95768D02*
Y102067D01*
X300098Y108760D02*
X319783D01*
X300098Y89075D02*
X319783D01*
X300098D02*
Y89272D01*
X319783Y89075D02*
Y89272D01*
Y108563D02*
Y108760D01*
X300098Y108563D02*
Y108760D01*
Y95768D02*
Y102067D01*
X319783Y95768D02*
Y102067D01*
X273721Y108760D02*
X293406D01*
X273721Y89075D02*
X293406D01*
X273721D02*
Y89272D01*
X293406Y89075D02*
Y89272D01*
Y108563D02*
Y108760D01*
X273721Y108563D02*
Y108760D01*
Y95768D02*
Y102067D01*
X293406Y95768D02*
Y102067D01*
X247342Y108760D02*
X267028D01*
X247342Y89075D02*
X267028D01*
X247342D02*
Y89272D01*
X267028Y89075D02*
Y89272D01*
Y108563D02*
Y108760D01*
X247342Y108563D02*
Y108760D01*
Y95768D02*
Y102067D01*
X267028Y95768D02*
Y102067D01*
X220965Y108760D02*
X240650D01*
X220965Y89075D02*
X240650D01*
X220965D02*
Y89272D01*
X240650Y89075D02*
Y89272D01*
Y108563D02*
Y108760D01*
X220965Y108563D02*
Y108760D01*
Y95768D02*
Y102067D01*
X240650Y95768D02*
Y102067D01*
X194587Y108760D02*
X214272D01*
X194587Y89075D02*
X214272D01*
X194587D02*
Y89272D01*
X214272Y89075D02*
Y89272D01*
Y108563D02*
Y108760D01*
X194587Y108563D02*
Y108760D01*
Y95768D02*
Y102067D01*
X214272Y95768D02*
Y102067D01*
X168209Y108760D02*
X187894D01*
X168209Y89075D02*
X187894D01*
X168209D02*
Y89272D01*
X187894Y89075D02*
Y89272D01*
Y108563D02*
Y108760D01*
X168209Y108563D02*
Y108760D01*
Y95768D02*
Y102067D01*
X187894Y95768D02*
Y102067D01*
X141831Y108760D02*
X161516D01*
X141831Y89075D02*
X161516D01*
X141831D02*
Y89272D01*
X161516Y89075D02*
Y89272D01*
Y108563D02*
Y108760D01*
X141831Y108563D02*
Y108760D01*
Y95768D02*
Y102067D01*
X161516Y95768D02*
Y102067D01*
X379232Y135138D02*
X398917D01*
X379232Y115453D02*
X398917D01*
X379232D02*
Y115650D01*
X398917Y115453D02*
Y115650D01*
Y134941D02*
Y135138D01*
X379232Y134941D02*
Y135138D01*
Y122146D02*
Y128445D01*
X398917Y122146D02*
Y128445D01*
X352854Y135138D02*
X372539D01*
X352854Y115453D02*
X372539D01*
X352854D02*
Y115650D01*
X372539Y115453D02*
Y115650D01*
Y134941D02*
Y135138D01*
X352854Y134941D02*
Y135138D01*
Y122146D02*
Y128445D01*
X372539Y122146D02*
Y128445D01*
X326476Y135138D02*
X346161D01*
X326476Y115453D02*
X346161D01*
X326476D02*
Y115650D01*
X346161Y115453D02*
Y115650D01*
Y134941D02*
Y135138D01*
X326476Y134941D02*
Y135138D01*
Y122146D02*
Y128445D01*
X346161Y122146D02*
Y128445D01*
X300098Y135138D02*
X319783D01*
X300098Y115453D02*
X319783D01*
X300098D02*
Y115650D01*
X319783Y115453D02*
Y115650D01*
Y134941D02*
Y135138D01*
X300098Y134941D02*
Y135138D01*
Y122146D02*
Y128445D01*
X319783Y122146D02*
Y128445D01*
X273721Y135138D02*
X293406D01*
X273721Y115453D02*
X293406D01*
X273721D02*
Y115650D01*
X293406Y115453D02*
Y115650D01*
Y134941D02*
Y135138D01*
X273721Y134941D02*
Y135138D01*
Y122146D02*
Y128445D01*
X293406Y122146D02*
Y128445D01*
X247342Y135138D02*
X267028D01*
X247342Y115453D02*
X267028D01*
X247342D02*
Y115650D01*
X267028Y115453D02*
Y115650D01*
Y134941D02*
Y135138D01*
X247342Y134941D02*
Y135138D01*
Y122146D02*
Y128445D01*
X267028Y122146D02*
Y128445D01*
X220965Y135138D02*
X240650D01*
X220965Y115453D02*
X240650D01*
X220965D02*
Y115650D01*
X240650Y115453D02*
Y115650D01*
Y134941D02*
Y135138D01*
X220965Y134941D02*
Y135138D01*
Y122146D02*
Y128445D01*
X240650Y122146D02*
Y128445D01*
X194587Y135138D02*
X214272D01*
X194587Y115453D02*
X214272D01*
X194587D02*
Y115650D01*
X214272Y115453D02*
Y115650D01*
Y134941D02*
Y135138D01*
X194587Y134941D02*
Y135138D01*
Y122146D02*
Y128445D01*
X214272Y122146D02*
Y128445D01*
X168209Y135138D02*
X187894D01*
X168209Y115453D02*
X187894D01*
X168209D02*
Y115650D01*
X187894Y115453D02*
Y115650D01*
Y134941D02*
Y135138D01*
X168209Y134941D02*
Y135138D01*
Y122146D02*
Y128445D01*
X187894Y122146D02*
Y128445D01*
X141831Y135138D02*
X161516D01*
X141831Y115453D02*
X161516D01*
X141831D02*
Y115650D01*
X161516Y115453D02*
Y115650D01*
Y134941D02*
Y135138D01*
X141831Y134941D02*
Y135138D01*
Y122146D02*
Y128445D01*
X161516Y122146D02*
Y128445D01*
X379232Y161516D02*
X398917D01*
X379232Y141831D02*
X398917D01*
X379232D02*
Y142028D01*
X398917Y141831D02*
Y142028D01*
Y161319D02*
Y161516D01*
X379232Y161319D02*
Y161516D01*
Y148524D02*
Y154823D01*
X398917Y148524D02*
Y154823D01*
X352854Y161516D02*
X372539D01*
X352854Y141831D02*
X372539D01*
X352854D02*
Y142028D01*
X372539Y141831D02*
Y142028D01*
Y161319D02*
Y161516D01*
X352854Y161319D02*
Y161516D01*
Y148524D02*
Y154823D01*
X372539Y148524D02*
Y154823D01*
X326476Y161516D02*
X346161D01*
X326476Y141831D02*
X346161D01*
X326476D02*
Y142028D01*
X346161Y141831D02*
Y142028D01*
Y161319D02*
Y161516D01*
X326476Y161319D02*
Y161516D01*
Y148524D02*
Y154823D01*
X346161Y148524D02*
Y154823D01*
X300098Y161516D02*
X319783D01*
X300098Y141831D02*
X319783D01*
X300098D02*
Y142028D01*
X319783Y141831D02*
Y142028D01*
Y161319D02*
Y161516D01*
X300098Y161319D02*
Y161516D01*
Y148524D02*
Y154823D01*
X319783Y148524D02*
Y154823D01*
X273721Y161516D02*
X293406D01*
X273721Y141831D02*
X293406D01*
X273721D02*
Y142028D01*
X293406Y141831D02*
Y142028D01*
Y161319D02*
Y161516D01*
X273721Y161319D02*
Y161516D01*
Y148524D02*
Y154823D01*
X293406Y148524D02*
Y154823D01*
X247342Y161516D02*
X267028D01*
X247342Y141831D02*
X267028D01*
X247342D02*
Y142028D01*
X267028Y141831D02*
Y142028D01*
Y161319D02*
Y161516D01*
X247342Y161319D02*
Y161516D01*
Y148524D02*
Y154823D01*
X267028Y148524D02*
Y154823D01*
X220965Y161516D02*
X240650D01*
X220965Y141831D02*
X240650D01*
X220965D02*
Y142028D01*
X240650Y141831D02*
Y142028D01*
Y161319D02*
Y161516D01*
X220965Y161319D02*
Y161516D01*
Y148524D02*
Y154823D01*
X240650Y148524D02*
Y154823D01*
X194587Y161516D02*
X214272D01*
X194587Y141831D02*
X214272D01*
X194587D02*
Y142028D01*
X214272Y141831D02*
Y142028D01*
Y161319D02*
Y161516D01*
X194587Y161319D02*
Y161516D01*
Y148524D02*
Y154823D01*
X214272Y148524D02*
Y154823D01*
X168209Y161516D02*
X187894D01*
X168209Y141831D02*
X187894D01*
X168209D02*
Y142028D01*
X187894Y141831D02*
Y142028D01*
Y161319D02*
Y161516D01*
X168209Y161319D02*
Y161516D01*
Y148524D02*
Y154823D01*
X187894Y148524D02*
Y154823D01*
X141831Y161516D02*
X161516D01*
X141831Y141831D02*
X161516D01*
X141831D02*
Y142028D01*
X161516Y141831D02*
Y142028D01*
Y161319D02*
Y161516D01*
X141831Y161319D02*
Y161516D01*
Y148524D02*
Y154823D01*
X161516Y148524D02*
Y154823D01*
X511122Y187894D02*
X530807D01*
X511122Y168209D02*
X530807D01*
X511122D02*
Y168405D01*
X530807Y168209D02*
Y168405D01*
Y187697D02*
Y187894D01*
X511122Y187697D02*
Y187894D01*
Y174902D02*
Y181201D01*
X530807Y174902D02*
Y181201D01*
X484744Y187894D02*
X504429D01*
X484744Y168209D02*
X504429D01*
X484744D02*
Y168405D01*
X504429Y168209D02*
Y168405D01*
Y187697D02*
Y187894D01*
X484744Y187697D02*
Y187894D01*
Y174902D02*
Y181201D01*
X504429Y174902D02*
Y181201D01*
X458366Y187894D02*
X478051D01*
X458366Y168209D02*
X478051D01*
X458366D02*
Y168405D01*
X478051Y168209D02*
Y168405D01*
Y187697D02*
Y187894D01*
X458366Y187697D02*
Y187894D01*
Y174902D02*
Y181201D01*
X478051Y174902D02*
Y181201D01*
X431988Y187894D02*
X451673D01*
X431988Y168209D02*
X451673D01*
X431988D02*
Y168405D01*
X451673Y168209D02*
Y168405D01*
Y187697D02*
Y187894D01*
X431988Y187697D02*
Y187894D01*
Y174902D02*
Y181201D01*
X451673Y174902D02*
Y181201D01*
X405610Y187894D02*
X425295D01*
X405610Y168209D02*
X425295D01*
X405610D02*
Y168405D01*
X425295Y168209D02*
Y168405D01*
Y187697D02*
Y187894D01*
X405610Y187697D02*
Y187894D01*
Y174902D02*
Y181201D01*
X425295Y174902D02*
Y181201D01*
X379232Y187894D02*
X398917D01*
X379232Y168209D02*
X398917D01*
X379232D02*
Y168405D01*
X398917Y168209D02*
Y168405D01*
Y187697D02*
Y187894D01*
X379232Y187697D02*
Y187894D01*
Y174902D02*
Y181201D01*
X398917Y174902D02*
Y181201D01*
X352854Y187894D02*
X372539D01*
X352854Y168209D02*
X372539D01*
X352854D02*
Y168405D01*
X372539Y168209D02*
Y168405D01*
Y187697D02*
Y187894D01*
X352854Y187697D02*
Y187894D01*
Y174902D02*
Y181201D01*
X372539Y174902D02*
Y181201D01*
X326476Y187894D02*
X346161D01*
X326476Y168209D02*
X346161D01*
X326476D02*
Y168405D01*
X346161Y168209D02*
Y168405D01*
Y187697D02*
Y187894D01*
X326476Y187697D02*
Y187894D01*
Y174902D02*
Y181201D01*
X346161Y174902D02*
Y181201D01*
X300098Y187894D02*
X319783D01*
X300098Y168209D02*
X319783D01*
X300098D02*
Y168405D01*
X319783Y168209D02*
Y168405D01*
Y187697D02*
Y187894D01*
X300098Y187697D02*
Y187894D01*
Y174902D02*
Y181201D01*
X319783Y174902D02*
Y181201D01*
X273721Y187894D02*
X293406D01*
X273721Y168209D02*
X293406D01*
X273721D02*
Y168405D01*
X293406Y168209D02*
Y168405D01*
Y187697D02*
Y187894D01*
X273721Y187697D02*
Y187894D01*
Y174902D02*
Y181201D01*
X293406Y174902D02*
Y181201D01*
X247342Y187894D02*
X267028D01*
X247342Y168209D02*
X267028D01*
X247342D02*
Y168405D01*
X267028Y168209D02*
Y168405D01*
Y187697D02*
Y187894D01*
X247342Y187697D02*
Y187894D01*
Y174902D02*
Y181201D01*
X267028Y174902D02*
Y181201D01*
X220965Y187894D02*
X240650D01*
X220965Y168209D02*
X240650D01*
X220965D02*
Y168405D01*
X240650Y168209D02*
Y168405D01*
Y187697D02*
Y187894D01*
X220965Y187697D02*
Y187894D01*
Y174902D02*
Y181201D01*
X240650Y174902D02*
Y181201D01*
X194587Y187894D02*
X214272D01*
X194587Y168209D02*
X214272D01*
X194587D02*
Y168405D01*
X214272Y168209D02*
Y168405D01*
Y187697D02*
Y187894D01*
X194587Y187697D02*
Y187894D01*
Y174902D02*
Y181201D01*
X214272Y174902D02*
Y181201D01*
X168209Y187894D02*
X187894D01*
X168209Y168209D02*
X187894D01*
X168209D02*
Y168405D01*
X187894Y168209D02*
Y168405D01*
Y187697D02*
Y187894D01*
X168209Y187697D02*
Y187894D01*
Y174902D02*
Y181201D01*
X187894Y174902D02*
Y181201D01*
X141831Y187894D02*
X161516D01*
X141831Y168209D02*
X161516D01*
X141831D02*
Y168405D01*
X161516Y168209D02*
Y168405D01*
Y187697D02*
Y187894D01*
X141831Y187697D02*
Y187894D01*
Y174902D02*
Y181201D01*
X161516Y174902D02*
Y181201D01*
X115453Y187894D02*
X135138D01*
X115453Y168209D02*
X135138D01*
X115453D02*
Y168405D01*
X135138Y168209D02*
Y168405D01*
Y187697D02*
Y187894D01*
X115453Y187697D02*
Y187894D01*
Y174902D02*
Y181201D01*
X135138Y174902D02*
Y181201D01*
X89075Y187894D02*
X108760D01*
X89075Y168209D02*
X108760D01*
X89075D02*
Y168405D01*
X108760Y168209D02*
Y168405D01*
Y187697D02*
Y187894D01*
X89075Y187697D02*
Y187894D01*
Y174902D02*
Y181201D01*
X108760Y174902D02*
Y181201D01*
X62697Y187894D02*
X82382D01*
X62697Y168209D02*
X82382D01*
X62697D02*
Y168405D01*
X82382Y168209D02*
Y168405D01*
Y187697D02*
Y187894D01*
X62697Y187697D02*
Y187894D01*
Y174902D02*
Y181201D01*
X82382Y174902D02*
Y181201D01*
X36319Y187894D02*
X56004D01*
X36319Y168209D02*
X56004D01*
X36319D02*
Y168405D01*
X56004Y168209D02*
Y168405D01*
Y187697D02*
Y187894D01*
X36319Y187697D02*
Y187894D01*
Y174902D02*
Y181201D01*
X56004Y174902D02*
Y181201D01*
X9941Y187894D02*
X29626D01*
X9941Y168209D02*
X29626D01*
X9941D02*
Y168405D01*
X29626Y168209D02*
Y168405D01*
Y187697D02*
Y187894D01*
X9941Y187697D02*
Y187894D01*
Y174902D02*
Y181201D01*
X29626Y174902D02*
Y181201D01*
X511122Y214272D02*
X530807D01*
X511122Y194587D02*
X530807D01*
X511122D02*
Y194783D01*
X530807Y194587D02*
Y194783D01*
Y214075D02*
Y214272D01*
X511122Y214075D02*
Y214272D01*
Y201279D02*
Y207579D01*
X530807Y201279D02*
Y207579D01*
X484744Y214272D02*
X504429D01*
X484744Y194587D02*
X504429D01*
X484744D02*
Y194783D01*
X504429Y194587D02*
Y194783D01*
Y214075D02*
Y214272D01*
X484744Y214075D02*
Y214272D01*
Y201279D02*
Y207579D01*
X504429Y201279D02*
Y207579D01*
X458366Y214272D02*
X478051D01*
X458366Y194587D02*
X478051D01*
X458366D02*
Y194783D01*
X478051Y194587D02*
Y194783D01*
Y214075D02*
Y214272D01*
X458366Y214075D02*
Y214272D01*
Y201279D02*
Y207579D01*
X478051Y201279D02*
Y207579D01*
X431988Y214272D02*
X451673D01*
X431988Y194587D02*
X451673D01*
X431988D02*
Y194783D01*
X451673Y194587D02*
Y194783D01*
Y214075D02*
Y214272D01*
X431988Y214075D02*
Y214272D01*
Y201279D02*
Y207579D01*
X451673Y201279D02*
Y207579D01*
X405610Y214272D02*
X425295D01*
X405610Y194587D02*
X425295D01*
X405610D02*
Y194783D01*
X425295Y194587D02*
Y194783D01*
Y214075D02*
Y214272D01*
X405610Y214075D02*
Y214272D01*
Y201279D02*
Y207579D01*
X425295Y201279D02*
Y207579D01*
X379232Y214272D02*
X398917D01*
X379232Y194587D02*
X398917D01*
X379232D02*
Y194783D01*
X398917Y194587D02*
Y194783D01*
Y214075D02*
Y214272D01*
X379232Y214075D02*
Y214272D01*
Y201279D02*
Y207579D01*
X398917Y201279D02*
Y207579D01*
X352854Y214272D02*
X372539D01*
X352854Y194587D02*
X372539D01*
X352854D02*
Y194783D01*
X372539Y194587D02*
Y194783D01*
Y214075D02*
Y214272D01*
X352854Y214075D02*
Y214272D01*
Y201279D02*
Y207579D01*
X372539Y201279D02*
Y207579D01*
X326476Y214272D02*
X346161D01*
X326476Y194587D02*
X346161D01*
X326476D02*
Y194783D01*
X346161Y194587D02*
Y194783D01*
Y214075D02*
Y214272D01*
X326476Y214075D02*
Y214272D01*
Y201279D02*
Y207579D01*
X346161Y201279D02*
Y207579D01*
X300098Y214272D02*
X319783D01*
X300098Y194587D02*
X319783D01*
X300098D02*
Y194783D01*
X319783Y194587D02*
Y194783D01*
Y214075D02*
Y214272D01*
X300098Y214075D02*
Y214272D01*
Y201279D02*
Y207579D01*
X319783Y201279D02*
Y207579D01*
X273721Y214272D02*
X293406D01*
X273721Y194587D02*
X293406D01*
X273721D02*
Y194783D01*
X293406Y194587D02*
Y194783D01*
Y214075D02*
Y214272D01*
X273721Y214075D02*
Y214272D01*
Y201279D02*
Y207579D01*
X293406Y201279D02*
Y207579D01*
X247342Y214272D02*
X267028D01*
X247342Y194587D02*
X267028D01*
X247342D02*
Y194783D01*
X267028Y194587D02*
Y194783D01*
Y214075D02*
Y214272D01*
X247342Y214075D02*
Y214272D01*
Y201279D02*
Y207579D01*
X267028Y201279D02*
Y207579D01*
X220965Y214272D02*
X240650D01*
X220965Y194587D02*
X240650D01*
X220965D02*
Y194783D01*
X240650Y194587D02*
Y194783D01*
Y214075D02*
Y214272D01*
X220965Y214075D02*
Y214272D01*
Y201279D02*
Y207579D01*
X240650Y201279D02*
Y207579D01*
X194587Y214272D02*
X214272D01*
X194587Y194587D02*
X214272D01*
X194587D02*
Y194783D01*
X214272Y194587D02*
Y194783D01*
Y214075D02*
Y214272D01*
X194587Y214075D02*
Y214272D01*
Y201279D02*
Y207579D01*
X214272Y201279D02*
Y207579D01*
X168209Y214272D02*
X187894D01*
X168209Y194587D02*
X187894D01*
X168209D02*
Y194783D01*
X187894Y194587D02*
Y194783D01*
Y214075D02*
Y214272D01*
X168209Y214075D02*
Y214272D01*
Y201279D02*
Y207579D01*
X187894Y201279D02*
Y207579D01*
X141831Y214272D02*
X161516D01*
X141831Y194587D02*
X161516D01*
X141831D02*
Y194783D01*
X161516Y194587D02*
Y194783D01*
Y214075D02*
Y214272D01*
X141831Y214075D02*
Y214272D01*
Y201279D02*
Y207579D01*
X161516Y201279D02*
Y207579D01*
X115453Y214272D02*
X135138D01*
X115453Y194587D02*
X135138D01*
X115453D02*
Y194783D01*
X135138Y194587D02*
Y194783D01*
Y214075D02*
Y214272D01*
X115453Y214075D02*
Y214272D01*
Y201279D02*
Y207579D01*
X135138Y201279D02*
Y207579D01*
X89075Y214272D02*
X108760D01*
X89075Y194587D02*
X108760D01*
X89075D02*
Y194783D01*
X108760Y194587D02*
Y194783D01*
Y214075D02*
Y214272D01*
X89075Y214075D02*
Y214272D01*
Y201279D02*
Y207579D01*
X108760Y201279D02*
Y207579D01*
X62697Y214272D02*
X82382D01*
X62697Y194587D02*
X82382D01*
X62697D02*
Y194783D01*
X82382Y194587D02*
Y194783D01*
Y214075D02*
Y214272D01*
X62697Y214075D02*
Y214272D01*
Y201279D02*
Y207579D01*
X82382Y201279D02*
Y207579D01*
X36319Y214272D02*
X56004D01*
X36319Y194587D02*
X56004D01*
X36319D02*
Y194783D01*
X56004Y194587D02*
Y194783D01*
Y214075D02*
Y214272D01*
X36319Y214075D02*
Y214272D01*
Y201279D02*
Y207579D01*
X56004Y201279D02*
Y207579D01*
X9941Y214272D02*
X29626D01*
X9941Y194587D02*
X29626D01*
X9941D02*
Y194783D01*
X29626Y194587D02*
Y194783D01*
Y214075D02*
Y214272D01*
X9941Y214075D02*
Y214272D01*
Y201279D02*
Y207579D01*
X29626Y201279D02*
Y207579D01*
X511122Y240650D02*
X530807D01*
X511122Y220965D02*
X530807D01*
X511122D02*
Y221161D01*
X530807Y220965D02*
Y221161D01*
Y240453D02*
Y240650D01*
X511122Y240453D02*
Y240650D01*
Y227658D02*
Y233957D01*
X530807Y227658D02*
Y233957D01*
X484744Y240650D02*
X504429D01*
X484744Y220965D02*
X504429D01*
X484744D02*
Y221161D01*
X504429Y220965D02*
Y221161D01*
Y240453D02*
Y240650D01*
X484744Y240453D02*
Y240650D01*
Y227658D02*
Y233957D01*
X504429Y227658D02*
Y233957D01*
X458366Y240650D02*
X478051D01*
X458366Y220965D02*
X478051D01*
X458366D02*
Y221161D01*
X478051Y220965D02*
Y221161D01*
Y240453D02*
Y240650D01*
X458366Y240453D02*
Y240650D01*
Y227658D02*
Y233957D01*
X478051Y227658D02*
Y233957D01*
X431988Y240650D02*
X451673D01*
X431988Y220965D02*
X451673D01*
X431988D02*
Y221161D01*
X451673Y220965D02*
Y221161D01*
Y240453D02*
Y240650D01*
X431988Y240453D02*
Y240650D01*
Y227658D02*
Y233957D01*
X451673Y227658D02*
Y233957D01*
X405610Y240650D02*
X425295D01*
X405610Y220965D02*
X425295D01*
X405610D02*
Y221161D01*
X425295Y220965D02*
Y221161D01*
Y240453D02*
Y240650D01*
X405610Y240453D02*
Y240650D01*
Y227658D02*
Y233957D01*
X425295Y227658D02*
Y233957D01*
X379232Y240650D02*
X398917D01*
X379232Y220965D02*
X398917D01*
X379232D02*
Y221161D01*
X398917Y220965D02*
Y221161D01*
Y240453D02*
Y240650D01*
X379232Y240453D02*
Y240650D01*
Y227658D02*
Y233957D01*
X398917Y227658D02*
Y233957D01*
X352854Y240650D02*
X372539D01*
X352854Y220965D02*
X372539D01*
X352854D02*
Y221161D01*
X372539Y220965D02*
Y221161D01*
Y240453D02*
Y240650D01*
X352854Y240453D02*
Y240650D01*
Y227658D02*
Y233957D01*
X372539Y227658D02*
Y233957D01*
X326476Y240650D02*
X346161D01*
X326476Y220965D02*
X346161D01*
X326476D02*
Y221161D01*
X346161Y220965D02*
Y221161D01*
Y240453D02*
Y240650D01*
X326476Y240453D02*
Y240650D01*
Y227658D02*
Y233957D01*
X346161Y227658D02*
Y233957D01*
X300098Y240650D02*
X319783D01*
X300098Y220965D02*
X319783D01*
X300098D02*
Y221161D01*
X319783Y220965D02*
Y221161D01*
Y240453D02*
Y240650D01*
X300098Y240453D02*
Y240650D01*
Y227658D02*
Y233957D01*
X319783Y227658D02*
Y233957D01*
X273721Y240650D02*
X293406D01*
X273721Y220965D02*
X293406D01*
X273721D02*
Y221161D01*
X293406Y220965D02*
Y221161D01*
Y240453D02*
Y240650D01*
X273721Y240453D02*
Y240650D01*
Y227658D02*
Y233957D01*
X293406Y227658D02*
Y233957D01*
X247342Y240650D02*
X267028D01*
X247342Y220965D02*
X267028D01*
X247342D02*
Y221161D01*
X267028Y220965D02*
Y221161D01*
Y240453D02*
Y240650D01*
X247342Y240453D02*
Y240650D01*
Y227658D02*
Y233957D01*
X267028Y227658D02*
Y233957D01*
X220965Y240650D02*
X240650D01*
X220965Y220965D02*
X240650D01*
X220965D02*
Y221161D01*
X240650Y220965D02*
Y221161D01*
Y240453D02*
Y240650D01*
X220965Y240453D02*
Y240650D01*
Y227658D02*
Y233957D01*
X240650Y227658D02*
Y233957D01*
X194587Y240650D02*
X214272D01*
X194587Y220965D02*
X214272D01*
X194587D02*
Y221161D01*
X214272Y220965D02*
Y221161D01*
Y240453D02*
Y240650D01*
X194587Y240453D02*
Y240650D01*
Y227658D02*
Y233957D01*
X214272Y227658D02*
Y233957D01*
X168209Y240650D02*
X187894D01*
X168209Y220965D02*
X187894D01*
X168209D02*
Y221161D01*
X187894Y220965D02*
Y221161D01*
Y240453D02*
Y240650D01*
X168209Y240453D02*
Y240650D01*
Y227658D02*
Y233957D01*
X187894Y227658D02*
Y233957D01*
X141831Y240650D02*
X161516D01*
X141831Y220965D02*
X161516D01*
X141831D02*
Y221161D01*
X161516Y220965D02*
Y221161D01*
Y240453D02*
Y240650D01*
X141831Y240453D02*
Y240650D01*
Y227658D02*
Y233957D01*
X161516Y227658D02*
Y233957D01*
X115453Y240650D02*
X135138D01*
X115453Y220965D02*
X135138D01*
X115453D02*
Y221161D01*
X135138Y220965D02*
Y221161D01*
Y240453D02*
Y240650D01*
X115453Y240453D02*
Y240650D01*
Y227658D02*
Y233957D01*
X135138Y227658D02*
Y233957D01*
X89075Y240650D02*
X108760D01*
X89075Y220965D02*
X108760D01*
X89075D02*
Y221161D01*
X108760Y220965D02*
Y221161D01*
Y240453D02*
Y240650D01*
X89075Y240453D02*
Y240650D01*
Y227658D02*
Y233957D01*
X108760Y227658D02*
Y233957D01*
X62697Y240650D02*
X82382D01*
X62697Y220965D02*
X82382D01*
X62697D02*
Y221161D01*
X82382Y220965D02*
Y221161D01*
Y240453D02*
Y240650D01*
X62697Y240453D02*
Y240650D01*
Y227658D02*
Y233957D01*
X82382Y227658D02*
Y233957D01*
X36319Y240650D02*
X56004D01*
X36319Y220965D02*
X56004D01*
X36319D02*
Y221161D01*
X56004Y220965D02*
Y221161D01*
Y240453D02*
Y240650D01*
X36319Y240453D02*
Y240650D01*
Y227658D02*
Y233957D01*
X56004Y227658D02*
Y233957D01*
X9941Y240650D02*
X29626D01*
X9941Y220965D02*
X29626D01*
X9941D02*
Y221161D01*
X29626Y220965D02*
Y221161D01*
Y240453D02*
Y240650D01*
X9941Y240453D02*
Y240650D01*
Y227658D02*
Y233957D01*
X29626Y227658D02*
Y233957D01*
X511122Y267028D02*
X530807D01*
X511122Y247342D02*
X530807D01*
X511122D02*
Y247539D01*
X530807Y247342D02*
Y247539D01*
Y266831D02*
Y267028D01*
X511122Y266831D02*
Y267028D01*
Y254035D02*
Y260335D01*
X530807Y254035D02*
Y260335D01*
X484744Y267028D02*
X504429D01*
X484744Y247342D02*
X504429D01*
X484744D02*
Y247539D01*
X504429Y247342D02*
Y247539D01*
Y266831D02*
Y267028D01*
X484744Y266831D02*
Y267028D01*
Y254035D02*
Y260335D01*
X504429Y254035D02*
Y260335D01*
X458366Y267028D02*
X478051D01*
X458366Y247342D02*
X478051D01*
X458366D02*
Y247539D01*
X478051Y247342D02*
Y247539D01*
Y266831D02*
Y267028D01*
X458366Y266831D02*
Y267028D01*
Y254035D02*
Y260335D01*
X478051Y254035D02*
Y260335D01*
X431988Y267028D02*
X451673D01*
X431988Y247342D02*
X451673D01*
X431988D02*
Y247539D01*
X451673Y247342D02*
Y247539D01*
Y266831D02*
Y267028D01*
X431988Y266831D02*
Y267028D01*
Y254035D02*
Y260335D01*
X451673Y254035D02*
Y260335D01*
X405610Y267028D02*
X425295D01*
X405610Y247342D02*
X425295D01*
X405610D02*
Y247539D01*
X425295Y247342D02*
Y247539D01*
Y266831D02*
Y267028D01*
X405610Y266831D02*
Y267028D01*
Y254035D02*
Y260335D01*
X425295Y254035D02*
Y260335D01*
X379232Y267028D02*
X398917D01*
X379232Y247342D02*
X398917D01*
X379232D02*
Y247539D01*
X398917Y247342D02*
Y247539D01*
Y266831D02*
Y267028D01*
X379232Y266831D02*
Y267028D01*
Y254035D02*
Y260335D01*
X398917Y254035D02*
Y260335D01*
X352854Y267028D02*
X372539D01*
X352854Y247342D02*
X372539D01*
X352854D02*
Y247539D01*
X372539Y247342D02*
Y247539D01*
Y266831D02*
Y267028D01*
X352854Y266831D02*
Y267028D01*
Y254035D02*
Y260335D01*
X372539Y254035D02*
Y260335D01*
X326476Y267028D02*
X346161D01*
X326476Y247342D02*
X346161D01*
X326476D02*
Y247539D01*
X346161Y247342D02*
Y247539D01*
Y266831D02*
Y267028D01*
X326476Y266831D02*
Y267028D01*
Y254035D02*
Y260335D01*
X346161Y254035D02*
Y260335D01*
X300098Y267028D02*
X319783D01*
X300098Y247342D02*
X319783D01*
X300098D02*
Y247539D01*
X319783Y247342D02*
Y247539D01*
Y266831D02*
Y267028D01*
X300098Y266831D02*
Y267028D01*
Y254035D02*
Y260335D01*
X319783Y254035D02*
Y260335D01*
X273721Y267028D02*
X293406D01*
X273721Y247342D02*
X293406D01*
X273721D02*
Y247539D01*
X293406Y247342D02*
Y247539D01*
Y266831D02*
Y267028D01*
X273721Y266831D02*
Y267028D01*
Y254035D02*
Y260335D01*
X293406Y254035D02*
Y260335D01*
X247342Y267028D02*
X267028D01*
X247342Y247342D02*
X267028D01*
X247342D02*
Y247539D01*
X267028Y247342D02*
Y247539D01*
Y266831D02*
Y267028D01*
X247342Y266831D02*
Y267028D01*
Y254035D02*
Y260335D01*
X267028Y254035D02*
Y260335D01*
X220965Y267028D02*
X240650D01*
X220965Y247342D02*
X240650D01*
X220965D02*
Y247539D01*
X240650Y247342D02*
Y247539D01*
Y266831D02*
Y267028D01*
X220965Y266831D02*
Y267028D01*
Y254035D02*
Y260335D01*
X240650Y254035D02*
Y260335D01*
X194587Y267028D02*
X214272D01*
X194587Y247342D02*
X214272D01*
X194587D02*
Y247539D01*
X214272Y247342D02*
Y247539D01*
Y266831D02*
Y267028D01*
X194587Y266831D02*
Y267028D01*
Y254035D02*
Y260335D01*
X214272Y254035D02*
Y260335D01*
X168209Y267028D02*
X187894D01*
X168209Y247342D02*
X187894D01*
X168209D02*
Y247539D01*
X187894Y247342D02*
Y247539D01*
Y266831D02*
Y267028D01*
X168209Y266831D02*
Y267028D01*
Y254035D02*
Y260335D01*
X187894Y254035D02*
Y260335D01*
X141831Y267028D02*
X161516D01*
X141831Y247342D02*
X161516D01*
X141831D02*
Y247539D01*
X161516Y247342D02*
Y247539D01*
Y266831D02*
Y267028D01*
X141831Y266831D02*
Y267028D01*
Y254035D02*
Y260335D01*
X161516Y254035D02*
Y260335D01*
X115453Y267028D02*
X135138D01*
X115453Y247342D02*
X135138D01*
X115453D02*
Y247539D01*
X135138Y247342D02*
Y247539D01*
Y266831D02*
Y267028D01*
X115453Y266831D02*
Y267028D01*
Y254035D02*
Y260335D01*
X135138Y254035D02*
Y260335D01*
X89075Y267028D02*
X108760D01*
X89075Y247342D02*
X108760D01*
X89075D02*
Y247539D01*
X108760Y247342D02*
Y247539D01*
Y266831D02*
Y267028D01*
X89075Y266831D02*
Y267028D01*
Y254035D02*
Y260335D01*
X108760Y254035D02*
Y260335D01*
X62697Y267028D02*
X82382D01*
X62697Y247342D02*
X82382D01*
X62697D02*
Y247539D01*
X82382Y247342D02*
Y247539D01*
Y266831D02*
Y267028D01*
X62697Y266831D02*
Y267028D01*
Y254035D02*
Y260335D01*
X82382Y254035D02*
Y260335D01*
X36319Y267028D02*
X56004D01*
X36319Y247342D02*
X56004D01*
X36319D02*
Y247539D01*
X56004Y247342D02*
Y247539D01*
Y266831D02*
Y267028D01*
X36319Y266831D02*
Y267028D01*
Y254035D02*
Y260335D01*
X56004Y254035D02*
Y260335D01*
X9941Y267028D02*
X29626D01*
X9941Y247342D02*
X29626D01*
X9941D02*
Y247539D01*
X29626Y247342D02*
Y247539D01*
Y266831D02*
Y267028D01*
X9941Y266831D02*
Y267028D01*
Y254035D02*
Y260335D01*
X29626Y254035D02*
Y260335D01*
X511122Y293406D02*
X530807D01*
X511122Y273721D02*
X530807D01*
X511122D02*
Y273917D01*
X530807Y273721D02*
Y273917D01*
Y293209D02*
Y293406D01*
X511122Y293209D02*
Y293406D01*
Y280413D02*
Y286713D01*
X530807Y280413D02*
Y286713D01*
X484744Y293406D02*
X504429D01*
X484744Y273721D02*
X504429D01*
X484744D02*
Y273917D01*
X504429Y273721D02*
Y273917D01*
Y293209D02*
Y293406D01*
X484744Y293209D02*
Y293406D01*
Y280413D02*
Y286713D01*
X504429Y280413D02*
Y286713D01*
X458366Y293406D02*
X478051D01*
X458366Y273721D02*
X478051D01*
X458366D02*
Y273917D01*
X478051Y273721D02*
Y273917D01*
Y293209D02*
Y293406D01*
X458366Y293209D02*
Y293406D01*
Y280413D02*
Y286713D01*
X478051Y280413D02*
Y286713D01*
X431988Y293406D02*
X451673D01*
X431988Y273721D02*
X451673D01*
X431988D02*
Y273917D01*
X451673Y273721D02*
Y273917D01*
Y293209D02*
Y293406D01*
X431988Y293209D02*
Y293406D01*
Y280413D02*
Y286713D01*
X451673Y280413D02*
Y286713D01*
X405610Y293406D02*
X425295D01*
X405610Y273721D02*
X425295D01*
X405610D02*
Y273917D01*
X425295Y273721D02*
Y273917D01*
Y293209D02*
Y293406D01*
X405610Y293209D02*
Y293406D01*
Y280413D02*
Y286713D01*
X425295Y280413D02*
Y286713D01*
X379232Y293406D02*
X398917D01*
X379232Y273721D02*
X398917D01*
X379232D02*
Y273917D01*
X398917Y273721D02*
Y273917D01*
Y293209D02*
Y293406D01*
X379232Y293209D02*
Y293406D01*
Y280413D02*
Y286713D01*
X398917Y280413D02*
Y286713D01*
X352854Y293406D02*
X372539D01*
X352854Y273721D02*
X372539D01*
X352854D02*
Y273917D01*
X372539Y273721D02*
Y273917D01*
Y293209D02*
Y293406D01*
X352854Y293209D02*
Y293406D01*
Y280413D02*
Y286713D01*
X372539Y280413D02*
Y286713D01*
X326476Y293406D02*
X346161D01*
X326476Y273721D02*
X346161D01*
X326476D02*
Y273917D01*
X346161Y273721D02*
Y273917D01*
Y293209D02*
Y293406D01*
X326476Y293209D02*
Y293406D01*
Y280413D02*
Y286713D01*
X346161Y280413D02*
Y286713D01*
X300098Y293406D02*
X319783D01*
X300098Y273721D02*
X319783D01*
X300098D02*
Y273917D01*
X319783Y273721D02*
Y273917D01*
Y293209D02*
Y293406D01*
X300098Y293209D02*
Y293406D01*
Y280413D02*
Y286713D01*
X319783Y280413D02*
Y286713D01*
X273721Y293406D02*
X293406D01*
X273721Y273721D02*
X293406D01*
X273721D02*
Y273917D01*
X293406Y273721D02*
Y273917D01*
Y293209D02*
Y293406D01*
X273721Y293209D02*
Y293406D01*
Y280413D02*
Y286713D01*
X293406Y280413D02*
Y286713D01*
X247342Y293406D02*
X267028D01*
X247342Y273721D02*
X267028D01*
X247342D02*
Y273917D01*
X267028Y273721D02*
Y273917D01*
Y293209D02*
Y293406D01*
X247342Y293209D02*
Y293406D01*
Y280413D02*
Y286713D01*
X267028Y280413D02*
Y286713D01*
X220965Y293406D02*
X240650D01*
X220965Y273721D02*
X240650D01*
X220965D02*
Y273917D01*
X240650Y273721D02*
Y273917D01*
Y293209D02*
Y293406D01*
X220965Y293209D02*
Y293406D01*
Y280413D02*
Y286713D01*
X240650Y280413D02*
Y286713D01*
X194587Y293406D02*
X214272D01*
X194587Y273721D02*
X214272D01*
X194587D02*
Y273917D01*
X214272Y273721D02*
Y273917D01*
Y293209D02*
Y293406D01*
X194587Y293209D02*
Y293406D01*
Y280413D02*
Y286713D01*
X214272Y280413D02*
Y286713D01*
X168209Y293406D02*
X187894D01*
X168209Y273721D02*
X187894D01*
X168209D02*
Y273917D01*
X187894Y273721D02*
Y273917D01*
Y293209D02*
Y293406D01*
X168209Y293209D02*
Y293406D01*
Y280413D02*
Y286713D01*
X187894Y280413D02*
Y286713D01*
X141831Y293406D02*
X161516D01*
X141831Y273721D02*
X161516D01*
X141831D02*
Y273917D01*
X161516Y273721D02*
Y273917D01*
Y293209D02*
Y293406D01*
X141831Y293209D02*
Y293406D01*
Y280413D02*
Y286713D01*
X161516Y280413D02*
Y286713D01*
X115453Y293406D02*
X135138D01*
X115453Y273721D02*
X135138D01*
X115453D02*
Y273917D01*
X135138Y273721D02*
Y273917D01*
Y293209D02*
Y293406D01*
X115453Y293209D02*
Y293406D01*
Y280413D02*
Y286713D01*
X135138Y280413D02*
Y286713D01*
X89075Y293406D02*
X108760D01*
X89075Y273721D02*
X108760D01*
X89075D02*
Y273917D01*
X108760Y273721D02*
Y273917D01*
Y293209D02*
Y293406D01*
X89075Y293209D02*
Y293406D01*
Y280413D02*
Y286713D01*
X108760Y280413D02*
Y286713D01*
X62697Y293406D02*
X82382D01*
X62697Y273721D02*
X82382D01*
X62697D02*
Y273917D01*
X82382Y273721D02*
Y273917D01*
Y293209D02*
Y293406D01*
X62697Y293209D02*
Y293406D01*
Y280413D02*
Y286713D01*
X82382Y280413D02*
Y286713D01*
X36319Y293406D02*
X56004D01*
X36319Y273721D02*
X56004D01*
X36319D02*
Y273917D01*
X56004Y273721D02*
Y273917D01*
Y293209D02*
Y293406D01*
X36319Y293209D02*
Y293406D01*
Y280413D02*
Y286713D01*
X56004Y280413D02*
Y286713D01*
X9941Y293406D02*
X29626D01*
X9941Y273721D02*
X29626D01*
X9941D02*
Y273917D01*
X29626Y273721D02*
Y273917D01*
Y293209D02*
Y293406D01*
X9941Y293209D02*
Y293406D01*
Y280413D02*
Y286713D01*
X29626Y280413D02*
Y286713D01*
X511122Y319783D02*
X530807D01*
X511122Y300098D02*
X530807D01*
X511122D02*
Y300295D01*
X530807Y300098D02*
Y300295D01*
Y319587D02*
Y319783D01*
X511122Y319587D02*
Y319783D01*
Y306791D02*
Y313090D01*
X530807Y306791D02*
Y313090D01*
X484744Y319783D02*
X504429D01*
X484744Y300098D02*
X504429D01*
X484744D02*
Y300295D01*
X504429Y300098D02*
Y300295D01*
Y319587D02*
Y319783D01*
X484744Y319587D02*
Y319783D01*
Y306791D02*
Y313090D01*
X504429Y306791D02*
Y313090D01*
X458366Y319783D02*
X478051D01*
X458366Y300098D02*
X478051D01*
X458366D02*
Y300295D01*
X478051Y300098D02*
Y300295D01*
Y319587D02*
Y319783D01*
X458366Y319587D02*
Y319783D01*
Y306791D02*
Y313090D01*
X478051Y306791D02*
Y313090D01*
X431988Y319783D02*
X451673D01*
X431988Y300098D02*
X451673D01*
X431988D02*
Y300295D01*
X451673Y300098D02*
Y300295D01*
Y319587D02*
Y319783D01*
X431988Y319587D02*
Y319783D01*
Y306791D02*
Y313090D01*
X451673Y306791D02*
Y313090D01*
X405610Y319783D02*
X425295D01*
X405610Y300098D02*
X425295D01*
X405610D02*
Y300295D01*
X425295Y300098D02*
Y300295D01*
Y319587D02*
Y319783D01*
X405610Y319587D02*
Y319783D01*
Y306791D02*
Y313090D01*
X425295Y306791D02*
Y313090D01*
X379232Y319783D02*
X398917D01*
X379232Y300098D02*
X398917D01*
X379232D02*
Y300295D01*
X398917Y300098D02*
Y300295D01*
Y319587D02*
Y319783D01*
X379232Y319587D02*
Y319783D01*
Y306791D02*
Y313090D01*
X398917Y306791D02*
Y313090D01*
X352854Y319783D02*
X372539D01*
X352854Y300098D02*
X372539D01*
X352854D02*
Y300295D01*
X372539Y300098D02*
Y300295D01*
Y319587D02*
Y319783D01*
X352854Y319587D02*
Y319783D01*
Y306791D02*
Y313090D01*
X372539Y306791D02*
Y313090D01*
X326476Y319783D02*
X346161D01*
X326476Y300098D02*
X346161D01*
X326476D02*
Y300295D01*
X346161Y300098D02*
Y300295D01*
Y319587D02*
Y319783D01*
X326476Y319587D02*
Y319783D01*
Y306791D02*
Y313090D01*
X346161Y306791D02*
Y313090D01*
X300098Y319783D02*
X319783D01*
X300098Y300098D02*
X319783D01*
X300098D02*
Y300295D01*
X319783Y300098D02*
Y300295D01*
Y319587D02*
Y319783D01*
X300098Y319587D02*
Y319783D01*
Y306791D02*
Y313090D01*
X319783Y306791D02*
Y313090D01*
X273721Y319783D02*
X293406D01*
X273721Y300098D02*
X293406D01*
X273721D02*
Y300295D01*
X293406Y300098D02*
Y300295D01*
Y319587D02*
Y319783D01*
X273721Y319587D02*
Y319783D01*
Y306791D02*
Y313090D01*
X293406Y306791D02*
Y313090D01*
X247342Y319783D02*
X267028D01*
X247342Y300098D02*
X267028D01*
X247342D02*
Y300295D01*
X267028Y300098D02*
Y300295D01*
Y319587D02*
Y319783D01*
X247342Y319587D02*
Y319783D01*
Y306791D02*
Y313090D01*
X267028Y306791D02*
Y313090D01*
X220965Y319783D02*
X240650D01*
X220965Y300098D02*
X240650D01*
X220965D02*
Y300295D01*
X240650Y300098D02*
Y300295D01*
Y319587D02*
Y319783D01*
X220965Y319587D02*
Y319783D01*
Y306791D02*
Y313090D01*
X240650Y306791D02*
Y313090D01*
X194587Y319783D02*
X214272D01*
X194587Y300098D02*
X214272D01*
X194587D02*
Y300295D01*
X214272Y300098D02*
Y300295D01*
Y319587D02*
Y319783D01*
X194587Y319587D02*
Y319783D01*
Y306791D02*
Y313090D01*
X214272Y306791D02*
Y313090D01*
X168209Y319783D02*
X187894D01*
X168209Y300098D02*
X187894D01*
X168209D02*
Y300295D01*
X187894Y300098D02*
Y300295D01*
Y319587D02*
Y319783D01*
X168209Y319587D02*
Y319783D01*
Y306791D02*
Y313090D01*
X187894Y306791D02*
Y313090D01*
X141831Y319783D02*
X161516D01*
X141831Y300098D02*
X161516D01*
X141831D02*
Y300295D01*
X161516Y300098D02*
Y300295D01*
Y319587D02*
Y319783D01*
X141831Y319587D02*
Y319783D01*
Y306791D02*
Y313090D01*
X161516Y306791D02*
Y313090D01*
X115453Y319783D02*
X135138D01*
X115453Y300098D02*
X135138D01*
X115453D02*
Y300295D01*
X135138Y300098D02*
Y300295D01*
Y319587D02*
Y319783D01*
X115453Y319587D02*
Y319783D01*
Y306791D02*
Y313090D01*
X135138Y306791D02*
Y313090D01*
X89075Y319783D02*
X108760D01*
X89075Y300098D02*
X108760D01*
X89075D02*
Y300295D01*
X108760Y300098D02*
Y300295D01*
Y319587D02*
Y319783D01*
X89075Y319587D02*
Y319783D01*
Y306791D02*
Y313090D01*
X108760Y306791D02*
Y313090D01*
X62697Y319783D02*
X82382D01*
X62697Y300098D02*
X82382D01*
X62697D02*
Y300295D01*
X82382Y300098D02*
Y300295D01*
Y319587D02*
Y319783D01*
X62697Y319587D02*
Y319783D01*
Y306791D02*
Y313090D01*
X82382Y306791D02*
Y313090D01*
X36319Y319783D02*
X56004D01*
X36319Y300098D02*
X56004D01*
X36319D02*
Y300295D01*
X56004Y300098D02*
Y300295D01*
Y319587D02*
Y319783D01*
X36319Y319587D02*
Y319783D01*
Y306791D02*
Y313090D01*
X56004Y306791D02*
Y313090D01*
X9941Y319783D02*
X29626D01*
X9941Y300098D02*
X29626D01*
X9941D02*
Y300295D01*
X29626Y300098D02*
Y300295D01*
Y319587D02*
Y319783D01*
X9941Y319587D02*
Y319783D01*
Y306791D02*
Y313090D01*
X29626Y306791D02*
Y313090D01*
X511122Y346161D02*
X530807D01*
X511122Y326476D02*
X530807D01*
X511122D02*
Y326673D01*
X530807Y326476D02*
Y326673D01*
Y345965D02*
Y346161D01*
X511122Y345965D02*
Y346161D01*
Y333169D02*
Y339469D01*
X530807Y333169D02*
Y339469D01*
X484744Y346161D02*
X504429D01*
X484744Y326476D02*
X504429D01*
X484744D02*
Y326673D01*
X504429Y326476D02*
Y326673D01*
Y345965D02*
Y346161D01*
X484744Y345965D02*
Y346161D01*
Y333169D02*
Y339469D01*
X504429Y333169D02*
Y339469D01*
X458366Y346161D02*
X478051D01*
X458366Y326476D02*
X478051D01*
X458366D02*
Y326673D01*
X478051Y326476D02*
Y326673D01*
Y345965D02*
Y346161D01*
X458366Y345965D02*
Y346161D01*
Y333169D02*
Y339469D01*
X478051Y333169D02*
Y339469D01*
X431988Y346161D02*
X451673D01*
X431988Y326476D02*
X451673D01*
X431988D02*
Y326673D01*
X451673Y326476D02*
Y326673D01*
Y345965D02*
Y346161D01*
X431988Y345965D02*
Y346161D01*
Y333169D02*
Y339469D01*
X451673Y333169D02*
Y339469D01*
X405610Y346161D02*
X425295D01*
X405610Y326476D02*
X425295D01*
X405610D02*
Y326673D01*
X425295Y326476D02*
Y326673D01*
Y345965D02*
Y346161D01*
X405610Y345965D02*
Y346161D01*
Y333169D02*
Y339469D01*
X425295Y333169D02*
Y339469D01*
X379232Y346161D02*
X398917D01*
X379232Y326476D02*
X398917D01*
X379232D02*
Y326673D01*
X398917Y326476D02*
Y326673D01*
Y345965D02*
Y346161D01*
X379232Y345965D02*
Y346161D01*
Y333169D02*
Y339469D01*
X398917Y333169D02*
Y339469D01*
X352854Y346161D02*
X372539D01*
X352854Y326476D02*
X372539D01*
X352854D02*
Y326673D01*
X372539Y326476D02*
Y326673D01*
Y345965D02*
Y346161D01*
X352854Y345965D02*
Y346161D01*
Y333169D02*
Y339469D01*
X372539Y333169D02*
Y339469D01*
X326476Y346161D02*
X346161D01*
X326476Y326476D02*
X346161D01*
X326476D02*
Y326673D01*
X346161Y326476D02*
Y326673D01*
Y345965D02*
Y346161D01*
X326476Y345965D02*
Y346161D01*
Y333169D02*
Y339469D01*
X346161Y333169D02*
Y339469D01*
X300098Y346161D02*
X319783D01*
X300098Y326476D02*
X319783D01*
X300098D02*
Y326673D01*
X319783Y326476D02*
Y326673D01*
Y345965D02*
Y346161D01*
X300098Y345965D02*
Y346161D01*
Y333169D02*
Y339469D01*
X319783Y333169D02*
Y339469D01*
X273721Y346161D02*
X293406D01*
X273721Y326476D02*
X293406D01*
X273721D02*
Y326673D01*
X293406Y326476D02*
Y326673D01*
Y345965D02*
Y346161D01*
X273721Y345965D02*
Y346161D01*
Y333169D02*
Y339469D01*
X293406Y333169D02*
Y339469D01*
X247342Y346161D02*
X267028D01*
X247342Y326476D02*
X267028D01*
X247342D02*
Y326673D01*
X267028Y326476D02*
Y326673D01*
Y345965D02*
Y346161D01*
X247342Y345965D02*
Y346161D01*
Y333169D02*
Y339469D01*
X267028Y333169D02*
Y339469D01*
X220965Y346161D02*
X240650D01*
X220965Y326476D02*
X240650D01*
X220965D02*
Y326673D01*
X240650Y326476D02*
Y326673D01*
Y345965D02*
Y346161D01*
X220965Y345965D02*
Y346161D01*
Y333169D02*
Y339469D01*
X240650Y333169D02*
Y339469D01*
X194587Y346161D02*
X214272D01*
X194587Y326476D02*
X214272D01*
X194587D02*
Y326673D01*
X214272Y326476D02*
Y326673D01*
Y345965D02*
Y346161D01*
X194587Y345965D02*
Y346161D01*
Y333169D02*
Y339469D01*
X214272Y333169D02*
Y339469D01*
X168209Y346161D02*
X187894D01*
X168209Y326476D02*
X187894D01*
X168209D02*
Y326673D01*
X187894Y326476D02*
Y326673D01*
Y345965D02*
Y346161D01*
X168209Y345965D02*
Y346161D01*
Y333169D02*
Y339469D01*
X187894Y333169D02*
Y339469D01*
X141831Y346161D02*
X161516D01*
X141831Y326476D02*
X161516D01*
X141831D02*
Y326673D01*
X161516Y326476D02*
Y326673D01*
Y345965D02*
Y346161D01*
X141831Y345965D02*
Y346161D01*
Y333169D02*
Y339469D01*
X161516Y333169D02*
Y339469D01*
X115453Y346161D02*
X135138D01*
X115453Y326476D02*
X135138D01*
X115453D02*
Y326673D01*
X135138Y326476D02*
Y326673D01*
Y345965D02*
Y346161D01*
X115453Y345965D02*
Y346161D01*
Y333169D02*
Y339469D01*
X135138Y333169D02*
Y339469D01*
X89075Y346161D02*
X108760D01*
X89075Y326476D02*
X108760D01*
X89075D02*
Y326673D01*
X108760Y326476D02*
Y326673D01*
Y345965D02*
Y346161D01*
X89075Y345965D02*
Y346161D01*
Y333169D02*
Y339469D01*
X108760Y333169D02*
Y339469D01*
X62697Y346161D02*
X82382D01*
X62697Y326476D02*
X82382D01*
X62697D02*
Y326673D01*
X82382Y326476D02*
Y326673D01*
Y345965D02*
Y346161D01*
X62697Y345965D02*
Y346161D01*
Y333169D02*
Y339469D01*
X82382Y333169D02*
Y339469D01*
X36319Y346161D02*
X56004D01*
X36319Y326476D02*
X56004D01*
X36319D02*
Y326673D01*
X56004Y326476D02*
Y326673D01*
Y345965D02*
Y346161D01*
X36319Y345965D02*
Y346161D01*
Y333169D02*
Y339469D01*
X56004Y333169D02*
Y339469D01*
X9941Y346161D02*
X29626D01*
X9941Y326476D02*
X29626D01*
X9941D02*
Y326673D01*
X29626Y326476D02*
Y326673D01*
Y345965D02*
Y346161D01*
X9941Y345965D02*
Y346161D01*
Y333169D02*
Y339469D01*
X29626Y333169D02*
Y339469D01*
X511122Y372539D02*
X530807D01*
X511122Y352854D02*
X530807D01*
X511122D02*
Y353051D01*
X530807Y352854D02*
Y353051D01*
Y372342D02*
Y372539D01*
X511122Y372342D02*
Y372539D01*
Y359547D02*
Y365846D01*
X530807Y359547D02*
Y365846D01*
X484744Y372539D02*
X504429D01*
X484744Y352854D02*
X504429D01*
X484744D02*
Y353051D01*
X504429Y352854D02*
Y353051D01*
Y372342D02*
Y372539D01*
X484744Y372342D02*
Y372539D01*
Y359547D02*
Y365846D01*
X504429Y359547D02*
Y365846D01*
X458366Y372539D02*
X478051D01*
X458366Y352854D02*
X478051D01*
X458366D02*
Y353051D01*
X478051Y352854D02*
Y353051D01*
Y372342D02*
Y372539D01*
X458366Y372342D02*
Y372539D01*
Y359547D02*
Y365846D01*
X478051Y359547D02*
Y365846D01*
X431988Y372539D02*
X451673D01*
X431988Y352854D02*
X451673D01*
X431988D02*
Y353051D01*
X451673Y352854D02*
Y353051D01*
Y372342D02*
Y372539D01*
X431988Y372342D02*
Y372539D01*
Y359547D02*
Y365846D01*
X451673Y359547D02*
Y365846D01*
X405610Y372539D02*
X425295D01*
X405610Y352854D02*
X425295D01*
X405610D02*
Y353051D01*
X425295Y352854D02*
Y353051D01*
Y372342D02*
Y372539D01*
X405610Y372342D02*
Y372539D01*
Y359547D02*
Y365846D01*
X425295Y359547D02*
Y365846D01*
X379232Y372539D02*
X398917D01*
X379232Y352854D02*
X398917D01*
X379232D02*
Y353051D01*
X398917Y352854D02*
Y353051D01*
Y372342D02*
Y372539D01*
X379232Y372342D02*
Y372539D01*
Y359547D02*
Y365846D01*
X398917Y359547D02*
Y365846D01*
X352854Y372539D02*
X372539D01*
X352854Y352854D02*
X372539D01*
X352854D02*
Y353051D01*
X372539Y352854D02*
Y353051D01*
Y372342D02*
Y372539D01*
X352854Y372342D02*
Y372539D01*
Y359547D02*
Y365846D01*
X372539Y359547D02*
Y365846D01*
X326476Y372539D02*
X346161D01*
X326476Y352854D02*
X346161D01*
X326476D02*
Y353051D01*
X346161Y352854D02*
Y353051D01*
Y372342D02*
Y372539D01*
X326476Y372342D02*
Y372539D01*
Y359547D02*
Y365846D01*
X346161Y359547D02*
Y365846D01*
X300098Y372539D02*
X319783D01*
X300098Y352854D02*
X319783D01*
X300098D02*
Y353051D01*
X319783Y352854D02*
Y353051D01*
Y372342D02*
Y372539D01*
X300098Y372342D02*
Y372539D01*
Y359547D02*
Y365846D01*
X319783Y359547D02*
Y365846D01*
X273721Y372539D02*
X293406D01*
X273721Y352854D02*
X293406D01*
X273721D02*
Y353051D01*
X293406Y352854D02*
Y353051D01*
Y372342D02*
Y372539D01*
X273721Y372342D02*
Y372539D01*
Y359547D02*
Y365846D01*
X293406Y359547D02*
Y365846D01*
X247342Y372539D02*
X267028D01*
X247342Y352854D02*
X267028D01*
X247342D02*
Y353051D01*
X267028Y352854D02*
Y353051D01*
Y372342D02*
Y372539D01*
X247342Y372342D02*
Y372539D01*
Y359547D02*
Y365846D01*
X267028Y359547D02*
Y365846D01*
X220965Y372539D02*
X240650D01*
X220965Y352854D02*
X240650D01*
X220965D02*
Y353051D01*
X240650Y352854D02*
Y353051D01*
Y372342D02*
Y372539D01*
X220965Y372342D02*
Y372539D01*
Y359547D02*
Y365846D01*
X240650Y359547D02*
Y365846D01*
X194587Y372539D02*
X214272D01*
X194587Y352854D02*
X214272D01*
X194587D02*
Y353051D01*
X214272Y352854D02*
Y353051D01*
Y372342D02*
Y372539D01*
X194587Y372342D02*
Y372539D01*
Y359547D02*
Y365846D01*
X214272Y359547D02*
Y365846D01*
X168209Y372539D02*
X187894D01*
X168209Y352854D02*
X187894D01*
X168209D02*
Y353051D01*
X187894Y352854D02*
Y353051D01*
Y372342D02*
Y372539D01*
X168209Y372342D02*
Y372539D01*
Y359547D02*
Y365846D01*
X187894Y359547D02*
Y365846D01*
X141831Y372539D02*
X161516D01*
X141831Y352854D02*
X161516D01*
X141831D02*
Y353051D01*
X161516Y352854D02*
Y353051D01*
Y372342D02*
Y372539D01*
X141831Y372342D02*
Y372539D01*
Y359547D02*
Y365846D01*
X161516Y359547D02*
Y365846D01*
X115453Y372539D02*
X135138D01*
X115453Y352854D02*
X135138D01*
X115453D02*
Y353051D01*
X135138Y352854D02*
Y353051D01*
Y372342D02*
Y372539D01*
X115453Y372342D02*
Y372539D01*
Y359547D02*
Y365846D01*
X135138Y359547D02*
Y365846D01*
X89075Y372539D02*
X108760D01*
X89075Y352854D02*
X108760D01*
X89075D02*
Y353051D01*
X108760Y352854D02*
Y353051D01*
Y372342D02*
Y372539D01*
X89075Y372342D02*
Y372539D01*
Y359547D02*
Y365846D01*
X108760Y359547D02*
Y365846D01*
X62697Y372539D02*
X82382D01*
X62697Y352854D02*
X82382D01*
X62697D02*
Y353051D01*
X82382Y352854D02*
Y353051D01*
Y372342D02*
Y372539D01*
X62697Y372342D02*
Y372539D01*
Y359547D02*
Y365846D01*
X82382Y359547D02*
Y365846D01*
X36319Y372539D02*
X56004D01*
X36319Y352854D02*
X56004D01*
X36319D02*
Y353051D01*
X56004Y352854D02*
Y353051D01*
Y372342D02*
Y372539D01*
X36319Y372342D02*
Y372539D01*
Y359547D02*
Y365846D01*
X56004Y359547D02*
Y365846D01*
X9941Y372539D02*
X29626D01*
X9941Y352854D02*
X29626D01*
X9941D02*
Y353051D01*
X29626Y352854D02*
Y353051D01*
Y372342D02*
Y372539D01*
X9941Y372342D02*
Y372539D01*
Y359547D02*
Y365846D01*
X29626Y359547D02*
Y365846D01*
X70915Y100591D02*
Y136811D01*
X107136Y100591D02*
Y136811D01*
X70915D02*
X107136D01*
X70915Y100591D02*
X107136D01*
X462106Y111860D02*
X465059D01*
X462106D02*
Y116978D01*
X471358Y111860D02*
X474311D01*
Y116978D01*
X448179Y121850D02*
Y124803D01*
X453297D01*
X448179Y112598D02*
Y115551D01*
Y112598D02*
X453297D01*
X466585Y128642D02*
Y131595D01*
X461467Y128642D02*
X466585D01*
Y137894D02*
Y140847D01*
X461467D02*
X466585D01*
D13*
X388903Y10112D02*
X398746Y19955D01*
X362526Y10112D02*
X372368Y19955D01*
X336148Y10112D02*
X345990Y19955D01*
X309770Y10112D02*
X319612Y19955D01*
X283392Y10112D02*
X293234Y19955D01*
X257014Y10112D02*
X266856Y19955D01*
X230636Y10112D02*
X240478Y19955D01*
X204258Y10112D02*
X214100Y19955D01*
X177880Y10112D02*
X187722Y19955D01*
X151502Y10112D02*
X161345Y19955D01*
X388903Y36490D02*
X398746Y46333D01*
X362526Y36490D02*
X372368Y46333D01*
X336148Y36490D02*
X345990Y46333D01*
X309770Y36490D02*
X319612Y46333D01*
X283392Y36490D02*
X293234Y46333D01*
X257014Y36490D02*
X266856Y46333D01*
X230636Y36490D02*
X240478Y46333D01*
X204258Y36490D02*
X214100Y46333D01*
X177880Y36490D02*
X187722Y46333D01*
X151502Y36490D02*
X161345Y46333D01*
X388903Y62868D02*
X398746Y72711D01*
X362526Y62868D02*
X372368Y72711D01*
X336148Y62868D02*
X345990Y72711D01*
X309770Y62868D02*
X319612Y72711D01*
X283392Y62868D02*
X293234Y72711D01*
X257014Y62868D02*
X266856Y72711D01*
X230636Y62868D02*
X240478Y72711D01*
X204258Y62868D02*
X214100Y72711D01*
X177880Y62868D02*
X187722Y72711D01*
X151502Y62868D02*
X161345Y72711D01*
X388903Y89246D02*
X398746Y99089D01*
X362526Y89246D02*
X372368Y99089D01*
X336148Y89246D02*
X345990Y99089D01*
X309770Y89246D02*
X319612Y99089D01*
X283392Y89246D02*
X293234Y99089D01*
X257014Y89246D02*
X266856Y99089D01*
X230636Y89246D02*
X240478Y99089D01*
X204258Y89246D02*
X214100Y99089D01*
X177880Y89246D02*
X187722Y99089D01*
X151502Y89246D02*
X161345Y99089D01*
X388903Y115624D02*
X398746Y125467D01*
X362526Y115624D02*
X372368Y125467D01*
X336148Y115624D02*
X345990Y125467D01*
X309770Y115624D02*
X319612Y125467D01*
X283392Y115624D02*
X293234Y125467D01*
X257014Y115624D02*
X266856Y125467D01*
X230636Y115624D02*
X240478Y125467D01*
X204258Y115624D02*
X214100Y125467D01*
X177880Y115624D02*
X187722Y125467D01*
X151502Y115624D02*
X161345Y125467D01*
X388903Y142002D02*
X398746Y151845D01*
X362526Y142002D02*
X372368Y151845D01*
X336148Y142002D02*
X345990Y151845D01*
X309770Y142002D02*
X319612Y151845D01*
X283392Y142002D02*
X293234Y151845D01*
X257014Y142002D02*
X266856Y151845D01*
X230636Y142002D02*
X240478Y151845D01*
X204258Y142002D02*
X214100Y151845D01*
X177880Y142002D02*
X187722Y151845D01*
X151502Y142002D02*
X161345Y151845D01*
X520793Y168380D02*
X530636Y178222D01*
X494415Y168380D02*
X504258Y178222D01*
X468037Y168380D02*
X477880Y178222D01*
X441659Y168380D02*
X451502Y178222D01*
X415281Y168380D02*
X425124Y178222D01*
X388903Y168380D02*
X398746Y178222D01*
X362526Y168380D02*
X372368Y178222D01*
X336148Y168380D02*
X345990Y178222D01*
X309770Y168380D02*
X319612Y178222D01*
X283392Y168380D02*
X293234Y178222D01*
X257014Y168380D02*
X266856Y178222D01*
X230636Y168380D02*
X240478Y178222D01*
X204258Y168380D02*
X214100Y178222D01*
X177880Y168380D02*
X187722Y178222D01*
X151502Y168380D02*
X161345Y178222D01*
X125124Y168380D02*
X134967Y178222D01*
X98746Y168380D02*
X108589Y178222D01*
X72368Y168380D02*
X82211Y178222D01*
X45990Y168380D02*
X55833Y178222D01*
X19612Y168380D02*
X29455Y178222D01*
X520793Y194758D02*
X530636Y204600D01*
X494415Y194758D02*
X504258Y204600D01*
X468037Y194758D02*
X477880Y204600D01*
X441659Y194758D02*
X451502Y204600D01*
X415281Y194758D02*
X425124Y204600D01*
X388903Y194758D02*
X398746Y204600D01*
X362526Y194758D02*
X372368Y204600D01*
X336148Y194758D02*
X345990Y204600D01*
X309770Y194758D02*
X319612Y204600D01*
X283392Y194758D02*
X293234Y204600D01*
X257014Y194758D02*
X266856Y204600D01*
X230636Y194758D02*
X240478Y204600D01*
X204258Y194758D02*
X214100Y204600D01*
X177880Y194758D02*
X187722Y204600D01*
X151502Y194758D02*
X161345Y204600D01*
X125124Y194758D02*
X134967Y204600D01*
X98746Y194758D02*
X108589Y204600D01*
X72368Y194758D02*
X82211Y204600D01*
X45990Y194758D02*
X55833Y204600D01*
X19612Y194758D02*
X29455Y204600D01*
X520793Y221136D02*
X530636Y230978D01*
X494415Y221136D02*
X504258Y230978D01*
X468037Y221136D02*
X477880Y230978D01*
X441659Y221136D02*
X451502Y230978D01*
X415281Y221136D02*
X425124Y230978D01*
X388903Y221136D02*
X398746Y230978D01*
X362526Y221136D02*
X372368Y230978D01*
X336148Y221136D02*
X345990Y230978D01*
X309770Y221136D02*
X319612Y230978D01*
X283392Y221136D02*
X293234Y230978D01*
X257014Y221136D02*
X266856Y230978D01*
X230636Y221136D02*
X240478Y230978D01*
X204258Y221136D02*
X214100Y230978D01*
X177880Y221136D02*
X187722Y230978D01*
X151502Y221136D02*
X161345Y230978D01*
X125124Y221136D02*
X134967Y230978D01*
X98746Y221136D02*
X108589Y230978D01*
X72368Y221136D02*
X82211Y230978D01*
X45990Y221136D02*
X55833Y230978D01*
X19612Y221136D02*
X29455Y230978D01*
X520793Y247514D02*
X530636Y257356D01*
X494415Y247514D02*
X504258Y257356D01*
X468037Y247514D02*
X477880Y257356D01*
X441659Y247514D02*
X451502Y257356D01*
X415281Y247514D02*
X425124Y257356D01*
X388903Y247514D02*
X398746Y257356D01*
X362526Y247514D02*
X372368Y257356D01*
X336148Y247514D02*
X345990Y257356D01*
X309770Y247514D02*
X319612Y257356D01*
X283392Y247514D02*
X293234Y257356D01*
X257014Y247514D02*
X266856Y257356D01*
X230636Y247514D02*
X240478Y257356D01*
X204258Y247514D02*
X214100Y257356D01*
X177880Y247514D02*
X187722Y257356D01*
X151502Y247514D02*
X161345Y257356D01*
X125124Y247514D02*
X134967Y257356D01*
X98746Y247514D02*
X108589Y257356D01*
X72368Y247514D02*
X82211Y257356D01*
X45990Y247514D02*
X55833Y257356D01*
X19612Y247514D02*
X29455Y257356D01*
X520793Y273892D02*
X530636Y283734D01*
X494415Y273892D02*
X504258Y283734D01*
X468037Y273892D02*
X477880Y283734D01*
X441659Y273892D02*
X451502Y283734D01*
X415281Y273892D02*
X425124Y283734D01*
X388903Y273892D02*
X398746Y283734D01*
X362526Y273892D02*
X372368Y283734D01*
X336148Y273892D02*
X345990Y283734D01*
X309770Y273892D02*
X319612Y283734D01*
X283392Y273892D02*
X293234Y283734D01*
X257014Y273892D02*
X266856Y283734D01*
X230636Y273892D02*
X240478Y283734D01*
X204258Y273892D02*
X214100Y283734D01*
X177880Y273892D02*
X187722Y283734D01*
X151502Y273892D02*
X161345Y283734D01*
X125124Y273892D02*
X134967Y283734D01*
X98746Y273892D02*
X108589Y283734D01*
X72368Y273892D02*
X82211Y283734D01*
X45990Y273892D02*
X55833Y283734D01*
X19612Y273892D02*
X29455Y283734D01*
X520793Y300270D02*
X530636Y310112D01*
X494415Y300270D02*
X504258Y310112D01*
X468037Y300270D02*
X477880Y310112D01*
X441659Y300270D02*
X451502Y310112D01*
X415281Y300270D02*
X425124Y310112D01*
X388903Y300270D02*
X398746Y310112D01*
X362526Y300270D02*
X372368Y310112D01*
X336148Y300270D02*
X345990Y310112D01*
X309770Y300270D02*
X319612Y310112D01*
X283392Y300270D02*
X293234Y310112D01*
X257014Y300270D02*
X266856Y310112D01*
X230636Y300270D02*
X240478Y310112D01*
X204258Y300270D02*
X214100Y310112D01*
X177880Y300270D02*
X187722Y310112D01*
X151502Y300270D02*
X161345Y310112D01*
X125124Y300270D02*
X134967Y310112D01*
X98746Y300270D02*
X108589Y310112D01*
X72368Y300270D02*
X82211Y310112D01*
X45990Y300270D02*
X55833Y310112D01*
X19612Y300270D02*
X29455Y310112D01*
X520793Y326648D02*
X530636Y336490D01*
X494415Y326648D02*
X504258Y336490D01*
X468037Y326648D02*
X477880Y336490D01*
X441659Y326648D02*
X451502Y336490D01*
X415281Y326648D02*
X425124Y336490D01*
X388903Y326648D02*
X398746Y336490D01*
X362526Y326648D02*
X372368Y336490D01*
X336148Y326648D02*
X345990Y336490D01*
X309770Y326648D02*
X319612Y336490D01*
X283392Y326648D02*
X293234Y336490D01*
X257014Y326648D02*
X266856Y336490D01*
X230636Y326648D02*
X240478Y336490D01*
X204258Y326648D02*
X214100Y336490D01*
X177880Y326648D02*
X187722Y336490D01*
X151502Y326648D02*
X161345Y336490D01*
X125124Y326648D02*
X134967Y336490D01*
X98746Y326648D02*
X108589Y336490D01*
X72368Y326648D02*
X82211Y336490D01*
X45990Y326648D02*
X55833Y336490D01*
X19612Y326648D02*
X29455Y336490D01*
X520793Y353026D02*
X530636Y362868D01*
X494415Y353026D02*
X504258Y362868D01*
X468037Y353026D02*
X477880Y362868D01*
X441659Y353026D02*
X451502Y362868D01*
X415281Y353026D02*
X425124Y362868D01*
X388903Y353026D02*
X398746Y362868D01*
X362526Y353026D02*
X372368Y362868D01*
X336148Y353026D02*
X345990Y362868D01*
X309770Y353026D02*
X319612Y362868D01*
X283392Y353026D02*
X293234Y362868D01*
X257014Y353026D02*
X266856Y362868D01*
X230636Y353026D02*
X240478Y362868D01*
X204258Y353026D02*
X214100Y362868D01*
X177880Y353026D02*
X187722Y362868D01*
X151502Y353026D02*
X161345Y362868D01*
X125124Y353026D02*
X134967Y362868D01*
X98746Y353026D02*
X108589Y362868D01*
X72368Y353026D02*
X82211Y362868D01*
X45990Y353026D02*
X55833Y362868D01*
X19612Y353026D02*
X29455Y362868D01*
X2855Y307805D02*
X4854D01*
X3855D01*
Y313803D01*
X2855Y312803D01*
X135889Y159268D02*
Y165266D01*
X132890Y162267D01*
X136889D01*
X2199Y206538D02*
X3199Y207537D01*
X5198D01*
X6198Y206538D01*
Y205538D01*
X5198Y204538D01*
X4198D01*
X5198D01*
X6198Y203539D01*
Y202539D01*
X5198Y201539D01*
X3199D01*
X2199Y202539D01*
X1954Y364729D02*
X2954Y365729D01*
X4953D01*
X5953Y364729D01*
Y360730D01*
X4953Y359731D01*
X2954D01*
X1954Y360730D01*
Y364729D01*
X6654Y254395D02*
X2655D01*
X6654Y258393D01*
Y259393D01*
X5655Y260393D01*
X3655D01*
X2655Y259393D01*
X456020Y83133D02*
X460018D01*
X458019Y85132D02*
Y81134D01*
X468016Y83133D02*
X472015D01*
X117000Y69540D02*
Y75538D01*
X119999D01*
X120998Y74539D01*
Y72539D01*
X119999Y71540D01*
X117000D01*
X118999D02*
X120998Y69540D01*
X122998Y74539D02*
X123997Y75538D01*
X125997D01*
X126996Y74539D01*
Y73539D01*
X125997Y72539D01*
X126996Y71540D01*
Y70540D01*
X125997Y69540D01*
X123997D01*
X122998Y70540D01*
Y71540D01*
X123997Y72539D01*
X122998Y73539D01*
Y74539D01*
X123997Y72539D02*
X125997D01*
X467209Y100215D02*
Y104214D01*
X466209Y105214D01*
X464210D01*
X463210Y104214D01*
Y100215D01*
X464210Y99216D01*
X466209D01*
X465210Y101215D02*
X467209Y99216D01*
X466209D02*
X467209Y100215D01*
X469208Y104214D02*
X470208Y105214D01*
X472207D01*
X473207Y104214D01*
Y103214D01*
X472207Y102215D01*
X471208D01*
X472207D01*
X473207Y101215D01*
Y100215D01*
X472207Y99216D01*
X470208D01*
X469208Y100215D01*
X440831Y126593D02*
Y130592D01*
X439831Y131592D01*
X437832D01*
X436832Y130592D01*
Y126593D01*
X437832Y125593D01*
X439831D01*
X438832Y127593D02*
X440831Y125593D01*
X439831D02*
X440831Y126593D01*
X446829Y125593D02*
X442830D01*
X446829Y129592D01*
Y130592D01*
X445829Y131592D01*
X443830D01*
X442830Y130592D01*
X68137Y154672D02*
Y149674D01*
X69137Y148674D01*
X71136D01*
X72136Y149674D01*
Y154672D01*
X78134Y148674D02*
X74136D01*
X78134Y152673D01*
Y153673D01*
X77135Y154672D01*
X75135D01*
X74136Y153673D01*
X84132Y148674D02*
X80133D01*
X84132Y152673D01*
Y153673D01*
X83133Y154672D01*
X81133D01*
X80133Y153673D01*
X90130Y148674D02*
X86132D01*
X90130Y152673D01*
Y153673D01*
X89131Y154672D01*
X87131D01*
X86132Y153673D01*
X415348Y62349D02*
Y57351D01*
X416347Y56351D01*
X418347D01*
X419346Y57351D01*
Y62349D01*
X425345Y56351D02*
X421346D01*
X425345Y60350D01*
Y61350D01*
X424345Y62349D01*
X422345D01*
X421346Y61350D01*
X431343Y56351D02*
X427344D01*
X431343Y60350D01*
Y61350D01*
X430343Y62349D01*
X428343D01*
X427344Y61350D01*
X433342Y56351D02*
X435341D01*
X434342D01*
Y62349D01*
X433342Y61350D01*
X376700Y22798D02*
Y17800D01*
X377700Y16800D01*
X379699D01*
X380699Y17800D01*
Y22798D01*
X386697Y16800D02*
X382698D01*
X386697Y20799D01*
Y21798D01*
X385697Y22798D01*
X383698D01*
X382698Y21798D01*
X392695Y16800D02*
X388696D01*
X392695Y20799D01*
Y21798D01*
X391695Y22798D01*
X389696D01*
X388696Y21798D01*
X394694D02*
X395694Y22798D01*
X397693D01*
X398693Y21798D01*
Y17800D01*
X397693Y16800D01*
X395694D01*
X394694Y17800D01*
Y21798D01*
X350900Y22798D02*
Y17800D01*
X351900Y16800D01*
X353899D01*
X354899Y17800D01*
Y22798D01*
X360897Y16800D02*
X356898D01*
X360897Y20799D01*
Y21798D01*
X359897Y22798D01*
X357898D01*
X356898Y21798D01*
X362896Y16800D02*
X364896D01*
X363896D01*
Y22798D01*
X362896Y21798D01*
X367895Y17800D02*
X368894Y16800D01*
X370894D01*
X371893Y17800D01*
Y21798D01*
X370894Y22798D01*
X368894D01*
X367895Y21798D01*
Y20799D01*
X368894Y19799D01*
X371893D01*
X324500Y22798D02*
Y17800D01*
X325500Y16800D01*
X327499D01*
X328499Y17800D01*
Y22798D01*
X334497Y16800D02*
X330498D01*
X334497Y20799D01*
Y21798D01*
X333497Y22798D01*
X331498D01*
X330498Y21798D01*
X336496Y16800D02*
X338495D01*
X337496D01*
Y22798D01*
X336496Y21798D01*
X341494D02*
X342494Y22798D01*
X344494D01*
X345493Y21798D01*
Y20799D01*
X344494Y19799D01*
X345493Y18799D01*
Y17800D01*
X344494Y16800D01*
X342494D01*
X341494Y17800D01*
Y18799D01*
X342494Y19799D01*
X341494Y20799D01*
Y21798D01*
X342494Y19799D02*
X344494D01*
X298100Y22798D02*
Y17800D01*
X299100Y16800D01*
X301099D01*
X302099Y17800D01*
Y22798D01*
X308097Y16800D02*
X304098D01*
X308097Y20799D01*
Y21798D01*
X307097Y22798D01*
X305098D01*
X304098Y21798D01*
X310096Y16800D02*
X312095D01*
X311096D01*
Y22798D01*
X310096Y21798D01*
X315094Y22798D02*
X319093D01*
Y21798D01*
X315094Y17800D01*
Y16800D01*
X271700Y22798D02*
Y17800D01*
X272700Y16800D01*
X274699D01*
X275699Y17800D01*
Y22798D01*
X281697Y16800D02*
X277698D01*
X281697Y20799D01*
Y21798D01*
X280697Y22798D01*
X278698D01*
X277698Y21798D01*
X283696Y16800D02*
X285696D01*
X284696D01*
Y22798D01*
X283696Y21798D01*
X292693Y22798D02*
X290694Y21798D01*
X288695Y19799D01*
Y17800D01*
X289694Y16800D01*
X291693D01*
X292693Y17800D01*
Y18799D01*
X291693Y19799D01*
X288695D01*
X245400Y22798D02*
Y17800D01*
X246400Y16800D01*
X248399D01*
X249399Y17800D01*
Y22798D01*
X255397Y16800D02*
X251398D01*
X255397Y20799D01*
Y21798D01*
X254397Y22798D01*
X252398D01*
X251398Y21798D01*
X257396Y16800D02*
X259396D01*
X258396D01*
Y22798D01*
X257396Y21798D01*
X266393Y22798D02*
X262394D01*
Y19799D01*
X264394Y20799D01*
X265393D01*
X266393Y19799D01*
Y17800D01*
X265393Y16800D01*
X263394D01*
X262394Y17800D01*
X219000Y22798D02*
Y17800D01*
X220000Y16800D01*
X221999D01*
X222999Y17800D01*
Y22798D01*
X228997Y16800D02*
X224998D01*
X228997Y20799D01*
Y21798D01*
X227997Y22798D01*
X225998D01*
X224998Y21798D01*
X230996Y16800D02*
X232996D01*
X231996D01*
Y22798D01*
X230996Y21798D01*
X238994Y16800D02*
Y22798D01*
X235995Y19799D01*
X239993D01*
X192600Y22798D02*
Y17800D01*
X193600Y16800D01*
X195599D01*
X196599Y17800D01*
Y22798D01*
X202597Y16800D02*
X198598D01*
X202597Y20799D01*
Y21798D01*
X201597Y22798D01*
X199598D01*
X198598Y21798D01*
X204596Y16800D02*
X206595D01*
X205596D01*
Y22798D01*
X204596Y21798D01*
X209594D02*
X210594Y22798D01*
X212594D01*
X213593Y21798D01*
Y20799D01*
X212594Y19799D01*
X211594D01*
X212594D01*
X213593Y18799D01*
Y17800D01*
X212594Y16800D01*
X210594D01*
X209594Y17800D01*
X166200Y22798D02*
Y17800D01*
X167200Y16800D01*
X169199D01*
X170199Y17800D01*
Y22798D01*
X176197Y16800D02*
X172198D01*
X176197Y20799D01*
Y21798D01*
X175197Y22798D01*
X173198D01*
X172198Y21798D01*
X178196Y16800D02*
X180195D01*
X179196D01*
Y22798D01*
X178196Y21798D01*
X187193Y16800D02*
X183194D01*
X187193Y20799D01*
Y21798D01*
X186194Y22798D01*
X184194D01*
X183194Y21798D01*
X140800Y22798D02*
Y17800D01*
X141800Y16800D01*
X143799D01*
X144799Y17800D01*
Y22798D01*
X150797Y16800D02*
X146798D01*
X150797Y20799D01*
Y21798D01*
X149797Y22798D01*
X147798D01*
X146798Y21798D01*
X152796Y16800D02*
X154796D01*
X153796D01*
Y22798D01*
X152796Y21798D01*
X157794Y16800D02*
X159794D01*
X158794D01*
Y22798D01*
X157794Y21798D01*
X377200Y49198D02*
Y44200D01*
X378200Y43200D01*
X380199D01*
X381199Y44200D01*
Y49198D01*
X387197Y43200D02*
X383198D01*
X387197Y47199D01*
Y48198D01*
X386197Y49198D01*
X384198D01*
X383198Y48198D01*
X389196Y43200D02*
X391196D01*
X390196D01*
Y49198D01*
X389196Y48198D01*
X394195D02*
X395194Y49198D01*
X397194D01*
X398193Y48198D01*
Y44200D01*
X397194Y43200D01*
X395194D01*
X394195Y44200D01*
Y48198D01*
X350400Y49198D02*
Y44200D01*
X351400Y43200D01*
X353399D01*
X354399Y44200D01*
Y49198D01*
X360397Y43200D02*
X356398D01*
X360397Y47199D01*
Y48198D01*
X359397Y49198D01*
X357398D01*
X356398Y48198D01*
X362396D02*
X363396Y49198D01*
X365395D01*
X366395Y48198D01*
Y44200D01*
X365395Y43200D01*
X363396D01*
X362396Y44200D01*
Y48198D01*
X368394Y44200D02*
X369394Y43200D01*
X371393D01*
X372393Y44200D01*
Y48198D01*
X371393Y49198D01*
X369394D01*
X368394Y48198D01*
Y47199D01*
X369394Y46199D01*
X372393D01*
X324000Y49198D02*
Y44200D01*
X325000Y43200D01*
X326999D01*
X327999Y44200D01*
Y49198D01*
X333997Y43200D02*
X329998D01*
X333997Y47199D01*
Y48198D01*
X332997Y49198D01*
X330998D01*
X329998Y48198D01*
X335996D02*
X336996Y49198D01*
X338995D01*
X339995Y48198D01*
Y44200D01*
X338995Y43200D01*
X336996D01*
X335996Y44200D01*
Y48198D01*
X341994D02*
X342994Y49198D01*
X344993D01*
X345993Y48198D01*
Y47199D01*
X344993Y46199D01*
X345993Y45199D01*
Y44200D01*
X344993Y43200D01*
X342994D01*
X341994Y44200D01*
Y45199D01*
X342994Y46199D01*
X341994Y47199D01*
Y48198D01*
X342994Y46199D02*
X344993D01*
X297600Y49198D02*
Y44200D01*
X298600Y43200D01*
X300599D01*
X301599Y44200D01*
Y49198D01*
X307597Y43200D02*
X303598D01*
X307597Y47199D01*
Y48198D01*
X306597Y49198D01*
X304598D01*
X303598Y48198D01*
X309596D02*
X310596Y49198D01*
X312595D01*
X313595Y48198D01*
Y44200D01*
X312595Y43200D01*
X310596D01*
X309596Y44200D01*
Y48198D01*
X315594Y49198D02*
X319593D01*
Y48198D01*
X315594Y44200D01*
Y43200D01*
X271200Y49198D02*
Y44200D01*
X272200Y43200D01*
X274199D01*
X275199Y44200D01*
Y49198D01*
X281197Y43200D02*
X277198D01*
X281197Y47199D01*
Y48198D01*
X280197Y49198D01*
X278198D01*
X277198Y48198D01*
X283196D02*
X284196Y49198D01*
X286195D01*
X287195Y48198D01*
Y44200D01*
X286195Y43200D01*
X284196D01*
X283196Y44200D01*
Y48198D01*
X293193Y49198D02*
X291194Y48198D01*
X289194Y46199D01*
Y44200D01*
X290194Y43200D01*
X292193D01*
X293193Y44200D01*
Y45199D01*
X292193Y46199D01*
X289194D01*
X244900Y49198D02*
Y44200D01*
X245900Y43200D01*
X247899D01*
X248899Y44200D01*
Y49198D01*
X254897Y43200D02*
X250898D01*
X254897Y47199D01*
Y48198D01*
X253897Y49198D01*
X251898D01*
X250898Y48198D01*
X256896D02*
X257896Y49198D01*
X259895D01*
X260895Y48198D01*
Y44200D01*
X259895Y43200D01*
X257896D01*
X256896Y44200D01*
Y48198D01*
X266893Y49198D02*
X262894D01*
Y46199D01*
X264894Y47199D01*
X265893D01*
X266893Y46199D01*
Y44200D01*
X265893Y43200D01*
X263894D01*
X262894Y44200D01*
X218500Y49198D02*
Y44200D01*
X219500Y43200D01*
X221499D01*
X222499Y44200D01*
Y49198D01*
X228497Y43200D02*
X224498D01*
X228497Y47199D01*
Y48198D01*
X227497Y49198D01*
X225498D01*
X224498Y48198D01*
X230496D02*
X231496Y49198D01*
X233495D01*
X234495Y48198D01*
Y44200D01*
X233495Y43200D01*
X231496D01*
X230496Y44200D01*
Y48198D01*
X239493Y43200D02*
Y49198D01*
X236494Y46199D01*
X240493D01*
X192100Y49198D02*
Y44200D01*
X193100Y43200D01*
X195099D01*
X196099Y44200D01*
Y49198D01*
X202097Y43200D02*
X198098D01*
X202097Y47199D01*
Y48198D01*
X201097Y49198D01*
X199098D01*
X198098Y48198D01*
X204096D02*
X205096Y49198D01*
X207095D01*
X208095Y48198D01*
Y44200D01*
X207095Y43200D01*
X205096D01*
X204096Y44200D01*
Y48198D01*
X210094D02*
X211094Y49198D01*
X213093D01*
X214093Y48198D01*
Y47199D01*
X213093Y46199D01*
X212093D01*
X213093D01*
X214093Y45199D01*
Y44200D01*
X213093Y43200D01*
X211094D01*
X210094Y44200D01*
X165700Y49198D02*
Y44200D01*
X166700Y43200D01*
X168699D01*
X169699Y44200D01*
Y49198D01*
X175697Y43200D02*
X171698D01*
X175697Y47199D01*
Y48198D01*
X174697Y49198D01*
X172698D01*
X171698Y48198D01*
X177696D02*
X178696Y49198D01*
X180695D01*
X181695Y48198D01*
Y44200D01*
X180695Y43200D01*
X178696D01*
X177696Y44200D01*
Y48198D01*
X187693Y43200D02*
X183694D01*
X187693Y47199D01*
Y48198D01*
X186693Y49198D01*
X184694D01*
X183694Y48198D01*
X140300Y49198D02*
Y44200D01*
X141300Y43200D01*
X143299D01*
X144299Y44200D01*
Y49198D01*
X150297Y43200D02*
X146298D01*
X150297Y47199D01*
Y48198D01*
X149297Y49198D01*
X147298D01*
X146298Y48198D01*
X152296D02*
X153296Y49198D01*
X155295D01*
X156295Y48198D01*
Y44200D01*
X155295Y43200D01*
X153296D01*
X152296Y44200D01*
Y48198D01*
X158294Y43200D02*
X160293D01*
X159294D01*
Y49198D01*
X158294Y48198D01*
X376700Y75498D02*
Y70500D01*
X377700Y69500D01*
X379699D01*
X380699Y70500D01*
Y75498D01*
X386697Y69500D02*
X382698D01*
X386697Y73499D01*
Y74498D01*
X385697Y75498D01*
X383698D01*
X382698Y74498D01*
X388696D02*
X389696Y75498D01*
X391695D01*
X392695Y74498D01*
Y70500D01*
X391695Y69500D01*
X389696D01*
X388696Y70500D01*
Y74498D01*
X394694D02*
X395694Y75498D01*
X397693D01*
X398693Y74498D01*
Y70500D01*
X397693Y69500D01*
X395694D01*
X394694Y70500D01*
Y74498D01*
X350900Y75498D02*
Y70500D01*
X351900Y69500D01*
X353899D01*
X354899Y70500D01*
Y75498D01*
X356898Y69500D02*
X358897D01*
X357898D01*
Y75498D01*
X356898Y74498D01*
X361896Y70500D02*
X362896Y69500D01*
X364896D01*
X365895Y70500D01*
Y74498D01*
X364896Y75498D01*
X362896D01*
X361896Y74498D01*
Y73499D01*
X362896Y72499D01*
X365895D01*
X367895Y70500D02*
X368894Y69500D01*
X370894D01*
X371893Y70500D01*
Y74498D01*
X370894Y75498D01*
X368894D01*
X367895Y74498D01*
Y73499D01*
X368894Y72499D01*
X371893D01*
X324500Y75498D02*
Y70500D01*
X325500Y69500D01*
X327499D01*
X328499Y70500D01*
Y75498D01*
X330498Y69500D02*
X332497D01*
X331498D01*
Y75498D01*
X330498Y74498D01*
X335496Y70500D02*
X336496Y69500D01*
X338495D01*
X339495Y70500D01*
Y74498D01*
X338495Y75498D01*
X336496D01*
X335496Y74498D01*
Y73499D01*
X336496Y72499D01*
X339495D01*
X341494Y74498D02*
X342494Y75498D01*
X344494D01*
X345493Y74498D01*
Y73499D01*
X344494Y72499D01*
X345493Y71499D01*
Y70500D01*
X344494Y69500D01*
X342494D01*
X341494Y70500D01*
Y71499D01*
X342494Y72499D01*
X341494Y73499D01*
Y74498D01*
X342494Y72499D02*
X344494D01*
X298100Y75498D02*
Y70500D01*
X299100Y69500D01*
X301099D01*
X302099Y70500D01*
Y75498D01*
X304098Y69500D02*
X306097D01*
X305098D01*
Y75498D01*
X304098Y74498D01*
X309096Y70500D02*
X310096Y69500D01*
X312095D01*
X313095Y70500D01*
Y74498D01*
X312095Y75498D01*
X310096D01*
X309096Y74498D01*
Y73499D01*
X310096Y72499D01*
X313095D01*
X315094Y75498D02*
X319093D01*
Y74498D01*
X315094Y70500D01*
Y69500D01*
X271700Y75498D02*
Y70500D01*
X272700Y69500D01*
X274699D01*
X275699Y70500D01*
Y75498D01*
X277698Y69500D02*
X279697D01*
X278698D01*
Y75498D01*
X277698Y74498D01*
X282696Y70500D02*
X283696Y69500D01*
X285696D01*
X286695Y70500D01*
Y74498D01*
X285696Y75498D01*
X283696D01*
X282696Y74498D01*
Y73499D01*
X283696Y72499D01*
X286695D01*
X292693Y75498D02*
X290694Y74498D01*
X288695Y72499D01*
Y70500D01*
X289694Y69500D01*
X291693D01*
X292693Y70500D01*
Y71499D01*
X291693Y72499D01*
X288695D01*
X245400Y75498D02*
Y70500D01*
X246400Y69500D01*
X248399D01*
X249399Y70500D01*
Y75498D01*
X251398Y69500D02*
X253397D01*
X252398D01*
Y75498D01*
X251398Y74498D01*
X256396Y70500D02*
X257396Y69500D01*
X259396D01*
X260395Y70500D01*
Y74498D01*
X259396Y75498D01*
X257396D01*
X256396Y74498D01*
Y73499D01*
X257396Y72499D01*
X260395D01*
X266393Y75498D02*
X262394D01*
Y72499D01*
X264394Y73499D01*
X265393D01*
X266393Y72499D01*
Y70500D01*
X265393Y69500D01*
X263394D01*
X262394Y70500D01*
X219000Y75498D02*
Y70500D01*
X220000Y69500D01*
X221999D01*
X222999Y70500D01*
Y75498D01*
X224998Y69500D02*
X226997D01*
X225998D01*
Y75498D01*
X224998Y74498D01*
X229996Y70500D02*
X230996Y69500D01*
X232996D01*
X233995Y70500D01*
Y74498D01*
X232996Y75498D01*
X230996D01*
X229996Y74498D01*
Y73499D01*
X230996Y72499D01*
X233995D01*
X238994Y69500D02*
Y75498D01*
X235995Y72499D01*
X239993D01*
X192600Y75498D02*
Y70500D01*
X193600Y69500D01*
X195599D01*
X196599Y70500D01*
Y75498D01*
X198598Y69500D02*
X200597D01*
X199598D01*
Y75498D01*
X198598Y74498D01*
X203596Y70500D02*
X204596Y69500D01*
X206595D01*
X207595Y70500D01*
Y74498D01*
X206595Y75498D01*
X204596D01*
X203596Y74498D01*
Y73499D01*
X204596Y72499D01*
X207595D01*
X209594Y74498D02*
X210594Y75498D01*
X212594D01*
X213593Y74498D01*
Y73499D01*
X212594Y72499D01*
X211594D01*
X212594D01*
X213593Y71499D01*
Y70500D01*
X212594Y69500D01*
X210594D01*
X209594Y70500D01*
X166200Y75498D02*
Y70500D01*
X167200Y69500D01*
X169199D01*
X170199Y70500D01*
Y75498D01*
X172198Y69500D02*
X174197D01*
X173198D01*
Y75498D01*
X172198Y74498D01*
X177196Y70500D02*
X178196Y69500D01*
X180195D01*
X181195Y70500D01*
Y74498D01*
X180195Y75498D01*
X178196D01*
X177196Y74498D01*
Y73499D01*
X178196Y72499D01*
X181195D01*
X187193Y69500D02*
X183194D01*
X187193Y73499D01*
Y74498D01*
X186194Y75498D01*
X184194D01*
X183194Y74498D01*
X140800Y75498D02*
Y70500D01*
X141800Y69500D01*
X143799D01*
X144799Y70500D01*
Y75498D01*
X146798Y69500D02*
X148797D01*
X147798D01*
Y75498D01*
X146798Y74498D01*
X151796Y70500D02*
X152796Y69500D01*
X154796D01*
X155795Y70500D01*
Y74498D01*
X154796Y75498D01*
X152796D01*
X151796Y74498D01*
Y73499D01*
X152796Y72499D01*
X155795D01*
X157794Y69500D02*
X159794D01*
X158794D01*
Y75498D01*
X157794Y74498D01*
X377200Y101898D02*
Y96900D01*
X378200Y95900D01*
X380199D01*
X381199Y96900D01*
Y101898D01*
X383198Y95900D02*
X385197D01*
X384198D01*
Y101898D01*
X383198Y100898D01*
X388196Y96900D02*
X389196Y95900D01*
X391196D01*
X392195Y96900D01*
Y100898D01*
X391196Y101898D01*
X389196D01*
X388196Y100898D01*
Y99899D01*
X389196Y98899D01*
X392195D01*
X394195Y100898D02*
X395194Y101898D01*
X397194D01*
X398193Y100898D01*
Y96900D01*
X397194Y95900D01*
X395194D01*
X394195Y96900D01*
Y100898D01*
X350900Y101898D02*
Y96900D01*
X351900Y95900D01*
X353899D01*
X354899Y96900D01*
Y101898D01*
X356898Y95900D02*
X358897D01*
X357898D01*
Y101898D01*
X356898Y100898D01*
X361896D02*
X362896Y101898D01*
X364896D01*
X365895Y100898D01*
Y99899D01*
X364896Y98899D01*
X365895Y97899D01*
Y96900D01*
X364896Y95900D01*
X362896D01*
X361896Y96900D01*
Y97899D01*
X362896Y98899D01*
X361896Y99899D01*
Y100898D01*
X362896Y98899D02*
X364896D01*
X367895Y96900D02*
X368894Y95900D01*
X370894D01*
X371893Y96900D01*
Y100898D01*
X370894Y101898D01*
X368894D01*
X367895Y100898D01*
Y99899D01*
X368894Y98899D01*
X371893D01*
X324500Y101898D02*
Y96900D01*
X325500Y95900D01*
X327499D01*
X328499Y96900D01*
Y101898D01*
X330498Y95900D02*
X332497D01*
X331498D01*
Y101898D01*
X330498Y100898D01*
X335496D02*
X336496Y101898D01*
X338495D01*
X339495Y100898D01*
Y99899D01*
X338495Y98899D01*
X339495Y97899D01*
Y96900D01*
X338495Y95900D01*
X336496D01*
X335496Y96900D01*
Y97899D01*
X336496Y98899D01*
X335496Y99899D01*
Y100898D01*
X336496Y98899D02*
X338495D01*
X341494Y100898D02*
X342494Y101898D01*
X344494D01*
X345493Y100898D01*
Y99899D01*
X344494Y98899D01*
X345493Y97899D01*
Y96900D01*
X344494Y95900D01*
X342494D01*
X341494Y96900D01*
Y97899D01*
X342494Y98899D01*
X341494Y99899D01*
Y100898D01*
X342494Y98899D02*
X344494D01*
X298100Y101898D02*
Y96900D01*
X299100Y95900D01*
X301099D01*
X302099Y96900D01*
Y101898D01*
X304098Y95900D02*
X306097D01*
X305098D01*
Y101898D01*
X304098Y100898D01*
X309096D02*
X310096Y101898D01*
X312095D01*
X313095Y100898D01*
Y99899D01*
X312095Y98899D01*
X313095Y97899D01*
Y96900D01*
X312095Y95900D01*
X310096D01*
X309096Y96900D01*
Y97899D01*
X310096Y98899D01*
X309096Y99899D01*
Y100898D01*
X310096Y98899D02*
X312095D01*
X315094Y101898D02*
X319093D01*
Y100898D01*
X315094Y96900D01*
Y95900D01*
X271700Y101898D02*
Y96900D01*
X272700Y95900D01*
X274699D01*
X275699Y96900D01*
Y101898D01*
X277698Y95900D02*
X279697D01*
X278698D01*
Y101898D01*
X277698Y100898D01*
X282696D02*
X283696Y101898D01*
X285696D01*
X286695Y100898D01*
Y99899D01*
X285696Y98899D01*
X286695Y97899D01*
Y96900D01*
X285696Y95900D01*
X283696D01*
X282696Y96900D01*
Y97899D01*
X283696Y98899D01*
X282696Y99899D01*
Y100898D01*
X283696Y98899D02*
X285696D01*
X292693Y101898D02*
X290694Y100898D01*
X288695Y98899D01*
Y96900D01*
X289694Y95900D01*
X291693D01*
X292693Y96900D01*
Y97899D01*
X291693Y98899D01*
X288695D01*
X245400Y101898D02*
Y96900D01*
X246400Y95900D01*
X248399D01*
X249399Y96900D01*
Y101898D01*
X251398Y95900D02*
X253397D01*
X252398D01*
Y101898D01*
X251398Y100898D01*
X256396D02*
X257396Y101898D01*
X259396D01*
X260395Y100898D01*
Y99899D01*
X259396Y98899D01*
X260395Y97899D01*
Y96900D01*
X259396Y95900D01*
X257396D01*
X256396Y96900D01*
Y97899D01*
X257396Y98899D01*
X256396Y99899D01*
Y100898D01*
X257396Y98899D02*
X259396D01*
X266393Y101898D02*
X262394D01*
Y98899D01*
X264394Y99899D01*
X265393D01*
X266393Y98899D01*
Y96900D01*
X265393Y95900D01*
X263394D01*
X262394Y96900D01*
X219000Y101898D02*
Y96900D01*
X220000Y95900D01*
X221999D01*
X222999Y96900D01*
Y101898D01*
X224998Y95900D02*
X226997D01*
X225998D01*
Y101898D01*
X224998Y100898D01*
X229996D02*
X230996Y101898D01*
X232996D01*
X233995Y100898D01*
Y99899D01*
X232996Y98899D01*
X233995Y97899D01*
Y96900D01*
X232996Y95900D01*
X230996D01*
X229996Y96900D01*
Y97899D01*
X230996Y98899D01*
X229996Y99899D01*
Y100898D01*
X230996Y98899D02*
X232996D01*
X238994Y95900D02*
Y101898D01*
X235995Y98899D01*
X239993D01*
X192600Y101898D02*
Y96900D01*
X193600Y95900D01*
X195599D01*
X196599Y96900D01*
Y101898D01*
X198598Y95900D02*
X200597D01*
X199598D01*
Y101898D01*
X198598Y100898D01*
X203596D02*
X204596Y101898D01*
X206595D01*
X207595Y100898D01*
Y99899D01*
X206595Y98899D01*
X207595Y97899D01*
Y96900D01*
X206595Y95900D01*
X204596D01*
X203596Y96900D01*
Y97899D01*
X204596Y98899D01*
X203596Y99899D01*
Y100898D01*
X204596Y98899D02*
X206595D01*
X209594Y100898D02*
X210594Y101898D01*
X212594D01*
X213593Y100898D01*
Y99899D01*
X212594Y98899D01*
X211594D01*
X212594D01*
X213593Y97899D01*
Y96900D01*
X212594Y95900D01*
X210594D01*
X209594Y96900D01*
X166200Y101898D02*
Y96900D01*
X167200Y95900D01*
X169199D01*
X170199Y96900D01*
Y101898D01*
X172198Y95900D02*
X174197D01*
X173198D01*
Y101898D01*
X172198Y100898D01*
X177196D02*
X178196Y101898D01*
X180195D01*
X181195Y100898D01*
Y99899D01*
X180195Y98899D01*
X181195Y97899D01*
Y96900D01*
X180195Y95900D01*
X178196D01*
X177196Y96900D01*
Y97899D01*
X178196Y98899D01*
X177196Y99899D01*
Y100898D01*
X178196Y98899D02*
X180195D01*
X187193Y95900D02*
X183194D01*
X187193Y99899D01*
Y100898D01*
X186194Y101898D01*
X184194D01*
X183194Y100898D01*
X140800Y101898D02*
Y96900D01*
X141800Y95900D01*
X143799D01*
X144799Y96900D01*
Y101898D01*
X146798Y95900D02*
X148797D01*
X147798D01*
Y101898D01*
X146798Y100898D01*
X151796D02*
X152796Y101898D01*
X154796D01*
X155795Y100898D01*
Y99899D01*
X154796Y98899D01*
X155795Y97899D01*
Y96900D01*
X154796Y95900D01*
X152796D01*
X151796Y96900D01*
Y97899D01*
X152796Y98899D01*
X151796Y99899D01*
Y100898D01*
X152796Y98899D02*
X154796D01*
X157794Y95900D02*
X159794D01*
X158794D01*
Y101898D01*
X157794Y100898D01*
X377200Y128298D02*
Y123300D01*
X378200Y122300D01*
X380199D01*
X381199Y123300D01*
Y128298D01*
X383198Y122300D02*
X385197D01*
X384198D01*
Y128298D01*
X383198Y127298D01*
X388196D02*
X389196Y128298D01*
X391196D01*
X392195Y127298D01*
Y126299D01*
X391196Y125299D01*
X392195Y124299D01*
Y123300D01*
X391196Y122300D01*
X389196D01*
X388196Y123300D01*
Y124299D01*
X389196Y125299D01*
X388196Y126299D01*
Y127298D01*
X389196Y125299D02*
X391196D01*
X394195Y127298D02*
X395194Y128298D01*
X397194D01*
X398193Y127298D01*
Y123300D01*
X397194Y122300D01*
X395194D01*
X394195Y123300D01*
Y127298D01*
X350900Y128298D02*
Y123300D01*
X351900Y122300D01*
X353899D01*
X354899Y123300D01*
Y128298D01*
X356898Y122300D02*
X358897D01*
X357898D01*
Y128298D01*
X356898Y127298D01*
X361896Y128298D02*
X365895D01*
Y127298D01*
X361896Y123300D01*
Y122300D01*
X367895Y123300D02*
X368894Y122300D01*
X370894D01*
X371893Y123300D01*
Y127298D01*
X370894Y128298D01*
X368894D01*
X367895Y127298D01*
Y126299D01*
X368894Y125299D01*
X371893D01*
X324500Y128298D02*
Y123300D01*
X325500Y122300D01*
X327499D01*
X328499Y123300D01*
Y128298D01*
X330498Y122300D02*
X332497D01*
X331498D01*
Y128298D01*
X330498Y127298D01*
X335496Y128298D02*
X339495D01*
Y127298D01*
X335496Y123300D01*
Y122300D01*
X341494Y127298D02*
X342494Y128298D01*
X344494D01*
X345493Y127298D01*
Y126299D01*
X344494Y125299D01*
X345493Y124299D01*
Y123300D01*
X344494Y122300D01*
X342494D01*
X341494Y123300D01*
Y124299D01*
X342494Y125299D01*
X341494Y126299D01*
Y127298D01*
X342494Y125299D02*
X344494D01*
X298100Y128298D02*
Y123300D01*
X299100Y122300D01*
X301099D01*
X302099Y123300D01*
Y128298D01*
X304098Y122300D02*
X306097D01*
X305098D01*
Y128298D01*
X304098Y127298D01*
X309096Y128298D02*
X313095D01*
Y127298D01*
X309096Y123300D01*
Y122300D01*
X315094Y128298D02*
X319093D01*
Y127298D01*
X315094Y123300D01*
Y122300D01*
X271700Y128298D02*
Y123300D01*
X272700Y122300D01*
X274699D01*
X275699Y123300D01*
Y128298D01*
X277698Y122300D02*
X279697D01*
X278698D01*
Y128298D01*
X277698Y127298D01*
X282696Y128298D02*
X286695D01*
Y127298D01*
X282696Y123300D01*
Y122300D01*
X292693Y128298D02*
X290694Y127298D01*
X288695Y125299D01*
Y123300D01*
X289694Y122300D01*
X291693D01*
X292693Y123300D01*
Y124299D01*
X291693Y125299D01*
X288695D01*
X245400Y128298D02*
Y123300D01*
X246400Y122300D01*
X248399D01*
X249399Y123300D01*
Y128298D01*
X251398Y122300D02*
X253397D01*
X252398D01*
Y128298D01*
X251398Y127298D01*
X256396Y128298D02*
X260395D01*
Y127298D01*
X256396Y123300D01*
Y122300D01*
X266393Y128298D02*
X262394D01*
Y125299D01*
X264394Y126299D01*
X265393D01*
X266393Y125299D01*
Y123300D01*
X265393Y122300D01*
X263394D01*
X262394Y123300D01*
X219000Y128298D02*
Y123300D01*
X220000Y122300D01*
X221999D01*
X222999Y123300D01*
Y128298D01*
X224998Y122300D02*
X226997D01*
X225998D01*
Y128298D01*
X224998Y127298D01*
X229996Y128298D02*
X233995D01*
Y127298D01*
X229996Y123300D01*
Y122300D01*
X238994D02*
Y128298D01*
X235995Y125299D01*
X239993D01*
X192600Y128298D02*
Y123300D01*
X193600Y122300D01*
X195599D01*
X196599Y123300D01*
Y128298D01*
X198598Y122300D02*
X200597D01*
X199598D01*
Y128298D01*
X198598Y127298D01*
X203596Y128298D02*
X207595D01*
Y127298D01*
X203596Y123300D01*
Y122300D01*
X209594Y127298D02*
X210594Y128298D01*
X212594D01*
X213593Y127298D01*
Y126299D01*
X212594Y125299D01*
X211594D01*
X212594D01*
X213593Y124299D01*
Y123300D01*
X212594Y122300D01*
X210594D01*
X209594Y123300D01*
X166200Y128298D02*
Y123300D01*
X167200Y122300D01*
X169199D01*
X170199Y123300D01*
Y128298D01*
X172198Y122300D02*
X174197D01*
X173198D01*
Y128298D01*
X172198Y127298D01*
X177196Y128298D02*
X181195D01*
Y127298D01*
X177196Y123300D01*
Y122300D01*
X187193D02*
X183194D01*
X187193Y126299D01*
Y127298D01*
X186194Y128298D01*
X184194D01*
X183194Y127298D01*
X140800Y128298D02*
Y123300D01*
X141800Y122300D01*
X143799D01*
X144799Y123300D01*
Y128298D01*
X146798Y122300D02*
X148797D01*
X147798D01*
Y128298D01*
X146798Y127298D01*
X151796Y128298D02*
X155795D01*
Y127298D01*
X151796Y123300D01*
Y122300D01*
X157794D02*
X159794D01*
X158794D01*
Y128298D01*
X157794Y127298D01*
X377200Y154698D02*
Y149700D01*
X378200Y148700D01*
X380199D01*
X381199Y149700D01*
Y154698D01*
X383198Y148700D02*
X385197D01*
X384198D01*
Y154698D01*
X383198Y153698D01*
X388196Y154698D02*
X392195D01*
Y153698D01*
X388196Y149700D01*
Y148700D01*
X394195Y153698D02*
X395194Y154698D01*
X397194D01*
X398193Y153698D01*
Y149700D01*
X397194Y148700D01*
X395194D01*
X394195Y149700D01*
Y153698D01*
X350900Y154698D02*
Y149700D01*
X351900Y148700D01*
X353899D01*
X354899Y149700D01*
Y154698D01*
X356898Y148700D02*
X358897D01*
X357898D01*
Y154698D01*
X356898Y153698D01*
X365895Y154698D02*
X363896Y153698D01*
X361896Y151699D01*
Y149700D01*
X362896Y148700D01*
X364896D01*
X365895Y149700D01*
Y150699D01*
X364896Y151699D01*
X361896D01*
X367895Y149700D02*
X368894Y148700D01*
X370894D01*
X371893Y149700D01*
Y153698D01*
X370894Y154698D01*
X368894D01*
X367895Y153698D01*
Y152699D01*
X368894Y151699D01*
X371893D01*
X324500Y154698D02*
Y149700D01*
X325500Y148700D01*
X327499D01*
X328499Y149700D01*
Y154698D01*
X330498Y148700D02*
X332497D01*
X331498D01*
Y154698D01*
X330498Y153698D01*
X339495Y154698D02*
X337496Y153698D01*
X335496Y151699D01*
Y149700D01*
X336496Y148700D01*
X338495D01*
X339495Y149700D01*
Y150699D01*
X338495Y151699D01*
X335496D01*
X341494Y153698D02*
X342494Y154698D01*
X344494D01*
X345493Y153698D01*
Y152699D01*
X344494Y151699D01*
X345493Y150699D01*
Y149700D01*
X344494Y148700D01*
X342494D01*
X341494Y149700D01*
Y150699D01*
X342494Y151699D01*
X341494Y152699D01*
Y153698D01*
X342494Y151699D02*
X344494D01*
X298100Y154698D02*
Y149700D01*
X299100Y148700D01*
X301099D01*
X302099Y149700D01*
Y154698D01*
X304098Y148700D02*
X306097D01*
X305098D01*
Y154698D01*
X304098Y153698D01*
X313095Y154698D02*
X311096Y153698D01*
X309096Y151699D01*
Y149700D01*
X310096Y148700D01*
X312095D01*
X313095Y149700D01*
Y150699D01*
X312095Y151699D01*
X309096D01*
X315094Y154698D02*
X319093D01*
Y153698D01*
X315094Y149700D01*
Y148700D01*
X271700Y154698D02*
Y149700D01*
X272700Y148700D01*
X274699D01*
X275699Y149700D01*
Y154698D01*
X277698Y148700D02*
X279697D01*
X278698D01*
Y154698D01*
X277698Y153698D01*
X286695Y154698D02*
X284696Y153698D01*
X282696Y151699D01*
Y149700D01*
X283696Y148700D01*
X285696D01*
X286695Y149700D01*
Y150699D01*
X285696Y151699D01*
X282696D01*
X292693Y154698D02*
X290694Y153698D01*
X288695Y151699D01*
Y149700D01*
X289694Y148700D01*
X291693D01*
X292693Y149700D01*
Y150699D01*
X291693Y151699D01*
X288695D01*
X245400Y154698D02*
Y149700D01*
X246400Y148700D01*
X248399D01*
X249399Y149700D01*
Y154698D01*
X251398Y148700D02*
X253397D01*
X252398D01*
Y154698D01*
X251398Y153698D01*
X260395Y154698D02*
X258396Y153698D01*
X256396Y151699D01*
Y149700D01*
X257396Y148700D01*
X259396D01*
X260395Y149700D01*
Y150699D01*
X259396Y151699D01*
X256396D01*
X266393Y154698D02*
X262394D01*
Y151699D01*
X264394Y152699D01*
X265393D01*
X266393Y151699D01*
Y149700D01*
X265393Y148700D01*
X263394D01*
X262394Y149700D01*
X219000Y154698D02*
Y149700D01*
X220000Y148700D01*
X221999D01*
X222999Y149700D01*
Y154698D01*
X224998Y148700D02*
X226997D01*
X225998D01*
Y154698D01*
X224998Y153698D01*
X233995Y154698D02*
X231996Y153698D01*
X229996Y151699D01*
Y149700D01*
X230996Y148700D01*
X232996D01*
X233995Y149700D01*
Y150699D01*
X232996Y151699D01*
X229996D01*
X238994Y148700D02*
Y154698D01*
X235995Y151699D01*
X239993D01*
X192600Y154698D02*
Y149700D01*
X193600Y148700D01*
X195599D01*
X196599Y149700D01*
Y154698D01*
X198598Y148700D02*
X200597D01*
X199598D01*
Y154698D01*
X198598Y153698D01*
X207595Y154698D02*
X205596Y153698D01*
X203596Y151699D01*
Y149700D01*
X204596Y148700D01*
X206595D01*
X207595Y149700D01*
Y150699D01*
X206595Y151699D01*
X203596D01*
X209594Y153698D02*
X210594Y154698D01*
X212594D01*
X213593Y153698D01*
Y152699D01*
X212594Y151699D01*
X211594D01*
X212594D01*
X213593Y150699D01*
Y149700D01*
X212594Y148700D01*
X210594D01*
X209594Y149700D01*
X166200Y154698D02*
Y149700D01*
X167200Y148700D01*
X169199D01*
X170199Y149700D01*
Y154698D01*
X172198Y148700D02*
X174197D01*
X173198D01*
Y154698D01*
X172198Y153698D01*
X181195Y154698D02*
X179196Y153698D01*
X177196Y151699D01*
Y149700D01*
X178196Y148700D01*
X180195D01*
X181195Y149700D01*
Y150699D01*
X180195Y151699D01*
X177196D01*
X187193Y148700D02*
X183194D01*
X187193Y152699D01*
Y153698D01*
X186194Y154698D01*
X184194D01*
X183194Y153698D01*
X140800Y154698D02*
Y149700D01*
X141800Y148700D01*
X143799D01*
X144799Y149700D01*
Y154698D01*
X146798Y148700D02*
X148797D01*
X147798D01*
Y154698D01*
X146798Y153698D01*
X155795Y154698D02*
X153796Y153698D01*
X151796Y151699D01*
Y149700D01*
X152796Y148700D01*
X154796D01*
X155795Y149700D01*
Y150699D01*
X154796Y151699D01*
X151796D01*
X157794Y148700D02*
X159794D01*
X158794D01*
Y154698D01*
X157794Y153698D01*
X509100Y181098D02*
Y176100D01*
X510100Y175100D01*
X512099D01*
X513099Y176100D01*
Y181098D01*
X515098Y175100D02*
X517097D01*
X516098D01*
Y181098D01*
X515098Y180098D01*
X524095Y181098D02*
X522096Y180098D01*
X520096Y178099D01*
Y176100D01*
X521096Y175100D01*
X523096D01*
X524095Y176100D01*
Y177099D01*
X523096Y178099D01*
X520096D01*
X526094Y180098D02*
X527094Y181098D01*
X529094D01*
X530093Y180098D01*
Y176100D01*
X529094Y175100D01*
X527094D01*
X526094Y176100D01*
Y180098D01*
X482800Y181098D02*
Y176100D01*
X483800Y175100D01*
X485799D01*
X486799Y176100D01*
Y181098D01*
X488798Y175100D02*
X490797D01*
X489798D01*
Y181098D01*
X488798Y180098D01*
X497795Y181098D02*
X493796D01*
Y178099D01*
X495796Y179099D01*
X496796D01*
X497795Y178099D01*
Y176100D01*
X496796Y175100D01*
X494796D01*
X493796Y176100D01*
X499794D02*
X500794Y175100D01*
X502794D01*
X503793Y176100D01*
Y180098D01*
X502794Y181098D01*
X500794D01*
X499794Y180098D01*
Y179099D01*
X500794Y178099D01*
X503793D01*
X456400Y181098D02*
Y176100D01*
X457400Y175100D01*
X459399D01*
X460399Y176100D01*
Y181098D01*
X462398Y175100D02*
X464397D01*
X463398D01*
Y181098D01*
X462398Y180098D01*
X471395Y181098D02*
X467396D01*
Y178099D01*
X469396Y179099D01*
X470396D01*
X471395Y178099D01*
Y176100D01*
X470396Y175100D01*
X468396D01*
X467396Y176100D01*
X473394Y180098D02*
X474394Y181098D01*
X476394D01*
X477393Y180098D01*
Y179099D01*
X476394Y178099D01*
X477393Y177099D01*
Y176100D01*
X476394Y175100D01*
X474394D01*
X473394Y176100D01*
Y177099D01*
X474394Y178099D01*
X473394Y179099D01*
Y180098D01*
X474394Y178099D02*
X476394D01*
X430000Y181098D02*
Y176100D01*
X431000Y175100D01*
X432999D01*
X433999Y176100D01*
Y181098D01*
X435998Y175100D02*
X437997D01*
X436998D01*
Y181098D01*
X435998Y180098D01*
X444995Y181098D02*
X440996D01*
Y178099D01*
X442996Y179099D01*
X443996D01*
X444995Y178099D01*
Y176100D01*
X443996Y175100D01*
X441996D01*
X440996Y176100D01*
X446994Y181098D02*
X450993D01*
Y180098D01*
X446994Y176100D01*
Y175100D01*
X403600Y181098D02*
Y176100D01*
X404600Y175100D01*
X406599D01*
X407599Y176100D01*
Y181098D01*
X409598Y175100D02*
X411597D01*
X410598D01*
Y181098D01*
X409598Y180098D01*
X418595Y181098D02*
X414596D01*
Y178099D01*
X416596Y179099D01*
X417595D01*
X418595Y178099D01*
Y176100D01*
X417595Y175100D01*
X415596D01*
X414596Y176100D01*
X424593Y181098D02*
X422594Y180098D01*
X420595Y178099D01*
Y176100D01*
X421594Y175100D01*
X423594D01*
X424593Y176100D01*
Y177099D01*
X423594Y178099D01*
X420595D01*
X377200Y181098D02*
Y176100D01*
X378200Y175100D01*
X380199D01*
X381199Y176100D01*
Y181098D01*
X383198Y175100D02*
X385197D01*
X384198D01*
Y181098D01*
X383198Y180098D01*
X392195Y181098D02*
X388196D01*
Y178099D01*
X390196Y179099D01*
X391196D01*
X392195Y178099D01*
Y176100D01*
X391196Y175100D01*
X389196D01*
X388196Y176100D01*
X398193Y181098D02*
X394195D01*
Y178099D01*
X396194Y179099D01*
X397194D01*
X398193Y178099D01*
Y176100D01*
X397194Y175100D01*
X395194D01*
X394195Y176100D01*
X350900Y181098D02*
Y176100D01*
X351900Y175100D01*
X353899D01*
X354899Y176100D01*
Y181098D01*
X356898Y175100D02*
X358897D01*
X357898D01*
Y181098D01*
X356898Y180098D01*
X365895Y181098D02*
X361896D01*
Y178099D01*
X363896Y179099D01*
X364896D01*
X365895Y178099D01*
Y176100D01*
X364896Y175100D01*
X362896D01*
X361896Y176100D01*
X370894Y175100D02*
Y181098D01*
X367895Y178099D01*
X371893D01*
X324500Y181098D02*
Y176100D01*
X325500Y175100D01*
X327499D01*
X328499Y176100D01*
Y181098D01*
X330498Y175100D02*
X332497D01*
X331498D01*
Y181098D01*
X330498Y180098D01*
X339495Y181098D02*
X335496D01*
Y178099D01*
X337496Y179099D01*
X338495D01*
X339495Y178099D01*
Y176100D01*
X338495Y175100D01*
X336496D01*
X335496Y176100D01*
X341494Y180098D02*
X342494Y181098D01*
X344494D01*
X345493Y180098D01*
Y179099D01*
X344494Y178099D01*
X343494D01*
X344494D01*
X345493Y177099D01*
Y176100D01*
X344494Y175100D01*
X342494D01*
X341494Y176100D01*
X298100Y181098D02*
Y176100D01*
X299100Y175100D01*
X301099D01*
X302099Y176100D01*
Y181098D01*
X304098Y175100D02*
X306097D01*
X305098D01*
Y181098D01*
X304098Y180098D01*
X313095Y181098D02*
X309096D01*
Y178099D01*
X311096Y179099D01*
X312095D01*
X313095Y178099D01*
Y176100D01*
X312095Y175100D01*
X310096D01*
X309096Y176100D01*
X319093Y175100D02*
X315094D01*
X319093Y179099D01*
Y180098D01*
X318093Y181098D01*
X316094D01*
X315094Y180098D01*
X272700Y181098D02*
Y176100D01*
X273700Y175100D01*
X275699D01*
X276699Y176100D01*
Y181098D01*
X278698Y175100D02*
X280697D01*
X279698D01*
Y181098D01*
X278698Y180098D01*
X287695Y181098D02*
X283696D01*
Y178099D01*
X285696Y179099D01*
X286696D01*
X287695Y178099D01*
Y176100D01*
X286696Y175100D01*
X284696D01*
X283696Y176100D01*
X289694Y175100D02*
X291694D01*
X290694D01*
Y181098D01*
X289694Y180098D01*
X245400Y181098D02*
Y176100D01*
X246400Y175100D01*
X248399D01*
X249399Y176100D01*
Y181098D01*
X251398Y175100D02*
X253397D01*
X252398D01*
Y181098D01*
X251398Y180098D01*
X260395Y181098D02*
X256396D01*
Y178099D01*
X258396Y179099D01*
X259396D01*
X260395Y178099D01*
Y176100D01*
X259396Y175100D01*
X257396D01*
X256396Y176100D01*
X262394Y180098D02*
X263394Y181098D01*
X265393D01*
X266393Y180098D01*
Y176100D01*
X265393Y175100D01*
X263394D01*
X262394Y176100D01*
Y180098D01*
X219000Y181098D02*
Y176100D01*
X220000Y175100D01*
X221999D01*
X222999Y176100D01*
Y181098D01*
X224998Y175100D02*
X226997D01*
X225998D01*
Y181098D01*
X224998Y180098D01*
X232996Y175100D02*
Y181098D01*
X229996Y178099D01*
X233995D01*
X235995Y176100D02*
X236994Y175100D01*
X238994D01*
X239993Y176100D01*
Y180098D01*
X238994Y181098D01*
X236994D01*
X235995Y180098D01*
Y179099D01*
X236994Y178099D01*
X239993D01*
X192600Y181098D02*
Y176100D01*
X193600Y175100D01*
X195599D01*
X196599Y176100D01*
Y181098D01*
X198598Y175100D02*
X200597D01*
X199598D01*
Y181098D01*
X198598Y180098D01*
X206595Y175100D02*
Y181098D01*
X203596Y178099D01*
X207595D01*
X209594Y180098D02*
X210594Y181098D01*
X212594D01*
X213593Y180098D01*
Y179099D01*
X212594Y178099D01*
X213593Y177099D01*
Y176100D01*
X212594Y175100D01*
X210594D01*
X209594Y176100D01*
Y177099D01*
X210594Y178099D01*
X209594Y179099D01*
Y180098D01*
X210594Y178099D02*
X212594D01*
X166200Y181098D02*
Y176100D01*
X167200Y175100D01*
X169199D01*
X170199Y176100D01*
Y181098D01*
X172198Y175100D02*
X174197D01*
X173198D01*
Y181098D01*
X172198Y180098D01*
X180195Y175100D02*
Y181098D01*
X177196Y178099D01*
X181195D01*
X183194Y181098D02*
X187193D01*
Y180098D01*
X183194Y176100D01*
Y175100D01*
X139800Y181098D02*
Y176100D01*
X140800Y175100D01*
X142799D01*
X143799Y176100D01*
Y181098D01*
X145798Y175100D02*
X147797D01*
X146798D01*
Y181098D01*
X145798Y180098D01*
X153796Y175100D02*
Y181098D01*
X150796Y178099D01*
X154795D01*
X160793Y181098D02*
X158794Y180098D01*
X156795Y178099D01*
Y176100D01*
X157794Y175100D01*
X159793D01*
X160793Y176100D01*
Y177099D01*
X159793Y178099D01*
X156795D01*
X113500Y181098D02*
Y176100D01*
X114500Y175100D01*
X116499D01*
X117499Y176100D01*
Y181098D01*
X119498Y175100D02*
X121497D01*
X120498D01*
Y181098D01*
X119498Y180098D01*
X127496Y175100D02*
Y181098D01*
X124496Y178099D01*
X128495D01*
X134493Y181098D02*
X130494D01*
Y178099D01*
X132494Y179099D01*
X133493D01*
X134493Y178099D01*
Y176100D01*
X133493Y175100D01*
X131494D01*
X130494Y176100D01*
X87100Y181098D02*
Y176100D01*
X88100Y175100D01*
X90099D01*
X91099Y176100D01*
Y181098D01*
X93098Y175100D02*
X95097D01*
X94098D01*
Y181098D01*
X93098Y180098D01*
X101095Y175100D02*
Y181098D01*
X98096Y178099D01*
X102095D01*
X107094Y175100D02*
Y181098D01*
X104095Y178099D01*
X108093D01*
X60700Y181098D02*
Y176100D01*
X61700Y175100D01*
X63699D01*
X64699Y176100D01*
Y181098D01*
X66698Y175100D02*
X68697D01*
X67698D01*
Y181098D01*
X66698Y180098D01*
X74695Y175100D02*
Y181098D01*
X71696Y178099D01*
X75695D01*
X77694Y180098D02*
X78694Y181098D01*
X80694D01*
X81693Y180098D01*
Y179099D01*
X80694Y178099D01*
X79694D01*
X80694D01*
X81693Y177099D01*
Y176100D01*
X80694Y175100D01*
X78694D01*
X77694Y176100D01*
X34300Y181098D02*
Y176100D01*
X35300Y175100D01*
X37299D01*
X38299Y176100D01*
Y181098D01*
X40298Y175100D02*
X42297D01*
X41298D01*
Y181098D01*
X40298Y180098D01*
X48296Y175100D02*
Y181098D01*
X45296Y178099D01*
X49295D01*
X55293Y175100D02*
X51294D01*
X55293Y179099D01*
Y180098D01*
X54294Y181098D01*
X52294D01*
X51294Y180098D01*
X9000Y181098D02*
Y176100D01*
X10000Y175100D01*
X11999D01*
X12999Y176100D01*
Y181098D01*
X14998Y175100D02*
X16997D01*
X15998D01*
Y181098D01*
X14998Y180098D01*
X22996Y175100D02*
Y181098D01*
X19996Y178099D01*
X23995D01*
X25995Y175100D02*
X27994D01*
X26994D01*
Y181098D01*
X25995Y180098D01*
X509100Y207398D02*
Y202400D01*
X510100Y201400D01*
X512099D01*
X513099Y202400D01*
Y207398D01*
X515098Y201400D02*
X517097D01*
X516098D01*
Y207398D01*
X515098Y206398D01*
X523096Y201400D02*
Y207398D01*
X520096Y204399D01*
X524095D01*
X526094Y206398D02*
X527094Y207398D01*
X529094D01*
X530093Y206398D01*
Y202400D01*
X529094Y201400D01*
X527094D01*
X526094Y202400D01*
Y206398D01*
X482800Y207398D02*
Y202400D01*
X483800Y201400D01*
X485799D01*
X486799Y202400D01*
Y207398D01*
X488798Y201400D02*
X490797D01*
X489798D01*
Y207398D01*
X488798Y206398D01*
X493796D02*
X494796Y207398D01*
X496796D01*
X497795Y206398D01*
Y205399D01*
X496796Y204399D01*
X495796D01*
X496796D01*
X497795Y203399D01*
Y202400D01*
X496796Y201400D01*
X494796D01*
X493796Y202400D01*
X499794D02*
X500794Y201400D01*
X502794D01*
X503793Y202400D01*
Y206398D01*
X502794Y207398D01*
X500794D01*
X499794Y206398D01*
Y205399D01*
X500794Y204399D01*
X503793D01*
X456400Y207398D02*
Y202400D01*
X457400Y201400D01*
X459399D01*
X460399Y202400D01*
Y207398D01*
X462398Y201400D02*
X464397D01*
X463398D01*
Y207398D01*
X462398Y206398D01*
X467396D02*
X468396Y207398D01*
X470396D01*
X471395Y206398D01*
Y205399D01*
X470396Y204399D01*
X469396D01*
X470396D01*
X471395Y203399D01*
Y202400D01*
X470396Y201400D01*
X468396D01*
X467396Y202400D01*
X473394Y206398D02*
X474394Y207398D01*
X476394D01*
X477393Y206398D01*
Y205399D01*
X476394Y204399D01*
X477393Y203399D01*
Y202400D01*
X476394Y201400D01*
X474394D01*
X473394Y202400D01*
Y203399D01*
X474394Y204399D01*
X473394Y205399D01*
Y206398D01*
X474394Y204399D02*
X476394D01*
X430000Y207398D02*
Y202400D01*
X431000Y201400D01*
X432999D01*
X433999Y202400D01*
Y207398D01*
X435998Y201400D02*
X437997D01*
X436998D01*
Y207398D01*
X435998Y206398D01*
X440996D02*
X441996Y207398D01*
X443996D01*
X444995Y206398D01*
Y205399D01*
X443996Y204399D01*
X442996D01*
X443996D01*
X444995Y203399D01*
Y202400D01*
X443996Y201400D01*
X441996D01*
X440996Y202400D01*
X446994Y207398D02*
X450993D01*
Y206398D01*
X446994Y202400D01*
Y201400D01*
X403600Y207398D02*
Y202400D01*
X404600Y201400D01*
X406599D01*
X407599Y202400D01*
Y207398D01*
X409598Y201400D02*
X411597D01*
X410598D01*
Y207398D01*
X409598Y206398D01*
X414596D02*
X415596Y207398D01*
X417595D01*
X418595Y206398D01*
Y205399D01*
X417595Y204399D01*
X416596D01*
X417595D01*
X418595Y203399D01*
Y202400D01*
X417595Y201400D01*
X415596D01*
X414596Y202400D01*
X424593Y207398D02*
X422594Y206398D01*
X420595Y204399D01*
Y202400D01*
X421594Y201400D01*
X423594D01*
X424593Y202400D01*
Y203399D01*
X423594Y204399D01*
X420595D01*
X377200Y207398D02*
Y202400D01*
X378200Y201400D01*
X380199D01*
X381199Y202400D01*
Y207398D01*
X383198Y201400D02*
X385197D01*
X384198D01*
Y207398D01*
X383198Y206398D01*
X388196D02*
X389196Y207398D01*
X391196D01*
X392195Y206398D01*
Y205399D01*
X391196Y204399D01*
X390196D01*
X391196D01*
X392195Y203399D01*
Y202400D01*
X391196Y201400D01*
X389196D01*
X388196Y202400D01*
X398193Y207398D02*
X394195D01*
Y204399D01*
X396194Y205399D01*
X397194D01*
X398193Y204399D01*
Y202400D01*
X397194Y201400D01*
X395194D01*
X394195Y202400D01*
X350900Y207398D02*
Y202400D01*
X351900Y201400D01*
X353899D01*
X354899Y202400D01*
Y207398D01*
X356898Y201400D02*
X358897D01*
X357898D01*
Y207398D01*
X356898Y206398D01*
X361896D02*
X362896Y207398D01*
X364896D01*
X365895Y206398D01*
Y205399D01*
X364896Y204399D01*
X363896D01*
X364896D01*
X365895Y203399D01*
Y202400D01*
X364896Y201400D01*
X362896D01*
X361896Y202400D01*
X370894Y201400D02*
Y207398D01*
X367895Y204399D01*
X371893D01*
X324500Y207398D02*
Y202400D01*
X325500Y201400D01*
X327499D01*
X328499Y202400D01*
Y207398D01*
X330498Y201400D02*
X332497D01*
X331498D01*
Y207398D01*
X330498Y206398D01*
X335496D02*
X336496Y207398D01*
X338495D01*
X339495Y206398D01*
Y205399D01*
X338495Y204399D01*
X337496D01*
X338495D01*
X339495Y203399D01*
Y202400D01*
X338495Y201400D01*
X336496D01*
X335496Y202400D01*
X341494Y206398D02*
X342494Y207398D01*
X344494D01*
X345493Y206398D01*
Y205399D01*
X344494Y204399D01*
X343494D01*
X344494D01*
X345493Y203399D01*
Y202400D01*
X344494Y201400D01*
X342494D01*
X341494Y202400D01*
X298100Y207398D02*
Y202400D01*
X299100Y201400D01*
X301099D01*
X302099Y202400D01*
Y207398D01*
X304098Y201400D02*
X306097D01*
X305098D01*
Y207398D01*
X304098Y206398D01*
X309096D02*
X310096Y207398D01*
X312095D01*
X313095Y206398D01*
Y205399D01*
X312095Y204399D01*
X311096D01*
X312095D01*
X313095Y203399D01*
Y202400D01*
X312095Y201400D01*
X310096D01*
X309096Y202400D01*
X319093Y201400D02*
X315094D01*
X319093Y205399D01*
Y206398D01*
X318093Y207398D01*
X316094D01*
X315094Y206398D01*
X272700Y207398D02*
Y202400D01*
X273700Y201400D01*
X275699D01*
X276699Y202400D01*
Y207398D01*
X278698Y201400D02*
X280697D01*
X279698D01*
Y207398D01*
X278698Y206398D01*
X283696D02*
X284696Y207398D01*
X286696D01*
X287695Y206398D01*
Y205399D01*
X286696Y204399D01*
X285696D01*
X286696D01*
X287695Y203399D01*
Y202400D01*
X286696Y201400D01*
X284696D01*
X283696Y202400D01*
X289694Y201400D02*
X291694D01*
X290694D01*
Y207398D01*
X289694Y206398D01*
X245400Y207398D02*
Y202400D01*
X246400Y201400D01*
X248399D01*
X249399Y202400D01*
Y207398D01*
X251398Y201400D02*
X253397D01*
X252398D01*
Y207398D01*
X251398Y206398D01*
X256396D02*
X257396Y207398D01*
X259396D01*
X260395Y206398D01*
Y205399D01*
X259396Y204399D01*
X258396D01*
X259396D01*
X260395Y203399D01*
Y202400D01*
X259396Y201400D01*
X257396D01*
X256396Y202400D01*
X262394Y206398D02*
X263394Y207398D01*
X265393D01*
X266393Y206398D01*
Y202400D01*
X265393Y201400D01*
X263394D01*
X262394Y202400D01*
Y206398D01*
X219000Y207398D02*
Y202400D01*
X220000Y201400D01*
X221999D01*
X222999Y202400D01*
Y207398D01*
X224998Y201400D02*
X226997D01*
X225998D01*
Y207398D01*
X224998Y206398D01*
X233995Y201400D02*
X229996D01*
X233995Y205399D01*
Y206398D01*
X232996Y207398D01*
X230996D01*
X229996Y206398D01*
X235995Y202400D02*
X236994Y201400D01*
X238994D01*
X239993Y202400D01*
Y206398D01*
X238994Y207398D01*
X236994D01*
X235995Y206398D01*
Y205399D01*
X236994Y204399D01*
X239993D01*
X192600Y207398D02*
Y202400D01*
X193600Y201400D01*
X195599D01*
X196599Y202400D01*
Y207398D01*
X198598Y201400D02*
X200597D01*
X199598D01*
Y207398D01*
X198598Y206398D01*
X207595Y201400D02*
X203596D01*
X207595Y205399D01*
Y206398D01*
X206595Y207398D01*
X204596D01*
X203596Y206398D01*
X209594D02*
X210594Y207398D01*
X212594D01*
X213593Y206398D01*
Y205399D01*
X212594Y204399D01*
X213593Y203399D01*
Y202400D01*
X212594Y201400D01*
X210594D01*
X209594Y202400D01*
Y203399D01*
X210594Y204399D01*
X209594Y205399D01*
Y206398D01*
X210594Y204399D02*
X212594D01*
X166200Y207398D02*
Y202400D01*
X167200Y201400D01*
X169199D01*
X170199Y202400D01*
Y207398D01*
X172198Y201400D02*
X174197D01*
X173198D01*
Y207398D01*
X172198Y206398D01*
X181195Y201400D02*
X177196D01*
X181195Y205399D01*
Y206398D01*
X180195Y207398D01*
X178196D01*
X177196Y206398D01*
X183194Y207398D02*
X187193D01*
Y206398D01*
X183194Y202400D01*
Y201400D01*
X139800Y207398D02*
Y202400D01*
X140800Y201400D01*
X142799D01*
X143799Y202400D01*
Y207398D01*
X145798Y201400D02*
X147797D01*
X146798D01*
Y207398D01*
X145798Y206398D01*
X154795Y201400D02*
X150796D01*
X154795Y205399D01*
Y206398D01*
X153796Y207398D01*
X151796D01*
X150796Y206398D01*
X160793Y207398D02*
X158794Y206398D01*
X156795Y204399D01*
Y202400D01*
X157794Y201400D01*
X159793D01*
X160793Y202400D01*
Y203399D01*
X159793Y204399D01*
X156795D01*
X113500Y207398D02*
Y202400D01*
X114500Y201400D01*
X116499D01*
X117499Y202400D01*
Y207398D01*
X119498Y201400D02*
X121497D01*
X120498D01*
Y207398D01*
X119498Y206398D01*
X128495Y201400D02*
X124496D01*
X128495Y205399D01*
Y206398D01*
X127496Y207398D01*
X125496D01*
X124496Y206398D01*
X134493Y207398D02*
X130494D01*
Y204399D01*
X132494Y205399D01*
X133493D01*
X134493Y204399D01*
Y202400D01*
X133493Y201400D01*
X131494D01*
X130494Y202400D01*
X87100Y207398D02*
Y202400D01*
X88100Y201400D01*
X90099D01*
X91099Y202400D01*
Y207398D01*
X93098Y201400D02*
X95097D01*
X94098D01*
Y207398D01*
X93098Y206398D01*
X102095Y201400D02*
X98096D01*
X102095Y205399D01*
Y206398D01*
X101095Y207398D01*
X99096D01*
X98096Y206398D01*
X107094Y201400D02*
Y207398D01*
X104095Y204399D01*
X108093D01*
X60700Y207398D02*
Y202400D01*
X61700Y201400D01*
X63699D01*
X64699Y202400D01*
Y207398D01*
X66698Y201400D02*
X68697D01*
X67698D01*
Y207398D01*
X66698Y206398D01*
X75695Y201400D02*
X71696D01*
X75695Y205399D01*
Y206398D01*
X74695Y207398D01*
X72696D01*
X71696Y206398D01*
X77694D02*
X78694Y207398D01*
X80694D01*
X81693Y206398D01*
Y205399D01*
X80694Y204399D01*
X79694D01*
X80694D01*
X81693Y203399D01*
Y202400D01*
X80694Y201400D01*
X78694D01*
X77694Y202400D01*
X34300Y207398D02*
Y202400D01*
X35300Y201400D01*
X37299D01*
X38299Y202400D01*
Y207398D01*
X40298Y201400D02*
X42297D01*
X41298D01*
Y207398D01*
X40298Y206398D01*
X49295Y201400D02*
X45296D01*
X49295Y205399D01*
Y206398D01*
X48296Y207398D01*
X46296D01*
X45296Y206398D01*
X55293Y201400D02*
X51294D01*
X55293Y205399D01*
Y206398D01*
X54294Y207398D01*
X52294D01*
X51294Y206398D01*
X9000Y207398D02*
Y202400D01*
X10000Y201400D01*
X11999D01*
X12999Y202400D01*
Y207398D01*
X14998Y201400D02*
X16997D01*
X15998D01*
Y207398D01*
X14998Y206398D01*
X23995Y201400D02*
X19996D01*
X23995Y205399D01*
Y206398D01*
X22996Y207398D01*
X20996D01*
X19996Y206398D01*
X25995Y201400D02*
X27994D01*
X26994D01*
Y207398D01*
X25995Y206398D01*
X509100Y233798D02*
Y228800D01*
X510100Y227800D01*
X512099D01*
X513099Y228800D01*
Y233798D01*
X515098Y227800D02*
X517097D01*
X516098D01*
Y233798D01*
X515098Y232798D01*
X524095Y227800D02*
X520096D01*
X524095Y231799D01*
Y232798D01*
X523096Y233798D01*
X521096D01*
X520096Y232798D01*
X526094D02*
X527094Y233798D01*
X529094D01*
X530093Y232798D01*
Y228800D01*
X529094Y227800D01*
X527094D01*
X526094Y228800D01*
Y232798D01*
X483300Y233798D02*
Y228800D01*
X484300Y227800D01*
X486299D01*
X487299Y228800D01*
Y233798D01*
X489298Y227800D02*
X491297D01*
X490298D01*
Y233798D01*
X489298Y232798D01*
X494296Y227800D02*
X496296D01*
X495296D01*
Y233798D01*
X494296Y232798D01*
X499295Y228800D02*
X500294Y227800D01*
X502294D01*
X503294Y228800D01*
Y232798D01*
X502294Y233798D01*
X500294D01*
X499295Y232798D01*
Y231799D01*
X500294Y230799D01*
X503294D01*
X456900Y233798D02*
Y228800D01*
X457900Y227800D01*
X459899D01*
X460899Y228800D01*
Y233798D01*
X462898Y227800D02*
X464897D01*
X463898D01*
Y233798D01*
X462898Y232798D01*
X467896Y227800D02*
X469896D01*
X468896D01*
Y233798D01*
X467896Y232798D01*
X472895D02*
X473895Y233798D01*
X475894D01*
X476894Y232798D01*
Y231799D01*
X475894Y230799D01*
X476894Y229799D01*
Y228800D01*
X475894Y227800D01*
X473895D01*
X472895Y228800D01*
Y229799D01*
X473895Y230799D01*
X472895Y231799D01*
Y232798D01*
X473895Y230799D02*
X475894D01*
X430500Y233798D02*
Y228800D01*
X431500Y227800D01*
X433499D01*
X434499Y228800D01*
Y233798D01*
X436498Y227800D02*
X438497D01*
X437498D01*
Y233798D01*
X436498Y232798D01*
X441496Y227800D02*
X443496D01*
X442496D01*
Y233798D01*
X441496Y232798D01*
X446495Y233798D02*
X450493D01*
Y232798D01*
X446495Y228800D01*
Y227800D01*
X404100Y233798D02*
Y228800D01*
X405100Y227800D01*
X407099D01*
X408099Y228800D01*
Y233798D01*
X410098Y227800D02*
X412097D01*
X411098D01*
Y233798D01*
X410098Y232798D01*
X415096Y227800D02*
X417096D01*
X416096D01*
Y233798D01*
X415096Y232798D01*
X424093Y233798D02*
X422094Y232798D01*
X420095Y230799D01*
Y228800D01*
X421095Y227800D01*
X423094D01*
X424093Y228800D01*
Y229799D01*
X423094Y230799D01*
X420095D01*
X377700Y233798D02*
Y228800D01*
X378700Y227800D01*
X380699D01*
X381699Y228800D01*
Y233798D01*
X383698Y227800D02*
X385697D01*
X384698D01*
Y233798D01*
X383698Y232798D01*
X388696Y227800D02*
X390696D01*
X389696D01*
Y233798D01*
X388696Y232798D01*
X397693Y233798D02*
X393695D01*
Y230799D01*
X395694Y231799D01*
X396694D01*
X397693Y230799D01*
Y228800D01*
X396694Y227800D01*
X394694D01*
X393695Y228800D01*
X351400Y233798D02*
Y228800D01*
X352400Y227800D01*
X354399D01*
X355399Y228800D01*
Y233798D01*
X357398Y227800D02*
X359397D01*
X358398D01*
Y233798D01*
X357398Y232798D01*
X362396Y227800D02*
X364396D01*
X363396D01*
Y233798D01*
X362396Y232798D01*
X370394Y227800D02*
Y233798D01*
X367395Y230799D01*
X371393D01*
X325000Y233798D02*
Y228800D01*
X326000Y227800D01*
X327999D01*
X328999Y228800D01*
Y233798D01*
X330998Y227800D02*
X332997D01*
X331998D01*
Y233798D01*
X330998Y232798D01*
X335996Y227800D02*
X337996D01*
X336996D01*
Y233798D01*
X335996Y232798D01*
X340995D02*
X341995Y233798D01*
X343994D01*
X344993Y232798D01*
Y231799D01*
X343994Y230799D01*
X342994D01*
X343994D01*
X344993Y229799D01*
Y228800D01*
X343994Y227800D01*
X341995D01*
X340995Y228800D01*
X298600Y233798D02*
Y228800D01*
X299600Y227800D01*
X301599D01*
X302599Y228800D01*
Y233798D01*
X304598Y227800D02*
X306597D01*
X305598D01*
Y233798D01*
X304598Y232798D01*
X309596Y227800D02*
X311596D01*
X310596D01*
Y233798D01*
X309596Y232798D01*
X318594Y227800D02*
X314595D01*
X318594Y231799D01*
Y232798D01*
X317594Y233798D01*
X315595D01*
X314595Y232798D01*
X273200Y233798D02*
Y228800D01*
X274200Y227800D01*
X276199D01*
X277199Y228800D01*
Y233798D01*
X279198Y227800D02*
X281197D01*
X280198D01*
Y233798D01*
X279198Y232798D01*
X284196Y227800D02*
X286196D01*
X285196D01*
Y233798D01*
X284196Y232798D01*
X289195Y227800D02*
X291194D01*
X290195D01*
Y233798D01*
X289195Y232798D01*
X245900Y233798D02*
Y228800D01*
X246900Y227800D01*
X248899D01*
X249899Y228800D01*
Y233798D01*
X251898Y227800D02*
X253897D01*
X252898D01*
Y233798D01*
X251898Y232798D01*
X256896Y227800D02*
X258896D01*
X257896D01*
Y233798D01*
X256896Y232798D01*
X261895D02*
X262895Y233798D01*
X264894D01*
X265894Y232798D01*
Y228800D01*
X264894Y227800D01*
X262895D01*
X261895Y228800D01*
Y232798D01*
X219000Y233798D02*
Y228800D01*
X220000Y227800D01*
X221999D01*
X222999Y228800D01*
Y233798D01*
X224998Y227800D02*
X226997D01*
X225998D01*
Y233798D01*
X224998Y232798D01*
X229996D02*
X230996Y233798D01*
X232996D01*
X233995Y232798D01*
Y228800D01*
X232996Y227800D01*
X230996D01*
X229996Y228800D01*
Y232798D01*
X235995Y228800D02*
X236994Y227800D01*
X238994D01*
X239993Y228800D01*
Y232798D01*
X238994Y233798D01*
X236994D01*
X235995Y232798D01*
Y231799D01*
X236994Y230799D01*
X239993D01*
X192600Y233798D02*
Y228800D01*
X193600Y227800D01*
X195599D01*
X196599Y228800D01*
Y233798D01*
X198598Y227800D02*
X200597D01*
X199598D01*
Y233798D01*
X198598Y232798D01*
X203596D02*
X204596Y233798D01*
X206595D01*
X207595Y232798D01*
Y228800D01*
X206595Y227800D01*
X204596D01*
X203596Y228800D01*
Y232798D01*
X209594D02*
X210594Y233798D01*
X212594D01*
X213593Y232798D01*
Y231799D01*
X212594Y230799D01*
X213593Y229799D01*
Y228800D01*
X212594Y227800D01*
X210594D01*
X209594Y228800D01*
Y229799D01*
X210594Y230799D01*
X209594Y231799D01*
Y232798D01*
X210594Y230799D02*
X212594D01*
X166200Y233798D02*
Y228800D01*
X167200Y227800D01*
X169199D01*
X170199Y228800D01*
Y233798D01*
X172198Y227800D02*
X174197D01*
X173198D01*
Y233798D01*
X172198Y232798D01*
X177196D02*
X178196Y233798D01*
X180195D01*
X181195Y232798D01*
Y228800D01*
X180195Y227800D01*
X178196D01*
X177196Y228800D01*
Y232798D01*
X183194Y233798D02*
X187193D01*
Y232798D01*
X183194Y228800D01*
Y227800D01*
X139800Y233798D02*
Y228800D01*
X140800Y227800D01*
X142799D01*
X143799Y228800D01*
Y233798D01*
X145798Y227800D02*
X147797D01*
X146798D01*
Y233798D01*
X145798Y232798D01*
X150796D02*
X151796Y233798D01*
X153796D01*
X154795Y232798D01*
Y228800D01*
X153796Y227800D01*
X151796D01*
X150796Y228800D01*
Y232798D01*
X160793Y233798D02*
X158794Y232798D01*
X156795Y230799D01*
Y228800D01*
X157794Y227800D01*
X159793D01*
X160793Y228800D01*
Y229799D01*
X159793Y230799D01*
X156795D01*
X113500Y233798D02*
Y228800D01*
X114500Y227800D01*
X116499D01*
X117499Y228800D01*
Y233798D01*
X119498Y227800D02*
X121497D01*
X120498D01*
Y233798D01*
X119498Y232798D01*
X124496D02*
X125496Y233798D01*
X127496D01*
X128495Y232798D01*
Y228800D01*
X127496Y227800D01*
X125496D01*
X124496Y228800D01*
Y232798D01*
X134493Y233798D02*
X130494D01*
Y230799D01*
X132494Y231799D01*
X133493D01*
X134493Y230799D01*
Y228800D01*
X133493Y227800D01*
X131494D01*
X130494Y228800D01*
X87100Y233798D02*
Y228800D01*
X88100Y227800D01*
X90099D01*
X91099Y228800D01*
Y233798D01*
X93098Y227800D02*
X95097D01*
X94098D01*
Y233798D01*
X93098Y232798D01*
X98096D02*
X99096Y233798D01*
X101095D01*
X102095Y232798D01*
Y228800D01*
X101095Y227800D01*
X99096D01*
X98096Y228800D01*
Y232798D01*
X107094Y227800D02*
Y233798D01*
X104095Y230799D01*
X108093D01*
X60700Y233798D02*
Y228800D01*
X61700Y227800D01*
X63699D01*
X64699Y228800D01*
Y233798D01*
X66698Y227800D02*
X68697D01*
X67698D01*
Y233798D01*
X66698Y232798D01*
X71696D02*
X72696Y233798D01*
X74695D01*
X75695Y232798D01*
Y228800D01*
X74695Y227800D01*
X72696D01*
X71696Y228800D01*
Y232798D01*
X77694D02*
X78694Y233798D01*
X80694D01*
X81693Y232798D01*
Y231799D01*
X80694Y230799D01*
X79694D01*
X80694D01*
X81693Y229799D01*
Y228800D01*
X80694Y227800D01*
X78694D01*
X77694Y228800D01*
X34300Y233798D02*
Y228800D01*
X35300Y227800D01*
X37299D01*
X38299Y228800D01*
Y233798D01*
X40298Y227800D02*
X42297D01*
X41298D01*
Y233798D01*
X40298Y232798D01*
X45296D02*
X46296Y233798D01*
X48296D01*
X49295Y232798D01*
Y228800D01*
X48296Y227800D01*
X46296D01*
X45296Y228800D01*
Y232798D01*
X55293Y227800D02*
X51294D01*
X55293Y231799D01*
Y232798D01*
X54294Y233798D01*
X52294D01*
X51294Y232798D01*
X9000Y233798D02*
Y228800D01*
X10000Y227800D01*
X11999D01*
X12999Y228800D01*
Y233798D01*
X14998Y227800D02*
X16997D01*
X15998D01*
Y233798D01*
X14998Y232798D01*
X19996D02*
X20996Y233798D01*
X22996D01*
X23995Y232798D01*
Y228800D01*
X22996Y227800D01*
X20996D01*
X19996Y228800D01*
Y232798D01*
X25995Y227800D02*
X27994D01*
X26994D01*
Y233798D01*
X25995Y232798D01*
X509100Y260198D02*
Y255200D01*
X510100Y254200D01*
X512099D01*
X513099Y255200D01*
Y260198D01*
X515098Y254200D02*
X517097D01*
X516098D01*
Y260198D01*
X515098Y259198D01*
X520096D02*
X521096Y260198D01*
X523096D01*
X524095Y259198D01*
Y255200D01*
X523096Y254200D01*
X521096D01*
X520096Y255200D01*
Y259198D01*
X526094D02*
X527094Y260198D01*
X529094D01*
X530093Y259198D01*
Y255200D01*
X529094Y254200D01*
X527094D01*
X526094Y255200D01*
Y259198D01*
X485300Y260198D02*
Y255200D01*
X486300Y254200D01*
X488299D01*
X489299Y255200D01*
Y260198D01*
X491298Y255200D02*
X492298Y254200D01*
X494297D01*
X495297Y255200D01*
Y259198D01*
X494297Y260198D01*
X492298D01*
X491298Y259198D01*
Y258199D01*
X492298Y257199D01*
X495297D01*
X497296Y255200D02*
X498296Y254200D01*
X500295D01*
X501295Y255200D01*
Y259198D01*
X500295Y260198D01*
X498296D01*
X497296Y259198D01*
Y258199D01*
X498296Y257199D01*
X501295D01*
X458900Y260198D02*
Y255200D01*
X459900Y254200D01*
X461899D01*
X462899Y255200D01*
Y260198D01*
X464898Y255200D02*
X465898Y254200D01*
X467897D01*
X468897Y255200D01*
Y259198D01*
X467897Y260198D01*
X465898D01*
X464898Y259198D01*
Y258199D01*
X465898Y257199D01*
X468897D01*
X470896Y259198D02*
X471896Y260198D01*
X473895D01*
X474895Y259198D01*
Y258199D01*
X473895Y257199D01*
X474895Y256199D01*
Y255200D01*
X473895Y254200D01*
X471896D01*
X470896Y255200D01*
Y256199D01*
X471896Y257199D01*
X470896Y258199D01*
Y259198D01*
X471896Y257199D02*
X473895D01*
X432500Y260198D02*
Y255200D01*
X433500Y254200D01*
X435499D01*
X436499Y255200D01*
Y260198D01*
X438498Y255200D02*
X439498Y254200D01*
X441497D01*
X442497Y255200D01*
Y259198D01*
X441497Y260198D01*
X439498D01*
X438498Y259198D01*
Y258199D01*
X439498Y257199D01*
X442497D01*
X444496Y260198D02*
X448495D01*
Y259198D01*
X444496Y255200D01*
Y254200D01*
X406100Y260198D02*
Y255200D01*
X407100Y254200D01*
X409099D01*
X410099Y255200D01*
Y260198D01*
X412098Y255200D02*
X413098Y254200D01*
X415097D01*
X416097Y255200D01*
Y259198D01*
X415097Y260198D01*
X413098D01*
X412098Y259198D01*
Y258199D01*
X413098Y257199D01*
X416097D01*
X422095Y260198D02*
X420095Y259198D01*
X418096Y257199D01*
Y255200D01*
X419096Y254200D01*
X421095D01*
X422095Y255200D01*
Y256199D01*
X421095Y257199D01*
X418096D01*
X379700Y260198D02*
Y255200D01*
X380700Y254200D01*
X382699D01*
X383699Y255200D01*
Y260198D01*
X385698Y255200D02*
X386698Y254200D01*
X388697D01*
X389697Y255200D01*
Y259198D01*
X388697Y260198D01*
X386698D01*
X385698Y259198D01*
Y258199D01*
X386698Y257199D01*
X389697D01*
X395695Y260198D02*
X391696D01*
Y257199D01*
X393695Y258199D01*
X394695D01*
X395695Y257199D01*
Y255200D01*
X394695Y254200D01*
X392696D01*
X391696Y255200D01*
X353400Y260198D02*
Y255200D01*
X354400Y254200D01*
X356399D01*
X357399Y255200D01*
Y260198D01*
X359398Y255200D02*
X360398Y254200D01*
X362397D01*
X363397Y255200D01*
Y259198D01*
X362397Y260198D01*
X360398D01*
X359398Y259198D01*
Y258199D01*
X360398Y257199D01*
X363397D01*
X368395Y254200D02*
Y260198D01*
X365396Y257199D01*
X369395D01*
X327000Y260198D02*
Y255200D01*
X328000Y254200D01*
X329999D01*
X330999Y255200D01*
Y260198D01*
X332998Y255200D02*
X333998Y254200D01*
X335997D01*
X336997Y255200D01*
Y259198D01*
X335997Y260198D01*
X333998D01*
X332998Y259198D01*
Y258199D01*
X333998Y257199D01*
X336997D01*
X338996Y259198D02*
X339996Y260198D01*
X341995D01*
X342995Y259198D01*
Y258199D01*
X341995Y257199D01*
X340996D01*
X341995D01*
X342995Y256199D01*
Y255200D01*
X341995Y254200D01*
X339996D01*
X338996Y255200D01*
X300600Y260198D02*
Y255200D01*
X301600Y254200D01*
X303599D01*
X304599Y255200D01*
Y260198D01*
X306598Y255200D02*
X307598Y254200D01*
X309597D01*
X310597Y255200D01*
Y259198D01*
X309597Y260198D01*
X307598D01*
X306598Y259198D01*
Y258199D01*
X307598Y257199D01*
X310597D01*
X316595Y254200D02*
X312596D01*
X316595Y258199D01*
Y259198D01*
X315595Y260198D01*
X313596D01*
X312596Y259198D01*
X275200Y260198D02*
Y255200D01*
X276200Y254200D01*
X278199D01*
X279199Y255200D01*
Y260198D01*
X281198Y255200D02*
X282198Y254200D01*
X284197D01*
X285197Y255200D01*
Y259198D01*
X284197Y260198D01*
X282198D01*
X281198Y259198D01*
Y258199D01*
X282198Y257199D01*
X285197D01*
X287196Y254200D02*
X289195D01*
X288196D01*
Y260198D01*
X287196Y259198D01*
X247900Y260198D02*
Y255200D01*
X248900Y254200D01*
X250899D01*
X251899Y255200D01*
Y260198D01*
X253898Y255200D02*
X254898Y254200D01*
X256897D01*
X257897Y255200D01*
Y259198D01*
X256897Y260198D01*
X254898D01*
X253898Y259198D01*
Y258199D01*
X254898Y257199D01*
X257897D01*
X259896Y259198D02*
X260896Y260198D01*
X262895D01*
X263895Y259198D01*
Y255200D01*
X262895Y254200D01*
X260896D01*
X259896Y255200D01*
Y259198D01*
X221500Y260198D02*
Y255200D01*
X222500Y254200D01*
X224499D01*
X225499Y255200D01*
Y260198D01*
X227498Y259198D02*
X228498Y260198D01*
X230497D01*
X231497Y259198D01*
Y258199D01*
X230497Y257199D01*
X231497Y256199D01*
Y255200D01*
X230497Y254200D01*
X228498D01*
X227498Y255200D01*
Y256199D01*
X228498Y257199D01*
X227498Y258199D01*
Y259198D01*
X228498Y257199D02*
X230497D01*
X233496Y255200D02*
X234496Y254200D01*
X236495D01*
X237495Y255200D01*
Y259198D01*
X236495Y260198D01*
X234496D01*
X233496Y259198D01*
Y258199D01*
X234496Y257199D01*
X237495D01*
X195100Y260198D02*
Y255200D01*
X196100Y254200D01*
X198099D01*
X199099Y255200D01*
Y260198D01*
X201098Y259198D02*
X202098Y260198D01*
X204097D01*
X205097Y259198D01*
Y258199D01*
X204097Y257199D01*
X205097Y256199D01*
Y255200D01*
X204097Y254200D01*
X202098D01*
X201098Y255200D01*
Y256199D01*
X202098Y257199D01*
X201098Y258199D01*
Y259198D01*
X202098Y257199D02*
X204097D01*
X207096Y259198D02*
X208096Y260198D01*
X210095D01*
X211095Y259198D01*
Y258199D01*
X210095Y257199D01*
X211095Y256199D01*
Y255200D01*
X210095Y254200D01*
X208096D01*
X207096Y255200D01*
Y256199D01*
X208096Y257199D01*
X207096Y258199D01*
Y259198D01*
X208096Y257199D02*
X210095D01*
X168700Y260198D02*
Y255200D01*
X169700Y254200D01*
X171699D01*
X172699Y255200D01*
Y260198D01*
X174698Y259198D02*
X175698Y260198D01*
X177697D01*
X178697Y259198D01*
Y258199D01*
X177697Y257199D01*
X178697Y256199D01*
Y255200D01*
X177697Y254200D01*
X175698D01*
X174698Y255200D01*
Y256199D01*
X175698Y257199D01*
X174698Y258199D01*
Y259198D01*
X175698Y257199D02*
X177697D01*
X180696Y260198D02*
X184695D01*
Y259198D01*
X180696Y255200D01*
Y254200D01*
X142300Y260198D02*
Y255200D01*
X143300Y254200D01*
X145299D01*
X146299Y255200D01*
Y260198D01*
X148298Y259198D02*
X149298Y260198D01*
X151297D01*
X152297Y259198D01*
Y258199D01*
X151297Y257199D01*
X152297Y256199D01*
Y255200D01*
X151297Y254200D01*
X149298D01*
X148298Y255200D01*
Y256199D01*
X149298Y257199D01*
X148298Y258199D01*
Y259198D01*
X149298Y257199D02*
X151297D01*
X158295Y260198D02*
X156296Y259198D01*
X154296Y257199D01*
Y255200D01*
X155296Y254200D01*
X157295D01*
X158295Y255200D01*
Y256199D01*
X157295Y257199D01*
X154296D01*
X116000Y260198D02*
Y255200D01*
X117000Y254200D01*
X118999D01*
X119999Y255200D01*
Y260198D01*
X121998Y259198D02*
X122998Y260198D01*
X124997D01*
X125997Y259198D01*
Y258199D01*
X124997Y257199D01*
X125997Y256199D01*
Y255200D01*
X124997Y254200D01*
X122998D01*
X121998Y255200D01*
Y256199D01*
X122998Y257199D01*
X121998Y258199D01*
Y259198D01*
X122998Y257199D02*
X124997D01*
X131995Y260198D02*
X127996D01*
Y257199D01*
X129996Y258199D01*
X130995D01*
X131995Y257199D01*
Y255200D01*
X130995Y254200D01*
X128996D01*
X127996Y255200D01*
X89600Y260198D02*
Y255200D01*
X90600Y254200D01*
X92599D01*
X93599Y255200D01*
Y260198D01*
X95598Y259198D02*
X96598Y260198D01*
X98597D01*
X99597Y259198D01*
Y258199D01*
X98597Y257199D01*
X99597Y256199D01*
Y255200D01*
X98597Y254200D01*
X96598D01*
X95598Y255200D01*
Y256199D01*
X96598Y257199D01*
X95598Y258199D01*
Y259198D01*
X96598Y257199D02*
X98597D01*
X104595Y254200D02*
Y260198D01*
X101596Y257199D01*
X105595D01*
X63200Y260198D02*
Y255200D01*
X64200Y254200D01*
X66199D01*
X67199Y255200D01*
Y260198D01*
X69198Y259198D02*
X70198Y260198D01*
X72197D01*
X73197Y259198D01*
Y258199D01*
X72197Y257199D01*
X73197Y256199D01*
Y255200D01*
X72197Y254200D01*
X70198D01*
X69198Y255200D01*
Y256199D01*
X70198Y257199D01*
X69198Y258199D01*
Y259198D01*
X70198Y257199D02*
X72197D01*
X75196Y259198D02*
X76196Y260198D01*
X78195D01*
X79195Y259198D01*
Y258199D01*
X78195Y257199D01*
X77196D01*
X78195D01*
X79195Y256199D01*
Y255200D01*
X78195Y254200D01*
X76196D01*
X75196Y255200D01*
X36800Y260198D02*
Y255200D01*
X37800Y254200D01*
X39799D01*
X40799Y255200D01*
Y260198D01*
X42798Y259198D02*
X43798Y260198D01*
X45797D01*
X46797Y259198D01*
Y258199D01*
X45797Y257199D01*
X46797Y256199D01*
Y255200D01*
X45797Y254200D01*
X43798D01*
X42798Y255200D01*
Y256199D01*
X43798Y257199D01*
X42798Y258199D01*
Y259198D01*
X43798Y257199D02*
X45797D01*
X52795Y254200D02*
X48796D01*
X52795Y258199D01*
Y259198D01*
X51795Y260198D01*
X49796D01*
X48796Y259198D01*
X11500Y260198D02*
Y255200D01*
X12500Y254200D01*
X14499D01*
X15499Y255200D01*
Y260198D01*
X17498Y259198D02*
X18498Y260198D01*
X20497D01*
X21497Y259198D01*
Y258199D01*
X20497Y257199D01*
X21497Y256199D01*
Y255200D01*
X20497Y254200D01*
X18498D01*
X17498Y255200D01*
Y256199D01*
X18498Y257199D01*
X17498Y258199D01*
Y259198D01*
X18498Y257199D02*
X20497D01*
X23496Y254200D02*
X25495D01*
X24496D01*
Y260198D01*
X23496Y259198D01*
X511600Y286598D02*
Y281600D01*
X512600Y280600D01*
X514599D01*
X515599Y281600D01*
Y286598D01*
X517598Y285598D02*
X518598Y286598D01*
X520597D01*
X521597Y285598D01*
Y284599D01*
X520597Y283599D01*
X521597Y282599D01*
Y281600D01*
X520597Y280600D01*
X518598D01*
X517598Y281600D01*
Y282599D01*
X518598Y283599D01*
X517598Y284599D01*
Y285598D01*
X518598Y283599D02*
X520597D01*
X523596Y285598D02*
X524596Y286598D01*
X526595D01*
X527595Y285598D01*
Y281600D01*
X526595Y280600D01*
X524596D01*
X523596Y281600D01*
Y285598D01*
X485300Y286598D02*
Y281600D01*
X486300Y280600D01*
X488299D01*
X489299Y281600D01*
Y286598D01*
X491298D02*
X495297D01*
Y285598D01*
X491298Y281600D01*
Y280600D01*
X497296Y281600D02*
X498296Y280600D01*
X500295D01*
X501295Y281600D01*
Y285598D01*
X500295Y286598D01*
X498296D01*
X497296Y285598D01*
Y284599D01*
X498296Y283599D01*
X501295D01*
X458900Y286598D02*
Y281600D01*
X459900Y280600D01*
X461899D01*
X462899Y281600D01*
Y286598D01*
X464898D02*
X468897D01*
Y285598D01*
X464898Y281600D01*
Y280600D01*
X470896Y285598D02*
X471896Y286598D01*
X473895D01*
X474895Y285598D01*
Y284599D01*
X473895Y283599D01*
X474895Y282599D01*
Y281600D01*
X473895Y280600D01*
X471896D01*
X470896Y281600D01*
Y282599D01*
X471896Y283599D01*
X470896Y284599D01*
Y285598D01*
X471896Y283599D02*
X473895D01*
X432500Y286598D02*
Y281600D01*
X433500Y280600D01*
X435499D01*
X436499Y281600D01*
Y286598D01*
X438498D02*
X442497D01*
Y285598D01*
X438498Y281600D01*
Y280600D01*
X444496Y286598D02*
X448495D01*
Y285598D01*
X444496Y281600D01*
Y280600D01*
X406100Y286598D02*
Y281600D01*
X407100Y280600D01*
X409099D01*
X410099Y281600D01*
Y286598D01*
X412098D02*
X416097D01*
Y285598D01*
X412098Y281600D01*
Y280600D01*
X422095Y286598D02*
X420095Y285598D01*
X418096Y283599D01*
Y281600D01*
X419096Y280600D01*
X421095D01*
X422095Y281600D01*
Y282599D01*
X421095Y283599D01*
X418096D01*
X379700Y286598D02*
Y281600D01*
X380700Y280600D01*
X382699D01*
X383699Y281600D01*
Y286598D01*
X385698D02*
X389697D01*
Y285598D01*
X385698Y281600D01*
Y280600D01*
X395695Y286598D02*
X391696D01*
Y283599D01*
X393695Y284599D01*
X394695D01*
X395695Y283599D01*
Y281600D01*
X394695Y280600D01*
X392696D01*
X391696Y281600D01*
X353400Y286598D02*
Y281600D01*
X354400Y280600D01*
X356399D01*
X357399Y281600D01*
Y286598D01*
X359398D02*
X363397D01*
Y285598D01*
X359398Y281600D01*
Y280600D01*
X368395D02*
Y286598D01*
X365396Y283599D01*
X369395D01*
X327000Y286598D02*
Y281600D01*
X328000Y280600D01*
X329999D01*
X330999Y281600D01*
Y286598D01*
X332998D02*
X336997D01*
Y285598D01*
X332998Y281600D01*
Y280600D01*
X338996Y285598D02*
X339996Y286598D01*
X341995D01*
X342995Y285598D01*
Y284599D01*
X341995Y283599D01*
X340996D01*
X341995D01*
X342995Y282599D01*
Y281600D01*
X341995Y280600D01*
X339996D01*
X338996Y281600D01*
X300600Y286598D02*
Y281600D01*
X301600Y280600D01*
X303599D01*
X304599Y281600D01*
Y286598D01*
X306598D02*
X310597D01*
Y285598D01*
X306598Y281600D01*
Y280600D01*
X316595D02*
X312596D01*
X316595Y284599D01*
Y285598D01*
X315595Y286598D01*
X313596D01*
X312596Y285598D01*
X275200Y286598D02*
Y281600D01*
X276200Y280600D01*
X278199D01*
X279199Y281600D01*
Y286598D01*
X281198D02*
X285197D01*
Y285598D01*
X281198Y281600D01*
Y280600D01*
X287196D02*
X289195D01*
X288196D01*
Y286598D01*
X287196Y285598D01*
X247900Y286598D02*
Y281600D01*
X248900Y280600D01*
X250899D01*
X251899Y281600D01*
Y286598D01*
X253898D02*
X257897D01*
Y285598D01*
X253898Y281600D01*
Y280600D01*
X259896Y285598D02*
X260896Y286598D01*
X262895D01*
X263895Y285598D01*
Y281600D01*
X262895Y280600D01*
X260896D01*
X259896Y281600D01*
Y285598D01*
X221500Y286598D02*
Y281600D01*
X222500Y280600D01*
X224499D01*
X225499Y281600D01*
Y286598D01*
X231497D02*
X229497Y285598D01*
X227498Y283599D01*
Y281600D01*
X228498Y280600D01*
X230497D01*
X231497Y281600D01*
Y282599D01*
X230497Y283599D01*
X227498D01*
X233496Y281600D02*
X234496Y280600D01*
X236495D01*
X237495Y281600D01*
Y285598D01*
X236495Y286598D01*
X234496D01*
X233496Y285598D01*
Y284599D01*
X234496Y283599D01*
X237495D01*
X195100Y286598D02*
Y281600D01*
X196100Y280600D01*
X198099D01*
X199099Y281600D01*
Y286598D01*
X205097D02*
X203097Y285598D01*
X201098Y283599D01*
Y281600D01*
X202098Y280600D01*
X204097D01*
X205097Y281600D01*
Y282599D01*
X204097Y283599D01*
X201098D01*
X207096Y285598D02*
X208096Y286598D01*
X210095D01*
X211095Y285598D01*
Y284599D01*
X210095Y283599D01*
X211095Y282599D01*
Y281600D01*
X210095Y280600D01*
X208096D01*
X207096Y281600D01*
Y282599D01*
X208096Y283599D01*
X207096Y284599D01*
Y285598D01*
X208096Y283599D02*
X210095D01*
X168700Y286598D02*
Y281600D01*
X169700Y280600D01*
X171699D01*
X172699Y281600D01*
Y286598D01*
X178697D02*
X176697Y285598D01*
X174698Y283599D01*
Y281600D01*
X175698Y280600D01*
X177697D01*
X178697Y281600D01*
Y282599D01*
X177697Y283599D01*
X174698D01*
X180696Y286598D02*
X184695D01*
Y285598D01*
X180696Y281600D01*
Y280600D01*
X142300Y286598D02*
Y281600D01*
X143300Y280600D01*
X145299D01*
X146299Y281600D01*
Y286598D01*
X152297D02*
X150297Y285598D01*
X148298Y283599D01*
Y281600D01*
X149298Y280600D01*
X151297D01*
X152297Y281600D01*
Y282599D01*
X151297Y283599D01*
X148298D01*
X158295Y286598D02*
X156296Y285598D01*
X154296Y283599D01*
Y281600D01*
X155296Y280600D01*
X157295D01*
X158295Y281600D01*
Y282599D01*
X157295Y283599D01*
X154296D01*
X116000Y286598D02*
Y281600D01*
X117000Y280600D01*
X118999D01*
X119999Y281600D01*
Y286598D01*
X125997D02*
X123997Y285598D01*
X121998Y283599D01*
Y281600D01*
X122998Y280600D01*
X124997D01*
X125997Y281600D01*
Y282599D01*
X124997Y283599D01*
X121998D01*
X131995Y286598D02*
X127996D01*
Y283599D01*
X129996Y284599D01*
X130995D01*
X131995Y283599D01*
Y281600D01*
X130995Y280600D01*
X128996D01*
X127996Y281600D01*
X89600Y286598D02*
Y281600D01*
X90600Y280600D01*
X92599D01*
X93599Y281600D01*
Y286598D01*
X99597D02*
X97597Y285598D01*
X95598Y283599D01*
Y281600D01*
X96598Y280600D01*
X98597D01*
X99597Y281600D01*
Y282599D01*
X98597Y283599D01*
X95598D01*
X104595Y280600D02*
Y286598D01*
X101596Y283599D01*
X105595D01*
X63200Y286598D02*
Y281600D01*
X64200Y280600D01*
X66199D01*
X67199Y281600D01*
Y286598D01*
X73197D02*
X71197Y285598D01*
X69198Y283599D01*
Y281600D01*
X70198Y280600D01*
X72197D01*
X73197Y281600D01*
Y282599D01*
X72197Y283599D01*
X69198D01*
X75196Y285598D02*
X76196Y286598D01*
X78195D01*
X79195Y285598D01*
Y284599D01*
X78195Y283599D01*
X77196D01*
X78195D01*
X79195Y282599D01*
Y281600D01*
X78195Y280600D01*
X76196D01*
X75196Y281600D01*
X36800Y286598D02*
Y281600D01*
X37800Y280600D01*
X39799D01*
X40799Y281600D01*
Y286598D01*
X46797D02*
X44797Y285598D01*
X42798Y283599D01*
Y281600D01*
X43798Y280600D01*
X45797D01*
X46797Y281600D01*
Y282599D01*
X45797Y283599D01*
X42798D01*
X52795Y280600D02*
X48796D01*
X52795Y284599D01*
Y285598D01*
X51795Y286598D01*
X49796D01*
X48796Y285598D01*
X11500Y286598D02*
Y281600D01*
X12500Y280600D01*
X14499D01*
X15499Y281600D01*
Y286598D01*
X21497D02*
X19497Y285598D01*
X17498Y283599D01*
Y281600D01*
X18498Y280600D01*
X20497D01*
X21497Y281600D01*
Y282599D01*
X20497Y283599D01*
X17498D01*
X23496Y280600D02*
X25495D01*
X24496D01*
Y286598D01*
X23496Y285598D01*
X511600Y312898D02*
Y307900D01*
X512600Y306900D01*
X514599D01*
X515599Y307900D01*
Y312898D01*
X521597D02*
X519597Y311898D01*
X517598Y309899D01*
Y307900D01*
X518598Y306900D01*
X520597D01*
X521597Y307900D01*
Y308899D01*
X520597Y309899D01*
X517598D01*
X523596Y311898D02*
X524596Y312898D01*
X526595D01*
X527595Y311898D01*
Y307900D01*
X526595Y306900D01*
X524596D01*
X523596Y307900D01*
Y311898D01*
X485300Y312898D02*
Y307900D01*
X486300Y306900D01*
X488299D01*
X489299Y307900D01*
Y312898D01*
X495297D02*
X491298D01*
Y309899D01*
X493297Y310899D01*
X494297D01*
X495297Y309899D01*
Y307900D01*
X494297Y306900D01*
X492298D01*
X491298Y307900D01*
X497296D02*
X498296Y306900D01*
X500295D01*
X501295Y307900D01*
Y311898D01*
X500295Y312898D01*
X498296D01*
X497296Y311898D01*
Y310899D01*
X498296Y309899D01*
X501295D01*
X458900Y312898D02*
Y307900D01*
X459900Y306900D01*
X461899D01*
X462899Y307900D01*
Y312898D01*
X468897D02*
X464898D01*
Y309899D01*
X466897Y310899D01*
X467897D01*
X468897Y309899D01*
Y307900D01*
X467897Y306900D01*
X465898D01*
X464898Y307900D01*
X470896Y311898D02*
X471896Y312898D01*
X473895D01*
X474895Y311898D01*
Y310899D01*
X473895Y309899D01*
X474895Y308899D01*
Y307900D01*
X473895Y306900D01*
X471896D01*
X470896Y307900D01*
Y308899D01*
X471896Y309899D01*
X470896Y310899D01*
Y311898D01*
X471896Y309899D02*
X473895D01*
X432500Y312898D02*
Y307900D01*
X433500Y306900D01*
X435499D01*
X436499Y307900D01*
Y312898D01*
X442497D02*
X438498D01*
Y309899D01*
X440497Y310899D01*
X441497D01*
X442497Y309899D01*
Y307900D01*
X441497Y306900D01*
X439498D01*
X438498Y307900D01*
X444496Y312898D02*
X448495D01*
Y311898D01*
X444496Y307900D01*
Y306900D01*
X406100Y312898D02*
Y307900D01*
X407100Y306900D01*
X409099D01*
X410099Y307900D01*
Y312898D01*
X416097D02*
X412098D01*
Y309899D01*
X414097Y310899D01*
X415097D01*
X416097Y309899D01*
Y307900D01*
X415097Y306900D01*
X413098D01*
X412098Y307900D01*
X422095Y312898D02*
X420095Y311898D01*
X418096Y309899D01*
Y307900D01*
X419096Y306900D01*
X421095D01*
X422095Y307900D01*
Y308899D01*
X421095Y309899D01*
X418096D01*
X379700Y312898D02*
Y307900D01*
X380700Y306900D01*
X382699D01*
X383699Y307900D01*
Y312898D01*
X389697D02*
X385698D01*
Y309899D01*
X387697Y310899D01*
X388697D01*
X389697Y309899D01*
Y307900D01*
X388697Y306900D01*
X386698D01*
X385698Y307900D01*
X395695Y312898D02*
X391696D01*
Y309899D01*
X393695Y310899D01*
X394695D01*
X395695Y309899D01*
Y307900D01*
X394695Y306900D01*
X392696D01*
X391696Y307900D01*
X353400Y312898D02*
Y307900D01*
X354400Y306900D01*
X356399D01*
X357399Y307900D01*
Y312898D01*
X363397D02*
X359398D01*
Y309899D01*
X361397Y310899D01*
X362397D01*
X363397Y309899D01*
Y307900D01*
X362397Y306900D01*
X360398D01*
X359398Y307900D01*
X368395Y306900D02*
Y312898D01*
X365396Y309899D01*
X369395D01*
X327000Y312898D02*
Y307900D01*
X328000Y306900D01*
X329999D01*
X330999Y307900D01*
Y312898D01*
X336997D02*
X332998D01*
Y309899D01*
X334997Y310899D01*
X335997D01*
X336997Y309899D01*
Y307900D01*
X335997Y306900D01*
X333998D01*
X332998Y307900D01*
X338996Y311898D02*
X339996Y312898D01*
X341995D01*
X342995Y311898D01*
Y310899D01*
X341995Y309899D01*
X340996D01*
X341995D01*
X342995Y308899D01*
Y307900D01*
X341995Y306900D01*
X339996D01*
X338996Y307900D01*
X300600Y312898D02*
Y307900D01*
X301600Y306900D01*
X303599D01*
X304599Y307900D01*
Y312898D01*
X310597D02*
X306598D01*
Y309899D01*
X308597Y310899D01*
X309597D01*
X310597Y309899D01*
Y307900D01*
X309597Y306900D01*
X307598D01*
X306598Y307900D01*
X316595Y306900D02*
X312596D01*
X316595Y310899D01*
Y311898D01*
X315595Y312898D01*
X313596D01*
X312596Y311898D01*
X275200Y312898D02*
Y307900D01*
X276200Y306900D01*
X278199D01*
X279199Y307900D01*
Y312898D01*
X285197D02*
X281198D01*
Y309899D01*
X283197Y310899D01*
X284197D01*
X285197Y309899D01*
Y307900D01*
X284197Y306900D01*
X282198D01*
X281198Y307900D01*
X287196Y306900D02*
X289195D01*
X288196D01*
Y312898D01*
X287196Y311898D01*
X247900Y312898D02*
Y307900D01*
X248900Y306900D01*
X250899D01*
X251899Y307900D01*
Y312898D01*
X257897D02*
X253898D01*
Y309899D01*
X255897Y310899D01*
X256897D01*
X257897Y309899D01*
Y307900D01*
X256897Y306900D01*
X254898D01*
X253898Y307900D01*
X259896Y311898D02*
X260896Y312898D01*
X262895D01*
X263895Y311898D01*
Y307900D01*
X262895Y306900D01*
X260896D01*
X259896Y307900D01*
Y311898D01*
X221500Y312898D02*
Y307900D01*
X222500Y306900D01*
X224499D01*
X225499Y307900D01*
Y312898D01*
X230497Y306900D02*
Y312898D01*
X227498Y309899D01*
X231497D01*
X233496Y307900D02*
X234496Y306900D01*
X236495D01*
X237495Y307900D01*
Y311898D01*
X236495Y312898D01*
X234496D01*
X233496Y311898D01*
Y310899D01*
X234496Y309899D01*
X237495D01*
X195100Y312898D02*
Y307900D01*
X196100Y306900D01*
X198099D01*
X199099Y307900D01*
Y312898D01*
X204097Y306900D02*
Y312898D01*
X201098Y309899D01*
X205097D01*
X207096Y311898D02*
X208096Y312898D01*
X210095D01*
X211095Y311898D01*
Y310899D01*
X210095Y309899D01*
X211095Y308899D01*
Y307900D01*
X210095Y306900D01*
X208096D01*
X207096Y307900D01*
Y308899D01*
X208096Y309899D01*
X207096Y310899D01*
Y311898D01*
X208096Y309899D02*
X210095D01*
X168700Y312898D02*
Y307900D01*
X169700Y306900D01*
X171699D01*
X172699Y307900D01*
Y312898D01*
X177697Y306900D02*
Y312898D01*
X174698Y309899D01*
X178697D01*
X180696Y312898D02*
X184695D01*
Y311898D01*
X180696Y307900D01*
Y306900D01*
X142300Y312898D02*
Y307900D01*
X143300Y306900D01*
X145299D01*
X146299Y307900D01*
Y312898D01*
X151297Y306900D02*
Y312898D01*
X148298Y309899D01*
X152297D01*
X158295Y312898D02*
X156296Y311898D01*
X154296Y309899D01*
Y307900D01*
X155296Y306900D01*
X157295D01*
X158295Y307900D01*
Y308899D01*
X157295Y309899D01*
X154296D01*
X116000Y312898D02*
Y307900D01*
X117000Y306900D01*
X118999D01*
X119999Y307900D01*
Y312898D01*
X124997Y306900D02*
Y312898D01*
X121998Y309899D01*
X125997D01*
X131995Y312898D02*
X127996D01*
Y309899D01*
X129996Y310899D01*
X130995D01*
X131995Y309899D01*
Y307900D01*
X130995Y306900D01*
X128996D01*
X127996Y307900D01*
X89600Y312898D02*
Y307900D01*
X90600Y306900D01*
X92599D01*
X93599Y307900D01*
Y312898D01*
X98597Y306900D02*
Y312898D01*
X95598Y309899D01*
X99597D01*
X104595Y306900D02*
Y312898D01*
X101596Y309899D01*
X105595D01*
X63200Y312898D02*
Y307900D01*
X64200Y306900D01*
X66199D01*
X67199Y307900D01*
Y312898D01*
X72197Y306900D02*
Y312898D01*
X69198Y309899D01*
X73197D01*
X75196Y311898D02*
X76196Y312898D01*
X78195D01*
X79195Y311898D01*
Y310899D01*
X78195Y309899D01*
X77196D01*
X78195D01*
X79195Y308899D01*
Y307900D01*
X78195Y306900D01*
X76196D01*
X75196Y307900D01*
X36800Y312898D02*
Y307900D01*
X37800Y306900D01*
X39799D01*
X40799Y307900D01*
Y312898D01*
X45797Y306900D02*
Y312898D01*
X42798Y309899D01*
X46797D01*
X52795Y306900D02*
X48796D01*
X52795Y310899D01*
Y311898D01*
X51795Y312898D01*
X49796D01*
X48796Y311898D01*
X11500Y312898D02*
Y307900D01*
X12500Y306900D01*
X14499D01*
X15499Y307900D01*
Y312898D01*
X20497Y306900D02*
Y312898D01*
X17498Y309899D01*
X21497D01*
X23496Y306900D02*
X25495D01*
X24496D01*
Y312898D01*
X23496Y311898D01*
X511600Y339298D02*
Y334300D01*
X512600Y333300D01*
X514599D01*
X515599Y334300D01*
Y339298D01*
X520597Y333300D02*
Y339298D01*
X517598Y336299D01*
X521597D01*
X523596Y338298D02*
X524596Y339298D01*
X526595D01*
X527595Y338298D01*
Y334300D01*
X526595Y333300D01*
X524596D01*
X523596Y334300D01*
Y338298D01*
X485300Y339298D02*
Y334300D01*
X486300Y333300D01*
X488299D01*
X489299Y334300D01*
Y339298D01*
X491298Y338298D02*
X492298Y339298D01*
X494297D01*
X495297Y338298D01*
Y337299D01*
X494297Y336299D01*
X493297D01*
X494297D01*
X495297Y335299D01*
Y334300D01*
X494297Y333300D01*
X492298D01*
X491298Y334300D01*
X497296D02*
X498296Y333300D01*
X500295D01*
X501295Y334300D01*
Y338298D01*
X500295Y339298D01*
X498296D01*
X497296Y338298D01*
Y337299D01*
X498296Y336299D01*
X501295D01*
X458900Y339298D02*
Y334300D01*
X459900Y333300D01*
X461899D01*
X462899Y334300D01*
Y339298D01*
X464898Y338298D02*
X465898Y339298D01*
X467897D01*
X468897Y338298D01*
Y337299D01*
X467897Y336299D01*
X466897D01*
X467897D01*
X468897Y335299D01*
Y334300D01*
X467897Y333300D01*
X465898D01*
X464898Y334300D01*
X470896Y338298D02*
X471896Y339298D01*
X473895D01*
X474895Y338298D01*
Y337299D01*
X473895Y336299D01*
X474895Y335299D01*
Y334300D01*
X473895Y333300D01*
X471896D01*
X470896Y334300D01*
Y335299D01*
X471896Y336299D01*
X470896Y337299D01*
Y338298D01*
X471896Y336299D02*
X473895D01*
X432500Y339298D02*
Y334300D01*
X433500Y333300D01*
X435499D01*
X436499Y334300D01*
Y339298D01*
X438498Y338298D02*
X439498Y339298D01*
X441497D01*
X442497Y338298D01*
Y337299D01*
X441497Y336299D01*
X440497D01*
X441497D01*
X442497Y335299D01*
Y334300D01*
X441497Y333300D01*
X439498D01*
X438498Y334300D01*
X444496Y339298D02*
X448495D01*
Y338298D01*
X444496Y334300D01*
Y333300D01*
X406100Y339298D02*
Y334300D01*
X407100Y333300D01*
X409099D01*
X410099Y334300D01*
Y339298D01*
X412098Y338298D02*
X413098Y339298D01*
X415097D01*
X416097Y338298D01*
Y337299D01*
X415097Y336299D01*
X414097D01*
X415097D01*
X416097Y335299D01*
Y334300D01*
X415097Y333300D01*
X413098D01*
X412098Y334300D01*
X422095Y339298D02*
X420095Y338298D01*
X418096Y336299D01*
Y334300D01*
X419096Y333300D01*
X421095D01*
X422095Y334300D01*
Y335299D01*
X421095Y336299D01*
X418096D01*
X379700Y339298D02*
Y334300D01*
X380700Y333300D01*
X382699D01*
X383699Y334300D01*
Y339298D01*
X385698Y338298D02*
X386698Y339298D01*
X388697D01*
X389697Y338298D01*
Y337299D01*
X388697Y336299D01*
X387697D01*
X388697D01*
X389697Y335299D01*
Y334300D01*
X388697Y333300D01*
X386698D01*
X385698Y334300D01*
X395695Y339298D02*
X391696D01*
Y336299D01*
X393695Y337299D01*
X394695D01*
X395695Y336299D01*
Y334300D01*
X394695Y333300D01*
X392696D01*
X391696Y334300D01*
X353400Y339298D02*
Y334300D01*
X354400Y333300D01*
X356399D01*
X357399Y334300D01*
Y339298D01*
X359398Y338298D02*
X360398Y339298D01*
X362397D01*
X363397Y338298D01*
Y337299D01*
X362397Y336299D01*
X361397D01*
X362397D01*
X363397Y335299D01*
Y334300D01*
X362397Y333300D01*
X360398D01*
X359398Y334300D01*
X368395Y333300D02*
Y339298D01*
X365396Y336299D01*
X369395D01*
X327000Y339298D02*
Y334300D01*
X328000Y333300D01*
X329999D01*
X330999Y334300D01*
Y339298D01*
X332998Y338298D02*
X333998Y339298D01*
X335997D01*
X336997Y338298D01*
Y337299D01*
X335997Y336299D01*
X334997D01*
X335997D01*
X336997Y335299D01*
Y334300D01*
X335997Y333300D01*
X333998D01*
X332998Y334300D01*
X338996Y338298D02*
X339996Y339298D01*
X341995D01*
X342995Y338298D01*
Y337299D01*
X341995Y336299D01*
X340996D01*
X341995D01*
X342995Y335299D01*
Y334300D01*
X341995Y333300D01*
X339996D01*
X338996Y334300D01*
X300600Y339298D02*
Y334300D01*
X301600Y333300D01*
X303599D01*
X304599Y334300D01*
Y339298D01*
X306598Y338298D02*
X307598Y339298D01*
X309597D01*
X310597Y338298D01*
Y337299D01*
X309597Y336299D01*
X308597D01*
X309597D01*
X310597Y335299D01*
Y334300D01*
X309597Y333300D01*
X307598D01*
X306598Y334300D01*
X316595Y333300D02*
X312596D01*
X316595Y337299D01*
Y338298D01*
X315595Y339298D01*
X313596D01*
X312596Y338298D01*
X275200Y339298D02*
Y334300D01*
X276200Y333300D01*
X278199D01*
X279199Y334300D01*
Y339298D01*
X281198Y338298D02*
X282198Y339298D01*
X284197D01*
X285197Y338298D01*
Y337299D01*
X284197Y336299D01*
X283197D01*
X284197D01*
X285197Y335299D01*
Y334300D01*
X284197Y333300D01*
X282198D01*
X281198Y334300D01*
X287196Y333300D02*
X289195D01*
X288196D01*
Y339298D01*
X287196Y338298D01*
X247900Y339298D02*
Y334300D01*
X248900Y333300D01*
X250899D01*
X251899Y334300D01*
Y339298D01*
X253898Y338298D02*
X254898Y339298D01*
X256897D01*
X257897Y338298D01*
Y337299D01*
X256897Y336299D01*
X255897D01*
X256897D01*
X257897Y335299D01*
Y334300D01*
X256897Y333300D01*
X254898D01*
X253898Y334300D01*
X259896Y338298D02*
X260896Y339298D01*
X262895D01*
X263895Y338298D01*
Y334300D01*
X262895Y333300D01*
X260896D01*
X259896Y334300D01*
Y338298D01*
X221500Y339298D02*
Y334300D01*
X222500Y333300D01*
X224499D01*
X225499Y334300D01*
Y339298D01*
X231497Y333300D02*
X227498D01*
X231497Y337299D01*
Y338298D01*
X230497Y339298D01*
X228498D01*
X227498Y338298D01*
X233496Y334300D02*
X234496Y333300D01*
X236495D01*
X237495Y334300D01*
Y338298D01*
X236495Y339298D01*
X234496D01*
X233496Y338298D01*
Y337299D01*
X234496Y336299D01*
X237495D01*
X195100Y339298D02*
Y334300D01*
X196100Y333300D01*
X198099D01*
X199099Y334300D01*
Y339298D01*
X205097Y333300D02*
X201098D01*
X205097Y337299D01*
Y338298D01*
X204097Y339298D01*
X202098D01*
X201098Y338298D01*
X207096D02*
X208096Y339298D01*
X210095D01*
X211095Y338298D01*
Y337299D01*
X210095Y336299D01*
X211095Y335299D01*
Y334300D01*
X210095Y333300D01*
X208096D01*
X207096Y334300D01*
Y335299D01*
X208096Y336299D01*
X207096Y337299D01*
Y338298D01*
X208096Y336299D02*
X210095D01*
X168700Y339298D02*
Y334300D01*
X169700Y333300D01*
X171699D01*
X172699Y334300D01*
Y339298D01*
X178697Y333300D02*
X174698D01*
X178697Y337299D01*
Y338298D01*
X177697Y339298D01*
X175698D01*
X174698Y338298D01*
X180696Y339298D02*
X184695D01*
Y338298D01*
X180696Y334300D01*
Y333300D01*
X142300Y339298D02*
Y334300D01*
X143300Y333300D01*
X145299D01*
X146299Y334300D01*
Y339298D01*
X152297Y333300D02*
X148298D01*
X152297Y337299D01*
Y338298D01*
X151297Y339298D01*
X149298D01*
X148298Y338298D01*
X158295Y339298D02*
X156296Y338298D01*
X154296Y336299D01*
Y334300D01*
X155296Y333300D01*
X157295D01*
X158295Y334300D01*
Y335299D01*
X157295Y336299D01*
X154296D01*
X116000Y339298D02*
Y334300D01*
X117000Y333300D01*
X118999D01*
X119999Y334300D01*
Y339298D01*
X125997Y333300D02*
X121998D01*
X125997Y337299D01*
Y338298D01*
X124997Y339298D01*
X122998D01*
X121998Y338298D01*
X131995Y339298D02*
X127996D01*
Y336299D01*
X129996Y337299D01*
X130995D01*
X131995Y336299D01*
Y334300D01*
X130995Y333300D01*
X128996D01*
X127996Y334300D01*
X89600Y339298D02*
Y334300D01*
X90600Y333300D01*
X92599D01*
X93599Y334300D01*
Y339298D01*
X99597Y333300D02*
X95598D01*
X99597Y337299D01*
Y338298D01*
X98597Y339298D01*
X96598D01*
X95598Y338298D01*
X104595Y333300D02*
Y339298D01*
X101596Y336299D01*
X105595D01*
X63200Y339298D02*
Y334300D01*
X64200Y333300D01*
X66199D01*
X67199Y334300D01*
Y339298D01*
X73197Y333300D02*
X69198D01*
X73197Y337299D01*
Y338298D01*
X72197Y339298D01*
X70198D01*
X69198Y338298D01*
X75196D02*
X76196Y339298D01*
X78195D01*
X79195Y338298D01*
Y337299D01*
X78195Y336299D01*
X77196D01*
X78195D01*
X79195Y335299D01*
Y334300D01*
X78195Y333300D01*
X76196D01*
X75196Y334300D01*
X36800Y339298D02*
Y334300D01*
X37800Y333300D01*
X39799D01*
X40799Y334300D01*
Y339298D01*
X46797Y333300D02*
X42798D01*
X46797Y337299D01*
Y338298D01*
X45797Y339298D01*
X43798D01*
X42798Y338298D01*
X52795Y333300D02*
X48796D01*
X52795Y337299D01*
Y338298D01*
X51795Y339298D01*
X49796D01*
X48796Y338298D01*
X11500Y339298D02*
Y334300D01*
X12500Y333300D01*
X14499D01*
X15499Y334300D01*
Y339298D01*
X21497Y333300D02*
X17498D01*
X21497Y337299D01*
Y338298D01*
X20497Y339298D01*
X18498D01*
X17498Y338298D01*
X23496Y333300D02*
X25495D01*
X24496D01*
Y339298D01*
X23496Y338298D01*
X511600Y365698D02*
Y360700D01*
X512600Y359700D01*
X514599D01*
X515599Y360700D01*
Y365698D01*
X521597Y359700D02*
X517598D01*
X521597Y363699D01*
Y364698D01*
X520597Y365698D01*
X518598D01*
X517598Y364698D01*
X523596D02*
X524596Y365698D01*
X526595D01*
X527595Y364698D01*
Y360700D01*
X526595Y359700D01*
X524596D01*
X523596Y360700D01*
Y364698D01*
X485800Y365698D02*
Y360700D01*
X486800Y359700D01*
X488799D01*
X489799Y360700D01*
Y365698D01*
X491798Y359700D02*
X493797D01*
X492798D01*
Y365698D01*
X491798Y364698D01*
X496796Y360700D02*
X497796Y359700D01*
X499795D01*
X500795Y360700D01*
Y364698D01*
X499795Y365698D01*
X497796D01*
X496796Y364698D01*
Y363699D01*
X497796Y362699D01*
X500795D01*
X459400Y365698D02*
Y360700D01*
X460400Y359700D01*
X462399D01*
X463399Y360700D01*
Y365698D01*
X465398Y359700D02*
X467397D01*
X466398D01*
Y365698D01*
X465398Y364698D01*
X470396D02*
X471396Y365698D01*
X473395D01*
X474395Y364698D01*
Y363699D01*
X473395Y362699D01*
X474395Y361699D01*
Y360700D01*
X473395Y359700D01*
X471396D01*
X470396Y360700D01*
Y361699D01*
X471396Y362699D01*
X470396Y363699D01*
Y364698D01*
X471396Y362699D02*
X473395D01*
X433000Y365698D02*
Y360700D01*
X434000Y359700D01*
X435999D01*
X436999Y360700D01*
Y365698D01*
X438998Y359700D02*
X440997D01*
X439998D01*
Y365698D01*
X438998Y364698D01*
X443996Y365698D02*
X447995D01*
Y364698D01*
X443996Y360700D01*
Y359700D01*
X406600Y365698D02*
Y360700D01*
X407600Y359700D01*
X409599D01*
X410599Y360700D01*
Y365698D01*
X412598Y359700D02*
X414597D01*
X413598D01*
Y365698D01*
X412598Y364698D01*
X421595Y365698D02*
X419596Y364698D01*
X417596Y362699D01*
Y360700D01*
X418596Y359700D01*
X420596D01*
X421595Y360700D01*
Y361699D01*
X420596Y362699D01*
X417596D01*
X380200Y365698D02*
Y360700D01*
X381200Y359700D01*
X383199D01*
X384199Y360700D01*
Y365698D01*
X386198Y359700D02*
X388197D01*
X387198D01*
Y365698D01*
X386198Y364698D01*
X395195Y365698D02*
X391196D01*
Y362699D01*
X393196Y363699D01*
X394196D01*
X395195Y362699D01*
Y360700D01*
X394196Y359700D01*
X392196D01*
X391196Y360700D01*
X353900Y365698D02*
Y360700D01*
X354900Y359700D01*
X356899D01*
X357899Y360700D01*
Y365698D01*
X359898Y359700D02*
X361897D01*
X360898D01*
Y365698D01*
X359898Y364698D01*
X367896Y359700D02*
Y365698D01*
X364896Y362699D01*
X368895D01*
X327500Y365698D02*
Y360700D01*
X328500Y359700D01*
X330499D01*
X331499Y360700D01*
Y365698D01*
X333498Y359700D02*
X335497D01*
X334498D01*
Y365698D01*
X333498Y364698D01*
X338496D02*
X339496Y365698D01*
X341495D01*
X342495Y364698D01*
Y363699D01*
X341495Y362699D01*
X340496D01*
X341495D01*
X342495Y361699D01*
Y360700D01*
X341495Y359700D01*
X339496D01*
X338496Y360700D01*
X301100Y365698D02*
Y360700D01*
X302100Y359700D01*
X304099D01*
X305099Y360700D01*
Y365698D01*
X307098Y359700D02*
X309097D01*
X308098D01*
Y365698D01*
X307098Y364698D01*
X316095Y359700D02*
X312096D01*
X316095Y363699D01*
Y364698D01*
X315095Y365698D01*
X313096D01*
X312096Y364698D01*
X275700Y365698D02*
Y360700D01*
X276700Y359700D01*
X278699D01*
X279699Y360700D01*
Y365698D01*
X281698Y359700D02*
X283697D01*
X282698D01*
Y365698D01*
X281698Y364698D01*
X286696Y359700D02*
X288696D01*
X287696D01*
Y365698D01*
X286696Y364698D01*
X248400Y365698D02*
Y360700D01*
X249400Y359700D01*
X251399D01*
X252399Y360700D01*
Y365698D01*
X254398Y359700D02*
X256397D01*
X255398D01*
Y365698D01*
X254398Y364698D01*
X259396D02*
X260396Y365698D01*
X262396D01*
X263395Y364698D01*
Y360700D01*
X262396Y359700D01*
X260396D01*
X259396Y360700D01*
Y364698D01*
X224500Y365698D02*
Y360700D01*
X225500Y359700D01*
X227499D01*
X228499Y360700D01*
Y365698D01*
X230498Y360700D02*
X231498Y359700D01*
X233497D01*
X234497Y360700D01*
Y364698D01*
X233497Y365698D01*
X231498D01*
X230498Y364698D01*
Y363699D01*
X231498Y362699D01*
X234497D01*
X198100Y365698D02*
Y360700D01*
X199100Y359700D01*
X201099D01*
X202099Y360700D01*
Y365698D01*
X204098Y364698D02*
X205098Y365698D01*
X207097D01*
X208097Y364698D01*
Y363699D01*
X207097Y362699D01*
X208097Y361699D01*
Y360700D01*
X207097Y359700D01*
X205098D01*
X204098Y360700D01*
Y361699D01*
X205098Y362699D01*
X204098Y363699D01*
Y364698D01*
X205098Y362699D02*
X207097D01*
X171700Y365698D02*
Y360700D01*
X172700Y359700D01*
X174699D01*
X175699Y360700D01*
Y365698D01*
X177698D02*
X181697D01*
Y364698D01*
X177698Y360700D01*
Y359700D01*
X145300Y365698D02*
Y360700D01*
X146300Y359700D01*
X148299D01*
X149299Y360700D01*
Y365698D01*
X155297D02*
X153297Y364698D01*
X151298Y362699D01*
Y360700D01*
X152298Y359700D01*
X154297D01*
X155297Y360700D01*
Y361699D01*
X154297Y362699D01*
X151298D01*
X119000Y365698D02*
Y360700D01*
X120000Y359700D01*
X121999D01*
X122999Y360700D01*
Y365698D01*
X128997D02*
X124998D01*
Y362699D01*
X126997Y363699D01*
X127997D01*
X128997Y362699D01*
Y360700D01*
X127997Y359700D01*
X125998D01*
X124998Y360700D01*
X92600Y365698D02*
Y360700D01*
X93600Y359700D01*
X95599D01*
X96599Y360700D01*
Y365698D01*
X101597Y359700D02*
Y365698D01*
X98598Y362699D01*
X102597D01*
X66200Y365698D02*
Y360700D01*
X67200Y359700D01*
X69199D01*
X70199Y360700D01*
Y365698D01*
X72198Y364698D02*
X73198Y365698D01*
X75197D01*
X76197Y364698D01*
Y363699D01*
X75197Y362699D01*
X74197D01*
X75197D01*
X76197Y361699D01*
Y360700D01*
X75197Y359700D01*
X73198D01*
X72198Y360700D01*
X39800Y365698D02*
Y360700D01*
X40800Y359700D01*
X42799D01*
X43799Y360700D01*
Y365698D01*
X49797Y359700D02*
X45798D01*
X49797Y363699D01*
Y364698D01*
X48797Y365698D01*
X46798D01*
X45798Y364698D01*
X14500Y365698D02*
Y360700D01*
X15500Y359700D01*
X17499D01*
X18499Y360700D01*
Y365698D01*
X20498Y359700D02*
X22497D01*
X21498D01*
Y365698D01*
X20498Y364698D01*
X100513Y69540D02*
Y75538D01*
X103513D01*
X104512Y74539D01*
Y72539D01*
X103513Y71540D01*
X100513D01*
X102513D02*
X104512Y69540D01*
X106511Y75538D02*
X110510D01*
Y74539D01*
X106511Y70540D01*
Y69540D01*
X84027D02*
Y75538D01*
X87026D01*
X88026Y74539D01*
Y72539D01*
X87026Y71540D01*
X84027D01*
X86027D02*
X88026Y69540D01*
X94024Y75538D02*
X92025Y74539D01*
X90025Y72539D01*
Y70540D01*
X91025Y69540D01*
X93024D01*
X94024Y70540D01*
Y71540D01*
X93024Y72539D01*
X90025D01*
X47991Y145398D02*
Y151396D01*
X50990D01*
X51989Y150396D01*
Y148397D01*
X50990Y147397D01*
X47991D01*
X49990D02*
X51989Y145398D01*
X57987Y151396D02*
X53989D01*
Y148397D01*
X55988Y149397D01*
X56988D01*
X57987Y148397D01*
Y146398D01*
X56988Y145398D01*
X54988D01*
X53989Y146398D01*
X47991Y105857D02*
Y111855D01*
X50990D01*
X51989Y110855D01*
Y108856D01*
X50990Y107856D01*
X47991D01*
X49990D02*
X51989Y105857D01*
X56988D02*
Y111855D01*
X53989Y108856D01*
X57987D01*
X48257Y125593D02*
Y131592D01*
X51257D01*
X52256Y130592D01*
Y128593D01*
X51257Y127593D01*
X48257D01*
X50257D02*
X52256Y125593D01*
X54256Y130592D02*
X55255Y131592D01*
X57255D01*
X58254Y130592D01*
Y129592D01*
X57255Y128593D01*
X56255D01*
X57255D01*
X58254Y127593D01*
Y126593D01*
X57255Y125593D01*
X55255D01*
X54256Y126593D01*
X47991Y115701D02*
Y121699D01*
X50990D01*
X51989Y120699D01*
Y118700D01*
X50990Y117700D01*
X47991D01*
X49990D02*
X51989Y115701D01*
X57987D02*
X53989D01*
X57987Y119700D01*
Y120699D01*
X56988Y121699D01*
X54988D01*
X53989Y120699D01*
X47991Y135510D02*
Y141508D01*
X50990D01*
X51989Y140509D01*
Y138509D01*
X50990Y137510D01*
X47991D01*
X49990D02*
X51989Y135510D01*
X53989D02*
X55988D01*
X54988D01*
Y141508D01*
X53989Y140509D01*
X461614Y146377D02*
Y150375D01*
X460614Y151375D01*
X458615D01*
X457616Y150375D01*
Y146377D01*
X458615Y145377D01*
X460614D01*
X459615Y147376D02*
X461614Y145377D01*
X460614D02*
X461614Y146377D01*
X463614Y145377D02*
X465613D01*
X464613D01*
Y151375D01*
X463614Y150375D01*
X104512Y166862D02*
X103513Y167861D01*
X101513D01*
X100513Y166862D01*
Y162863D01*
X101513Y161863D01*
X103513D01*
X104512Y162863D01*
X110510Y167861D02*
X108511Y166862D01*
X106511Y164862D01*
Y162863D01*
X107511Y161863D01*
X109511D01*
X110510Y162863D01*
Y163863D01*
X109511Y164862D01*
X106511D01*
X81431Y91025D02*
X80432Y92025D01*
X78432D01*
X77433Y91025D01*
Y87026D01*
X78432Y86027D01*
X80432D01*
X81431Y87026D01*
X87429Y92025D02*
X83431D01*
Y89026D01*
X85430Y90025D01*
X86430D01*
X87429Y89026D01*
Y87026D01*
X86430Y86027D01*
X84430D01*
X83431Y87026D01*
X114404Y91025D02*
X113404Y92025D01*
X111405D01*
X110405Y91025D01*
Y87026D01*
X111405Y86027D01*
X113404D01*
X114404Y87026D01*
X119402Y86027D02*
Y92025D01*
X116403Y89026D01*
X120402D01*
X120998Y160267D02*
X119999Y161267D01*
X117999D01*
X117000Y160267D01*
Y156268D01*
X117999Y155269D01*
X119999D01*
X120998Y156268D01*
X122998Y160267D02*
X123997Y161267D01*
X125997D01*
X126996Y160267D01*
Y159267D01*
X125997Y158268D01*
X124997D01*
X125997D01*
X126996Y157268D01*
Y156268D01*
X125997Y155269D01*
X123997D01*
X122998Y156268D01*
X411099Y104198D02*
X410099Y105198D01*
X408100D01*
X407100Y104198D01*
Y100200D01*
X408100Y99200D01*
X410099D01*
X411099Y100200D01*
X417097Y99200D02*
X413098D01*
X417097Y103199D01*
Y104198D01*
X416097Y105198D01*
X414098D01*
X413098Y104198D01*
X412802Y94308D02*
X411802Y95307D01*
X409803D01*
X408803Y94308D01*
Y90309D01*
X409803Y89309D01*
X411802D01*
X412802Y90309D01*
X414801Y89309D02*
X416800D01*
X415801D01*
Y95307D01*
X414801Y94308D01*
M02*
