G04*
G04 #@! TF.GenerationSoftware,Altium Limited,Altium Designer,20.1.14 (287)*
G04*
G04 Layer_Color=16711935*
%FSLAX25Y25*%
%MOIN*%
G70*
G04*
G04 #@! TF.SameCoordinates,FB09635C-FFB3-414F-8314-2C795C5734A7*
G04*
G04*
G04 #@! TF.FilePolarity,Positive*
G04*
G01*
G75*
%ADD44C,0.00394*%
D44*
X74852Y134843D02*
X74589Y135827D01*
X73868Y136547D01*
X72884Y136811D01*
X71900Y136547D01*
X71179Y135827D01*
X70915Y134843D01*
X71179Y133858D01*
X71900Y133138D01*
X72884Y132874D01*
X73868Y133138D01*
X74589Y133858D01*
X74852Y134843D01*
X425098Y69734D02*
Y81939D01*
X432185Y69734D02*
Y81939D01*
X425098D02*
X432185D01*
X425098Y69734D02*
X432185D01*
X379232Y9941D02*
Y29626D01*
X398917D01*
X379232Y9941D02*
X398917D01*
Y29626D01*
X352854Y9941D02*
Y29626D01*
X372539D01*
X352854Y9941D02*
X372539D01*
Y29626D01*
X326476Y9941D02*
Y29626D01*
X346161D01*
X326476Y9941D02*
X346161D01*
Y29626D01*
X300098Y9941D02*
Y29626D01*
X319783D01*
X300098Y9941D02*
X319783D01*
Y29626D01*
X273721Y9941D02*
Y29626D01*
X293406D01*
X273721Y9941D02*
X293406D01*
Y29626D01*
X247342Y9941D02*
Y29626D01*
X267028D01*
X247342Y9941D02*
X267028D01*
Y29626D01*
X220965Y9941D02*
Y29626D01*
X240650D01*
X220965Y9941D02*
X240650D01*
Y29626D01*
X194587Y9941D02*
Y29626D01*
X214272D01*
X194587Y9941D02*
X214272D01*
Y29626D01*
X168209Y9941D02*
Y29626D01*
X187894D01*
X168209Y9941D02*
X187894D01*
Y29626D01*
X141831Y9941D02*
Y29626D01*
X161516D01*
X141831Y9941D02*
X161516D01*
Y29626D01*
X379232Y36319D02*
Y56004D01*
X398917D01*
X379232Y36319D02*
X398917D01*
Y56004D01*
X352854Y36319D02*
Y56004D01*
X372539D01*
X352854Y36319D02*
X372539D01*
Y56004D01*
X326476Y36319D02*
Y56004D01*
X346161D01*
X326476Y36319D02*
X346161D01*
Y56004D01*
X300098Y36319D02*
Y56004D01*
X319783D01*
X300098Y36319D02*
X319783D01*
Y56004D01*
X273721Y36319D02*
Y56004D01*
X293406D01*
X273721Y36319D02*
X293406D01*
Y56004D01*
X247342Y36319D02*
Y56004D01*
X267028D01*
X247342Y36319D02*
X267028D01*
Y56004D01*
X220965Y36319D02*
Y56004D01*
X240650D01*
X220965Y36319D02*
X240650D01*
Y56004D01*
X194587Y36319D02*
Y56004D01*
X214272D01*
X194587Y36319D02*
X214272D01*
Y56004D01*
X168209Y36319D02*
Y56004D01*
X187894D01*
X168209Y36319D02*
X187894D01*
Y56004D01*
X141831Y36319D02*
Y56004D01*
X161516D01*
X141831Y36319D02*
X161516D01*
Y56004D01*
X379232Y62697D02*
Y82382D01*
X398917D01*
X379232Y62697D02*
X398917D01*
Y82382D01*
X352854Y62697D02*
Y82382D01*
X372539D01*
X352854Y62697D02*
X372539D01*
Y82382D01*
X326476Y62697D02*
Y82382D01*
X346161D01*
X326476Y62697D02*
X346161D01*
Y82382D01*
X300098Y62697D02*
Y82382D01*
X319783D01*
X300098Y62697D02*
X319783D01*
Y82382D01*
X273721Y62697D02*
Y82382D01*
X293406D01*
X273721Y62697D02*
X293406D01*
Y82382D01*
X247342Y62697D02*
Y82382D01*
X267028D01*
X247342Y62697D02*
X267028D01*
Y82382D01*
X220965Y62697D02*
Y82382D01*
X240650D01*
X220965Y62697D02*
X240650D01*
Y82382D01*
X194587Y62697D02*
Y82382D01*
X214272D01*
X194587Y62697D02*
X214272D01*
Y82382D01*
X168209Y62697D02*
Y82382D01*
X187894D01*
X168209Y62697D02*
X187894D01*
Y82382D01*
X141831Y62697D02*
Y82382D01*
X161516D01*
X141831Y62697D02*
X161516D01*
Y82382D01*
X379232Y89075D02*
Y108760D01*
X398917D01*
X379232Y89075D02*
X398917D01*
Y108760D01*
X352854Y89075D02*
Y108760D01*
X372539D01*
X352854Y89075D02*
X372539D01*
Y108760D01*
X326476Y89075D02*
Y108760D01*
X346161D01*
X326476Y89075D02*
X346161D01*
Y108760D01*
X300098Y89075D02*
Y108760D01*
X319783D01*
X300098Y89075D02*
X319783D01*
Y108760D01*
X273721Y89075D02*
Y108760D01*
X293406D01*
X273721Y89075D02*
X293406D01*
Y108760D01*
X247342Y89075D02*
Y108760D01*
X267028D01*
X247342Y89075D02*
X267028D01*
Y108760D01*
X220965Y89075D02*
Y108760D01*
X240650D01*
X220965Y89075D02*
X240650D01*
Y108760D01*
X194587Y89075D02*
Y108760D01*
X214272D01*
X194587Y89075D02*
X214272D01*
Y108760D01*
X168209Y89075D02*
Y108760D01*
X187894D01*
X168209Y89075D02*
X187894D01*
Y108760D01*
X141831Y89075D02*
Y108760D01*
X161516D01*
X141831Y89075D02*
X161516D01*
Y108760D01*
X379232Y115453D02*
Y135138D01*
X398917D01*
X379232Y115453D02*
X398917D01*
Y135138D01*
X352854Y115453D02*
Y135138D01*
X372539D01*
X352854Y115453D02*
X372539D01*
Y135138D01*
X326476Y115453D02*
Y135138D01*
X346161D01*
X326476Y115453D02*
X346161D01*
Y135138D01*
X300098Y115453D02*
Y135138D01*
X319783D01*
X300098Y115453D02*
X319783D01*
Y135138D01*
X273721Y115453D02*
Y135138D01*
X293406D01*
X273721Y115453D02*
X293406D01*
Y135138D01*
X247342Y115453D02*
Y135138D01*
X267028D01*
X247342Y115453D02*
X267028D01*
Y135138D01*
X220965Y115453D02*
Y135138D01*
X240650D01*
X220965Y115453D02*
X240650D01*
Y135138D01*
X194587Y115453D02*
Y135138D01*
X214272D01*
X194587Y115453D02*
X214272D01*
Y135138D01*
X168209Y115453D02*
Y135138D01*
X187894D01*
X168209Y115453D02*
X187894D01*
Y135138D01*
X141831Y115453D02*
Y135138D01*
X161516D01*
X141831Y115453D02*
X161516D01*
Y135138D01*
X379232Y141831D02*
Y161516D01*
X398917D01*
X379232Y141831D02*
X398917D01*
Y161516D01*
X352854Y141831D02*
Y161516D01*
X372539D01*
X352854Y141831D02*
X372539D01*
Y161516D01*
X326476Y141831D02*
Y161516D01*
X346161D01*
X326476Y141831D02*
X346161D01*
Y161516D01*
X300098Y141831D02*
Y161516D01*
X319783D01*
X300098Y141831D02*
X319783D01*
Y161516D01*
X273721Y141831D02*
Y161516D01*
X293406D01*
X273721Y141831D02*
X293406D01*
Y161516D01*
X247342Y141831D02*
Y161516D01*
X267028D01*
X247342Y141831D02*
X267028D01*
Y161516D01*
X220965Y141831D02*
Y161516D01*
X240650D01*
X220965Y141831D02*
X240650D01*
Y161516D01*
X194587Y141831D02*
Y161516D01*
X214272D01*
X194587Y141831D02*
X214272D01*
Y161516D01*
X168209Y141831D02*
Y161516D01*
X187894D01*
X168209Y141831D02*
X187894D01*
Y161516D01*
X141831Y141831D02*
Y161516D01*
X161516D01*
X141831Y141831D02*
X161516D01*
Y161516D01*
X511122Y168209D02*
Y187894D01*
X530807D01*
X511122Y168209D02*
X530807D01*
Y187894D01*
X484744Y168209D02*
Y187894D01*
X504429D01*
X484744Y168209D02*
X504429D01*
Y187894D01*
X458366Y168209D02*
Y187894D01*
X478051D01*
X458366Y168209D02*
X478051D01*
Y187894D01*
X431988Y168209D02*
Y187894D01*
X451673D01*
X431988Y168209D02*
X451673D01*
Y187894D01*
X405610Y168209D02*
Y187894D01*
X425295D01*
X405610Y168209D02*
X425295D01*
Y187894D01*
X379232Y168209D02*
Y187894D01*
X398917D01*
X379232Y168209D02*
X398917D01*
Y187894D01*
X352854Y168209D02*
Y187894D01*
X372539D01*
X352854Y168209D02*
X372539D01*
Y187894D01*
X326476Y168209D02*
Y187894D01*
X346161D01*
X326476Y168209D02*
X346161D01*
Y187894D01*
X300098Y168209D02*
Y187894D01*
X319783D01*
X300098Y168209D02*
X319783D01*
Y187894D01*
X273721Y168209D02*
Y187894D01*
X293406D01*
X273721Y168209D02*
X293406D01*
Y187894D01*
X247342Y168209D02*
Y187894D01*
X267028D01*
X247342Y168209D02*
X267028D01*
Y187894D01*
X220965Y168209D02*
Y187894D01*
X240650D01*
X220965Y168209D02*
X240650D01*
Y187894D01*
X194587Y168209D02*
Y187894D01*
X214272D01*
X194587Y168209D02*
X214272D01*
Y187894D01*
X168209Y168209D02*
Y187894D01*
X187894D01*
X168209Y168209D02*
X187894D01*
Y187894D01*
X141831Y168209D02*
Y187894D01*
X161516D01*
X141831Y168209D02*
X161516D01*
Y187894D01*
X115453Y168209D02*
Y187894D01*
X135138D01*
X115453Y168209D02*
X135138D01*
Y187894D01*
X89075Y168209D02*
Y187894D01*
X108760D01*
X89075Y168209D02*
X108760D01*
Y187894D01*
X62697Y168209D02*
Y187894D01*
X82382D01*
X62697Y168209D02*
X82382D01*
Y187894D01*
X36319Y168209D02*
Y187894D01*
X56004D01*
X36319Y168209D02*
X56004D01*
Y187894D01*
X9941Y168209D02*
Y187894D01*
X29626D01*
X9941Y168209D02*
X29626D01*
Y187894D01*
X511122Y194587D02*
Y214272D01*
X530807D01*
X511122Y194587D02*
X530807D01*
Y214272D01*
X484744Y194587D02*
Y214272D01*
X504429D01*
X484744Y194587D02*
X504429D01*
Y214272D01*
X458366Y194587D02*
Y214272D01*
X478051D01*
X458366Y194587D02*
X478051D01*
Y214272D01*
X431988Y194587D02*
Y214272D01*
X451673D01*
X431988Y194587D02*
X451673D01*
Y214272D01*
X405610Y194587D02*
Y214272D01*
X425295D01*
X405610Y194587D02*
X425295D01*
Y214272D01*
X379232Y194587D02*
Y214272D01*
X398917D01*
X379232Y194587D02*
X398917D01*
Y214272D01*
X352854Y194587D02*
Y214272D01*
X372539D01*
X352854Y194587D02*
X372539D01*
Y214272D01*
X326476Y194587D02*
Y214272D01*
X346161D01*
X326476Y194587D02*
X346161D01*
Y214272D01*
X300098Y194587D02*
Y214272D01*
X319783D01*
X300098Y194587D02*
X319783D01*
Y214272D01*
X273721Y194587D02*
Y214272D01*
X293406D01*
X273721Y194587D02*
X293406D01*
Y214272D01*
X247342Y194587D02*
Y214272D01*
X267028D01*
X247342Y194587D02*
X267028D01*
Y214272D01*
X220965Y194587D02*
Y214272D01*
X240650D01*
X220965Y194587D02*
X240650D01*
Y214272D01*
X194587Y194587D02*
Y214272D01*
X214272D01*
X194587Y194587D02*
X214272D01*
Y214272D01*
X168209Y194587D02*
Y214272D01*
X187894D01*
X168209Y194587D02*
X187894D01*
Y214272D01*
X141831Y194587D02*
Y214272D01*
X161516D01*
X141831Y194587D02*
X161516D01*
Y214272D01*
X115453Y194587D02*
Y214272D01*
X135138D01*
X115453Y194587D02*
X135138D01*
Y214272D01*
X89075Y194587D02*
Y214272D01*
X108760D01*
X89075Y194587D02*
X108760D01*
Y214272D01*
X62697Y194587D02*
Y214272D01*
X82382D01*
X62697Y194587D02*
X82382D01*
Y214272D01*
X36319Y194587D02*
Y214272D01*
X56004D01*
X36319Y194587D02*
X56004D01*
Y214272D01*
X9941Y194587D02*
Y214272D01*
X29626D01*
X9941Y194587D02*
X29626D01*
Y214272D01*
X511122Y220965D02*
Y240650D01*
X530807D01*
X511122Y220965D02*
X530807D01*
Y240650D01*
X484744Y220965D02*
Y240650D01*
X504429D01*
X484744Y220965D02*
X504429D01*
Y240650D01*
X458366Y220965D02*
Y240650D01*
X478051D01*
X458366Y220965D02*
X478051D01*
Y240650D01*
X431988Y220965D02*
Y240650D01*
X451673D01*
X431988Y220965D02*
X451673D01*
Y240650D01*
X405610Y220965D02*
Y240650D01*
X425295D01*
X405610Y220965D02*
X425295D01*
Y240650D01*
X379232Y220965D02*
Y240650D01*
X398917D01*
X379232Y220965D02*
X398917D01*
Y240650D01*
X352854Y220965D02*
Y240650D01*
X372539D01*
X352854Y220965D02*
X372539D01*
Y240650D01*
X326476Y220965D02*
Y240650D01*
X346161D01*
X326476Y220965D02*
X346161D01*
Y240650D01*
X300098Y220965D02*
Y240650D01*
X319783D01*
X300098Y220965D02*
X319783D01*
Y240650D01*
X273721Y220965D02*
Y240650D01*
X293406D01*
X273721Y220965D02*
X293406D01*
Y240650D01*
X247342Y220965D02*
Y240650D01*
X267028D01*
X247342Y220965D02*
X267028D01*
Y240650D01*
X220965Y220965D02*
Y240650D01*
X240650D01*
X220965Y220965D02*
X240650D01*
Y240650D01*
X194587Y220965D02*
Y240650D01*
X214272D01*
X194587Y220965D02*
X214272D01*
Y240650D01*
X168209Y220965D02*
Y240650D01*
X187894D01*
X168209Y220965D02*
X187894D01*
Y240650D01*
X141831Y220965D02*
Y240650D01*
X161516D01*
X141831Y220965D02*
X161516D01*
Y240650D01*
X115453Y220965D02*
Y240650D01*
X135138D01*
X115453Y220965D02*
X135138D01*
Y240650D01*
X89075Y220965D02*
Y240650D01*
X108760D01*
X89075Y220965D02*
X108760D01*
Y240650D01*
X62697Y220965D02*
Y240650D01*
X82382D01*
X62697Y220965D02*
X82382D01*
Y240650D01*
X36319Y220965D02*
Y240650D01*
X56004D01*
X36319Y220965D02*
X56004D01*
Y240650D01*
X9941Y220965D02*
Y240650D01*
X29626D01*
X9941Y220965D02*
X29626D01*
Y240650D01*
X511122Y247342D02*
Y267028D01*
X530807D01*
X511122Y247342D02*
X530807D01*
Y267028D01*
X484744Y247342D02*
Y267028D01*
X504429D01*
X484744Y247342D02*
X504429D01*
Y267028D01*
X458366Y247342D02*
Y267028D01*
X478051D01*
X458366Y247342D02*
X478051D01*
Y267028D01*
X431988Y247342D02*
Y267028D01*
X451673D01*
X431988Y247342D02*
X451673D01*
Y267028D01*
X405610Y247342D02*
Y267028D01*
X425295D01*
X405610Y247342D02*
X425295D01*
Y267028D01*
X379232Y247342D02*
Y267028D01*
X398917D01*
X379232Y247342D02*
X398917D01*
Y267028D01*
X352854Y247342D02*
Y267028D01*
X372539D01*
X352854Y247342D02*
X372539D01*
Y267028D01*
X326476Y247342D02*
Y267028D01*
X346161D01*
X326476Y247342D02*
X346161D01*
Y267028D01*
X300098Y247342D02*
Y267028D01*
X319783D01*
X300098Y247342D02*
X319783D01*
Y267028D01*
X273721Y247342D02*
Y267028D01*
X293406D01*
X273721Y247342D02*
X293406D01*
Y267028D01*
X247342Y247342D02*
Y267028D01*
X267028D01*
X247342Y247342D02*
X267028D01*
Y267028D01*
X220965Y247342D02*
Y267028D01*
X240650D01*
X220965Y247342D02*
X240650D01*
Y267028D01*
X194587Y247342D02*
Y267028D01*
X214272D01*
X194587Y247342D02*
X214272D01*
Y267028D01*
X168209Y247342D02*
Y267028D01*
X187894D01*
X168209Y247342D02*
X187894D01*
Y267028D01*
X141831Y247342D02*
Y267028D01*
X161516D01*
X141831Y247342D02*
X161516D01*
Y267028D01*
X115453Y247342D02*
Y267028D01*
X135138D01*
X115453Y247342D02*
X135138D01*
Y267028D01*
X89075Y247342D02*
Y267028D01*
X108760D01*
X89075Y247342D02*
X108760D01*
Y267028D01*
X62697Y247342D02*
Y267028D01*
X82382D01*
X62697Y247342D02*
X82382D01*
Y267028D01*
X36319Y247342D02*
Y267028D01*
X56004D01*
X36319Y247342D02*
X56004D01*
Y267028D01*
X9941Y247342D02*
Y267028D01*
X29626D01*
X9941Y247342D02*
X29626D01*
Y267028D01*
X511122Y273721D02*
Y293406D01*
X530807D01*
X511122Y273721D02*
X530807D01*
Y293406D01*
X484744Y273721D02*
Y293406D01*
X504429D01*
X484744Y273721D02*
X504429D01*
Y293406D01*
X458366Y273721D02*
Y293406D01*
X478051D01*
X458366Y273721D02*
X478051D01*
Y293406D01*
X431988Y273721D02*
Y293406D01*
X451673D01*
X431988Y273721D02*
X451673D01*
Y293406D01*
X405610Y273721D02*
Y293406D01*
X425295D01*
X405610Y273721D02*
X425295D01*
Y293406D01*
X379232Y273721D02*
Y293406D01*
X398917D01*
X379232Y273721D02*
X398917D01*
Y293406D01*
X352854Y273721D02*
Y293406D01*
X372539D01*
X352854Y273721D02*
X372539D01*
Y293406D01*
X326476Y273721D02*
Y293406D01*
X346161D01*
X326476Y273721D02*
X346161D01*
Y293406D01*
X300098Y273721D02*
Y293406D01*
X319783D01*
X300098Y273721D02*
X319783D01*
Y293406D01*
X273721Y273721D02*
Y293406D01*
X293406D01*
X273721Y273721D02*
X293406D01*
Y293406D01*
X247342Y273721D02*
Y293406D01*
X267028D01*
X247342Y273721D02*
X267028D01*
Y293406D01*
X220965Y273721D02*
Y293406D01*
X240650D01*
X220965Y273721D02*
X240650D01*
Y293406D01*
X194587Y273721D02*
Y293406D01*
X214272D01*
X194587Y273721D02*
X214272D01*
Y293406D01*
X168209Y273721D02*
Y293406D01*
X187894D01*
X168209Y273721D02*
X187894D01*
Y293406D01*
X141831Y273721D02*
Y293406D01*
X161516D01*
X141831Y273721D02*
X161516D01*
Y293406D01*
X115453Y273721D02*
Y293406D01*
X135138D01*
X115453Y273721D02*
X135138D01*
Y293406D01*
X89075Y273721D02*
Y293406D01*
X108760D01*
X89075Y273721D02*
X108760D01*
Y293406D01*
X62697Y273721D02*
Y293406D01*
X82382D01*
X62697Y273721D02*
X82382D01*
Y293406D01*
X36319Y273721D02*
Y293406D01*
X56004D01*
X36319Y273721D02*
X56004D01*
Y293406D01*
X9941Y273721D02*
Y293406D01*
X29626D01*
X9941Y273721D02*
X29626D01*
Y293406D01*
X511122Y300098D02*
Y319783D01*
X530807D01*
X511122Y300098D02*
X530807D01*
Y319783D01*
X484744Y300098D02*
Y319783D01*
X504429D01*
X484744Y300098D02*
X504429D01*
Y319783D01*
X458366Y300098D02*
Y319783D01*
X478051D01*
X458366Y300098D02*
X478051D01*
Y319783D01*
X431988Y300098D02*
Y319783D01*
X451673D01*
X431988Y300098D02*
X451673D01*
Y319783D01*
X405610Y300098D02*
Y319783D01*
X425295D01*
X405610Y300098D02*
X425295D01*
Y319783D01*
X379232Y300098D02*
Y319783D01*
X398917D01*
X379232Y300098D02*
X398917D01*
Y319783D01*
X352854Y300098D02*
Y319783D01*
X372539D01*
X352854Y300098D02*
X372539D01*
Y319783D01*
X326476Y300098D02*
Y319783D01*
X346161D01*
X326476Y300098D02*
X346161D01*
Y319783D01*
X300098Y300098D02*
Y319783D01*
X319783D01*
X300098Y300098D02*
X319783D01*
Y319783D01*
X273721Y300098D02*
Y319783D01*
X293406D01*
X273721Y300098D02*
X293406D01*
Y319783D01*
X247342Y300098D02*
Y319783D01*
X267028D01*
X247342Y300098D02*
X267028D01*
Y319783D01*
X220965Y300098D02*
Y319783D01*
X240650D01*
X220965Y300098D02*
X240650D01*
Y319783D01*
X194587Y300098D02*
Y319783D01*
X214272D01*
X194587Y300098D02*
X214272D01*
Y319783D01*
X168209Y300098D02*
Y319783D01*
X187894D01*
X168209Y300098D02*
X187894D01*
Y319783D01*
X141831Y300098D02*
Y319783D01*
X161516D01*
X141831Y300098D02*
X161516D01*
Y319783D01*
X115453Y300098D02*
Y319783D01*
X135138D01*
X115453Y300098D02*
X135138D01*
Y319783D01*
X89075Y300098D02*
Y319783D01*
X108760D01*
X89075Y300098D02*
X108760D01*
Y319783D01*
X62697Y300098D02*
Y319783D01*
X82382D01*
X62697Y300098D02*
X82382D01*
Y319783D01*
X36319Y300098D02*
Y319783D01*
X56004D01*
X36319Y300098D02*
X56004D01*
Y319783D01*
X9941Y300098D02*
Y319783D01*
X29626D01*
X9941Y300098D02*
X29626D01*
Y319783D01*
X511122Y326476D02*
Y346161D01*
X530807D01*
X511122Y326476D02*
X530807D01*
Y346161D01*
X484744Y326476D02*
Y346161D01*
X504429D01*
X484744Y326476D02*
X504429D01*
Y346161D01*
X458366Y326476D02*
Y346161D01*
X478051D01*
X458366Y326476D02*
X478051D01*
Y346161D01*
X431988Y326476D02*
Y346161D01*
X451673D01*
X431988Y326476D02*
X451673D01*
Y346161D01*
X405610Y326476D02*
Y346161D01*
X425295D01*
X405610Y326476D02*
X425295D01*
Y346161D01*
X379232Y326476D02*
Y346161D01*
X398917D01*
X379232Y326476D02*
X398917D01*
Y346161D01*
X352854Y326476D02*
Y346161D01*
X372539D01*
X352854Y326476D02*
X372539D01*
Y346161D01*
X326476Y326476D02*
Y346161D01*
X346161D01*
X326476Y326476D02*
X346161D01*
Y346161D01*
X300098Y326476D02*
Y346161D01*
X319783D01*
X300098Y326476D02*
X319783D01*
Y346161D01*
X273721Y326476D02*
Y346161D01*
X293406D01*
X273721Y326476D02*
X293406D01*
Y346161D01*
X247342Y326476D02*
Y346161D01*
X267028D01*
X247342Y326476D02*
X267028D01*
Y346161D01*
X220965Y326476D02*
Y346161D01*
X240650D01*
X220965Y326476D02*
X240650D01*
Y346161D01*
X194587Y326476D02*
Y346161D01*
X214272D01*
X194587Y326476D02*
X214272D01*
Y346161D01*
X168209Y326476D02*
Y346161D01*
X187894D01*
X168209Y326476D02*
X187894D01*
Y346161D01*
X141831Y326476D02*
Y346161D01*
X161516D01*
X141831Y326476D02*
X161516D01*
Y346161D01*
X115453Y326476D02*
Y346161D01*
X135138D01*
X115453Y326476D02*
X135138D01*
Y346161D01*
X89075Y326476D02*
Y346161D01*
X108760D01*
X89075Y326476D02*
X108760D01*
Y346161D01*
X62697Y326476D02*
Y346161D01*
X82382D01*
X62697Y326476D02*
X82382D01*
Y346161D01*
X36319Y326476D02*
Y346161D01*
X56004D01*
X36319Y326476D02*
X56004D01*
Y346161D01*
X9941Y326476D02*
Y346161D01*
X29626D01*
X9941Y326476D02*
X29626D01*
Y346161D01*
X511122Y352854D02*
Y372539D01*
X530807D01*
X511122Y352854D02*
X530807D01*
Y372539D01*
X484744Y352854D02*
Y372539D01*
X504429D01*
X484744Y352854D02*
X504429D01*
Y372539D01*
X458366Y352854D02*
Y372539D01*
X478051D01*
X458366Y352854D02*
X478051D01*
Y372539D01*
X431988Y352854D02*
Y372539D01*
X451673D01*
X431988Y352854D02*
X451673D01*
Y372539D01*
X405610Y352854D02*
Y372539D01*
X425295D01*
X405610Y352854D02*
X425295D01*
Y372539D01*
X379232Y352854D02*
Y372539D01*
X398917D01*
X379232Y352854D02*
X398917D01*
Y372539D01*
X352854Y352854D02*
Y372539D01*
X372539D01*
X352854Y352854D02*
X372539D01*
Y372539D01*
X326476Y352854D02*
Y372539D01*
X346161D01*
X326476Y352854D02*
X346161D01*
Y372539D01*
X300098Y352854D02*
Y372539D01*
X319783D01*
X300098Y352854D02*
X319783D01*
Y372539D01*
X273721Y352854D02*
Y372539D01*
X293406D01*
X273721Y352854D02*
X293406D01*
Y372539D01*
X247342Y352854D02*
Y372539D01*
X267028D01*
X247342Y352854D02*
X267028D01*
Y372539D01*
X220965Y352854D02*
Y372539D01*
X240650D01*
X220965Y352854D02*
X240650D01*
Y372539D01*
X194587Y352854D02*
Y372539D01*
X214272D01*
X194587Y352854D02*
X214272D01*
Y372539D01*
X168209Y352854D02*
Y372539D01*
X187894D01*
X168209Y352854D02*
X187894D01*
Y372539D01*
X141831Y352854D02*
Y372539D01*
X161516D01*
X141831Y352854D02*
X161516D01*
Y372539D01*
X115453Y352854D02*
Y372539D01*
X135138D01*
X115453Y352854D02*
X135138D01*
Y372539D01*
X89075Y352854D02*
Y372539D01*
X108760D01*
X89075Y352854D02*
X108760D01*
Y372539D01*
X62697Y352854D02*
Y372539D01*
X82382D01*
X62697Y352854D02*
X82382D01*
Y372539D01*
X36319Y352854D02*
Y372539D01*
X56004D01*
X36319Y352854D02*
X56004D01*
Y372539D01*
X9941Y352854D02*
Y372539D01*
X29626D01*
X9941Y352854D02*
X29626D01*
Y372539D01*
X43413Y126821D02*
Y130364D01*
X36720Y126821D02*
Y130364D01*
Y126821D02*
X43413D01*
X36720Y130364D02*
X43413D01*
X36720Y146604D02*
X43413D01*
X36720Y150148D02*
X43413D01*
Y146604D02*
Y150148D01*
X36720Y146604D02*
Y150148D01*
Y136713D02*
X43413D01*
X36720Y140256D02*
X43413D01*
Y136713D02*
Y140256D01*
X36720Y136713D02*
Y140256D01*
Y107037D02*
X43413D01*
X36720Y110581D02*
X43413D01*
Y107037D02*
Y110581D01*
X36720Y107037D02*
Y110581D01*
Y116929D02*
X43413D01*
X36720Y120472D02*
X43413D01*
Y116929D02*
Y120472D01*
X36720Y116929D02*
Y120472D01*
X69340Y99016D02*
Y138386D01*
X108711Y99016D02*
Y138386D01*
X69340D02*
X108711D01*
X69340Y99016D02*
X108711D01*
X101181Y152116D02*
Y157825D01*
X109843Y152116D02*
Y157825D01*
X101181D02*
X109843D01*
X101181Y152116D02*
X109843D01*
X118898Y80660D02*
Y84203D01*
X112205Y80660D02*
Y84203D01*
Y80660D02*
X118898D01*
X112205Y84203D02*
X118898D01*
X120965Y142224D02*
Y147933D01*
X129626Y142224D02*
Y147933D01*
X120965D02*
X129626D01*
X120965Y142224D02*
X129626D01*
X118701Y64173D02*
Y67716D01*
X125394Y64173D02*
Y67716D01*
X118701D02*
X125394D01*
X118701Y64173D02*
X125394D01*
X102165D02*
Y67716D01*
X108858Y64173D02*
Y67716D01*
X102165D02*
X108858D01*
X102165Y64173D02*
X108858D01*
X85679D02*
Y67716D01*
X92372Y64173D02*
Y67716D01*
X85679D02*
X92372D01*
X85679Y64173D02*
X92372D01*
X432972Y99360D02*
Y105069D01*
X424311Y99360D02*
Y105069D01*
Y99360D02*
X432972D01*
X424311Y105069D02*
X432972D01*
X424311Y89468D02*
Y95177D01*
X432972Y89468D02*
Y95177D01*
X424311D02*
X432972D01*
X424311Y89468D02*
X432972D01*
X79085Y80660D02*
Y84203D01*
X85777Y80660D02*
Y84203D01*
X79085D02*
X85777D01*
X79085Y80660D02*
X85777D01*
X462106Y111860D02*
Y118947D01*
X474311Y111860D02*
Y118947D01*
X462106Y111860D02*
X474311D01*
X462106Y118947D02*
X474311D01*
X448179Y124803D02*
X455266D01*
X448179Y112598D02*
X455266D01*
X448179D02*
Y124803D01*
X455266Y112598D02*
Y124803D01*
X459498Y128642D02*
X466585D01*
X459498Y140847D02*
X466585D01*
Y128642D02*
Y140847D01*
X459498Y128642D02*
Y140847D01*
M02*
