M48
;Layer_Color=9474304
;FILE_FORMAT=2:4
INCH,TZ
;TYPE=PLATED
T1F00S00C0.0079
T2F00S00C0.0197
T3F00S00C0.0276
T4F00S00C0.0280
T5F00S00C0.0354
T6F00S00C0.0394
;TYPE=NON_PLATED
T8F00S00C0.0454
%
T01
X8903Y12530
Y12859
X11343Y14376
X12557Y11947
X12303Y11580
X12859Y11510
X13189Y11211
Y11870
X13160Y12317
X6924Y15827
T02
X8573Y5935
X8243Y10551
X7584Y12200
X7913Y13189
X9562Y12859
X10221Y12200
Y10881
X11211Y9232
X15167Y8573
Y9892
Y11211
Y12530
Y13848
X11870Y15497
X2308Y14838
Y13848
X2638Y13189
X1649Y14178
X989Y14508
X15167Y7254
Y5935
Y4616
Y3297
Y1978
X17805Y3297
X19124
X20443
X23081
X24400
X25719
X28356
X29675
X30994
Y5935
X28356
X25719
X23081
X20443
X17805
Y8573
X19124
X20443
X23081
X24400
X25719
X28356
X29675
X30994
Y11211
X28356
X25719
Y13848
X24400
X23081
Y11211
X20443
X17805
Y13848
X19124
X20443
X28356
X29675
X30994
X33632
X34951
X36270
Y11211
Y8573
X34951
X33632
Y11211
Y5935
Y3297
X34951
X36270
X38907
Y5935
X36270
X38907Y8573
X38907Y9892
X38907Y11211
Y13848
X45172Y13519
X44843Y12859
X45172Y14508
X46491Y12530
X45932Y11035
X41216Y8243
Y7254
X42205Y6594
X47480Y12530
X49459Y19124
X50778
X52096
Y21762
Y24400
X50778
X49459
Y21762
Y27037
Y29675
X50778
X52096
Y27037
X46821Y26378
Y29016
X44183
Y26378
X41545
X38907
X36270
Y29016
X38907
X41545
Y23740
Y21102
X38907
X36270
Y23740
X38907
X44183
Y21102
Y18465
X46821
Y16486
Y21102
Y23740
X33632
Y21102
X33632Y16486
X36270
X38907
X33632Y26378
Y29016
X30994
Y26378
Y23740
Y21102
X28356Y21762
X27037
X25719
Y19124
X27037
X28356
X28356Y16486
X30994
X25719
X23081
X20443
X17805
X17805Y21102
X20443
Y23740
X17805
Y26378
X20443
Y29016
X17805
X23081
Y26378
Y23740
Y21102
X25719Y24400
X27037
X28356
Y27037
X27037
X25719
Y29675
X27037
X28356
X15167Y29016
Y26378
X12530
Y29016
X9892
Y26378
X7254
Y29016
X4616Y29675
X1978
Y30994
Y28356
Y27037
Y25719
Y24400
Y23081
Y21762
X3297
X4616
Y24400
Y27037
X3297Y27037
X7254Y23740
Y21102
Y18465
X9892
Y21102
Y23740
X12530
Y21102
Y18465
X15167Y16486
Y21102
Y23740
X4616Y19124
Y16486
X1978Y17805
Y19124
X1649Y20443
X1978Y32313
X3297
X4616
Y34951
X1978
Y33632
Y36270
Y36929
X7254Y34291
X9892
Y31654
X7254
X12530
X15167
Y34291
X12530
X17805
X20443
Y31654
X17805
X23081
Y34291
X25719Y34951
X27037
X28356
Y36929
X25719
Y32313
X27037
X28356
X30994Y31654
Y34291
X33632
Y31654
X36270
X38907
X41545
X44183
X46821
Y34291
X44183
X41545
X38907
X36270
X49459Y34951
X50778
X52096
Y32313
X49459
T03
X10540Y4946
X11040
X11540
X12040
X12540
Y5446
X12040
X11540
X11040
X10540
T04
X38907Y4616
Y7254
Y12530
Y15167
X52096Y20443
Y25719
Y30994
Y36270
T05
X41534Y12530
Y13530
Y14530
Y15530
X42534
Y14530
Y13530
Y12530
T06
X46033Y9232
X46821
T08
X12530Y2638
X41875Y3957
X52096Y14838
M30
