G04*
G04 #@! TF.GenerationSoftware,Altium Limited,Altium Designer,20.1.14 (287)*
G04*
G04 Layer_Color=8388736*
%FSLAX25Y25*%
%MOIN*%
G70*
G04*
G04 #@! TF.SameCoordinates,FB09635C-FFB3-414F-8314-2C795C5734A7*
G04*
G04*
G04 #@! TF.FilePolarity,Negative*
G04*
G01*
G75*
%ADD23R,0.04362X0.03378*%
%ADD24R,0.06724X0.04362*%
%ADD25R,0.05347X0.04756*%
%ADD26O,0.07118X0.02197*%
%ADD27O,0.02197X0.07118*%
%ADD28R,0.06528X0.06921*%
%ADD29R,0.05937X0.04953*%
%ADD30R,0.03969X0.03969*%
%ADD31R,0.03969X0.03969*%
%ADD32C,0.04606*%
%ADD33R,0.06724X0.06724*%
%ADD34C,0.06724*%
%ADD35O,1.77984X0.05740*%
%ADD36C,0.05701*%
%ADD37R,0.06724X0.06724*%
%ADD38C,0.02591*%
%ADD39C,0.04756*%
%ADD40C,0.05102*%
%ADD41C,0.05819*%
D23*
X423917Y79577D02*
D03*
Y75837D02*
D03*
Y72097D02*
D03*
X433366D02*
D03*
Y79577D02*
D03*
D24*
X379429Y26280D02*
D03*
Y13287D02*
D03*
X398721D02*
D03*
Y26280D02*
D03*
X353051D02*
D03*
Y13287D02*
D03*
X372342D02*
D03*
Y26280D02*
D03*
X326673D02*
D03*
Y13287D02*
D03*
X345965D02*
D03*
Y26280D02*
D03*
X300295D02*
D03*
Y13287D02*
D03*
X319587D02*
D03*
Y26280D02*
D03*
X273917D02*
D03*
Y13287D02*
D03*
X293209D02*
D03*
Y26280D02*
D03*
X247539D02*
D03*
Y13287D02*
D03*
X266831D02*
D03*
Y26280D02*
D03*
X221161D02*
D03*
Y13287D02*
D03*
X240453D02*
D03*
Y26280D02*
D03*
X194783D02*
D03*
Y13287D02*
D03*
X214075D02*
D03*
Y26280D02*
D03*
X168405D02*
D03*
Y13287D02*
D03*
X187697D02*
D03*
Y26280D02*
D03*
X142028D02*
D03*
Y13287D02*
D03*
X161319D02*
D03*
Y26280D02*
D03*
X379429Y52658D02*
D03*
Y39665D02*
D03*
X398721D02*
D03*
Y52658D02*
D03*
X353051D02*
D03*
Y39665D02*
D03*
X372342D02*
D03*
Y52658D02*
D03*
X326673D02*
D03*
Y39665D02*
D03*
X345965D02*
D03*
Y52658D02*
D03*
X300295D02*
D03*
Y39665D02*
D03*
X319587D02*
D03*
Y52658D02*
D03*
X273917D02*
D03*
Y39665D02*
D03*
X293209D02*
D03*
Y52658D02*
D03*
X247539D02*
D03*
Y39665D02*
D03*
X266831D02*
D03*
Y52658D02*
D03*
X221161D02*
D03*
Y39665D02*
D03*
X240453D02*
D03*
Y52658D02*
D03*
X194783D02*
D03*
Y39665D02*
D03*
X214075D02*
D03*
Y52658D02*
D03*
X168405D02*
D03*
Y39665D02*
D03*
X187697D02*
D03*
Y52658D02*
D03*
X142028D02*
D03*
Y39665D02*
D03*
X161319D02*
D03*
Y52658D02*
D03*
X379429Y79035D02*
D03*
Y66043D02*
D03*
X398721D02*
D03*
Y79035D02*
D03*
X353051D02*
D03*
Y66043D02*
D03*
X372342D02*
D03*
Y79035D02*
D03*
X326673D02*
D03*
Y66043D02*
D03*
X345965D02*
D03*
Y79035D02*
D03*
X300295D02*
D03*
Y66043D02*
D03*
X319587D02*
D03*
Y79035D02*
D03*
X273917D02*
D03*
Y66043D02*
D03*
X293209D02*
D03*
Y79035D02*
D03*
X247539D02*
D03*
Y66043D02*
D03*
X266831D02*
D03*
Y79035D02*
D03*
X221161D02*
D03*
Y66043D02*
D03*
X240453D02*
D03*
Y79035D02*
D03*
X194783D02*
D03*
Y66043D02*
D03*
X214075D02*
D03*
Y79035D02*
D03*
X168405D02*
D03*
Y66043D02*
D03*
X187697D02*
D03*
Y79035D02*
D03*
X142028D02*
D03*
Y66043D02*
D03*
X161319D02*
D03*
Y79035D02*
D03*
X379429Y105413D02*
D03*
Y92421D02*
D03*
X398721D02*
D03*
Y105413D02*
D03*
X353051D02*
D03*
Y92421D02*
D03*
X372342D02*
D03*
Y105413D02*
D03*
X326673D02*
D03*
Y92421D02*
D03*
X345965D02*
D03*
Y105413D02*
D03*
X300295D02*
D03*
Y92421D02*
D03*
X319587D02*
D03*
Y105413D02*
D03*
X273917D02*
D03*
Y92421D02*
D03*
X293209D02*
D03*
Y105413D02*
D03*
X247539D02*
D03*
Y92421D02*
D03*
X266831D02*
D03*
Y105413D02*
D03*
X221161D02*
D03*
Y92421D02*
D03*
X240453D02*
D03*
Y105413D02*
D03*
X194783D02*
D03*
Y92421D02*
D03*
X214075D02*
D03*
Y105413D02*
D03*
X168405D02*
D03*
Y92421D02*
D03*
X187697D02*
D03*
Y105413D02*
D03*
X142028D02*
D03*
Y92421D02*
D03*
X161319D02*
D03*
Y105413D02*
D03*
X379429Y131791D02*
D03*
Y118799D02*
D03*
X398721D02*
D03*
Y131791D02*
D03*
X353051D02*
D03*
Y118799D02*
D03*
X372342D02*
D03*
Y131791D02*
D03*
X326673D02*
D03*
Y118799D02*
D03*
X345965D02*
D03*
Y131791D02*
D03*
X300295D02*
D03*
Y118799D02*
D03*
X319587D02*
D03*
Y131791D02*
D03*
X273917D02*
D03*
Y118799D02*
D03*
X293209D02*
D03*
Y131791D02*
D03*
X247539D02*
D03*
Y118799D02*
D03*
X266831D02*
D03*
Y131791D02*
D03*
X221161D02*
D03*
Y118799D02*
D03*
X240453D02*
D03*
Y131791D02*
D03*
X194783D02*
D03*
Y118799D02*
D03*
X214075D02*
D03*
Y131791D02*
D03*
X168405D02*
D03*
Y118799D02*
D03*
X187697D02*
D03*
Y131791D02*
D03*
X142028D02*
D03*
Y118799D02*
D03*
X161319D02*
D03*
Y131791D02*
D03*
X379429Y158169D02*
D03*
Y145177D02*
D03*
X398721D02*
D03*
Y158169D02*
D03*
X353051D02*
D03*
Y145177D02*
D03*
X372342D02*
D03*
Y158169D02*
D03*
X326673D02*
D03*
Y145177D02*
D03*
X345965D02*
D03*
Y158169D02*
D03*
X300295D02*
D03*
Y145177D02*
D03*
X319587D02*
D03*
Y158169D02*
D03*
X273917D02*
D03*
Y145177D02*
D03*
X293209D02*
D03*
Y158169D02*
D03*
X247539D02*
D03*
Y145177D02*
D03*
X266831D02*
D03*
Y158169D02*
D03*
X221161D02*
D03*
Y145177D02*
D03*
X240453D02*
D03*
Y158169D02*
D03*
X194783D02*
D03*
Y145177D02*
D03*
X214075D02*
D03*
Y158169D02*
D03*
X168405D02*
D03*
Y145177D02*
D03*
X187697D02*
D03*
Y158169D02*
D03*
X142028D02*
D03*
Y145177D02*
D03*
X161319D02*
D03*
Y158169D02*
D03*
X511319Y184547D02*
D03*
Y171555D02*
D03*
X530610D02*
D03*
Y184547D02*
D03*
X484941D02*
D03*
Y171555D02*
D03*
X504232D02*
D03*
Y184547D02*
D03*
X458563D02*
D03*
Y171555D02*
D03*
X477854D02*
D03*
Y184547D02*
D03*
X432185D02*
D03*
Y171555D02*
D03*
X451476D02*
D03*
Y184547D02*
D03*
X405807D02*
D03*
Y171555D02*
D03*
X425098D02*
D03*
Y184547D02*
D03*
X379429D02*
D03*
Y171555D02*
D03*
X398721D02*
D03*
Y184547D02*
D03*
X353051D02*
D03*
Y171555D02*
D03*
X372342D02*
D03*
Y184547D02*
D03*
X326673D02*
D03*
Y171555D02*
D03*
X345965D02*
D03*
Y184547D02*
D03*
X300295D02*
D03*
Y171555D02*
D03*
X319587D02*
D03*
Y184547D02*
D03*
X273917D02*
D03*
Y171555D02*
D03*
X293209D02*
D03*
Y184547D02*
D03*
X247539D02*
D03*
Y171555D02*
D03*
X266831D02*
D03*
Y184547D02*
D03*
X221161D02*
D03*
Y171555D02*
D03*
X240453D02*
D03*
Y184547D02*
D03*
X194783D02*
D03*
Y171555D02*
D03*
X214075D02*
D03*
Y184547D02*
D03*
X168405D02*
D03*
Y171555D02*
D03*
X187697D02*
D03*
Y184547D02*
D03*
X142028D02*
D03*
Y171555D02*
D03*
X161319D02*
D03*
Y184547D02*
D03*
X115650D02*
D03*
Y171555D02*
D03*
X134941D02*
D03*
Y184547D02*
D03*
X89272D02*
D03*
Y171555D02*
D03*
X108563D02*
D03*
Y184547D02*
D03*
X62894D02*
D03*
Y171555D02*
D03*
X82185D02*
D03*
Y184547D02*
D03*
X36516D02*
D03*
Y171555D02*
D03*
X55807D02*
D03*
Y184547D02*
D03*
X10138D02*
D03*
Y171555D02*
D03*
X29429D02*
D03*
Y184547D02*
D03*
X511319Y210925D02*
D03*
Y197933D02*
D03*
X530610D02*
D03*
Y210925D02*
D03*
X484941D02*
D03*
Y197933D02*
D03*
X504232D02*
D03*
Y210925D02*
D03*
X458563D02*
D03*
Y197933D02*
D03*
X477854D02*
D03*
Y210925D02*
D03*
X432185D02*
D03*
Y197933D02*
D03*
X451476D02*
D03*
Y210925D02*
D03*
X405807D02*
D03*
Y197933D02*
D03*
X425098D02*
D03*
Y210925D02*
D03*
X379429D02*
D03*
Y197933D02*
D03*
X398721D02*
D03*
Y210925D02*
D03*
X353051D02*
D03*
Y197933D02*
D03*
X372342D02*
D03*
Y210925D02*
D03*
X326673D02*
D03*
Y197933D02*
D03*
X345965D02*
D03*
Y210925D02*
D03*
X300295D02*
D03*
Y197933D02*
D03*
X319587D02*
D03*
Y210925D02*
D03*
X273917D02*
D03*
Y197933D02*
D03*
X293209D02*
D03*
Y210925D02*
D03*
X247539D02*
D03*
Y197933D02*
D03*
X266831D02*
D03*
Y210925D02*
D03*
X221161D02*
D03*
Y197933D02*
D03*
X240453D02*
D03*
Y210925D02*
D03*
X194783D02*
D03*
Y197933D02*
D03*
X214075D02*
D03*
Y210925D02*
D03*
X168405D02*
D03*
Y197933D02*
D03*
X187697D02*
D03*
Y210925D02*
D03*
X142028D02*
D03*
Y197933D02*
D03*
X161319D02*
D03*
Y210925D02*
D03*
X115650D02*
D03*
Y197933D02*
D03*
X134941D02*
D03*
Y210925D02*
D03*
X89272D02*
D03*
Y197933D02*
D03*
X108563D02*
D03*
Y210925D02*
D03*
X62894D02*
D03*
Y197933D02*
D03*
X82185D02*
D03*
Y210925D02*
D03*
X36516D02*
D03*
Y197933D02*
D03*
X55807D02*
D03*
Y210925D02*
D03*
X10138D02*
D03*
Y197933D02*
D03*
X29429D02*
D03*
Y210925D02*
D03*
X511319Y237303D02*
D03*
Y224311D02*
D03*
X530610D02*
D03*
Y237303D02*
D03*
X484941D02*
D03*
Y224311D02*
D03*
X504232D02*
D03*
Y237303D02*
D03*
X458563D02*
D03*
Y224311D02*
D03*
X477854D02*
D03*
Y237303D02*
D03*
X432185D02*
D03*
Y224311D02*
D03*
X451476D02*
D03*
Y237303D02*
D03*
X405807D02*
D03*
Y224311D02*
D03*
X425098D02*
D03*
Y237303D02*
D03*
X379429D02*
D03*
Y224311D02*
D03*
X398721D02*
D03*
Y237303D02*
D03*
X353051D02*
D03*
Y224311D02*
D03*
X372342D02*
D03*
Y237303D02*
D03*
X326673D02*
D03*
Y224311D02*
D03*
X345965D02*
D03*
Y237303D02*
D03*
X300295D02*
D03*
Y224311D02*
D03*
X319587D02*
D03*
Y237303D02*
D03*
X273917D02*
D03*
Y224311D02*
D03*
X293209D02*
D03*
Y237303D02*
D03*
X247539D02*
D03*
Y224311D02*
D03*
X266831D02*
D03*
Y237303D02*
D03*
X221161D02*
D03*
Y224311D02*
D03*
X240453D02*
D03*
Y237303D02*
D03*
X194783D02*
D03*
Y224311D02*
D03*
X214075D02*
D03*
Y237303D02*
D03*
X168405D02*
D03*
Y224311D02*
D03*
X187697D02*
D03*
Y237303D02*
D03*
X142028D02*
D03*
Y224311D02*
D03*
X161319D02*
D03*
Y237303D02*
D03*
X115650D02*
D03*
Y224311D02*
D03*
X134941D02*
D03*
Y237303D02*
D03*
X89272D02*
D03*
Y224311D02*
D03*
X108563D02*
D03*
Y237303D02*
D03*
X62894D02*
D03*
Y224311D02*
D03*
X82185D02*
D03*
Y237303D02*
D03*
X36516D02*
D03*
Y224311D02*
D03*
X55807D02*
D03*
Y237303D02*
D03*
X10138D02*
D03*
Y224311D02*
D03*
X29429D02*
D03*
Y237303D02*
D03*
X511319Y263681D02*
D03*
Y250689D02*
D03*
X530610D02*
D03*
Y263681D02*
D03*
X484941D02*
D03*
Y250689D02*
D03*
X504232D02*
D03*
Y263681D02*
D03*
X458563D02*
D03*
Y250689D02*
D03*
X477854D02*
D03*
Y263681D02*
D03*
X432185D02*
D03*
Y250689D02*
D03*
X451476D02*
D03*
Y263681D02*
D03*
X405807D02*
D03*
Y250689D02*
D03*
X425098D02*
D03*
Y263681D02*
D03*
X379429D02*
D03*
Y250689D02*
D03*
X398721D02*
D03*
Y263681D02*
D03*
X353051D02*
D03*
Y250689D02*
D03*
X372342D02*
D03*
Y263681D02*
D03*
X326673D02*
D03*
Y250689D02*
D03*
X345965D02*
D03*
Y263681D02*
D03*
X300295D02*
D03*
Y250689D02*
D03*
X319587D02*
D03*
Y263681D02*
D03*
X273917D02*
D03*
Y250689D02*
D03*
X293209D02*
D03*
Y263681D02*
D03*
X247539D02*
D03*
Y250689D02*
D03*
X266831D02*
D03*
Y263681D02*
D03*
X221161D02*
D03*
Y250689D02*
D03*
X240453D02*
D03*
Y263681D02*
D03*
X194783D02*
D03*
Y250689D02*
D03*
X214075D02*
D03*
Y263681D02*
D03*
X168405D02*
D03*
Y250689D02*
D03*
X187697D02*
D03*
Y263681D02*
D03*
X142028D02*
D03*
Y250689D02*
D03*
X161319D02*
D03*
Y263681D02*
D03*
X115650D02*
D03*
Y250689D02*
D03*
X134941D02*
D03*
Y263681D02*
D03*
X89272D02*
D03*
Y250689D02*
D03*
X108563D02*
D03*
Y263681D02*
D03*
X62894D02*
D03*
Y250689D02*
D03*
X82185D02*
D03*
Y263681D02*
D03*
X36516D02*
D03*
Y250689D02*
D03*
X55807D02*
D03*
Y263681D02*
D03*
X10138D02*
D03*
Y250689D02*
D03*
X29429D02*
D03*
Y263681D02*
D03*
X511319Y290059D02*
D03*
Y277067D02*
D03*
X530610D02*
D03*
Y290059D02*
D03*
X484941D02*
D03*
Y277067D02*
D03*
X504232D02*
D03*
Y290059D02*
D03*
X458563D02*
D03*
Y277067D02*
D03*
X477854D02*
D03*
Y290059D02*
D03*
X432185D02*
D03*
Y277067D02*
D03*
X451476D02*
D03*
Y290059D02*
D03*
X405807D02*
D03*
Y277067D02*
D03*
X425098D02*
D03*
Y290059D02*
D03*
X379429D02*
D03*
Y277067D02*
D03*
X398721D02*
D03*
Y290059D02*
D03*
X353051D02*
D03*
Y277067D02*
D03*
X372342D02*
D03*
Y290059D02*
D03*
X326673D02*
D03*
Y277067D02*
D03*
X345965D02*
D03*
Y290059D02*
D03*
X300295D02*
D03*
Y277067D02*
D03*
X319587D02*
D03*
Y290059D02*
D03*
X273917D02*
D03*
Y277067D02*
D03*
X293209D02*
D03*
Y290059D02*
D03*
X247539D02*
D03*
Y277067D02*
D03*
X266831D02*
D03*
Y290059D02*
D03*
X221161D02*
D03*
Y277067D02*
D03*
X240453D02*
D03*
Y290059D02*
D03*
X194783D02*
D03*
Y277067D02*
D03*
X214075D02*
D03*
Y290059D02*
D03*
X168405D02*
D03*
Y277067D02*
D03*
X187697D02*
D03*
Y290059D02*
D03*
X142028D02*
D03*
Y277067D02*
D03*
X161319D02*
D03*
Y290059D02*
D03*
X115650D02*
D03*
Y277067D02*
D03*
X134941D02*
D03*
Y290059D02*
D03*
X89272D02*
D03*
Y277067D02*
D03*
X108563D02*
D03*
Y290059D02*
D03*
X62894D02*
D03*
Y277067D02*
D03*
X82185D02*
D03*
Y290059D02*
D03*
X36516D02*
D03*
Y277067D02*
D03*
X55807D02*
D03*
Y290059D02*
D03*
X10138D02*
D03*
Y277067D02*
D03*
X29429D02*
D03*
Y290059D02*
D03*
X511319Y316437D02*
D03*
Y303445D02*
D03*
X530610D02*
D03*
Y316437D02*
D03*
X484941D02*
D03*
Y303445D02*
D03*
X504232D02*
D03*
Y316437D02*
D03*
X458563D02*
D03*
Y303445D02*
D03*
X477854D02*
D03*
Y316437D02*
D03*
X432185D02*
D03*
Y303445D02*
D03*
X451476D02*
D03*
Y316437D02*
D03*
X405807D02*
D03*
Y303445D02*
D03*
X425098D02*
D03*
Y316437D02*
D03*
X379429D02*
D03*
Y303445D02*
D03*
X398721D02*
D03*
Y316437D02*
D03*
X353051D02*
D03*
Y303445D02*
D03*
X372342D02*
D03*
Y316437D02*
D03*
X326673D02*
D03*
Y303445D02*
D03*
X345965D02*
D03*
Y316437D02*
D03*
X300295D02*
D03*
Y303445D02*
D03*
X319587D02*
D03*
Y316437D02*
D03*
X273917D02*
D03*
Y303445D02*
D03*
X293209D02*
D03*
Y316437D02*
D03*
X247539D02*
D03*
Y303445D02*
D03*
X266831D02*
D03*
Y316437D02*
D03*
X221161D02*
D03*
Y303445D02*
D03*
X240453D02*
D03*
Y316437D02*
D03*
X194783D02*
D03*
Y303445D02*
D03*
X214075D02*
D03*
Y316437D02*
D03*
X168405D02*
D03*
Y303445D02*
D03*
X187697D02*
D03*
Y316437D02*
D03*
X142028D02*
D03*
Y303445D02*
D03*
X161319D02*
D03*
Y316437D02*
D03*
X115650D02*
D03*
Y303445D02*
D03*
X134941D02*
D03*
Y316437D02*
D03*
X89272D02*
D03*
Y303445D02*
D03*
X108563D02*
D03*
Y316437D02*
D03*
X62894D02*
D03*
Y303445D02*
D03*
X82185D02*
D03*
Y316437D02*
D03*
X36516D02*
D03*
Y303445D02*
D03*
X55807D02*
D03*
Y316437D02*
D03*
X10138D02*
D03*
Y303445D02*
D03*
X29429D02*
D03*
Y316437D02*
D03*
X511319Y342815D02*
D03*
Y329823D02*
D03*
X530610D02*
D03*
Y342815D02*
D03*
X484941D02*
D03*
Y329823D02*
D03*
X504232D02*
D03*
Y342815D02*
D03*
X458563D02*
D03*
Y329823D02*
D03*
X477854D02*
D03*
Y342815D02*
D03*
X432185D02*
D03*
Y329823D02*
D03*
X451476D02*
D03*
Y342815D02*
D03*
X405807D02*
D03*
Y329823D02*
D03*
X425098D02*
D03*
Y342815D02*
D03*
X379429D02*
D03*
Y329823D02*
D03*
X398721D02*
D03*
Y342815D02*
D03*
X353051D02*
D03*
Y329823D02*
D03*
X372342D02*
D03*
Y342815D02*
D03*
X326673D02*
D03*
Y329823D02*
D03*
X345965D02*
D03*
Y342815D02*
D03*
X300295D02*
D03*
Y329823D02*
D03*
X319587D02*
D03*
Y342815D02*
D03*
X273917D02*
D03*
Y329823D02*
D03*
X293209D02*
D03*
Y342815D02*
D03*
X247539D02*
D03*
Y329823D02*
D03*
X266831D02*
D03*
Y342815D02*
D03*
X221161D02*
D03*
Y329823D02*
D03*
X240453D02*
D03*
Y342815D02*
D03*
X194783D02*
D03*
Y329823D02*
D03*
X214075D02*
D03*
Y342815D02*
D03*
X168405D02*
D03*
Y329823D02*
D03*
X187697D02*
D03*
Y342815D02*
D03*
X142028D02*
D03*
Y329823D02*
D03*
X161319D02*
D03*
Y342815D02*
D03*
X115650D02*
D03*
Y329823D02*
D03*
X134941D02*
D03*
Y342815D02*
D03*
X89272D02*
D03*
Y329823D02*
D03*
X108563D02*
D03*
Y342815D02*
D03*
X62894D02*
D03*
Y329823D02*
D03*
X82185D02*
D03*
Y342815D02*
D03*
X36516D02*
D03*
Y329823D02*
D03*
X55807D02*
D03*
Y342815D02*
D03*
X10138D02*
D03*
Y329823D02*
D03*
X29429D02*
D03*
Y342815D02*
D03*
X511319Y369193D02*
D03*
Y356201D02*
D03*
X530610D02*
D03*
Y369193D02*
D03*
X484941D02*
D03*
Y356201D02*
D03*
X504232D02*
D03*
Y369193D02*
D03*
X458563D02*
D03*
Y356201D02*
D03*
X477854D02*
D03*
Y369193D02*
D03*
X432185D02*
D03*
Y356201D02*
D03*
X451476D02*
D03*
Y369193D02*
D03*
X405807D02*
D03*
Y356201D02*
D03*
X425098D02*
D03*
Y369193D02*
D03*
X379429D02*
D03*
Y356201D02*
D03*
X398721D02*
D03*
Y369193D02*
D03*
X353051D02*
D03*
Y356201D02*
D03*
X372342D02*
D03*
Y369193D02*
D03*
X326673D02*
D03*
Y356201D02*
D03*
X345965D02*
D03*
Y369193D02*
D03*
X300295D02*
D03*
Y356201D02*
D03*
X319587D02*
D03*
Y369193D02*
D03*
X273917D02*
D03*
Y356201D02*
D03*
X293209D02*
D03*
Y369193D02*
D03*
X247539D02*
D03*
Y356201D02*
D03*
X266831D02*
D03*
Y369193D02*
D03*
X221161D02*
D03*
Y356201D02*
D03*
X240453D02*
D03*
Y369193D02*
D03*
X194783D02*
D03*
Y356201D02*
D03*
X214075D02*
D03*
Y369193D02*
D03*
X168405D02*
D03*
Y356201D02*
D03*
X187697D02*
D03*
Y369193D02*
D03*
X142028D02*
D03*
Y356201D02*
D03*
X161319D02*
D03*
Y369193D02*
D03*
X115650D02*
D03*
Y356201D02*
D03*
X134941D02*
D03*
Y369193D02*
D03*
X89272D02*
D03*
Y356201D02*
D03*
X108563D02*
D03*
Y369193D02*
D03*
X62894D02*
D03*
Y356201D02*
D03*
X82185D02*
D03*
Y369193D02*
D03*
X36516D02*
D03*
Y356201D02*
D03*
X55807D02*
D03*
Y369193D02*
D03*
X10138D02*
D03*
Y356201D02*
D03*
X29429D02*
D03*
Y369193D02*
D03*
D25*
X43315Y128593D02*
D03*
X36819D02*
D03*
X43315Y148376D02*
D03*
X36819D02*
D03*
X43315Y138484D02*
D03*
X36819D02*
D03*
X43315Y108809D02*
D03*
X36819D02*
D03*
X43315Y118701D02*
D03*
X36819D02*
D03*
X118799Y65945D02*
D03*
X125295D02*
D03*
X102264D02*
D03*
X108760D02*
D03*
X85778D02*
D03*
X92274D02*
D03*
D26*
X66191Y133465D02*
D03*
Y131496D02*
D03*
Y129528D02*
D03*
Y127559D02*
D03*
Y125591D02*
D03*
Y123622D02*
D03*
Y121653D02*
D03*
Y119685D02*
D03*
Y117717D02*
D03*
Y115748D02*
D03*
Y113779D02*
D03*
Y111811D02*
D03*
Y109843D02*
D03*
Y107874D02*
D03*
Y105905D02*
D03*
Y103937D02*
D03*
X111860D02*
D03*
Y105905D02*
D03*
Y107874D02*
D03*
Y109843D02*
D03*
Y111811D02*
D03*
Y113779D02*
D03*
Y115748D02*
D03*
Y117717D02*
D03*
Y119685D02*
D03*
Y121653D02*
D03*
Y123622D02*
D03*
Y125591D02*
D03*
Y127559D02*
D03*
Y129528D02*
D03*
Y131496D02*
D03*
Y133465D02*
D03*
D27*
X74262Y95866D02*
D03*
X76230D02*
D03*
X78199D02*
D03*
X80167D02*
D03*
X82136D02*
D03*
X84104D02*
D03*
X86073D02*
D03*
X88041D02*
D03*
X90010D02*
D03*
X91978D02*
D03*
X93947D02*
D03*
X95915D02*
D03*
X97884D02*
D03*
X99852D02*
D03*
X101821D02*
D03*
X103789D02*
D03*
Y141535D02*
D03*
X101821D02*
D03*
X99852D02*
D03*
X97884D02*
D03*
X95915D02*
D03*
X93947D02*
D03*
X91978D02*
D03*
X90010D02*
D03*
X88041D02*
D03*
X86073D02*
D03*
X84104D02*
D03*
X82136D02*
D03*
X80167D02*
D03*
X78199D02*
D03*
X76230D02*
D03*
X74262D02*
D03*
D28*
X101870Y154971D02*
D03*
X109153D02*
D03*
X121653Y145079D02*
D03*
X128937D02*
D03*
X432283Y102215D02*
D03*
X425000D02*
D03*
Y92323D02*
D03*
X432283D02*
D03*
D29*
X118701Y82431D02*
D03*
X112402D02*
D03*
X79282D02*
D03*
X85581D02*
D03*
D30*
X468209Y110679D02*
D03*
X464468Y120128D02*
D03*
X471949D02*
D03*
D31*
X446998Y118701D02*
D03*
X456447Y122441D02*
D03*
Y114961D02*
D03*
X467766Y134744D02*
D03*
X458317Y131004D02*
D03*
Y138484D02*
D03*
D32*
X125403Y49459D02*
D03*
Y54459D02*
D03*
X120404Y49459D02*
D03*
X115403D02*
D03*
X120404Y54459D02*
D03*
X115403D02*
D03*
X110404Y49459D02*
D03*
X105403D02*
D03*
X110404Y54459D02*
D03*
X105403D02*
D03*
D33*
X468209Y92323D02*
D03*
D34*
X460335D02*
D03*
X425345Y155295D02*
D03*
X415344D02*
D03*
X425345Y145295D02*
D03*
X415344D02*
D03*
X425345Y135295D02*
D03*
X415344D02*
D03*
X425345Y125295D02*
D03*
D35*
X151673Y191240D02*
D03*
Y217618D02*
D03*
Y243996D02*
D03*
Y270374D02*
D03*
Y296752D02*
D03*
X389075Y191240D02*
D03*
Y217618D02*
D03*
Y243996D02*
D03*
Y270374D02*
D03*
Y296752D02*
D03*
Y323130D02*
D03*
Y349508D02*
D03*
X151673Y323130D02*
D03*
Y349508D02*
D03*
D36*
X520965Y148376D02*
D03*
X418750Y39567D02*
D03*
X125295Y26378D02*
D03*
D37*
X415344Y125295D02*
D03*
D38*
X131890Y112106D02*
D03*
X69242Y158268D02*
D03*
X131600Y123173D02*
D03*
X123033Y115797D02*
D03*
X128593Y115096D02*
D03*
X125573Y119468D02*
D03*
X131890Y118701D02*
D03*
D39*
X19783Y362697D02*
D03*
X16486Y141781D02*
D03*
X26378Y131890D02*
D03*
X412155Y72539D02*
D03*
X448425Y128593D02*
D03*
X451722Y135187D02*
D03*
X9892Y145079D02*
D03*
X23081Y148376D02*
D03*
Y138484D02*
D03*
X16486Y204429D02*
D03*
X19783Y178051D02*
D03*
Y257185D02*
D03*
Y309941D02*
D03*
X85728Y59350D02*
D03*
X151673Y72539D02*
D03*
X389075Y98917D02*
D03*
X422047Y65945D02*
D03*
X412155Y82431D02*
D03*
X464911Y125295D02*
D03*
X151673Y19783D02*
D03*
Y46161D02*
D03*
Y98917D02*
D03*
Y125295D02*
D03*
X19783Y230807D02*
D03*
Y283563D02*
D03*
Y336319D02*
D03*
D40*
X459323Y110352D02*
D03*
X451722Y145079D02*
D03*
X474803Y125295D02*
D03*
D41*
X389075Y46161D02*
D03*
Y72539D02*
D03*
Y125295D02*
D03*
Y151673D02*
D03*
X520965Y204429D02*
D03*
Y257185D02*
D03*
Y309941D02*
D03*
Y362697D02*
D03*
M02*
